<?xml version="1.0" standalone="no"?>
<!DOCTYPE svg PUBLIC "-//W3C//DTD SVG 1.1//EN" "http://www.w3.org/Graphics/SVG/1.1/DTD/svg11.dtd" >
<svg xmlns="http://www.w3.org/2000/svg" xmlns:xlink="http://www.w3.org/1999/xlink" version="1.1">
<metadata></metadata>
<defs>
<font id="concourse_t7regular" horiz-adv-x="540" >
<font-face units-per-em="1000" ascent="742" descent="-258" />
<missing-glyph horiz-adv-x="230" />
<glyph unicode="&#x3c;&#x2d;" horiz-adv-x="700" d="M306 546l106 -96l-104 -112h315v-149h-312l101 -109l-106 -97l-237 276v13z" />
<glyph unicode="&#x2d;&#x3e;" horiz-adv-x="700" d="M631 272v-13l-237 -276l-106 97l100 109h-311v149h314l-103 112l106 96z" />
<glyph unicode="fi" horiz-adv-x="630" d="M265 331v-331h-180v331h-65v109l65 37v23q0 24 9 49.5t26 49t41 43.5t55 33l150 17l9 -99q-28 -5 -49 -17t-34.5 -28.5t-20 -35.5t-6.5 -37v-7h80v-137h-80zM585 473v-473h-180v454zM394 602q0 18 8 33.5t21.5 27t32 18.5t39.5 7t39.5 -7t32 -18.5t21.5 -27t8 -33.5 t-8 -33.5t-21.5 -27t-32 -18.5t-39.5 -7t-39.5 7t-32 18.5t-21.5 27t-8 33.5z" />
<glyph unicode="fl" horiz-adv-x="630" d="M265 331v-331h-180v331h-65v109l65 37v23q0 24 9 49.5t26 49t41 43.5t55 33l150 17l9 -99q-28 -5 -49 -17t-34.5 -28.5t-20 -35.5t-6.5 -37v-7h80v-137h-80zM585 692v-692h-180v677z" />
<glyph unicode="&#x28;&#x3c;&#x2d;&#x29;" horiz-adv-x="880" d="M161 272v-13l237 -276l106 97l-101 109h312v149h-315l104 112l-106 96zM822 263q0 -78 -30 -147.5t-81.5 -121t-121 -81.5t-147.5 -30q-80 0 -149.5 30t-122 81.5t-82.5 121t-30 147.5q0 79 30 149t82.5 122t122 82t149.5 30q78 0 147.5 -30t121 -82t81.5 -122t30 -149z " />
<glyph unicode="&#x28;&#x2d;&#x3e;&#x29;" horiz-adv-x="880" d="M482 546l-106 -96l104 -112h-315v-149h312l-101 -109l106 -97l237 276v13zM58 263q0 79 30 149t81.5 122t121 82t147.5 30q79 0 149 -30t122.5 -82t82.5 -122t30 -149q0 -78 -30 -147.5t-82.5 -121t-122.5 -81.5t-149 -30q-78 0 -147.5 30t-121 81.5t-81.5 121t-30 147.5 z" />
<glyph unicode="&#x28;&#x2191;&#x29;" horiz-adv-x="880" d="M447 543h-13l-276 -237l97 -106l109 101v-312h149v315l112 -104l96 106zM438 -118q-78 0 -147.5 30t-121 81.5t-81.5 121t-30 147.5q0 79 30 149t81.5 122.5t121 82.5t147.5 30q79 0 149 -30t122 -82.5t82 -122.5t30 -149q0 -78 -30 -147.5t-82 -121t-122 -81.5t-149 -30 z" />
<glyph unicode="&#x28;&#x2193;&#x29;" horiz-adv-x="880" d="M721 222l-96 106l-112 -104v315h-149v-312l-109 101l-97 -106l276 -237h13zM438 646q79 0 149 -30t122 -81.5t82 -121t30 -147.5q0 -80 -30 -149.5t-82 -122t-122 -82.5t-149 -30q-78 0 -147.5 30t-121 82.5t-81.5 122t-30 149.5q0 78 30 147.5t81.5 121t121 81.5 t147.5 30z" />
<glyph horiz-adv-x="0" />
<glyph horiz-adv-x="0" />
<glyph unicode=" "  horiz-adv-x="230" />
<glyph unicode="&#x09;" horiz-adv-x="230" />
<glyph unicode="&#xa0;" horiz-adv-x="230" />
<glyph unicode="!" horiz-adv-x="350" d="M256 445l-20 -207h-118l-21 206l-22 236h200zM86 89q0 38 26 64t66 26q46 0 70 -28.5t24 -65.5q0 -19 -7 -36t-19 -29.5t-29 -19.5t-37 -7q-42 0 -68 26t-26 70z" />
<glyph unicode="&#x22;" horiz-adv-x="510" d="M64 680h162l-29 -314h-105zM284 680h162l-29 -314h-105z" />
<glyph unicode="#" d="M270 508l74 -13l54 224l77 -17l-54 -221l97 -17l-17 -93l-102 18l-33 -136l89 -15l-14 -88l-96 17l-57 -238l-77 18l56 233l-73 13l-61 -251l-77 18l60 247l-96 17l14 88l103 -18l32 135l-89 16l17 93l95 -17l51 211l77 -17zM215 280l73 -13l33 135l-74 13z" />
<glyph unicode="$" horiz-adv-x="510" d="M191 -62l9 94q-51 6 -96 21.5t-75 32.5l39 137q30 -18 68 -33.5t83 -19.5l11 117q-5 2 -9.5 4t-9.5 5q-31 14 -61 31.5t-54 40.5t-39 54t-15 73q0 34 14 64.5t41.5 54t69 37.5t96.5 14l9 84l61 -6l-8 -82q42 -6 78 -18t64 -28l-34 -146q-33 18 -63.5 31.5t-63.5 19.5 l-10 -100l13 -5q52 -23 85 -47.5t52.5 -50.5t27 -52.5t7.5 -54.5q0 -48 -19 -81.5t-50 -55t-70.5 -32t-79.5 -12.5l-10 -97zM327 209q0 15 -9 26t-38 26l-9 -91q29 3 42.5 13.5t13.5 25.5zM195 495q0 -15 10 -25.5t41 -25.5l8 81q-31 0 -45 -8.5t-14 -21.5z" />
<glyph unicode="%" horiz-adv-x="680" d="M306 341l245 348l56 -31l-252 -339l-232 -328l-56 33zM635 146q0 -35 -11.5 -63.5t-31 -49.5t-46.5 -32.5t-57 -11.5q-31 0 -58 11.5t-46.5 32.5t-30.5 49.5t-11 63.5t11 65t30 51.5t45 34t57 12.5q34 0 61.5 -12.5t47 -34t30 -51.5t10.5 -65zM532 147q0 33 -11.5 53.5 t-31.5 20.5q-19 0 -31 -21t-12 -53t12.5 -51t33.5 -19q16 0 28 18.5t12 51.5zM337 528q0 -35 -11.5 -63.5t-31 -49.5t-46.5 -32.5t-57 -11.5q-31 0 -58 11.5t-46.5 32.5t-30.5 49.5t-11 63.5t11 65t30 51.5t45 34t57 12.5q34 0 61.5 -12.5t47 -34t30 -51.5t10.5 -65z M234 529q0 33 -11.5 53.5t-31.5 20.5q-19 0 -31 -21t-12 -53t12.5 -51t33.5 -19q16 0 28 18.5t12 51.5z" />
<glyph unicode="&#x26;" horiz-adv-x="710" d="M619 316q14 -23 21.5 -48.5t7.5 -48.5q0 -53 -23.5 -96t-66 -73.5t-101 -47.5t-127.5 -17q-71 0 -126 17.5t-93 46.5t-58 68t-20 82q0 40 10.5 71.5t28.5 55.5t41 41.5t48 30.5v5q-44 27 -61 58t-17 66q0 36 19 67t51.5 53.5t75.5 35t91 12.5q67 0 113 -14t84 -31 l-44 -137h-5q-28 14 -56.5 21.5t-60.5 7.5q-40 0 -64 -14t-24 -38q0 -22 14 -38t46 -24v-73q-22 -4 -42 -14t-35 -25t-24 -34t-9 -41q0 -50 37.5 -75t92.5 -25q32 0 59.5 7.5t47.5 21t31 32t11 39.5q0 11 -1.5 22t-5.5 21l-69 -16l-28 118l267 62l28 -117z" />
<glyph unicode="'" horiz-adv-x="290" d="M64 680h162l-29 -314h-105z" />
<glyph unicode="(" horiz-adv-x="450" d="M344 -200q-54 40 -106 89t-92.5 108t-65.5 129.5t-25 153.5q0 84 23.5 155.5t63.5 131.5t92.5 108.5t109.5 84.5l76 -100q-41 -31 -75.5 -69t-60 -84.5t-40 -103t-14.5 -123.5q0 -113 55.5 -209.5t149.5 -165.5z" />
<glyph unicode=")" horiz-adv-x="450" d="M15 -95q94 69 149.5 165.5t55.5 209.5q0 67 -14.5 123.5t-40 103t-60.5 84.5t-75 69l76 100q57 -36 109.5 -84.5t92.5 -108.5t63.5 -131.5t23.5 -155.5q0 -83 -25 -153.5t-65.5 -129.5t-92.5 -108t-106 -89z" />
<glyph unicode="*" horiz-adv-x="530" d="M292 493l144 92l37 -136l-162 -13l147 -118l-101 -91l-93 164l-88 -170l-106 100l146 114l-158 9l35 129l142 -77l-37 184h142z" />
<glyph unicode="+" horiz-adv-x="530" d="M320 356h177v-110h-177v-177h-110v177h-177v110h177v177h110v-177z" />
<glyph unicode="," horiz-adv-x="310" d="M10 -151l92 269h187v-5l-175 -269h-104v5z" />
<glyph unicode="-" horiz-adv-x="370" d="M325 309v-139h-280v139h280z" />
<glyph unicode="." horiz-adv-x="290" d="M52 86q0 19 7.5 36t20 29.5t29.5 20t36 7.5t36 -7.5t29.5 -20t20 -29.5t7.5 -36t-7.5 -36t-20 -29.5t-29.5 -20t-36 -7.5t-36 7.5t-29.5 20t-20 29.5t-7.5 36z" />
<glyph unicode="/" horiz-adv-x="510" d="M380 700h120l-370 -860h-120z" />
<glyph unicode="0" horiz-adv-x="620" d="M590 347q0 -89 -20.5 -157t-57.5 -113.5t-88 -68.5t-112 -23q-57 0 -108.5 20.5t-90 64.5t-61 112.5t-22.5 164.5q0 88 22.5 153.5t61 109t90 64.5t108.5 21q61 0 112 -22t88 -65.5t57.5 -108.5t20.5 -152zM400 349q0 52 -7 87.5t-19 58t-29 32.5t-37 10q-18 0 -34 -9.5 t-28 -32t-19 -58.5t-7 -88q0 -61 7.5 -100.5t20 -63t29.5 -33t36 -9.5q21 0 37 10.5t27 34.5t17 63.5t6 97.5z" />
<glyph unicode="1" horiz-adv-x="520" d="M200 0v499l-129 -13l-13 173l317 30l13 -12v-677h-188z" />
<glyph unicode="2" horiz-adv-x="590" d="M50 620q16 15 41.5 29t56 24t66 16t73.5 6q48 0 94 -10.5t81.5 -34t57 -60t21.5 -88.5q0 -91 -60.5 -176.5t-172.5 -157.5l2 -5l241 15v-178h-502l-23 75q87 68 148 127t99.5 107t55.5 85.5t17 62.5q0 38 -21 55t-68 17q-41 0 -86.5 -18t-80.5 -42z" />
<glyph unicode="3" horiz-adv-x="570" d="M36 182q48 -20 96 -30.5t95 -10.5q49 0 81.5 16t32.5 52q0 28 -23.5 47t-68.5 17l-150 -6l8 149l138 -6q23 -1 39 4.5t26 14.5t14.5 20t4.5 23q0 32 -25.5 49t-77.5 17q-46 0 -86 -12t-66 -23h-8l9 161q26 10 76.5 20.5t114.5 10.5q51 0 96.5 -11t80.5 -33.5t55.5 -56 t20.5 -78.5q0 -61 -29 -102t-84 -64v-5q27 -7 50 -21.5t39.5 -35.5t26 -47t9.5 -54q0 -43 -15 -74.5t-38.5 -54t-54 -37t-62 -22.5t-60.5 -11t-51 -3q-63 0 -117 10t-98 27l-4 160h5z" />
<glyph unicode="4" horiz-adv-x="610" d="M575 170h-60v-170h-185v170h-284l-16 69l285 441h200v-372l60 2v-140zM330 301v197h-5l-116 -197v-4z" />
<glyph unicode="5" horiz-adv-x="570" d="M50 320l48 360h408l-10 -158l-266 10l-12 -91q10 1 20.5 1.5t19.5 0.5q72 0 124 -17.5t86 -47t50 -67.5t16 -78q0 -62 -29 -108.5t-78.5 -77.5t-115.5 -46.5t-141 -15.5q-45 0 -75.5 3.5t-53.5 10.5l16 144q19 -5 48 -8t47 -3q49 0 84.5 8.5t58.5 22t33.5 31t10.5 35.5 q0 45 -50.5 69t-138.5 24q-26 0 -48.5 -1t-45.5 -4z" />
<glyph unicode="6" horiz-adv-x="590" d="M243 397q21 15 47.5 24t64.5 9q35 0 72 -13.5t68 -41t50.5 -69t19.5 -97.5t-20.5 -97.5t-55 -70t-81 -42.5t-98.5 -14q-74 0 -126 22.5t-85 60.5t-48.5 88t-15.5 105q0 105 40 183.5t107 132t155 82t184 31.5l-14 -146q-57 -3 -102 -16t-78.5 -32.5t-55 -44t-31.5 -51.5z M375 212q0 52 -23.5 75t-55.5 23q-20 0 -35 -7t-32 -21q-6 -29 -4 -57t11.5 -50t26.5 -35.5t42 -13.5q29 0 49.5 20.5t20.5 65.5z" />
<glyph unicode="7" horiz-adv-x="560" d="M561 668q-108 -165 -167 -331t-63 -337h-210q10 73 30 145.5t48 139.5t62.5 127t73.5 110l-4 4l-290 -11l10 165h500z" />
<glyph unicode="8" horiz-adv-x="590" d="M30 170q0 32 11.5 59.5t30.5 49.5t41.5 37.5t45.5 23.5v2q-61 41 -85 84t-24 83q0 38 16 71.5t47.5 59t79 40.5t110.5 15q50 0 93.5 -12t75.5 -35t50 -55.5t18 -72.5q0 -54 -25.5 -91t-85.5 -69v-3q39 -23 64.5 -45.5t40 -45.5t20.5 -45.5t6 -45.5q0 -41 -18 -76 t-52 -60.5t-83.5 -39.5t-113.5 -14q-61 0 -110 14t-83 38.5t-52 58.5t-18 74zM379 181q0 25 -24.5 50t-86.5 55q-29 -17 -41.5 -42t-12.5 -49q0 -35 24.5 -54.5t60.5 -19.5q32 0 56 14.5t24 45.5zM229 504q0 -9 4 -18.5t14.5 -20.5t29 -24.5t48.5 -29.5q23 17 31.5 39 t8.5 41q0 29 -19.5 48.5t-51.5 19.5q-29 0 -47 -16t-18 -39z" />
<glyph unicode="9" horiz-adv-x="590" d="M104 128q51 10 95 26t77 36t54.5 44.5t28.5 51.5l-3 3q-45 -39 -129 -39q-33 0 -68 13.5t-64.5 40.5t-48.5 67t-19 93q0 55 21.5 98t57 72.5t81.5 45t96 15.5q68 0 119.5 -22.5t86 -62t51.5 -92.5t17 -114q0 -93 -31 -161.5t-84.5 -118t-124.5 -82t-151 -52.5l-62 130v8z M217 458q0 -45 22.5 -66.5t54.5 -21.5q37 0 69 33q5 22 5 48.5t-7.5 49.5t-24 38t-44.5 15q-35 0 -55 -26.5t-20 -69.5z" />
<glyph unicode=":" horiz-adv-x="330" d="M72 86q0 19 7.5 36t20 29.5t29.5 20t36 7.5t36 -7.5t29.5 -20t20 -29.5t7.5 -36t-7.5 -36t-20 -29.5t-29.5 -20t-36 -7.5t-36 7.5t-29.5 20t-20 29.5t-7.5 36zM72 356q0 19 7.5 36t20 29.5t29.5 20t36 7.5t36 -7.5t29.5 -20t20 -29.5t7.5 -36t-7.5 -36t-20 -29.5 t-29.5 -20t-36 -7.5t-36 7.5t-29.5 20t-20 29.5t-7.5 36z" />
<glyph unicode=";" horiz-adv-x="330" d="M88 356q0 19 7.5 36t20 29.5t29.5 20t36 7.5t36 -7.5t29.5 -20t20 -29.5t7.5 -36t-7.5 -36t-20 -29.5t-29.5 -20t-36 -7.5t-36 7.5t-29.5 20t-20 29.5t-7.5 36zM10 -151l92 269h187v-5l-175 -269h-104v5z" />
<glyph unicode="&#x3c;" horiz-adv-x="530" d="M196 323l303 -143l-45 -100l-404 200v82l404 200l45 -100z" />
<glyph unicode="=" horiz-adv-x="530" d="M43 146v110h444v-110h-444zM43 338v110h444v-110h-444z" />
<glyph unicode="&#x3e;" horiz-adv-x="530" d="M31 462l45 100l404 -200v-82l-404 -200l-45 100l303 143z" />
<glyph unicode="?" horiz-adv-x="490" d="M71 533l9 139q15 7 47 15t83 8q55 0 99.5 -14t76 -39.5t48 -60t16.5 -76.5q0 -47 -20 -81t-51.5 -58t-69.5 -38t-74 -20v-70h-132v173q32 2 63 7t55 15t39 26t15 41q0 27 -23 42.5t-58 15.5q-29 0 -59.5 -6.5t-54.5 -18.5h-9zM76 89q0 38 26 64t66 26q46 0 70 -28.5 t24 -65.5q0 -19 -7 -36t-19 -29.5t-29 -19.5t-37 -7q-42 0 -68 26t-26 70z" />
<glyph unicode="@" horiz-adv-x="720" d="M580 -36q-48 -29 -96.5 -38.5t-99.5 -9.5q-63 0 -123.5 20.5t-108.5 65.5t-77.5 116t-29.5 172q0 86 30.5 161t83.5 130.5t125.5 87t155.5 31.5q51 0 96.5 -11t79 -33.5t51 -57t13.5 -82.5l-24 -268q-2 -28 6 -48.5t20 -33.5l-1 -10l-118 -29l-26 59h-7q-48 -46 -113 -46 q-31 0 -58.5 10t-48 29.5t-32.5 49t-12 67.5t15 70t41 55.5t62 36.5t77 13q20 0 42.5 -2t39.5 -6l6 45q5 42 -27 58t-87 16q-56 0 -103.5 -22t-82.5 -60.5t-54.5 -91.5t-19.5 -114q0 -69 18.5 -118t48.5 -80t68.5 -45t79.5 -14q50 0 85.5 10t55.5 26h5zM537 365 q-14 2 -32 4.5t-34 2.5q-35 0 -58 -17.5t-23 -49.5q0 -31 18 -42t43 -11q18 0 39.5 6.5t39.5 17.5z" />
<glyph unicode="A" horiz-adv-x="700" d="M462 107h-226l-41 -107h-190l263 680h160l267 -680h-190zM288 249h121l-55 190h-9z" />
<glyph unicode="B" horiz-adv-x="610" d="M460 354q66 -19 95.5 -62.5t29.5 -95.5q0 -93 -71 -144.5t-195 -51.5h-264v680h252q63 0 109.5 -13t76.5 -36t44.5 -54t14.5 -67q0 -19 -5 -41t-16.5 -43t-29 -39t-41.5 -28v-5zM241 276v-128h87q24 0 45 16t21 48q0 29 -20 46.5t-47 17.5h-86zM370 464q0 29 -19.5 47.5 t-47.5 18.5h-62v-128h64q26 0 45.5 17t19.5 45z" />
<glyph unicode="C" horiz-adv-x="650" d="M560 467q-37 30 -80 44t-82 13q-33 0 -63.5 -12t-54 -35.5t-37 -59t-13.5 -83.5q0 -45 14 -78.5t38.5 -55.5t56.5 -32.5t68 -10.5q42 0 85.5 16.5t72.5 41.5h5l55 -152q-54 -42 -117.5 -60t-126.5 -18q-78 0 -142 26t-109 71.5t-70 108.5t-25 138q0 81 28 148t75.5 115.5 t110.5 75.5t134 27q56 0 112.5 -14.5t124.5 -56.5l-55 -157h-5z" />
<glyph unicode="D" horiz-adv-x="690" d="M294 160q36 0 67 12.5t54.5 36t36.5 56t13 71.5q0 48 -15.5 83t-40 57.5t-54 33t-57.5 10.5h-55v-360h51zM55 0v680h234q75 0 142 -22.5t116.5 -66.5t78.5 -108.5t29 -148.5q0 -75 -28 -136.5t-77.5 -105.5t-116 -68t-143.5 -24h-235z" />
<glyph unicode="E" d="M493 516h-250v-95h216v-154h-216v-103h260v-164h-448v680h438v-164z" />
<glyph unicode="F" horiz-adv-x="520" d="M493 516h-250v-105h216v-159h-216v-252h-188v680h438v-164z" />
<glyph unicode="G" horiz-adv-x="720" d="M411 529q-39 0 -72 -13.5t-57 -38.5t-38 -61.5t-14 -82.5q0 -45 14.5 -79t38 -56.5t54 -34t62.5 -11.5q33 0 53.5 8t37.5 22v79h-139v151h314v-332q-45 -38 -115 -66.5t-164 -28.5q-77 0 -141 24t-111 69t-73 108.5t-26 142.5q0 74 25 140.5t71.5 116.5t113 79.5 t148.5 29.5q78 0 140.5 -23.5t104.5 -52.5l-58 -151h-5q-31 26 -73.5 43.5t-90.5 17.5z" />
<glyph unicode="H" horiz-adv-x="710" d="M655 0h-188v261h-224v-261h-188v680h188v-253h224v253h188v-680z" />
<glyph unicode="I" horiz-adv-x="320" d="M254 0h-188v680h188v-680z" />
<glyph unicode="J" horiz-adv-x="500" d="M63 180q22 -17 48.5 -22.5t43.5 -5.5q43 0 72.5 30t29.5 90v408h188v-444q0 -63 -23 -110t-59.5 -78.5t-83 -47t-93.5 -15.5q-54 0 -96.5 10t-71.5 28l40 157h5z" />
<glyph unicode="K" horiz-adv-x="680" d="M673 0h-230l-193 288h-7v-288h-188v680h188v-269h7l186 269h218v-5l-233 -318l252 -354v-3z" />
<glyph unicode="L" horiz-adv-x="520" d="M243 166h247v-166h-435v680h188v-514z" />
<glyph unicode="M" horiz-adv-x="870" d="M601 307l-136 -307h-60l-136 307h-5l-44 -307h-195l113 680h117l181 -376h4l175 376h117l113 -680h-195l-44 307h-5z" />
<glyph unicode="N" horiz-adv-x="760" d="M512 313h5v367h188v-680h-142l-315 362h-5v-362h-188v680h140z" />
<glyph unicode="O" horiz-adv-x="780" d="M745 335q0 -79 -27 -143.5t-74.5 -110.5t-112.5 -71t-140 -25q-78 0 -143.5 24t-113 69.5t-73.5 110.5t-26 146t28.5 147t77.5 113.5t113.5 73.5t136.5 26q73 0 137.5 -25.5t112.5 -72.5t76 -113.5t28 -148.5zM550 337q0 46 -13 82t-35 60t-51.5 36.5t-62.5 12.5 q-32 0 -60.5 -12t-50 -36t-34.5 -60t-13 -83q0 -45 12.5 -79.5t34.5 -58t52 -35.5t66 -12q68 0 111.5 48t43.5 137z" />
<glyph unicode="P" horiz-adv-x="590" d="M567 450q0 -50 -19.5 -92t-54 -73t-83 -48.5t-106.5 -17.5h-61v-219h-188v680h250q123 0 192.5 -58.5t69.5 -171.5zM377 450q0 40 -25.5 60t-63.5 20h-45v-165h45q16 0 32 5.5t28.5 16t20.5 26.5t8 37z" />
<glyph unicode="Q" horiz-adv-x="780" d="M113 -80l59 135q-30 21 -55 50t-43 65.5t-28.5 79t-10.5 89.5q0 72 27 136.5t74 113.5t110.5 77.5t137.5 28.5q78 0 144 -26.5t114.5 -73.5t75.5 -112.5t27 -143.5q0 -81 -28 -145.5t-76 -109.5t-112 -69.5t-136 -24.5v-7q49 -23 113 -32.5t142 0.5l3 -6l-52 -156 q-57 -1 -105.5 7.5t-90.5 22.5t-79 30.5t-72 30.5t-68.5 24t-68.5 11zM550 337q0 46 -13 82t-35 60t-51.5 36.5t-62.5 12.5q-32 0 -60.5 -12t-50 -36t-34.5 -60t-13 -83q0 -45 12.5 -79.5t34.5 -58t52 -35.5t66 -12q68 0 111.5 48t43.5 137z" />
<glyph unicode="R" horiz-adv-x="640" d="M635 0h-210l-169 271h-13v-271h-188v680h254q61 0 108.5 -15t80.5 -42t50 -64t17 -81q0 -72 -34.5 -119.5t-91.5 -69.5l196 -284v-5zM375 459q0 33 -20.5 52.5t-55.5 19.5h-56v-143h57q32 0 53.5 16.5t21.5 54.5z" />
<glyph unicode="S" horiz-adv-x="570" d="M81 219q41 -31 89.5 -48.5t93.5 -17.5t64.5 12.5t19.5 30.5q0 11 -8 20t-21 17t-30 15.5t-36 16.5q-51 23 -89.5 47.5t-64.5 52.5t-39 62t-13 77q0 36 15.5 70t45.5 61t73.5 43.5t99.5 16.5q72 0 130.5 -17.5t110.5 -46.5l-51 -165q-47 31 -92.5 46t-87.5 15 q-23 0 -39.5 -6.5t-16.5 -26.5q0 -12 10.5 -22.5t28.5 -21.5t41.5 -22t50.5 -24q53 -26 86.5 -52.5t52 -54t25.5 -56t7 -56.5q0 -55 -23 -93t-60 -62t-83.5 -34.5t-92.5 -10.5q-76 0 -144 20.5t-108 51.5z" />
<glyph unicode="T" horiz-adv-x="580" d="M384 514v-514h-188v514h-176v166h540v-166h-176z" />
<glyph unicode="U" horiz-adv-x="710" d="M655 260q0 -53 -18 -102.5t-55.5 -88t-94 -61.5t-132.5 -23q-86 0 -144 23t-92.5 60t-49 84t-14.5 95v433h188v-410q0 -24 6 -45.5t19.5 -37.5t34.5 -25.5t52 -9.5q23 0 43.5 6t35.5 19.5t24 36.5t9 56v410h188v-420z" />
<glyph unicode="V" horiz-adv-x="660" d="M330 303h4l126 377h205l-270 -680h-130l-270 680h205z" />
<glyph unicode="W" horiz-adv-x="900" d="M448 337l-98 -337h-145l-210 680h200l87 -361h5l98 361h130l98 -361h5l87 361h200l-210 -680h-145l-97 337h-5z" />
<glyph unicode="X" horiz-adv-x="670" d="M222 347l-212 333h210l115 -186l120 186h210l-218 -333l223 -347h-210l-125 201l-125 -201h-210z" />
<glyph unicode="Y" horiz-adv-x="630" d="M315 452l125 228h200l-231 -392v-288h-188v288l-231 392h200z" />
<glyph unicode="Z" horiz-adv-x="630" d="M317 520h-283v160h577l5 -6l-307 -510l3 -4h292v-160h-585l-5 9l306 508z" />
<glyph unicode="[" horiz-adv-x="450" d="M270 599l-6 -312l6 -326l135 4v-125l-305 -4l8 454l-8 434l299 -4v-125z" />
<glyph unicode="\" horiz-adv-x="510" d="M500 -160h-120l-370 860h120z" />
<glyph unicode="]" horiz-adv-x="450" d="M51 595v125l299 4l-8 -434l8 -454l-305 4v125l135 -4l6 326l-6 312z" />
<glyph unicode="^" horiz-adv-x="530" d="M500 314l-58 -33l-172 300h-8l-175 -300l-57 33l222 377h27z" />
<glyph unicode="_" horiz-adv-x="530" d="M555 -110v-110h-580v110h580z" />
<glyph unicode="`" horiz-adv-x="500" d="M337 463h-101l-149 152v10h144l106 -154v-8z" />
<glyph unicode="a" horiz-adv-x="500" d="M487 34l-117 -49q-21 5 -35 20.5t-19 31.5h-5q-24 -23 -57 -37t-79 -14q-32 0 -60 9.5t-49 27.5t-33 44.5t-12 61.5q0 37 14.5 65.5t40 48t61 29.5t77.5 10q21 0 37 -2.5t34 -4.5v23q0 23 -18.5 34t-46.5 11q-31 0 -66 -9.5t-66 -26.5l-35 129q16 9 39.5 17.5t50.5 14.5 t56.5 10t58.5 4q39 0 74.5 -9.5t62.5 -31.5t43.5 -56.5t16.5 -83.5v-175q0 -33 10 -50.5t22 -27.5v-14zM285 186q-19 12 -46 12q-21 0 -35 -14.5t-14 -34.5t11 -31t27 -11t31 7.5t26 25.5v46z" />
<glyph unicode="b" d="M227 447q19 16 44 25.5t51 9.5q46 0 82 -18.5t61 -50t38.5 -75t13.5 -92.5q0 -57 -17.5 -104.5t-51 -82t-83 -54t-113.5 -19.5q-56 0 -110.5 15t-99.5 56v620l180 15v-245h5zM222 146q8 -9 21 -13.5t24 -4.5q28 0 49 25t21 87q0 45 -17.5 72.5t-47.5 27.5q-17 0 -31 -9 t-19 -17v-168z" />
<glyph unicode="c" horiz-adv-x="440" d="M402 305q-18 14 -42.5 24.5t-53.5 10.5q-22 0 -41 -8.5t-32.5 -22.5t-21.5 -34t-8 -42q0 -27 8.5 -46.5t23 -32.5t32.5 -19.5t37 -6.5q30 0 55.5 8t47.5 22h6v-135q-29 -19 -67.5 -28t-83.5 -9q-62 0 -107 19t-74.5 51t-43.5 74.5t-14 89.5q0 57 20.5 105t54.5 83 t79 54.5t95 19.5q44 0 77 -10t59 -27v-140h-6z" />
<glyph unicode="d" d="M328 49q-17 -20 -35 -32.5t-35 -19.5t-32 -9t-25 -2q-37 0 -69.5 15t-56.5 43.5t-38 71t-14 96.5q0 55 14 104t39.5 86t61.5 58.5t80 21.5q30 0 54.5 -8.5t41.5 -26.5h4v230l180 15v-692h-148l-17 49h-5zM266 128q13 0 28 6.5t24 20.5v160q-5 9 -18.5 17t-30.5 8 q-32 0 -49 -33.5t-17 -84.5q0 -48 17.5 -71t45.5 -23z" />
<glyph unicode="e" horiz-adv-x="500" d="M193 193q0 -22 10 -36t26 -21.5t35 -10t37 -2.5q19 0 40.5 2.5t42 7t38 11t29.5 14.5h4l-10 -127q-35 -23 -88 -34t-102 -11q-47 0 -89.5 13t-74 40t-50 70t-18.5 103t20 109.5t53.5 85t77.5 55.5t92 20q47 0 86 -16.5t66.5 -44.5t43 -63.5t15.5 -74.5q0 -16 -3 -41 t-13 -49h-268zM323 271q2 35 -16 54.5t-42 19.5q-27 0 -47 -21.5t-23 -52.5h128z" />
<glyph unicode="f" horiz-adv-x="360" d="M265 331v-331h-180v331h-65v109l65 37v23q0 24 9 49.5t26 49t41 43.5t55 33l150 17l9 -99q-28 -5 -49 -17t-34.5 -28.5t-20 -35.5t-6.5 -37v-7h80v-137h-80z" />
<glyph unicode="g" d="M498 464v-424q0 -63 -22 -109.5t-59 -77t-85.5 -45.5t-102.5 -15q-46 0 -93 11t-84 37l43 134q23 -17 56.5 -27t66.5 -10q17 0 35.5 3.5t34 11t25.5 20t10 30.5v42h-5q-26 -23 -55 -30t-47 -7q-41 0 -76 14t-61 41t-41 67t-15 92q0 53 17 100t48.5 82.5t76 56.5t98.5 21 q35 0 65 -12.5t56 -33.5l62 35zM266 150q13 0 28 6.5t24 20.5v138q-5 9 -18.5 17t-30.5 8q-32 0 -49 -32t-17 -81q0 -42 17.5 -59.5t45.5 -17.5z" />
<glyph unicode="h" d="M229 413q18 28 49.5 48.5t80.5 20.5q22 0 46.5 -8.5t45 -26.5t34 -46t13.5 -67v-334h-180v279q0 26 -13.5 39.5t-29.5 13.5q-20 0 -33.5 -10t-19.5 -21v-301h-180v677l180 15v-279h7z" />
<glyph unicode="i" horiz-adv-x="270" d="M225 473v-473h-180v454zM34 602q0 18 8 33.5t21.5 27t32 18.5t39.5 7t39.5 -7t32 -18.5t21.5 -27t8 -33.5t-8 -33.5t-21.5 -27t-32 -18.5t-39.5 -7t-39.5 7t-32 18.5t-21.5 27t-8 33.5z" />
<glyph unicode="j" horiz-adv-x="270" d="M45 454l180 19v-457q0 -69 -19 -119.5t-47 -80.5l-165 -23l-6 53q29 22 43 60t14 107v441zM34 602q0 18 8 33.5t21.5 27t32 18.5t39.5 7t39.5 -7t32 -18.5t21.5 -27t8 -33.5t-8 -33.5t-21.5 -27t-32 -18.5t-39.5 -7t-39.5 7t-32 18.5t-21.5 27t-8 33.5z" />
<glyph unicode="k" horiz-adv-x="550" d="M540 463l-163 -218l173 -238v-7h-197l-126 181h-5v-181h-180v677l180 15v-393h5l122 169h191v-5z" />
<glyph unicode="l" horiz-adv-x="270" d="M225 692v-692h-180v677z" />
<glyph unicode="m" horiz-adv-x="810" d="M482 413q26 29 63 49t75 20q28 0 55 -8.5t47.5 -26.5t33 -47t12.5 -69v-331h-180v277q0 29 -13 42t-33 13q-18 0 -29.5 -10t-17.5 -21v-301h-180v272q0 31 -11.5 45.5t-31.5 14.5q-14 0 -28 -8.5t-22 -21.5v-302h-180v468h159l12 -55h7q23 34 60.5 51.5t71.5 17.5 q46 0 75.5 -20t49.5 -49h5z" />
<glyph unicode="n" d="M220 413q22 29 56.5 49t82.5 20q24 0 48.5 -9t44.5 -27t33 -46.5t13 -67.5v-332h-180v274q0 32 -15 45t-32 13q-15 0 -28 -8.5t-21 -22.5v-301h-180v468h159l12 -55h7z" />
<glyph unicode="o" horiz-adv-x="530" d="M507 230q0 -51 -19 -95.5t-52 -77.5t-77 -52t-94 -19t-94 17t-77 49t-52 77t-19 101q0 55 18.5 101t50.5 79.5t75.5 52.5t93.5 19q54 0 99.5 -19t78 -52.5t50.5 -80t18 -100.5zM327 233q0 55 -16.5 81t-44.5 26q-27 0 -45 -27t-18 -80q0 -57 18 -81t46 -24 q23 0 41.5 25.5t18.5 79.5z" />
<glyph unicode="p" d="M87 471l97 -35q22 17 58.5 31.5t75.5 14.5q37 0 72.5 -13.5t63.5 -43.5t45.5 -77.5t17.5 -114.5q0 -68 -18.5 -115t-46 -76t-60.5 -42.5t-61 -13.5q-31 0 -58.5 8.5t-42.5 19.5h-7l-1 -206l-180 -12v668zM274 340q-19 0 -31.5 -9t-20.5 -18v-167q15 -18 48 -18 q9 0 21 4.5t22 16.5t17 32t7 50q0 35 -6.5 56.5t-16.5 33t-20.5 15.5t-19.5 4z" />
<glyph unicode="q" d="M311 24q-19 -17 -46.5 -27.5t-64.5 -10.5q-23 0 -53.5 10t-58 36t-46.5 70t-19 112q0 71 21 122t53 83.5t71.5 47.5t76.5 15q45 0 77 -15.5t52 -32.5l76 36l48 -6v-656l-180 -12v228h-7zM266 128q13 0 28 6.5t24 20.5v160q-5 9 -18.5 17t-30.5 8q-32 0 -49 -33.5 t-17 -84.5q0 -48 17.5 -71t45.5 -23z" />
<glyph unicode="r" horiz-adv-x="380" d="M343 299q-30 -3 -53 -15.5t-38 -30.5t-22.5 -38t-7.5 -38v-177h-180v468h147l14 -88h7q8 18 23 35t34 30t40.5 20.5t42.5 7.5h15v-174h-22z" />
<glyph unicode="s" horiz-adv-x="430" d="M373 308q-28 17 -68.5 29t-74.5 12q-17 0 -30 -3t-13 -13q0 -9 37 -23q42 -16 76.5 -31.5t59 -35t38 -45.5t13.5 -63q0 -41 -18 -69.5t-46.5 -46t-64.5 -25.5t-71 -8q-61 0 -110 15t-85 38l41 127q12 -7 29.5 -15t38 -15t42.5 -12t42 -5q17 0 26.5 4.5t9.5 12.5 q0 9 -13 16t-31 14q-42 16 -74 32.5t-53.5 36t-32 44t-10.5 57.5q0 37 15.5 64.5t41 45.5t59 27t68.5 9q56 0 103.5 -14.5t83.5 -38.5z" />
<glyph unicode="t" horiz-adv-x="350" d="M265 615v-147h75v-137h-75v-331h-180v331h-70v109l70 36v107z" />
<glyph unicode="u" d="M318 52q-22 -26 -56 -46t-77 -20q-27 0 -52.5 8.5t-45.5 27.5t-32.5 49.5t-12.5 74.5v322h180v-274q0 -32 15.5 -45t29.5 -13q18 0 32 10t19 22v300h180v-468h-163l-9 52h-8z" />
<glyph unicode="v" horiz-adv-x="500" d="M247 248h6l67 220h185l-190 -468h-130l-190 468h185z" />
<glyph unicode="w" horiz-adv-x="690" d="M343 206l-58 -206h-130l-160 468h180l52 -211h6l50 211h124l50 -211h6l52 211h180l-160 -468h-130l-56 206h-6z" />
<glyph unicode="x" horiz-adv-x="530" d="M165 234l-160 234h195l65 -117l65 117h195l-160 -234l160 -234h-195l-65 116l-65 -116h-195z" />
<glyph unicode="y" horiz-adv-x="500" d="M33 -207l-5 43q46 31 78.5 84.5t46.5 112.5l-158 435h185l67 -250h7l66 250h185l-200 -537q-19 -50 -46.5 -81.5t-53.5 -35.5z" />
<glyph unicode="z" horiz-adv-x="450" d="M183 331h-152v137h403l3 -4l-178 -322l4 -5h162v-137h-414l-4 6l180 323z" />
<glyph unicode="{" horiz-adv-x="450" d="M180 276q28 -2 52.5 -10t43.5 -21.5t30 -31t11 -38.5q0 -16 -4 -33t-8.5 -36t-8.5 -38.5t-4 -39.5q0 -18 3.5 -31.5t16.5 -22.5t37 -14t66 -5v-115q-94 0 -151 9.5t-87.5 27.5t-40 44.5t-9.5 61.5q0 21 5 42t11.5 41.5t11.5 41t5 40.5q0 41 -30 62.5t-75 21.5v110 q22 0 41.5 6.5t33.5 17.5t22 25.5t8 30.5q0 24 -5 44.5t-10.5 41t-10.5 41t-5 43.5q0 35 13.5 59.5t46.5 39.5t88 22t138 7v-115q-62 0 -92.5 -10.5t-30.5 -48.5q0 -21 4 -40.5t8.5 -37.5t8.5 -34.5t4 -31.5q0 -20 -11 -36.5t-29.5 -29t-43.5 -22t-53 -13.5v-25z" />
<glyph unicode="|" horiz-adv-x="530" d="M206 750h118v-980h-118v980z" />
<glyph unicode="}" horiz-adv-x="450" d="M270 301q-28 4 -53 13.5t-43.5 22t-29.5 29t-11 36.5q0 15 4 31.5t8.5 34.5t8.5 37.5t4 40.5q0 38 -30.5 48.5t-92.5 10.5v115q83 0 138 -7t88 -22t46.5 -39.5t13.5 -59.5q0 -23 -5 -43.5t-10.5 -41t-10.5 -41t-5 -44.5q0 -16 8 -30.5t22 -25.5t33 -17.5t42 -6.5v-110 q-45 0 -75 -21.5t-30 -62.5q0 -20 5 -40.5t11.5 -41t11.5 -41.5t5 -42q0 -35 -9.5 -61.5t-40 -44.5t-87.5 -27.5t-151 -9.5v115q42 0 66 5t37 14t16.5 22.5t3.5 31.5q0 20 -4 39.5t-8.5 38.5t-8.5 36t-4 33q0 21 11 38.5t29.5 31t43.5 21.5t53 10v25z" />
<glyph unicode="~" horiz-adv-x="530" d="M502 369q0 -36 -10 -67t-28 -53.5t-43.5 -35t-56.5 -12.5q-35 0 -60.5 15.5t-47 33.5t-41.5 33.5t-44 15.5q-33 0 -54 -27.5t-21 -68.5h-64q0 40 11.5 71.5t30.5 53t44.5 32.5t52.5 11q34 0 60 -15.5t48.5 -34t42.5 -34t43 -15.5q32 0 50.5 29t18.5 68h68z" />
<glyph unicode="&#xa1;" horiz-adv-x="350" d="M94 38l20 207h118l21 -206l22 -236h-200zM264 394q0 -38 -26 -64t-66 -26q-46 0 -70 28.5t-24 65.5q0 19 7 36t19 29.5t29 19.5t37 7q42 0 68 -26t26 -70z" />
<glyph unicode="&#xa2;" horiz-adv-x="430" d="M197 -5l11 104q-41 7 -74.5 26t-57.5 47.5t-37 66t-13 81.5q0 55 19 101t50.5 79.5t73.5 52.5t89 19l10 99l61 -5l-11 -101q25 -5 45 -16t41 -25l-35 -114q-16 13 -32.5 22.5t-36.5 14.5l-24 -229q30 3 53.5 15t42.5 26l25 -115q-23 -18 -56.5 -31.5t-71.5 -16.5 l-11 -106zM171 322q0 -42 15 -66t40 -33l24 226q-35 -7 -57 -40.5t-22 -86.5z" />
<glyph unicode="&#xa3;" d="M496 151l26 -126q-11 -9 -25 -15.5t-29 -11t-29 -6.5t-26 -2q-26 0 -46 6.5t-38.5 14.5t-39.5 14.5t-49 6.5q-47 0 -91.5 -14t-75.5 -28l-45 75q59 45 82 97t23 103q0 11 -1 21.5t-3 21.5h-81v85h61q-9 31 -16.5 61t-7.5 58q0 49 19 84t51 57t74 32t87 10q50 0 93 -13 t81 -37l-26 -125q-20 15 -54.5 28.5t-69.5 13.5q-40 0 -66 -17.5t-26 -53.5q0 -23 7 -47.5t15 -50.5h120v-85h-96q1 -5 1.5 -10t0.5 -10q0 -34 -16 -66t-56 -63l6 -11q12 6 34 12.5t46 6.5q17 0 30.5 -5.5t25.5 -12.5t24.5 -12.5t27.5 -5.5q18 0 35 4.5t37 17.5z" />
<glyph unicode="&#xa4;" horiz-adv-x="620" d="M89 272q0 35 10.5 67.5t29.5 59.5l-45 44q-9 9 -5 21.5t13.5 22.5t22 14.5t20.5 -3.5l46 -47q27 20 60 31t69 11t68 -10t58 -29l43 45q8 9 21.5 3.5t24.5 -17t16 -25t-3 -21.5l-45 -43q18 -26 28 -57.5t10 -66.5q0 -37 -11 -69.5t-31 -60.5l48 -46q9 -9 5 -21.5 t-13.5 -23t-22 -15t-20.5 4.5l-50 50q-55 -40 -126 -40q-35 0 -66.5 9.5t-57.5 26.5l-42 -44q-9 -9 -22.5 -5t-25 14.5t-16 23.5t4.5 22l44 43q-40 55 -40 131zM189 271q0 -56 33 -92.5t89 -36.5q25 0 46.5 9.5t37.5 27t25 41t9 51.5q0 29 -9 53t-25 41t-38 26.5t-47 9.5 q-58 0 -89.5 -37.5t-31.5 -92.5z" />
<glyph unicode="&#xa5;" horiz-adv-x="630" d="M230 288l-230 392h190l125 -238l125 238h190l-230 -392h85v-75h-85v-40h85v-75h-85v-98h-170v98h-85v75h85v40h-85v75h85z" />
<glyph unicode="&#xa6;" horiz-adv-x="530" d="M206 400v350h118v-350h-118zM324 120v-350h-118v350h118z" />
<glyph unicode="&#xa7;" horiz-adv-x="620" d="M552 256q0 -35 -16.5 -68t-48.5 -60q32 -28 46 -59t14 -64q0 -42 -18 -73.5t-50.5 -52t-77 -30.5t-97.5 -10q-39 0 -75.5 4.5t-67.5 12t-54.5 17t-38.5 19.5l29 136q41 -21 93.5 -36.5t104.5 -15.5q83 0 83 41q0 20 -28.5 36t-73.5 33q-64 23 -104.5 46t-63.5 46 t-31.5 48t-8.5 53q0 35 16.5 69.5t47.5 63.5q-34 26 -49 55.5t-15 62.5t14 63t43 52.5t73 36t103 13.5q34 0 66 -4.5t60.5 -12t52 -17t41.5 -18.5l-22 -142q-40 25 -93 41t-108 16q-33 0 -47 -9.5t-14 -24.5q0 -14 20 -29.5t80 -35.5q68 -22 110 -46t65.5 -49.5t31.5 -52.5 t8 -55zM293 333q-16 5 -30 10.5t-27 11.5q-14 -25 -14 -52q0 -23 30.5 -48.5t104.5 -53.5q8 -3 15.5 -6.5t15.5 -6.5q10 20 10 43q0 32 -24 57t-81 45z" />
<glyph unicode="&#xa8;" horiz-adv-x="500" d="M416 530q0 -14 -6 -26t-16 -21.5t-22.5 -15t-25.5 -5.5q-28 0 -49 20.5t-21 47.5q0 28 21 49t49 21q13 0 25.5 -5.5t22.5 -15.5t16 -22.5t6 -26.5zM224 530q0 -27 -20 -47.5t-49 -20.5q-28 0 -49.5 20.5t-21.5 47.5q0 28 21.5 49t49.5 21q29 0 49 -21t20 -49z" />
<glyph unicode="&#xa9;" horiz-adv-x="790" d="M83 323q0 64 24.5 121t67.5 99.5t99.5 67t121.5 24.5q67 0 124.5 -24.5t98.5 -67t64.5 -99.5t23.5 -121q0 -65 -22.5 -121.5t-63.5 -99.5t-98.5 -67.5t-126.5 -24.5q-65 0 -121.5 23t-99.5 64.5t-67.5 99t-24.5 126.5zM142 321q0 -56 19.5 -103t53.5 -81t80.5 -53 t101.5 -19q54 0 100 19t79.5 53t52.5 81t19 103q0 58 -19.5 106t-53.5 82.5t-80 53.5t-99 19t-99 -19.5t-80.5 -54.5t-54.5 -82.5t-20 -104.5zM508 398q-6 3 -16 8.5t-23.5 11t-30 9t-34.5 3.5t-35.5 -6t-31 -19t-22 -33.5t-8.5 -49.5q0 -44 27 -72.5t71 -28.5q33 0 59 10.5 t49 24.5l18 -80q-22 -16 -56 -27t-71 -11q-42 0 -76 14t-58.5 39t-38 58t-13.5 71q0 45 15 81t40.5 61t59.5 38t72 13t70 -11.5t49 -22.5z" />
<glyph unicode="&#xaa;" horiz-adv-x="420" d="M394 330l-96 -39q-17 3 -28.5 16t-14.5 25h-4q-20 -17 -49 -28.5t-62 -11.5q-50 0 -83 28t-33 81q0 63 41.5 97.5t108.5 34.5q17 0 29.5 -2t26.5 -4v17q0 19 -14 27t-36 8q-25 0 -52 -7t-51 -21l-28 96q26 14 70.5 25t89.5 11q30 0 59 -7.5t51 -25t35 -44.5t13 -66 l-2 -144q0 -26 9 -40t20 -22v-4zM230 454q-13 9 -36 9q-16 0 -27 -10.5t-11 -24.5q0 -16 8.5 -24.5t21.5 -8.5q12 0 24 5.5t20 20.5v33z" />
<glyph unicode="&#xab;" horiz-adv-x="680" d="M287 459l76 -57l-125 -172l122 -172l-78 -62l-223 228v9zM537 459l76 -57l-125 -172l122 -172l-78 -62l-223 228v9z" />
<glyph unicode="&#xac;" horiz-adv-x="530" d="M422 245h-389v68h457v-261h-68v193z" />
<glyph unicode="&#xae;" horiz-adv-x="560" d="M56 471q0 48 17.5 89t48 71t71.5 47t87 17q48 0 89 -17t71 -47t47 -71t17 -89t-17.5 -89t-48 -71t-71.5 -47t-87 -17t-87 16t-71.5 45.5t-48 70.5t-17.5 92zM108 470q0 -39 13 -71t36 -55t54.5 -35.5t69.5 -12.5q35 0 66 12.5t54.5 35.5t37 55t13.5 71t-13.5 71.5 t-37 55.5t-55 36t-66.5 13q-40 0 -71.5 -14t-54 -38t-34.5 -56t-12 -68zM367 530q0 -28 -15.5 -45t-40.5 -24l87 -103v-4h-69l-80 99h-3v-99h-59v249h88q44 0 68 -19.5t24 -53.5zM308 529q0 13 -9.5 19.5t-20.5 6.5h-32v-54h35q9 0 18 5.5t9 22.5z" />
<glyph unicode="&#xaf;" horiz-adv-x="500" d="M113 483v90h274v-90h-274z" />
<glyph unicode="&#xb0;" horiz-adv-x="370" d="M42 551q0 30 11.5 56t31 45.5t45.5 31t55 11.5q30 0 56 -11.5t45.5 -31t31 -45.5t11.5 -56q0 -29 -11.5 -55t-31 -45.5t-45.5 -31t-56 -11.5q-29 0 -55 11.5t-45.5 31t-31 45.5t-11.5 55zM120 551q0 -29 17.5 -50.5t46.5 -21.5t47.5 21.5t18.5 50.5t-18.5 51.5 t-47.5 22.5t-46.5 -22.5t-17.5 -51.5z" />
<glyph unicode="&#xb1;" horiz-adv-x="530" d="M320 446h167v-110h-167v-177h-110v177h-167v110h167v177h110v-177zM43 0v110h444v-110h-444z" />
<glyph unicode="&#xb2;" horiz-adv-x="320" d="M20 756q25 17 58.5 29t77.5 12q26 0 51 -5.5t44.5 -18t31.5 -32t12 -47.5q0 -48 -30 -92t-84 -82l3 -5l117 8v-108h-274l-12 52q89 70 126 118t37 73q0 21 -11.5 30t-37.5 9q-21 0 -45 -9.5t-42 -23.5z" />
<glyph unicode="&#xb3;" horiz-adv-x="320" d="M26 525q52 -22 100 -22q27 0 44.5 7.5t17.5 24.5q0 13 -13 22t-37 8l-78 -3l5 82l71 -4q25 -1 35.5 10t10.5 25q0 26 -57 26q-23 0 -44 -6.5t-34 -12.5h-5l5 98q14 5 42 11t63 6q29 0 55 -6t46 -18t31.5 -29.5t11.5 -41.5q0 -36 -18 -59t-47 -34v-5q33 -11 52.5 -32.5 t19.5 -50.5q0 -37 -18 -59.5t-43.5 -34.5t-52.5 -16t-46 -4q-69 0 -118 20l-2 98h3z" />
<glyph unicode="&#xb4;" horiz-adv-x="500" d="M163 471l106 154h144v-10l-149 -152h-101v8z" />
<glyph unicode="&#xb5;" horiz-adv-x="600" d="M328 52q-23 -26 -60 -46t-83 -20q-28 0 -53 9q6 -46 11 -85t5 -59q0 -19 -6 -31t-15 -18.5t-20.5 -8.5t-22.5 -2q-26 0 -39 15t-13 37q0 15 1.5 47t3 73.5t3.5 89t2 93.5v322h180v-274q0 -33 15.5 -45.5t29.5 -12.5q18 0 32 10t19 22v300h180v-342q0 -14 3.5 -26 t17.5 -12q11 0 20 9.5t14 19.5l38 -16q-12 -32 -30 -53.5t-38.5 -34t-42 -17.5t-39.5 -5q-31 0 -55 11.5t-50 49.5h-8z" />
<glyph unicode="&#xb6;" horiz-adv-x="720" d="M682 578h-57v-735h-115v735h-60v-735h-115v375q-66 0 -119.5 16t-91 46t-57.5 73t-20 96t20.5 96t57.5 73t87.5 46t110.5 16h359v-102zM335 578q-45 0 -74 -35.5t-29 -92.5q0 -58 27 -94t76 -36v258z" />
<glyph unicode="&#xb7;" horiz-adv-x="290" d="M52 293q0 19 7.5 36t20 29.5t29.5 20t36 7.5t36 -7.5t29.5 -20t20 -29.5t7.5 -36t-7.5 -36t-20 -29.5t-29.5 -20t-36 -7.5t-36 7.5t-29.5 20t-20 29.5t-7.5 36z" />
<glyph unicode="&#xb8;" horiz-adv-x="500" d="M184 -174q35 4 58.5 14.5t23.5 27.5q0 11 -16.5 16.5t-39.5 5.5q-6 0 -15.5 -0.5t-14.5 -1.5l-5 7l58 125h81l-38 -75q43 0 73.5 -16t30.5 -51q0 -39 -48 -66.5t-140 -35.5z" />
<glyph unicode="&#xb9;" horiz-adv-x="320" d="M121 415v262l-75 -7l-9 102l179 21l20 -13v-365h-115z" />
<glyph unicode="&#xba;" horiz-adv-x="430" d="M404 484q0 -41 -15 -76t-40.5 -61t-60 -41t-73.5 -15t-73.5 13.5t-60 38.5t-40.5 61t-15 80q0 43 14.5 79.5t39.5 62.5t59 41t73 15q43 0 78 -15t60.5 -41.5t39.5 -62.5t14 -79zM262 486q0 84 -46 84q-22 0 -35 -21t-13 -63q0 -45 13 -64t36 -19q18 0 31.5 20.5 t13.5 62.5z" />
<glyph unicode="&#xbb;" horiz-adv-x="680" d="M371 233v-9l-223 -228l-78 62l122 172l-125 172l76 57zM621 233v-9l-223 -228l-78 62l122 172l-125 172l76 57z" />
<glyph unicode="&#xbc;" horiz-adv-x="780" d="M380 345l235 358l51 -31l-247 -349l-242 -375l-51 33zM127 315v262l-75 -7l-9 102l179 21l20 -13v-365h-115zM723 50h-38v-89h-104v89h-159l-9 49l159 236h113v-204h38v-81zM581 129v103h-4l-64 -99l2 -5z" />
<glyph unicode="&#xbd;" horiz-adv-x="780" d="M380 345l235 358l51 -31l-247 -349l-242 -375l-51 33zM127 315v262l-75 -7l-9 102l179 21l20 -13v-365h-115zM446 301q25 17 58.5 29t77.5 12q26 0 51 -5.5t44.5 -18t31.5 -32t12 -47.5q0 -48 -30 -92t-84 -82l3 -5l117 8v-108h-274l-12 52q89 70 126 118t37 73 q0 21 -11.5 30t-37.5 9q-21 0 -45 -9.5t-42 -23.5z" />
<glyph unicode="&#xbe;" horiz-adv-x="780" d="M380 345l235 358l51 -31l-247 -349l-242 -375l-51 33zM44 425q52 -22 100 -22q27 0 44.5 7.5t17.5 24.5q0 13 -13 22t-37 8l-78 -3l5 82l71 -4q25 -1 35.5 10t10.5 25q0 26 -57 26q-23 0 -44 -6.5t-34 -12.5h-5l5 98q14 5 42 11t63 6q29 0 55 -6t46 -18t31.5 -29.5 t11.5 -41.5q0 -36 -18 -59t-47 -34v-5q33 -11 52.5 -32.5t19.5 -50.5q0 -37 -18 -59.5t-43.5 -34.5t-52.5 -16t-46 -4q-69 0 -118 20l-2 98h3zM723 50h-38v-89h-104v89h-159l-9 49l159 236h113v-204h38v-81zM581 129v103h-4l-64 -99l2 -5z" />
<glyph unicode="&#xbf;" horiz-adv-x="490" d="M419 45l-9 -139q-15 -7 -47 -15t-83 -8q-56 0 -100 14t-75.5 39.5t-48 60t-16.5 76.5q0 46 20 80.5t51.5 58.5t69.5 38t74 20v70h132v-173q-32 -2 -63 -7t-55 -15t-39 -26t-15 -41q0 -27 23 -42.5t58 -15.5q29 0 59.5 6.5t54.5 18.5h9zM414 489q0 -38 -26 -64t-66 -26 q-46 0 -70 28.5t-24 65.5q0 19 7 36t19 29.5t29 19.5t37 7q42 0 68 -26t26 -70z" />
<glyph unicode="&#xc0;" horiz-adv-x="700" d="M462 107h-226l-41 -107h-190l263 680h160l267 -680h-190zM288 249h121l-55 190h-9zM442 740h-106l-159 122v10h159l106 -124v-8z" />
<glyph unicode="&#xc1;" horiz-adv-x="700" d="M462 107h-226l-41 -107h-190l263 680h160l267 -680h-190zM288 249h121l-55 190h-9zM258 748l106 124h159v-10l-159 -122h-106v8z" />
<glyph unicode="&#xc2;" horiz-adv-x="700" d="M462 107h-226l-41 -107h-190l263 680h160l267 -680h-190zM288 249h121l-55 190h-9zM528 740h-101l-76 53l-75 -53h-101v8l136 124h81l136 -124v-8z" />
<glyph unicode="&#xc3;" horiz-adv-x="700" d="M462 107h-226l-41 -107h-190l263 680h160l267 -680h-190zM288 249h121l-55 190h-9zM520 895q0 -63 -29 -103t-76 -40q-23 0 -39 9.5t-30 21t-27.5 21t-29.5 9.5q-17 0 -25.5 -15t-8.5 -41h-75q0 74 31 108.5t74 34.5q20 0 36 -9.5t30 -21.5t28 -21.5t29 -9.5 q17 0 27 15.5t10 41.5h75z" />
<glyph unicode="&#xc4;" horiz-adv-x="700" d="M462 107h-226l-41 -107h-190l263 680h160l267 -680h-190zM288 249h121l-55 190h-9zM516 807q0 -14 -6 -26t-16 -21.5t-22.5 -15t-25.5 -5.5q-28 0 -49 20.5t-21 47.5q0 28 21 49t49 21q13 0 25.5 -5.5t22.5 -15.5t16 -22.5t6 -26.5zM324 807q0 -27 -20 -47.5t-49 -20.5 q-28 0 -49.5 20.5t-21.5 47.5q0 28 21.5 49t49.5 21q29 0 49 -21t20 -49z" />
<glyph unicode="&#xc5;" horiz-adv-x="700" d="M462 107h-226l-41 -107h-190l263 680h160l267 -680h-190zM288 249h121l-55 190h-9zM237 846q0 24 9 44.5t24 35.5t35.5 24t44.5 9t44.5 -9t35.5 -24t24 -35.5t9 -44.5t-9 -44.5t-24 -35.5t-35.5 -24t-44.5 -9t-44.5 9t-35.5 24t-24 35.5t-9 44.5zM303 846 q0 -21 12.5 -35.5t33.5 -14.5q20 0 33.5 14.5t13.5 35.5q0 20 -13.5 36t-33.5 16q-21 0 -33.5 -16t-12.5 -36z" />
<glyph unicode="&#xc6;" horiz-adv-x="940" d="M893 516h-250v-91h216v-162h-216v-99h260v-164h-443v107h-200l-65 -107h-190l418 680h470v-164zM343 249h117v190h-10z" />
<glyph unicode="&#xc7;" horiz-adv-x="650" d="M297 -174q35 4 58.5 14.5t23.5 27.5q0 11 -16.5 16.5t-39.5 5.5q-6 0 -15.5 -0.5t-14.5 -1.5l-5 7l43 93q-68 8 -122.5 36.5t-93 73.5t-59.5 103.5t-21 127.5q0 81 28 148t75.5 115.5t110.5 75.5t134 27q56 0 112.5 -14.5t124.5 -56.5l-55 -157h-5q-37 30 -80 44t-82 13 q-33 0 -63.5 -12t-54 -35.5t-37 -59t-13.5 -83.5q0 -45 14 -78.5t38.5 -55.5t56.5 -32.5t68 -10.5q42 0 85.5 16.5t72.5 41.5h5l55 -152q-48 -37 -103.5 -55.5t-112.5 -21.5l-20 -41q43 0 73.5 -16t30.5 -51q0 -39 -48 -66.5t-140 -35.5z" />
<glyph unicode="&#xc8;" d="M493 516h-250v-95h216v-154h-216v-103h260v-164h-448v680h438v-164zM369 740h-106l-159 122v10h159l106 -124v-8z" />
<glyph unicode="&#xc9;" d="M493 516h-250v-95h216v-154h-216v-103h260v-164h-448v680h438v-164zM185 748l106 124h159v-10l-159 -122h-106v8z" />
<glyph unicode="&#xca;" d="M493 516h-250v-95h216v-154h-216v-103h260v-164h-448v680h438v-164zM455 740h-101l-76 53l-75 -53h-101v8l136 124h81l136 -124v-8z" />
<glyph unicode="&#xcb;" d="M493 516h-250v-95h216v-154h-216v-103h260v-164h-448v680h438v-164zM443 807q0 -14 -6 -26t-16 -21.5t-22.5 -15t-25.5 -5.5q-28 0 -49 20.5t-21 47.5q0 28 21 49t49 21q13 0 25.5 -5.5t22.5 -15.5t16 -22.5t6 -26.5zM251 807q0 -27 -20 -47.5t-49 -20.5 q-28 0 -49.5 20.5t-21.5 47.5q0 28 21.5 49t49.5 21q29 0 49 -21t20 -49z" />
<glyph unicode="&#xcc;" horiz-adv-x="320" d="M254 0h-188v680h188v-680zM252 740h-106l-159 122v10h159l106 -124v-8z" />
<glyph unicode="&#xcd;" horiz-adv-x="320" d="M254 0h-188v680h188v-680zM68 748l106 124h159v-10l-159 -122h-106v8z" />
<glyph unicode="&#xce;" horiz-adv-x="320" d="M254 0h-188v680h188v-680zM338 740h-101l-76 53l-75 -53h-101v8l136 124h81l136 -124v-8z" />
<glyph unicode="&#xcf;" horiz-adv-x="320" d="M254 0h-188v680h188v-680zM326 807q0 -14 -6 -26t-16 -21.5t-22.5 -15t-25.5 -5.5q-28 0 -49 20.5t-21 47.5q0 28 21 49t49 21q13 0 25.5 -5.5t22.5 -15.5t16 -22.5t6 -26.5zM134 807q0 -27 -20 -47.5t-49 -20.5q-28 0 -49.5 20.5t-21.5 47.5q0 28 21.5 49t49.5 21 q29 0 49 -21t20 -49z" />
<glyph unicode="&#xd0;" horiz-adv-x="690" d="M55 0v293h-56v96h56v291h234q75 0 142 -22.5t116.5 -66.5t78.5 -108.5t29 -148.5q0 -75 -28 -136.5t-77.5 -105.5t-116 -68t-143.5 -24h-235zM294 160q36 0 67 12.5t54.5 36t36.5 56t13 71.5q0 48 -15.5 83t-40 57.5t-54 33t-57.5 10.5h-55v-131h84v-96h-84v-133h51z" />
<glyph unicode="&#xd1;" horiz-adv-x="760" d="M512 313h5v367h188v-680h-142l-315 362h-5v-362h-188v680h140zM535 895q0 -63 -29 -103t-76 -40q-23 0 -39 9.5t-30 21t-27.5 21t-29.5 9.5q-17 0 -25.5 -15t-8.5 -41h-75q0 74 31 108.5t74 34.5q20 0 36 -9.5t30 -21.5t28 -21.5t29 -9.5q17 0 27 15.5t10 41.5h75z" />
<glyph unicode="&#xd2;" horiz-adv-x="780" d="M745 335q0 -79 -27 -143.5t-74.5 -110.5t-112.5 -71t-140 -25q-78 0 -143.5 24t-113 69.5t-73.5 110.5t-26 146t28.5 147t77.5 113.5t113.5 73.5t136.5 26q73 0 137.5 -25.5t112.5 -72.5t76 -113.5t28 -148.5zM550 337q0 46 -13 82t-35 60t-51.5 36.5t-62.5 12.5 q-32 0 -60.5 -12t-50 -36t-34.5 -60t-13 -83q0 -45 12.5 -79.5t34.5 -58t52 -35.5t66 -12q68 0 111.5 48t43.5 137zM482 740h-106l-159 122v10h159l106 -124v-8z" />
<glyph unicode="&#xd3;" horiz-adv-x="780" d="M745 335q0 -79 -27 -143.5t-74.5 -110.5t-112.5 -71t-140 -25q-78 0 -143.5 24t-113 69.5t-73.5 110.5t-26 146t28.5 147t77.5 113.5t113.5 73.5t136.5 26q73 0 137.5 -25.5t112.5 -72.5t76 -113.5t28 -148.5zM550 337q0 46 -13 82t-35 60t-51.5 36.5t-62.5 12.5 q-32 0 -60.5 -12t-50 -36t-34.5 -60t-13 -83q0 -45 12.5 -79.5t34.5 -58t52 -35.5t66 -12q68 0 111.5 48t43.5 137zM298 748l106 124h159v-10l-159 -122h-106v8z" />
<glyph unicode="&#xd4;" horiz-adv-x="780" d="M745 335q0 -79 -27 -143.5t-74.5 -110.5t-112.5 -71t-140 -25q-78 0 -143.5 24t-113 69.5t-73.5 110.5t-26 146t28.5 147t77.5 113.5t113.5 73.5t136.5 26q73 0 137.5 -25.5t112.5 -72.5t76 -113.5t28 -148.5zM550 337q0 46 -13 82t-35 60t-51.5 36.5t-62.5 12.5 q-32 0 -60.5 -12t-50 -36t-34.5 -60t-13 -83q0 -45 12.5 -79.5t34.5 -58t52 -35.5t66 -12q68 0 111.5 48t43.5 137zM568 740h-101l-76 53l-75 -53h-101v8l136 124h81l136 -124v-8z" />
<glyph unicode="&#xd5;" horiz-adv-x="780" d="M745 335q0 -79 -27 -143.5t-74.5 -110.5t-112.5 -71t-140 -25q-78 0 -143.5 24t-113 69.5t-73.5 110.5t-26 146t28.5 147t77.5 113.5t113.5 73.5t136.5 26q73 0 137.5 -25.5t112.5 -72.5t76 -113.5t28 -148.5zM550 337q0 46 -13 82t-35 60t-51.5 36.5t-62.5 12.5 q-32 0 -60.5 -12t-50 -36t-34.5 -60t-13 -83q0 -45 12.5 -79.5t34.5 -58t52 -35.5t66 -12q68 0 111.5 48t43.5 137zM560 895q0 -63 -29 -103t-76 -40q-23 0 -39 9.5t-30 21t-27.5 21t-29.5 9.5q-17 0 -25.5 -15t-8.5 -41h-75q0 74 31 108.5t74 34.5q20 0 36 -9.5t30 -21.5 t28 -21.5t29 -9.5q17 0 27 15.5t10 41.5h75z" />
<glyph unicode="&#xd6;" horiz-adv-x="780" d="M745 335q0 -79 -27 -143.5t-74.5 -110.5t-112.5 -71t-140 -25q-78 0 -143.5 24t-113 69.5t-73.5 110.5t-26 146t28.5 147t77.5 113.5t113.5 73.5t136.5 26q73 0 137.5 -25.5t112.5 -72.5t76 -113.5t28 -148.5zM550 337q0 46 -13 82t-35 60t-51.5 36.5t-62.5 12.5 q-32 0 -60.5 -12t-50 -36t-34.5 -60t-13 -83q0 -45 12.5 -79.5t34.5 -58t52 -35.5t66 -12q68 0 111.5 48t43.5 137zM556 807q0 -14 -6 -26t-16 -21.5t-22.5 -15t-25.5 -5.5q-28 0 -49 20.5t-21 47.5q0 28 21 49t49 21q13 0 25.5 -5.5t22.5 -15.5t16 -22.5t6 -26.5zM364 807 q0 -27 -20 -47.5t-49 -20.5q-28 0 -49.5 20.5t-21.5 47.5q0 28 21.5 49t49.5 21q29 0 49 -21t20 -49z" />
<glyph unicode="&#xd7;" horiz-adv-x="530" d="M265 379l142 142l78 -78l-142 -142l142 -142l-78 -78l-142 142l-142 -142l-78 78l142 142l-142 142l78 78z" />
<glyph unicode="&#xd8;" horiz-adv-x="780" d="M150 65q-54 45 -84.5 113.5t-30.5 156.5q0 81 28.5 147t77.5 113.5t113.5 73.5t136.5 26q53 0 101.5 -14t90.5 -40l59 78l49 -35l-59 -79q52 -48 82.5 -116t30.5 -154q0 -79 -27 -143.5t-74.5 -110.5t-112.5 -71t-140 -25q-108 0 -191 46l-65 -87l-49 35zM230 337 q0 -38 8.5 -68.5t24.5 -53.5l215 285q-38 28 -90 28q-32 0 -60.5 -12t-50 -36t-34.5 -60t-13 -83zM550 337q0 36 -8.5 66t-22.5 53l-211 -282q37 -22 87 -22q68 0 111.5 48t43.5 137z" />
<glyph unicode="&#xd9;" horiz-adv-x="710" d="M655 260q0 -53 -18 -102.5t-55.5 -88t-94 -61.5t-132.5 -23q-86 0 -144 23t-92.5 60t-49 84t-14.5 95v433h188v-410q0 -24 6 -45.5t19.5 -37.5t34.5 -25.5t52 -9.5q23 0 43.5 6t35.5 19.5t24 36.5t9 56v410h188v-420zM447 740h-106l-159 122v10h159l106 -124v-8z" />
<glyph unicode="&#xda;" horiz-adv-x="710" d="M655 260q0 -53 -18 -102.5t-55.5 -88t-94 -61.5t-132.5 -23q-86 0 -144 23t-92.5 60t-49 84t-14.5 95v433h188v-410q0 -24 6 -45.5t19.5 -37.5t34.5 -25.5t52 -9.5q23 0 43.5 6t35.5 19.5t24 36.5t9 56v410h188v-420zM263 748l106 124h159v-10l-159 -122h-106v8z" />
<glyph unicode="&#xdb;" horiz-adv-x="710" d="M655 260q0 -53 -18 -102.5t-55.5 -88t-94 -61.5t-132.5 -23q-86 0 -144 23t-92.5 60t-49 84t-14.5 95v433h188v-410q0 -24 6 -45.5t19.5 -37.5t34.5 -25.5t52 -9.5q23 0 43.5 6t35.5 19.5t24 36.5t9 56v410h188v-420zM533 740h-101l-76 53l-75 -53h-101v8l136 124h81 l136 -124v-8z" />
<glyph unicode="&#xdc;" horiz-adv-x="710" d="M655 260q0 -53 -18 -102.5t-55.5 -88t-94 -61.5t-132.5 -23q-86 0 -144 23t-92.5 60t-49 84t-14.5 95v433h188v-410q0 -24 6 -45.5t19.5 -37.5t34.5 -25.5t52 -9.5q23 0 43.5 6t35.5 19.5t24 36.5t9 56v410h188v-420zM521 807q0 -14 -6 -26t-16 -21.5t-22.5 -15 t-25.5 -5.5q-28 0 -49 20.5t-21 47.5q0 28 21 49t49 21q13 0 25.5 -5.5t22.5 -15.5t16 -22.5t6 -26.5zM329 807q0 -27 -20 -47.5t-49 -20.5q-28 0 -49.5 20.5t-21.5 47.5q0 28 21.5 49t49.5 21q29 0 49 -21t20 -49z" />
<glyph unicode="&#xdd;" horiz-adv-x="630" d="M315 452l125 228h200l-231 -392v-288h-188v288l-231 392h200zM223 748l106 124h159v-10l-159 -122h-106v8z" />
<glyph unicode="&#xde;" horiz-adv-x="590" d="M243 680v-107h62q122 0 192 -58.5t70 -171.5q0 -50 -19.5 -92t-54 -73t-83 -48.5t-106.5 -17.5h-61v-112h-188v680h188zM377 343q0 40 -25.5 60t-63.5 20h-45v-165h45q16 0 32 5.5t28.5 16t20.5 26.5t8 37z" />
<glyph unicode="&#xdf;" horiz-adv-x="680" d="M75 491q0 46 20.5 83t57 63.5t86 40.5t107.5 14q64 0 120.5 -20.5t94.5 -61.5t53 -103.5t-3 -147.5q-43 4 -70.5 3.5t-43 -4.5t-21.5 -10t-6 -12q0 -11 14 -19t40 -19q44 -17 71 -36.5t41.5 -40.5t19.5 -43.5t5 -46.5q0 -36 -14 -63t-38.5 -45t-57.5 -27.5t-71 -9.5 q-52 0 -96.5 10.5t-74.5 29.5l42 121q29 -17 57 -25t51 -8q36 0 36 19q0 7 -5 12.5t-12.5 10t-16 8t-15.5 6.5q-38 15 -63.5 32.5t-40.5 38t-21 43.5t-6 49q0 62 37 96.5t91 43.5q1 15 -5 30t-17.5 27t-29.5 19t-41 7q-25 0 -43 -8t-29.5 -21t-17 -29.5t-5.5 -32.5v-465 h-180v331h-55v109l55 37v14z" />
<glyph unicode="&#xe0;" horiz-adv-x="500" d="M487 34l-117 -49q-21 5 -35 20.5t-19 31.5h-5q-24 -23 -57 -37t-79 -14q-32 0 -60 9.5t-49 27.5t-33 44.5t-12 61.5q0 37 14.5 65.5t40 48t61 29.5t77.5 10q21 0 37 -2.5t34 -4.5v23q0 23 -18.5 34t-46.5 11q-31 0 -66 -9.5t-66 -26.5l-35 129q16 9 39.5 17.5t50.5 14.5 t56.5 10t58.5 4q39 0 74.5 -9.5t62.5 -31.5t43.5 -56.5t16.5 -83.5v-175q0 -33 10 -50.5t22 -27.5v-14zM285 186q-19 12 -46 12q-21 0 -35 -14.5t-14 -34.5t11 -31t27 -11t31 7.5t26 25.5v46zM341 528h-101l-149 152v10h144l106 -154v-8z" />
<glyph unicode="&#xe1;" horiz-adv-x="500" d="M487 34l-117 -49q-21 5 -35 20.5t-19 31.5h-5q-24 -23 -57 -37t-79 -14q-32 0 -60 9.5t-49 27.5t-33 44.5t-12 61.5q0 37 14.5 65.5t40 48t61 29.5t77.5 10q21 0 37 -2.5t34 -4.5v23q0 23 -18.5 34t-46.5 11q-31 0 -66 -9.5t-66 -26.5l-35 129q16 9 39.5 17.5t50.5 14.5 t56.5 10t58.5 4q39 0 74.5 -9.5t62.5 -31.5t43.5 -56.5t16.5 -83.5v-175q0 -33 10 -50.5t22 -27.5v-14zM285 186q-19 12 -46 12q-21 0 -35 -14.5t-14 -34.5t11 -31t27 -11t31 7.5t26 25.5v46zM167 536l106 154h144v-10l-149 -152h-101v8z" />
<glyph unicode="&#xe2;" horiz-adv-x="500" d="M487 34l-117 -49q-21 5 -35 20.5t-19 31.5h-5q-24 -23 -57 -37t-79 -14q-32 0 -60 9.5t-49 27.5t-33 44.5t-12 61.5q0 37 14.5 65.5t40 48t61 29.5t77.5 10q21 0 37 -2.5t34 -4.5v23q0 23 -18.5 34t-46.5 11q-31 0 -66 -9.5t-66 -26.5l-35 129q16 9 39.5 17.5t50.5 14.5 t56.5 10t58.5 4q39 0 74.5 -9.5t62.5 -31.5t43.5 -56.5t16.5 -83.5v-175q0 -33 10 -50.5t22 -27.5v-14zM285 186q-19 12 -46 12q-21 0 -35 -14.5t-14 -34.5t11 -31t27 -11t31 7.5t26 25.5v46zM417 528h-91l-71 68l-70 -68h-91v8l131 154h61l131 -154v-8z" />
<glyph unicode="&#xe3;" horiz-adv-x="500" d="M487 34l-117 -49q-21 5 -35 20.5t-19 31.5h-5q-24 -23 -57 -37t-79 -14q-32 0 -60 9.5t-49 27.5t-33 44.5t-12 61.5q0 37 14.5 65.5t40 48t61 29.5t77.5 10q21 0 37 -2.5t34 -4.5v23q0 23 -18.5 34t-46.5 11q-31 0 -66 -9.5t-66 -26.5l-35 129q16 9 39.5 17.5t50.5 14.5 t56.5 10t58.5 4q39 0 74.5 -9.5t62.5 -31.5t43.5 -56.5t16.5 -83.5v-175q0 -33 10 -50.5t22 -27.5v-14zM285 186q-19 12 -46 12q-21 0 -35 -14.5t-14 -34.5t11 -31t27 -11t31 7.5t26 25.5v46zM424 683q0 -63 -29 -103t-76 -40q-23 0 -39 9.5t-30 21t-27.5 21t-29.5 9.5 q-17 0 -25.5 -15t-8.5 -41h-75q0 74 31 108.5t74 34.5q20 0 36 -9.5t30 -21.5t28 -21.5t29 -9.5q17 0 27 15.5t10 41.5h75z" />
<glyph unicode="&#xe4;" horiz-adv-x="500" d="M487 34l-117 -49q-21 5 -35 20.5t-19 31.5h-5q-24 -23 -57 -37t-79 -14q-32 0 -60 9.5t-49 27.5t-33 44.5t-12 61.5q0 37 14.5 65.5t40 48t61 29.5t77.5 10q21 0 37 -2.5t34 -4.5v23q0 23 -18.5 34t-46.5 11q-31 0 -66 -9.5t-66 -26.5l-35 129q16 9 39.5 17.5t50.5 14.5 t56.5 10t58.5 4q39 0 74.5 -9.5t62.5 -31.5t43.5 -56.5t16.5 -83.5v-175q0 -33 10 -50.5t22 -27.5v-14zM285 186q-19 12 -46 12q-21 0 -35 -14.5t-14 -34.5t11 -31t27 -11t31 7.5t26 25.5v46zM420 595q0 -14 -6 -26t-16 -21.5t-22.5 -15t-25.5 -5.5q-28 0 -49 20.5t-21 47.5 q0 28 21 49t49 21q13 0 25.5 -5.5t22.5 -15.5t16 -22.5t6 -26.5zM228 595q0 -27 -20 -47.5t-49 -20.5q-28 0 -49.5 20.5t-21.5 47.5q0 28 21.5 49t49.5 21q29 0 49 -21t20 -49z" />
<glyph unicode="&#xe5;" horiz-adv-x="500" d="M487 34l-117 -49q-21 5 -35 20.5t-19 31.5h-5q-24 -23 -57 -37t-79 -14q-32 0 -60 9.5t-49 27.5t-33 44.5t-12 61.5q0 37 14.5 65.5t40 48t61 29.5t77.5 10q21 0 37 -2.5t34 -4.5v23q0 23 -18.5 34t-46.5 11q-31 0 -66 -9.5t-66 -26.5l-35 129q16 9 39.5 17.5t50.5 14.5 t56.5 10t58.5 4q39 0 74.5 -9.5t62.5 -31.5t43.5 -56.5t16.5 -83.5v-175q0 -33 10 -50.5t22 -27.5v-14zM285 186q-19 12 -46 12q-21 0 -35 -14.5t-14 -34.5t11 -31t27 -11t31 7.5t26 25.5v46zM141 634q0 24 9 44.5t24 35.5t35.5 24t44.5 9t44.5 -9t35.5 -24t24 -35.5 t9 -44.5t-9 -44.5t-24 -35.5t-35.5 -24t-44.5 -9t-44.5 9t-35.5 24t-24 35.5t-9 44.5zM207 634q0 -21 12.5 -35.5t33.5 -14.5q20 0 33.5 14.5t13.5 35.5q0 20 -13.5 36t-33.5 16q-21 0 -33.5 -16t-12.5 -36z" />
<glyph unicode="&#xe6;" horiz-adv-x="760" d="M457 193q0 -22 10 -36t25 -21.5t34 -10t37 -2.5q19 0 40 2.5t41 7t37.5 11t29.5 14.5h4l-10 -127q-17 -11 -40.5 -19.5t-49 -14t-51 -8.5t-47.5 -3q-54 0 -99.5 17t-76.5 54q-32 -32 -77 -51.5t-96 -19.5q-31 0 -58 9t-46.5 26.5t-31 43.5t-11.5 59q0 81 53 124.5 t138 43.5q21 0 37 -2.5t34 -4.5v21q0 23 -18.5 34t-46.5 11q-31 0 -65 -9.5t-65 -26.5l-35 121q16 9 39 17.5t50 14.5t56 10t58 4q39 0 75.5 -12.5t64.5 -42.5q29 26 63 40.5t69 14.5q47 0 85.5 -16.5t66 -44.5t42.5 -63.5t15 -74.5q0 -16 -3 -41t-13 -49h-264zM583 271 q2 35 -15 54.5t-41 19.5q-27 0 -46 -21.5t-22 -52.5h124zM283 191q-19 12 -46 12q-21 0 -35 -13t-14 -31q0 -20 11 -31t27 -11t31 6.5t26 26.5v41z" />
<glyph unicode="&#xe7;" horiz-adv-x="440" d="M174 -174q35 4 58.5 14.5t23.5 27.5q0 11 -16.5 16.5t-39.5 5.5q-6 0 -15.5 -0.5t-14.5 -1.5l-5 7l44 95q-48 8 -83 29t-58 52t-34 69t-11 80q0 57 20.5 105t54.5 83t79 54.5t95 19.5q44 0 77 -10t59 -27v-140h-6q-18 14 -42.5 24.5t-53.5 10.5q-22 0 -41 -8.5 t-32.5 -22.5t-21.5 -34t-8 -42q0 -27 8.5 -46.5t23 -32.5t32.5 -19.5t37 -6.5q30 0 55.5 8t47.5 22h6v-135q-26 -17 -57.5 -25.5t-68.5 -10.5l-21 -42q43 0 73.5 -16t30.5 -51q0 -39 -48 -66.5t-140 -35.5z" />
<glyph unicode="&#xe8;" horiz-adv-x="500" d="M193 193q0 -22 10 -36t26 -21.5t35 -10t37 -2.5q19 0 40.5 2.5t42 7t38 11t29.5 14.5h4l-10 -127q-35 -23 -88 -34t-102 -11q-47 0 -89.5 13t-74 40t-50 70t-18.5 103t20 109.5t53.5 85t77.5 55.5t92 20q47 0 86 -16.5t66.5 -44.5t43 -63.5t15.5 -74.5q0 -16 -3 -41 t-13 -49h-268zM323 271q2 35 -16 54.5t-42 19.5q-27 0 -47 -21.5t-23 -52.5h128zM343 528h-101l-149 152v10h144l106 -154v-8z" />
<glyph unicode="&#xe9;" horiz-adv-x="500" d="M193 193q0 -22 10 -36t26 -21.5t35 -10t37 -2.5q19 0 40.5 2.5t42 7t38 11t29.5 14.5h4l-10 -127q-35 -23 -88 -34t-102 -11q-47 0 -89.5 13t-74 40t-50 70t-18.5 103t20 109.5t53.5 85t77.5 55.5t92 20q47 0 86 -16.5t66.5 -44.5t43 -63.5t15.5 -74.5q0 -16 -3 -41 t-13 -49h-268zM323 271q2 35 -16 54.5t-42 19.5q-27 0 -47 -21.5t-23 -52.5h128zM169 536l106 154h144v-10l-149 -152h-101v8z" />
<glyph unicode="&#xea;" horiz-adv-x="500" d="M193 193q0 -22 10 -36t26 -21.5t35 -10t37 -2.5q19 0 40.5 2.5t42 7t38 11t29.5 14.5h4l-10 -127q-35 -23 -88 -34t-102 -11q-47 0 -89.5 13t-74 40t-50 70t-18.5 103t20 109.5t53.5 85t77.5 55.5t92 20q47 0 86 -16.5t66.5 -44.5t43 -63.5t15.5 -74.5q0 -16 -3 -41 t-13 -49h-268zM323 271q2 35 -16 54.5t-42 19.5q-27 0 -47 -21.5t-23 -52.5h128zM419 528h-91l-71 68l-70 -68h-91v8l131 154h61l131 -154v-8z" />
<glyph unicode="&#xeb;" horiz-adv-x="500" d="M193 193q0 -22 10 -36t26 -21.5t35 -10t37 -2.5q19 0 40.5 2.5t42 7t38 11t29.5 14.5h4l-10 -127q-35 -23 -88 -34t-102 -11q-47 0 -89.5 13t-74 40t-50 70t-18.5 103t20 109.5t53.5 85t77.5 55.5t92 20q47 0 86 -16.5t66.5 -44.5t43 -63.5t15.5 -74.5q0 -16 -3 -41 t-13 -49h-268zM323 271q2 35 -16 54.5t-42 19.5q-27 0 -47 -21.5t-23 -52.5h128zM422 595q0 -14 -6 -26t-16 -21.5t-22.5 -15t-25.5 -5.5q-28 0 -49 20.5t-21 47.5q0 28 21 49t49 21q13 0 25.5 -5.5t22.5 -15.5t16 -22.5t6 -26.5zM230 595q0 -27 -20 -47.5t-49 -20.5 q-28 0 -49.5 20.5t-21.5 47.5q0 28 21.5 49t49.5 21q29 0 49 -21t20 -49z" />
<glyph unicode="&#xec;" horiz-adv-x="270" d="M225 473v-473h-180v454zM222 528h-101l-149 152v10h144l106 -154v-8z" />
<glyph unicode="&#xed;" horiz-adv-x="270" d="M225 473v-473h-180v454zM48 536l106 154h144v-10l-149 -152h-101v8z" />
<glyph unicode="&#xee;" horiz-adv-x="270" d="M225 473v-473h-180v454zM298 528h-91l-71 68l-70 -68h-91v8l131 154h61l131 -154v-8z" />
<glyph unicode="&#xef;" horiz-adv-x="270" d="M225 473v-473h-180v454zM301 595q0 -14 -6 -26t-16 -21.5t-22.5 -15t-25.5 -5.5q-28 0 -49 20.5t-21 47.5q0 28 21 49t49 21q13 0 25.5 -5.5t22.5 -15.5t16 -22.5t6 -26.5zM109 595q0 -27 -20 -47.5t-49 -20.5q-28 0 -49.5 20.5t-21.5 47.5q0 28 21.5 49t49.5 21 q29 0 49 -21t20 -49z" />
<glyph unicode="&#xf0;" horiz-adv-x="530" d="M194 555q-34 13 -71 18l38 122q35 -10 65 -21t56 -23l46 50l47 -43l-36 -39q50 -32 82.5 -71t51.5 -82.5t26.5 -91.5t7.5 -98q0 -69 -18.5 -123t-51 -91t-76.5 -56.5t-94 -19.5q-51 0 -95.5 17.5t-77.5 48.5t-52 74t-19 94q0 54 18.5 99t49 78t70.5 51.5t84 18.5 q37 0 57 -8t37 -22l4 2q-9 23 -33 45.5t-56 42.5l-42 -46l-47 43zM327 236q0 48 -13.5 76t-44.5 28t-48.5 -29.5t-17.5 -74.5q0 -48 17.5 -78t46.5 -30q26 0 43 29t17 79z" />
<glyph unicode="&#xf1;" d="M220 413q22 29 56.5 49t82.5 20q24 0 48.5 -9t44.5 -27t33 -46.5t13 -67.5v-332h-180v274q0 32 -15 45t-32 13q-15 0 -28 -8.5t-21 -22.5v-301h-180v468h159l12 -55h7zM443 683q0 -63 -29 -103t-76 -40q-23 0 -39 9.5t-30 21t-27.5 21t-29.5 9.5q-17 0 -25.5 -15 t-8.5 -41h-75q0 74 31 108.5t74 34.5q20 0 36 -9.5t30 -21.5t28 -21.5t29 -9.5q17 0 27 15.5t10 41.5h75z" />
<glyph unicode="&#xf2;" horiz-adv-x="530" d="M507 230q0 -51 -19 -95.5t-52 -77.5t-77 -52t-94 -19t-94 17t-77 49t-52 77t-19 101q0 55 18.5 101t50.5 79.5t75.5 52.5t93.5 19q54 0 99.5 -19t78 -52.5t50.5 -80t18 -100.5zM327 233q0 55 -16.5 81t-44.5 26q-27 0 -45 -27t-18 -80q0 -57 18 -81t46 -24 q23 0 41.5 25.5t18.5 79.5zM352 528h-101l-149 152v10h144l106 -154v-8z" />
<glyph unicode="&#xf3;" horiz-adv-x="530" d="M507 230q0 -51 -19 -95.5t-52 -77.5t-77 -52t-94 -19t-94 17t-77 49t-52 77t-19 101q0 55 18.5 101t50.5 79.5t75.5 52.5t93.5 19q54 0 99.5 -19t78 -52.5t50.5 -80t18 -100.5zM327 233q0 55 -16.5 81t-44.5 26q-27 0 -45 -27t-18 -80q0 -57 18 -81t46 -24 q23 0 41.5 25.5t18.5 79.5zM178 536l106 154h144v-10l-149 -152h-101v8z" />
<glyph unicode="&#xf4;" horiz-adv-x="530" d="M507 230q0 -51 -19 -95.5t-52 -77.5t-77 -52t-94 -19t-94 17t-77 49t-52 77t-19 101q0 55 18.5 101t50.5 79.5t75.5 52.5t93.5 19q54 0 99.5 -19t78 -52.5t50.5 -80t18 -100.5zM327 233q0 55 -16.5 81t-44.5 26q-27 0 -45 -27t-18 -80q0 -57 18 -81t46 -24 q23 0 41.5 25.5t18.5 79.5zM428 528h-91l-71 68l-70 -68h-91v8l131 154h61l131 -154v-8z" />
<glyph unicode="&#xf5;" horiz-adv-x="530" d="M507 230q0 -51 -19 -95.5t-52 -77.5t-77 -52t-94 -19t-94 17t-77 49t-52 77t-19 101q0 55 18.5 101t50.5 79.5t75.5 52.5t93.5 19q54 0 99.5 -19t78 -52.5t50.5 -80t18 -100.5zM327 233q0 55 -16.5 81t-44.5 26q-27 0 -45 -27t-18 -80q0 -57 18 -81t46 -24 q23 0 41.5 25.5t18.5 79.5zM435 683q0 -63 -29 -103t-76 -40q-23 0 -39 9.5t-30 21t-27.5 21t-29.5 9.5q-17 0 -25.5 -15t-8.5 -41h-75q0 74 31 108.5t74 34.5q20 0 36 -9.5t30 -21.5t28 -21.5t29 -9.5q17 0 27 15.5t10 41.5h75z" />
<glyph unicode="&#xf6;" horiz-adv-x="530" d="M507 230q0 -51 -19 -95.5t-52 -77.5t-77 -52t-94 -19t-94 17t-77 49t-52 77t-19 101q0 55 18.5 101t50.5 79.5t75.5 52.5t93.5 19q54 0 99.5 -19t78 -52.5t50.5 -80t18 -100.5zM327 233q0 55 -16.5 81t-44.5 26q-27 0 -45 -27t-18 -80q0 -57 18 -81t46 -24 q23 0 41.5 25.5t18.5 79.5zM431 595q0 -14 -6 -26t-16 -21.5t-22.5 -15t-25.5 -5.5q-28 0 -49 20.5t-21 47.5q0 28 21 49t49 21q13 0 25.5 -5.5t22.5 -15.5t16 -22.5t6 -26.5zM239 595q0 -27 -20 -47.5t-49 -20.5q-28 0 -49.5 20.5t-21.5 47.5q0 28 21.5 49t49.5 21 q29 0 49 -21t20 -49z" />
<glyph unicode="&#xf7;" horiz-adv-x="530" d="M33 246v110h464v-110h-464zM189 478q0 32 22 54t54 22t54 -22t22 -54t-22 -54t-54 -22t-54 22t-22 54zM189 124q0 32 22 54t54 22t54 -22t22 -54t-22 -54t-54 -22t-54 22t-22 54z" />
<glyph unicode="&#xf8;" horiz-adv-x="530" d="M98 48q-35 32 -55 78t-20 104q0 55 18.5 101t50.5 79.5t75.5 52.5t93.5 19q38 0 70.5 -9t60.5 -26l37 49l46 -33l-37 -52q32 -34 50.5 -80t18.5 -101q0 -51 -19 -95.5t-52 -77.5t-77 -52t-94 -19q-65 0 -119 28l-41 -56l-47 36zM203 233q0 -28 4 -45l98 133 q-15 19 -39 19q-27 0 -45 -27t-18 -80zM327 233q0 21 -3 39l-95 -130q14 -14 38 -14q23 0 41.5 25.5t18.5 79.5z" />
<glyph unicode="&#xf9;" d="M318 52q-22 -26 -56 -46t-77 -20q-27 0 -52.5 8.5t-45.5 27.5t-32.5 49.5t-12.5 74.5v322h180v-274q0 -32 15.5 -45t29.5 -13q18 0 32 10t19 22v300h180v-468h-163l-9 52h-8zM362 528h-101l-149 152v10h144l106 -154v-8z" />
<glyph unicode="&#xfa;" d="M318 52q-22 -26 -56 -46t-77 -20q-27 0 -52.5 8.5t-45.5 27.5t-32.5 49.5t-12.5 74.5v322h180v-274q0 -32 15.5 -45t29.5 -13q18 0 32 10t19 22v300h180v-468h-163l-9 52h-8zM188 536l106 154h144v-10l-149 -152h-101v8z" />
<glyph unicode="&#xfb;" d="M318 52q-22 -26 -56 -46t-77 -20q-27 0 -52.5 8.5t-45.5 27.5t-32.5 49.5t-12.5 74.5v322h180v-274q0 -32 15.5 -45t29.5 -13q18 0 32 10t19 22v300h180v-468h-163l-9 52h-8zM438 528h-91l-71 68l-70 -68h-91v8l131 154h61l131 -154v-8z" />
<glyph unicode="&#xfc;" d="M318 52q-22 -26 -56 -46t-77 -20q-27 0 -52.5 8.5t-45.5 27.5t-32.5 49.5t-12.5 74.5v322h180v-274q0 -32 15.5 -45t29.5 -13q18 0 32 10t19 22v300h180v-468h-163l-9 52h-8zM441 595q0 -14 -6 -26t-16 -21.5t-22.5 -15t-25.5 -5.5q-28 0 -49 20.5t-21 47.5q0 28 21 49 t49 21q13 0 25.5 -5.5t22.5 -15.5t16 -22.5t6 -26.5zM249 595q0 -27 -20 -47.5t-49 -20.5q-28 0 -49.5 20.5t-21.5 47.5q0 28 21.5 49t49.5 21q29 0 49 -21t20 -49z" />
<glyph unicode="&#xfd;" horiz-adv-x="500" d="M33 -207l-5 43q46 31 78.5 84.5t46.5 112.5l-158 435h185l67 -250h7l66 250h185l-200 -537q-19 -50 -46.5 -81.5t-53.5 -35.5zM166 536l106 154h144v-10l-149 -152h-101v8z" />
<glyph unicode="&#xfe;" d="M222 692v-246h5q14 14 40.5 25t50.5 11q37 0 72 -13.5t63 -43.5t45 -77.5t17 -114.5q0 -68 -18 -115t-45.5 -76t-60 -42.5t-60.5 -13.5q-31 0 -58.5 8.5t-42.5 19.5h-7l-1 -203l-180 -12v878zM274 340q-19 0 -31.5 -9t-20.5 -18v-167q15 -18 48 -18q9 0 20.5 4.5 t21.5 16.5t16.5 32t6.5 50q0 35 -6.5 56.5t-15.5 33t-19.5 15.5t-19.5 4z" />
<glyph unicode="&#xff;" horiz-adv-x="500" d="M33 -207l-5 43q46 31 78.5 84.5t46.5 112.5l-158 435h185l67 -250h7l66 250h185l-200 -537q-19 -50 -46.5 -81.5t-53.5 -35.5zM419 595q0 -14 -6 -26t-16 -21.5t-22.5 -15t-25.5 -5.5q-28 0 -49 20.5t-21 47.5q0 28 21 49t49 21q13 0 25.5 -5.5t22.5 -15.5t16 -22.5 t6 -26.5zM227 595q0 -27 -20 -47.5t-49 -20.5q-28 0 -49.5 20.5t-21.5 47.5q0 28 21.5 49t49.5 21q29 0 49 -21t20 -49z" />
<glyph unicode="&#x100;" horiz-adv-x="700" d="M462 107h-226l-41 -107h-190l263 680h160l267 -680h-190zM288 249h121l-55 190h-9zM213 760v90h274v-90h-274z" />
<glyph unicode="&#x101;" horiz-adv-x="500" d="M487 34l-117 -49q-21 5 -35 20.5t-19 31.5h-5q-24 -23 -57 -37t-79 -14q-32 0 -60 9.5t-49 27.5t-33 44.5t-12 61.5q0 37 14.5 65.5t40 48t61 29.5t77.5 10q21 0 37 -2.5t34 -4.5v23q0 23 -18.5 34t-46.5 11q-31 0 -66 -9.5t-66 -26.5l-35 129q16 9 39.5 17.5t50.5 14.5 t56.5 10t58.5 4q39 0 74.5 -9.5t62.5 -31.5t43.5 -56.5t16.5 -83.5v-175q0 -33 10 -50.5t22 -27.5v-14zM285 186q-19 12 -46 12q-21 0 -35 -14.5t-14 -34.5t11 -31t27 -11t31 7.5t26 25.5v46zM117 548v90h274v-90h-274z" />
<glyph unicode="&#x102;" horiz-adv-x="700" d="M462 107h-226l-41 -107h-190l263 680h160l267 -680h-190zM288 249h121l-55 190h-9zM349 730q-26 0 -50.5 7.5t-43 24t-29.5 41t-11 59.5h62q0 -22 19.5 -40t53.5 -18q29 0 51 16.5t22 41.5h62q0 -35 -11.5 -59.5t-30.5 -41t-43.5 -24t-50.5 -7.5z" />
<glyph unicode="&#x103;" horiz-adv-x="500" d="M487 34l-117 -49q-21 5 -35 20.5t-19 31.5h-5q-24 -23 -57 -37t-79 -14q-32 0 -60 9.5t-49 27.5t-33 44.5t-12 61.5q0 37 14.5 65.5t40 48t61 29.5t77.5 10q21 0 37 -2.5t34 -4.5v23q0 23 -18.5 34t-46.5 11q-31 0 -66 -9.5t-66 -26.5l-35 129q16 9 39.5 17.5t50.5 14.5 t56.5 10t58.5 4q39 0 74.5 -9.5t62.5 -31.5t43.5 -56.5t16.5 -83.5v-175q0 -33 10 -50.5t22 -27.5v-14zM285 186q-19 12 -46 12q-21 0 -35 -14.5t-14 -34.5t11 -31t27 -11t31 7.5t26 25.5v46zM253 523q-26 0 -50.5 10t-43 30.5t-29.5 52t-11 74.5h67q0 -32 18 -57.5 t50 -25.5q27 0 47.5 23.5t20.5 59.5h67q0 -42 -11.5 -73.5t-30.5 -52.5t-43.5 -31t-50.5 -10z" />
<glyph unicode="&#x104;" horiz-adv-x="700" d="M462 107h-226l-41 -107h-190l263 680h160l267 -680h-107q-45 -39 -45 -77q0 -20 10.5 -28t24.5 -8q8 0 14 1.5t12 3.5v-83q-11 -4 -24.5 -6t-35.5 -2q-17 0 -35 4.5t-32.5 13.5t-24 24t-9.5 36q0 32 17.5 63.5t46.5 57.5h-2zM288 249h121l-55 190h-9z" />
<glyph unicode="&#x105;" horiz-adv-x="500" d="M487 34l-45 -19q-32 -21 -48.5 -45.5t-16.5 -46.5q0 -20 10.5 -28t24.5 -8q8 0 14 1.5t12 3.5v-83q-11 -4 -24.5 -6t-35.5 -2q-17 0 -35 4.5t-32.5 13.5t-24 24t-9.5 36q0 32 18 63.5t46 57.5q-20 15 -25 37h-5q-24 -23 -57 -37t-79 -14q-32 0 -60 9.5t-49 27.5t-33 44.5 t-12 61.5q0 37 14.5 65.5t40 48t61 29.5t77.5 10q21 0 37 -2.5t34 -4.5v23q0 23 -18.5 34t-46.5 11q-31 0 -66 -9.5t-66 -26.5l-35 129q16 9 39.5 17.5t50.5 14.5t56.5 10t58.5 4q39 0 74.5 -9.5t62.5 -31.5t43.5 -56.5t16.5 -83.5v-175q0 -33 10 -50.5t22 -27.5v-14z M285 186q-19 12 -46 12q-21 0 -35 -14.5t-14 -34.5t11 -31t27 -11t31 7.5t26 25.5v46z" />
<glyph unicode="&#x106;" horiz-adv-x="650" d="M560 467q-37 30 -80 44t-82 13q-33 0 -63.5 -12t-54 -35.5t-37 -59t-13.5 -83.5q0 -45 14 -78.5t38.5 -55.5t56.5 -32.5t68 -10.5q42 0 85.5 16.5t72.5 41.5h5l55 -152q-54 -42 -117.5 -60t-126.5 -18q-78 0 -142 26t-109 71.5t-70 108.5t-25 138q0 81 28 148t75.5 115.5 t110.5 75.5t134 27q56 0 112.5 -14.5t124.5 -56.5l-55 -157h-5zM299 748l106 124h159v-10l-159 -122h-106v8z" />
<glyph unicode="&#x107;" horiz-adv-x="440" d="M402 305q-18 14 -42.5 24.5t-53.5 10.5q-22 0 -41 -8.5t-32.5 -22.5t-21.5 -34t-8 -42q0 -27 8.5 -46.5t23 -32.5t32.5 -19.5t37 -6.5q30 0 55.5 8t47.5 22h6v-135q-29 -19 -67.5 -28t-83.5 -9q-62 0 -107 19t-74.5 51t-43.5 74.5t-14 89.5q0 57 20.5 105t54.5 83 t79 54.5t95 19.5q44 0 77 -10t59 -27v-140h-6zM183 536l106 154h144v-10l-149 -152h-101v8z" />
<glyph unicode="&#x10a;" horiz-adv-x="650" d="M560 467q-37 30 -80 44t-82 13q-33 0 -63.5 -12t-54 -35.5t-37 -59t-13.5 -83.5q0 -45 14 -78.5t38.5 -55.5t56.5 -32.5t68 -10.5q42 0 85.5 16.5t72.5 41.5h5l55 -152q-54 -42 -117.5 -60t-126.5 -18q-78 0 -142 26t-109 71.5t-70 108.5t-25 138q0 81 28 148t75.5 115.5 t110.5 75.5t134 27q56 0 112.5 -14.5t124.5 -56.5l-55 -157h-5zM298 803q0 16 7 30.5t20 25t29.5 17t36.5 6.5q19 0 36 -6.5t30 -17t20 -25t7 -30.5t-7 -30.5t-20 -25t-30 -17t-36 -6.5q-20 0 -36.5 6.5t-29.5 17t-20 25t-7 30.5z" />
<glyph unicode="&#x10b;" horiz-adv-x="440" d="M402 305q-18 14 -42.5 24.5t-53.5 10.5q-22 0 -41 -8.5t-32.5 -22.5t-21.5 -34t-8 -42q0 -27 8.5 -46.5t23 -32.5t32.5 -19.5t37 -6.5q30 0 55.5 8t47.5 22h6v-135q-29 -19 -67.5 -28t-83.5 -9q-62 0 -107 19t-74.5 51t-43.5 74.5t-14 89.5q0 57 20.5 105t54.5 83 t79 54.5t95 19.5q44 0 77 -10t59 -27v-140h-6zM170 602q0 18 8 33.5t21.5 27t32 18.5t39.5 7t39.5 -7t32 -18.5t21.5 -27t8 -33.5t-8 -33.5t-21.5 -27t-32 -18.5t-39.5 -7t-39.5 7t-32 18.5t-21.5 27t-8 33.5z" />
<glyph unicode="&#x10c;" horiz-adv-x="650" d="M560 467q-37 30 -80 44t-82 13q-33 0 -63.5 -12t-54 -35.5t-37 -59t-13.5 -83.5q0 -45 14 -78.5t38.5 -55.5t56.5 -32.5t68 -10.5q42 0 85.5 16.5t72.5 41.5h5l55 -152q-54 -42 -117.5 -60t-126.5 -18q-78 0 -142 26t-109 71.5t-70 108.5t-25 138q0 81 28 148t75.5 115.5 t110.5 75.5t134 27q56 0 112.5 -14.5t124.5 -56.5l-55 -157h-5zM569 864l-136 -124h-81l-136 124v8h101l75 -53l76 53h101v-8z" />
<glyph unicode="&#x10d;" horiz-adv-x="440" d="M402 305q-18 14 -42.5 24.5t-53.5 10.5q-22 0 -41 -8.5t-32.5 -22.5t-21.5 -34t-8 -42q0 -27 8.5 -46.5t23 -32.5t32.5 -19.5t37 -6.5q30 0 55.5 8t47.5 22h6v-135q-29 -19 -67.5 -28t-83.5 -9q-62 0 -107 19t-74.5 51t-43.5 74.5t-14 89.5q0 57 20.5 105t54.5 83 t79 54.5t95 19.5q44 0 77 -10t59 -27v-140h-6zM433 682l-131 -154h-61l-131 154v8h91l70 -68l71 68h91v-8z" />
<glyph unicode="&#x10e;" horiz-adv-x="690" d="M294 160q36 0 67 12.5t54.5 36t36.5 56t13 71.5q0 48 -15.5 83t-40 57.5t-54 33t-57.5 10.5h-55v-360h51zM55 0v680h234q75 0 142 -22.5t116.5 -66.5t78.5 -108.5t29 -148.5q0 -75 -28 -136.5t-77.5 -105.5t-116 -68t-143.5 -24h-235zM460 864l-136 -124h-81l-136 124v8 h101l75 -53l76 53h101v-8z" />
<glyph unicode="&#x10f;" d="M328 49q-17 -20 -35 -32.5t-35 -19.5t-32 -9t-25 -2q-37 0 -69.5 15t-56.5 43.5t-38 71t-14 96.5q0 55 14 104t39.5 86t61.5 58.5t80 21.5q30 0 54.5 -8.5t41.5 -26.5h4v230l180 15v-692h-148l-17 49h-5zM266 128q13 0 28 6.5t24 20.5v160q-5 9 -18.5 17t-30.5 8 q-32 0 -49 -33.5t-17 -84.5q0 -48 17.5 -71t45.5 -23zM535 493l15 199h125v-5l-47 -199h-93v5z" />
<glyph unicode="&#x110;" horiz-adv-x="690" d="M55 0v293h-56v96h56v291h234q75 0 142 -22.5t116.5 -66.5t78.5 -108.5t29 -148.5q0 -75 -28 -136.5t-77.5 -105.5t-116 -68t-143.5 -24h-235zM294 160q36 0 67 12.5t54.5 36t36.5 56t13 71.5q0 48 -15.5 83t-40 57.5t-54 33t-57.5 10.5h-55v-131h84v-96h-84v-133h51z" />
<glyph unicode="&#x111;" d="M498 529v-529h-148l-17 49h-5q-17 -20 -35 -32.5t-35 -19.5t-32 -9t-25 -2q-37 0 -69.5 15t-56.5 43.5t-38 71t-14 96.5q0 55 14 104t39.5 86t61.5 58.5t80 21.5q30 0 54.5 -8.5t41.5 -26.5h4v82h-119v104h119v44l180 15v-59h25v-104h-25zM266 128q13 0 28 6.5t24 20.5 v160q-5 9 -18.5 17t-30.5 8q-32 0 -49 -33.5t-17 -84.5q0 -48 17.5 -71t45.5 -23z" />
<glyph unicode="&#x112;" d="M493 516h-250v-95h216v-154h-216v-103h260v-164h-448v680h438v-164zM140 760v90h274v-90h-274z" />
<glyph unicode="&#x113;" horiz-adv-x="500" d="M193 193q0 -22 10 -36t26 -21.5t35 -10t37 -2.5q19 0 40.5 2.5t42 7t38 11t29.5 14.5h4l-10 -127q-35 -23 -88 -34t-102 -11q-47 0 -89.5 13t-74 40t-50 70t-18.5 103t20 109.5t53.5 85t77.5 55.5t92 20q47 0 86 -16.5t66.5 -44.5t43 -63.5t15.5 -74.5q0 -16 -3 -41 t-13 -49h-268zM323 271q2 35 -16 54.5t-42 19.5q-27 0 -47 -21.5t-23 -52.5h128zM119 548v90h274v-90h-274z" />
<glyph unicode="&#x116;" d="M493 516h-250v-95h216v-154h-216v-103h260v-164h-448v680h438v-164zM184 803q0 16 7 30.5t20 25t29.5 17t36.5 6.5q19 0 36 -6.5t30 -17t20 -25t7 -30.5t-7 -30.5t-20 -25t-30 -17t-36 -6.5q-20 0 -36.5 6.5t-29.5 17t-20 25t-7 30.5z" />
<glyph unicode="&#x117;" horiz-adv-x="500" d="M193 193q0 -22 10 -36t26 -21.5t35 -10t37 -2.5q19 0 40.5 2.5t42 7t38 11t29.5 14.5h4l-10 -127q-35 -23 -88 -34t-102 -11q-47 0 -89.5 13t-74 40t-50 70t-18.5 103t20 109.5t53.5 85t77.5 55.5t92 20q47 0 86 -16.5t66.5 -44.5t43 -63.5t15.5 -74.5q0 -16 -3 -41 t-13 -49h-268zM323 271q2 35 -16 54.5t-42 19.5q-27 0 -47 -21.5t-23 -52.5h128zM156 602q0 18 8 33.5t21.5 27t32 18.5t39.5 7t39.5 -7t32 -18.5t21.5 -27t8 -33.5t-8 -33.5t-21.5 -27t-32 -18.5t-39.5 -7t-39.5 7t-32 18.5t-21.5 27t-8 33.5z" />
<glyph unicode="&#x118;" d="M493 516h-250v-95h216v-154h-216v-103h260v-164h-38q-45 -39 -45 -77q0 -20 10.5 -28t24.5 -8q8 0 14 1.5t12 3.5v-83q-11 -4 -24.5 -6t-35.5 -2q-17 0 -35 4.5t-32.5 13.5t-24 24t-9.5 36q0 32 17.5 63.5t46.5 57.5h-329v680h438v-164z" />
<glyph unicode="&#x119;" horiz-adv-x="500" d="M193 193q0 -22 10 -36t26 -21.5t35 -10t37 -2.5q19 0 40.5 2.5t42 7t38 11t29.5 14.5h4l-10 -127q-14 -9 -34 -18q-31 -20 -47 -44t-16 -46q0 -20 10.5 -28t24.5 -8q8 0 14 1.5t12 3.5v-83q-11 -4 -24.5 -6t-35.5 -2q-17 0 -35 4.5t-32.5 13.5t-24 24t-9.5 36 q0 29 14.5 57t37.5 53q-23 -3 -45 -3q-47 0 -89.5 13t-74 40t-50 70t-18.5 103t20 109.5t53.5 85t77.5 55.5t92 20q47 0 86 -16.5t66.5 -44.5t43 -63.5t15.5 -74.5q0 -16 -3 -41t-13 -49h-268zM323 271q2 35 -16 54.5t-42 19.5q-27 0 -47 -21.5t-23 -52.5h128z" />
<glyph unicode="&#x11a;" d="M493 516h-250v-95h216v-154h-216v-103h260v-164h-448v680h438v-164zM455 864l-136 -124h-81l-136 124v8h101l75 -53l76 53h101v-8z" />
<glyph unicode="&#x11b;" horiz-adv-x="500" d="M193 193q0 -22 10 -36t26 -21.5t35 -10t37 -2.5q19 0 40.5 2.5t42 7t38 11t29.5 14.5h4l-10 -127q-35 -23 -88 -34t-102 -11q-47 0 -89.5 13t-74 40t-50 70t-18.5 103t20 109.5t53.5 85t77.5 55.5t92 20q47 0 86 -16.5t66.5 -44.5t43 -63.5t15.5 -74.5q0 -16 -3 -41 t-13 -49h-268zM323 271q2 35 -16 54.5t-42 19.5q-27 0 -47 -21.5t-23 -52.5h128zM419 682l-131 -154h-61l-131 154v8h91l70 -68l71 68h91v-8z" />
<glyph unicode="&#x11e;" horiz-adv-x="720" d="M411 529q-39 0 -72 -13.5t-57 -38.5t-38 -61.5t-14 -82.5q0 -45 14.5 -79t38 -56.5t54 -34t62.5 -11.5q33 0 53.5 8t37.5 22v79h-139v151h314v-332q-45 -38 -115 -66.5t-164 -28.5q-77 0 -141 24t-111 69t-73 108.5t-26 142.5q0 74 25 140.5t71.5 116.5t113 79.5 t148.5 29.5q78 0 140.5 -23.5t104.5 -52.5l-58 -151h-5q-31 26 -73.5 43.5t-90.5 17.5zM387 730q-26 0 -50.5 7.5t-43 24t-29.5 41t-11 59.5h62q0 -22 19.5 -40t53.5 -18q29 0 51 16.5t22 41.5h62q0 -35 -11.5 -59.5t-30.5 -41t-43.5 -24t-50.5 -7.5z" />
<glyph unicode="&#x11f;" d="M498 464v-424q0 -63 -22 -109.5t-59 -77t-85.5 -45.5t-102.5 -15q-46 0 -93 11t-84 37l43 134q23 -17 56.5 -27t66.5 -10q17 0 35.5 3.5t34 11t25.5 20t10 30.5v42h-5q-26 -23 -55 -30t-47 -7q-41 0 -76 14t-61 41t-41 67t-15 92q0 53 17 100t48.5 82.5t76 56.5t98.5 21 q35 0 65 -12.5t56 -33.5l62 35zM266 150q13 0 28 6.5t24 20.5v138q-5 9 -18.5 17t-30.5 8q-32 0 -49 -32t-17 -81q0 -42 17.5 -59.5t45.5 -17.5zM265 523q-26 0 -50.5 10t-43 30.5t-29.5 52t-11 74.5h67q0 -32 18 -57.5t50 -25.5q27 0 47.5 23.5t20.5 59.5h67 q0 -42 -11.5 -73.5t-30.5 -52.5t-43.5 -31t-50.5 -10z" />
<glyph unicode="&#x120;" horiz-adv-x="720" d="M411 529q-39 0 -72 -13.5t-57 -38.5t-38 -61.5t-14 -82.5q0 -45 14.5 -79t38 -56.5t54 -34t62.5 -11.5q33 0 53.5 8t37.5 22v79h-139v151h314v-332q-45 -38 -115 -66.5t-164 -28.5q-77 0 -141 24t-111 69t-73 108.5t-26 142.5q0 74 25 140.5t71.5 116.5t113 79.5 t148.5 29.5q78 0 140.5 -23.5t104.5 -52.5l-58 -151h-5q-31 26 -73.5 43.5t-90.5 17.5zM295 803q0 16 7 30.5t20 25t29.5 17t36.5 6.5q19 0 36 -6.5t30 -17t20 -25t7 -30.5t-7 -30.5t-20 -25t-30 -17t-36 -6.5q-20 0 -36.5 6.5t-29.5 17t-20 25t-7 30.5z" />
<glyph unicode="&#x121;" d="M498 464v-424q0 -63 -22 -109.5t-59 -77t-85.5 -45.5t-102.5 -15q-46 0 -93 11t-84 37l43 134q23 -17 56.5 -27t66.5 -10q17 0 35.5 3.5t34 11t25.5 20t10 30.5v42h-5q-26 -23 -55 -30t-47 -7q-41 0 -76 14t-61 41t-41 67t-15 92q0 53 17 100t48.5 82.5t76 56.5t98.5 21 q35 0 65 -12.5t56 -33.5l62 35zM266 150q13 0 28 6.5t24 20.5v138q-5 9 -18.5 17t-30.5 8q-32 0 -49 -32t-17 -81q0 -42 17.5 -59.5t45.5 -17.5zM166 602q0 18 8 33.5t21.5 27t32 18.5t39.5 7t39.5 -7t32 -18.5t21.5 -27t8 -33.5t-8 -33.5t-21.5 -27t-32 -18.5t-39.5 -7 t-39.5 7t-32 18.5t-21.5 27t-8 33.5z" />
<glyph unicode="&#x122;" horiz-adv-x="720" d="M411 529q-39 0 -72 -13.5t-57 -38.5t-38 -61.5t-14 -82.5q0 -45 14.5 -79t38 -56.5t54 -34t62.5 -11.5q33 0 53.5 8t37.5 22v79h-139v151h314v-332q-45 -38 -115 -66.5t-164 -28.5q-77 0 -141 24t-111 69t-73 108.5t-26 142.5q0 74 25 140.5t71.5 116.5t113 79.5 t148.5 29.5q78 0 140.5 -23.5t104.5 -52.5l-58 -151h-5q-31 26 -73.5 43.5t-90.5 17.5zM308 -216l40 149h116v-5l-77 -149h-79v5z" />
<glyph unicode="&#x123;" d="M498 464v-424q0 -63 -22 -109.5t-59 -77t-85.5 -45.5t-102.5 -15q-46 0 -93 11t-84 37l43 134q23 -17 56.5 -27t66.5 -10q17 0 35.5 3.5t34 11t25.5 20t10 30.5v42h-5q-26 -23 -55 -30t-47 -7q-41 0 -76 14t-61 41t-41 67t-15 92q0 53 17 100t48.5 82.5t76 56.5t98.5 21 q35 0 65 -12.5t56 -33.5l62 35zM266 150q13 0 28 6.5t24 20.5v138q-5 9 -18.5 17t-30.5 8q-32 0 -49 -32t-17 -81q0 -42 17.5 -59.5t45.5 -17.5zM363 691l-40 -154h-126v5l77 154h89v-5z" />
<glyph unicode="&#x126;" horiz-adv-x="710" d="M695 493h-40v-493h-188v261h-224v-261h-188v493h-40v97h40v90h188v-90h224v90h188v-90h40v-97zM467 427v66h-224v-66h224z" />
<glyph unicode="&#x127;" d="M229 413q18 28 49.5 48.5t80.5 20.5q22 0 46.5 -8.5t45 -26.5t34 -46t13.5 -67v-334h-180v279q0 26 -13.5 39.5t-29.5 13.5q-20 0 -33.5 -10t-19.5 -21v-301h-180v517h-42v104h42v56l180 15v-71h102v-104h-102v-104h7z" />
<glyph unicode="&#x12a;" horiz-adv-x="320" d="M254 0h-188v680h188v-680zM23 760v90h274v-90h-274z" />
<glyph unicode="&#x12b;" horiz-adv-x="270" d="M225 473v-473h-180v454zM-2 548v90h274v-90h-274z" />
<glyph unicode="&#x12e;" horiz-adv-x="320" d="M254 0h-55q-45 -39 -45 -77q0 -20 10.5 -28t24.5 -8q8 0 14 1.5t12 3.5v-83q-11 -4 -24.5 -6t-35.5 -2q-17 0 -35 4.5t-32.5 13.5t-24 24t-9.5 36q0 32 18 63.5t46 57.5h-52v680h188v-680z" />
<glyph unicode="&#x12f;" horiz-adv-x="270" d="M225 473v-473h-46q-45 -39 -45 -77q0 -20 10.5 -28t24.5 -8q8 0 14 1.5t12 3.5v-83q-11 -4 -24.5 -6t-35.5 -2q-17 0 -35 4.5t-32.5 13.5t-24 24t-9.5 36q0 32 17.5 63.5t46.5 57.5h-53v454zM34 602q0 18 8 33.5t21.5 27t32 18.5t39.5 7t39.5 -7t32 -18.5t21.5 -27 t8 -33.5t-8 -33.5t-21.5 -27t-32 -18.5t-39.5 -7t-39.5 7t-32 18.5t-21.5 27t-8 33.5z" />
<glyph unicode="&#x130;" horiz-adv-x="320" d="M254 0h-188v680h188v-680zM67 803q0 16 7 30.5t20 25t29.5 17t36.5 6.5q19 0 36 -6.5t30 -17t20 -25t7 -30.5t-7 -30.5t-20 -25t-30 -17t-36 -6.5q-20 0 -36.5 6.5t-29.5 17t-20 25t-7 30.5z" />
<glyph unicode="&#x131;" horiz-adv-x="270" d="M225 473v-473h-180v454z" />
<glyph unicode="&#x136;" horiz-adv-x="680" d="M673 0h-230l-193 288h-7v-288h-188v680h188v-269h7l186 269h218v-5l-233 -318l252 -354v-3zM259 -216l40 149h116v-5l-77 -149h-79v5z" />
<glyph unicode="&#x137;" horiz-adv-x="550" d="M540 463l-163 -218l173 -238v-7h-197l-126 181h-5v-181h-180v677l180 15v-393h5l122 169h191v-5zM205 -216l40 149h116v-5l-77 -149h-79v5z" />
<glyph unicode="&#x139;" horiz-adv-x="520" d="M243 166h247v-166h-435v680h188v-514zM63 748l106 124h159v-10l-159 -122h-106v8z" />
<glyph unicode="&#x13a;" horiz-adv-x="270" d="M225 692v-692h-180v677zM43 760l106 124h159v-10l-159 -122h-106v8z" />
<glyph unicode="&#x13b;" horiz-adv-x="520" d="M243 166h247v-166h-435v680h188v-514zM188 -216l40 149h116v-5l-77 -149h-79v5z" />
<glyph unicode="&#x13c;" horiz-adv-x="270" d="M225 692v-692h-180v677zM51 -216l40 149h116v-5l-77 -149h-79v5z" />
<glyph unicode="&#x13d;" horiz-adv-x="520" d="M324 481l15 199h125v-5l-47 -199h-93v5zM243 166h247v-166h-435v680h188v-514z" />
<glyph unicode="&#x13e;" horiz-adv-x="270" d="M225 692v-692h-180v677zM263 493l15 199h125v-5l-47 -199h-93v5z" />
<glyph unicode="&#x13f;" horiz-adv-x="600" d="M243 166h247v-166h-435v680h188v-514zM392 368q0 19 7.5 36t20 29.5t29.5 20t36 7.5t36 -7.5t29.5 -20t20 -29.5t7.5 -36t-7.5 -36t-20 -29.5t-29.5 -20t-36 -7.5t-36 7.5t-29.5 20t-20 29.5t-7.5 36z" />
<glyph unicode="&#x140;" horiz-adv-x="460" d="M220 692v-692h-180v677zM274 293q0 19 7.5 36t20 29.5t29.5 20t36 7.5t36 -7.5t29.5 -20t20 -29.5t7.5 -36t-7.5 -36t-20 -29.5t-29.5 -20t-36 -7.5t-36 7.5t-29.5 20t-20 29.5t-7.5 36z" />
<glyph unicode="&#x141;" horiz-adv-x="520" d="M243 444l101 68l40 -63l-141 -95v-188h247v-166h-435v228l-33 -22l-40 63l73 49v362h188v-236z" />
<glyph unicode="&#x142;" horiz-adv-x="270" d="M225 692v-245l36 26l39 -60l-75 -53v-360h-180v232l-29 -20l-39 60l68 48v357z" />
<glyph unicode="&#x143;" horiz-adv-x="760" d="M512 313h5v367h188v-680h-142l-315 362h-5v-362h-188v680h140zM273 748l106 124h159v-10l-159 -122h-106v8z" />
<glyph unicode="&#x144;" d="M220 413q22 29 56.5 49t82.5 20q24 0 48.5 -9t44.5 -27t33 -46.5t13 -67.5v-332h-180v274q0 32 -15 45t-32 13q-15 0 -28 -8.5t-21 -22.5v-301h-180v468h159l12 -55h7zM186 536l106 154h144v-10l-149 -152h-101v8z" />
<glyph unicode="&#x145;" horiz-adv-x="760" d="M512 313h5v367h188v-680h-142l-315 362h-5v-362h-188v680h140zM296 -216l40 149h116v-5l-77 -149h-79v5z" />
<glyph unicode="&#x146;" d="M220 413q22 29 56.5 49t82.5 20q24 0 48.5 -9t44.5 -27t33 -46.5t13 -67.5v-332h-180v274q0 32 -15 45t-32 13q-15 0 -28 -8.5t-21 -22.5v-301h-180v468h159l12 -55h7zM192 -216l40 149h116v-5l-77 -149h-79v5z" />
<glyph unicode="&#x147;" horiz-adv-x="760" d="M512 313h5v367h188v-680h-142l-315 362h-5v-362h-188v680h140zM543 864l-136 -124h-81l-136 124v8h101l75 -53l76 53h101v-8z" />
<glyph unicode="&#x148;" d="M220 413q22 29 56.5 49t82.5 20q24 0 48.5 -9t44.5 -27t33 -46.5t13 -67.5v-332h-180v274q0 32 -15 45t-32 13q-15 0 -28 -8.5t-21 -22.5v-301h-180v468h159l12 -55h7zM436 682l-131 -154h-61l-131 154v8h91l70 -68l71 68h91v-8z" />
<glyph unicode="&#x14c;" horiz-adv-x="780" d="M745 335q0 -79 -27 -143.5t-74.5 -110.5t-112.5 -71t-140 -25q-78 0 -143.5 24t-113 69.5t-73.5 110.5t-26 146t28.5 147t77.5 113.5t113.5 73.5t136.5 26q73 0 137.5 -25.5t112.5 -72.5t76 -113.5t28 -148.5zM550 337q0 46 -13 82t-35 60t-51.5 36.5t-62.5 12.5 q-32 0 -60.5 -12t-50 -36t-34.5 -60t-13 -83q0 -45 12.5 -79.5t34.5 -58t52 -35.5t66 -12q68 0 111.5 48t43.5 137zM253 760v90h274v-90h-274z" />
<glyph unicode="&#x14d;" horiz-adv-x="530" d="M507 230q0 -51 -19 -95.5t-52 -77.5t-77 -52t-94 -19t-94 17t-77 49t-52 77t-19 101q0 55 18.5 101t50.5 79.5t75.5 52.5t93.5 19q54 0 99.5 -19t78 -52.5t50.5 -80t18 -100.5zM327 233q0 55 -16.5 81t-44.5 26q-27 0 -45 -27t-18 -80q0 -57 18 -81t46 -24 q23 0 41.5 25.5t18.5 79.5zM128 548v90h274v-90h-274z" />
<glyph unicode="&#x150;" horiz-adv-x="780" d="M745 335q0 -79 -27 -143.5t-74.5 -110.5t-112.5 -71t-140 -25q-78 0 -143.5 24t-113 69.5t-73.5 110.5t-26 146t28.5 147t77.5 113.5t113.5 73.5t136.5 26q73 0 137.5 -25.5t112.5 -72.5t76 -113.5t28 -148.5zM550 337q0 46 -13 82t-35 60t-51.5 36.5t-62.5 12.5 q-32 0 -60.5 -12t-50 -36t-34.5 -60t-13 -83q0 -45 12.5 -79.5t34.5 -58t52 -35.5t66 -12q68 0 111.5 48t43.5 137zM238 748l86 124h144v-10l-134 -122h-96v8zM418 748l86 124h144v-10l-134 -122h-96v8z" />
<glyph unicode="&#x151;" horiz-adv-x="530" d="M507 230q0 -51 -19 -95.5t-52 -77.5t-77 -52t-94 -19t-94 17t-77 49t-52 77t-19 101q0 55 18.5 101t50.5 79.5t75.5 52.5t93.5 19q54 0 99.5 -19t78 -52.5t50.5 -80t18 -100.5zM327 233q0 55 -16.5 81t-44.5 26q-27 0 -45 -27t-18 -80q0 -57 18 -81t46 -24 q23 0 41.5 25.5t18.5 79.5zM123 526l96 164h134v-10l-154 -162h-76v8zM293 526l96 164h134v-10l-154 -162h-76v8z" />
<glyph unicode="&#x152;" horiz-adv-x="980" d="M933 516h-250v-91h216v-162h-216v-99h260v-164h-447q-54 -15 -115 -15q-76 0 -139.5 24t-109.5 69.5t-71.5 110.5t-25.5 146t28 147t75.5 113.5t110 73.5t132.5 26q29 0 58 -4t56 -12v1h438v-164zM515 337q0 46 -11.5 82t-31 60t-45.5 36.5t-54 12.5t-54 -12t-45.5 -36 t-31.5 -60t-12 -83q0 -45 11 -79.5t30.5 -58t46 -35.5t57.5 -12q61 0 100.5 48t39.5 137z" />
<glyph unicode="&#x153;" horiz-adv-x="800" d="M497 193q0 -22 10 -36t25 -21.5t34 -10t37 -2.5q19 0 40 2.5t41 7t37.5 11t29.5 14.5h4l-10 -127q-17 -11 -40.5 -19.5t-49 -14t-51 -8.5t-47.5 -3q-45 0 -84 13.5t-68 43.5q-29 -27 -65 -42t-77 -15q-50 0 -93.5 17t-76 49t-51.5 77t-19 101q0 55 18 101t50 79.5 t75 52.5t93 19t90.5 -19t70.5 -52q31 34 69 52.5t79 18.5q47 0 85.5 -16.5t66 -44.5t42.5 -63.5t15 -74.5q0 -16 -3 -41t-13 -49h-264zM323 233q0 55 -15.5 81t-43.5 26q-27 0 -44 -27t-17 -80q0 -57 17 -81t45 -24q23 0 40.5 25.5t17.5 79.5zM623 271q2 35 -15 54.5 t-41 19.5q-27 0 -46 -21.5t-22 -52.5h124z" />
<glyph unicode="&#x154;" horiz-adv-x="640" d="M635 0h-210l-169 271h-13v-271h-188v680h254q61 0 108.5 -15t80.5 -42t50 -64t17 -81q0 -72 -34.5 -119.5t-91.5 -69.5l196 -284v-5zM375 459q0 33 -20.5 52.5t-55.5 19.5h-56v-143h57q32 0 53.5 16.5t21.5 54.5zM213 748l106 124h159v-10l-159 -122h-106v8z" />
<glyph unicode="&#x155;" horiz-adv-x="380" d="M343 299q-30 -3 -53 -15.5t-38 -30.5t-22.5 -38t-7.5 -38v-177h-180v468h147l14 -88h7q8 18 23 35t34 30t40.5 20.5t42.5 7.5h15v-174h-22zM112 536l106 154h144v-10l-149 -152h-101v8z" />
<glyph unicode="&#x158;" horiz-adv-x="640" d="M635 0h-210l-169 271h-13v-271h-188v680h254q61 0 108.5 -15t80.5 -42t50 -64t17 -81q0 -72 -34.5 -119.5t-91.5 -69.5l196 -284v-5zM375 459q0 33 -20.5 52.5t-55.5 19.5h-56v-143h57q32 0 53.5 16.5t21.5 54.5zM483 864l-136 -124h-81l-136 124v8h101l75 -53l76 53h101 v-8z" />
<glyph unicode="&#x159;" horiz-adv-x="380" d="M343 299q-30 -3 -53 -15.5t-38 -30.5t-22.5 -38t-7.5 -38v-177h-180v468h147l14 -88h7q8 18 23 35t34 30t40.5 20.5t42.5 7.5h15v-174h-22zM362 682l-131 -154h-61l-131 154v8h91l70 -68l71 68h91v-8z" />
<glyph unicode="&#x15a;" horiz-adv-x="570" d="M81 219q41 -31 89.5 -48.5t93.5 -17.5t64.5 12.5t19.5 30.5q0 11 -8 20t-21 17t-30 15.5t-36 16.5q-51 23 -89.5 47.5t-64.5 52.5t-39 62t-13 77q0 36 15.5 70t45.5 61t73.5 43.5t99.5 16.5q72 0 130.5 -17.5t110.5 -46.5l-51 -165q-47 31 -92.5 46t-87.5 15 q-23 0 -39.5 -6.5t-16.5 -26.5q0 -12 10.5 -22.5t28.5 -21.5t41.5 -22t50.5 -24q53 -26 86.5 -52.5t52 -54t25.5 -56t7 -56.5q0 -55 -23 -93t-60 -62t-83.5 -34.5t-92.5 -10.5q-76 0 -144 20.5t-108 51.5zM197 748l106 124h159v-10l-159 -122h-106v8z" />
<glyph unicode="&#x15b;" horiz-adv-x="430" d="M373 308q-28 17 -68.5 29t-74.5 12q-17 0 -30 -3t-13 -13q0 -9 37 -23q42 -16 76.5 -31.5t59 -35t38 -45.5t13.5 -63q0 -41 -18 -69.5t-46.5 -46t-64.5 -25.5t-71 -8q-61 0 -110 15t-85 38l41 127q12 -7 29.5 -15t38 -15t42.5 -12t42 -5q17 0 26.5 4.5t9.5 12.5 q0 9 -13 16t-31 14q-42 16 -74 32.5t-53.5 36t-32 44t-10.5 57.5q0 37 15.5 64.5t41 45.5t59 27t68.5 9q56 0 103.5 -14.5t83.5 -38.5zM134 536l106 154h144v-10l-149 -152h-101v8z" />
<glyph unicode="&#x15e;" horiz-adv-x="570" d="M215 -174q35 4 58.5 14.5t23.5 27.5q0 11 -16.5 16.5t-39.5 5.5q-6 0 -15.5 -0.5t-14.5 -1.5l-5 7l42 91q-68 5 -127.5 24t-94.5 47l55 162q41 -31 89.5 -48.5t93.5 -17.5t64.5 12.5t19.5 30.5q0 11 -8 20t-21 17t-30 15.5t-36 16.5q-51 23 -89.5 47.5t-64.5 52.5t-39 62 t-13 77q0 36 15.5 70t45.5 61t73.5 43.5t99.5 16.5q72 0 130.5 -17.5t110.5 -46.5l-51 -165q-47 31 -92.5 46t-87.5 15q-23 0 -39.5 -6.5t-16.5 -26.5q0 -12 10.5 -22.5t28.5 -21.5t41.5 -22t50.5 -24q53 -26 86.5 -52.5t52 -54t25.5 -56t7 -56.5q0 -47 -17.5 -82t-46.5 -59 t-66.5 -37.5t-77.5 -18.5l-22 -43q43 0 73.5 -16t30.5 -51q0 -39 -48 -66.5t-140 -35.5z" />
<glyph unicode="&#x15f;" horiz-adv-x="430" d="M147 -174q35 4 58.5 14.5t23.5 27.5q0 11 -16.5 16.5t-39.5 5.5q-6 0 -15.5 -0.5t-14.5 -1.5l-5 7l42 92q-51 4 -91.5 18t-72.5 34l41 127q12 -7 29.5 -15t38 -15t42.5 -12t42 -5q17 0 26.5 4.5t9.5 12.5q0 9 -13 16t-31 14q-42 16 -74 32.5t-53.5 36t-32 44t-10.5 57.5 q0 37 15.5 64.5t41 45.5t59 27t68.5 9q56 0 103.5 -14.5t83.5 -38.5l-29 -121q-28 17 -68.5 29t-74.5 12q-17 0 -30 -3t-13 -13q0 -9 37 -23q42 -16 76.5 -31.5t59 -35t38 -45.5t13.5 -63q0 -34 -12.5 -59.5t-33 -43t-47.5 -28t-56 -14.5l-23 -45q43 0 73.5 -16t30.5 -51 q0 -39 -48 -66.5t-140 -35.5z" />
<glyph unicode="&#x160;" horiz-adv-x="570" d="M81 219q41 -31 89.5 -48.5t93.5 -17.5t64.5 12.5t19.5 30.5q0 11 -8 20t-21 17t-30 15.5t-36 16.5q-51 23 -89.5 47.5t-64.5 52.5t-39 62t-13 77q0 36 15.5 70t45.5 61t73.5 43.5t99.5 16.5q72 0 130.5 -17.5t110.5 -46.5l-51 -165q-47 31 -92.5 46t-87.5 15 q-23 0 -39.5 -6.5t-16.5 -26.5q0 -12 10.5 -22.5t28.5 -21.5t41.5 -22t50.5 -24q53 -26 86.5 -52.5t52 -54t25.5 -56t7 -56.5q0 -55 -23 -93t-60 -62t-83.5 -34.5t-92.5 -10.5q-76 0 -144 20.5t-108 51.5zM467 864l-136 -124h-81l-136 124v8h101l75 -53l76 53h101v-8z" />
<glyph unicode="&#x161;" horiz-adv-x="430" d="M373 308q-28 17 -68.5 29t-74.5 12q-17 0 -30 -3t-13 -13q0 -9 37 -23q42 -16 76.5 -31.5t59 -35t38 -45.5t13.5 -63q0 -41 -18 -69.5t-46.5 -46t-64.5 -25.5t-71 -8q-61 0 -110 15t-85 38l41 127q12 -7 29.5 -15t38 -15t42.5 -12t42 -5q17 0 26.5 4.5t9.5 12.5 q0 9 -13 16t-31 14q-42 16 -74 32.5t-53.5 36t-32 44t-10.5 57.5q0 37 15.5 64.5t41 45.5t59 27t68.5 9q56 0 103.5 -14.5t83.5 -38.5zM384 682l-131 -154h-61l-131 154v8h91l70 -68l71 68h91v-8z" />
<glyph unicode="&#x162;" horiz-adv-x="580" d="M384 514v-514h-188v514h-176v166h540v-166h-176zM206 -216l40 149h116v-5l-77 -149h-79v5z" />
<glyph unicode="&#x163;" horiz-adv-x="350" d="M265 615v-147h75v-137h-75v-331h-180v331h-70v109l70 36v107zM93 -216l40 149h116v-5l-77 -149h-79v5z" />
<glyph unicode="&#x164;" horiz-adv-x="580" d="M384 514v-514h-188v514h-176v166h540v-166h-176zM468 864l-136 -124h-81l-136 124v8h101l75 -53l76 53h101v-8z" />
<glyph unicode="&#x165;" horiz-adv-x="350" d="M265 615v-147h75v-137h-75v-331h-180v331h-70v109l70 36v107zM322 501l15 199h125v-5l-47 -199h-93v5z" />
<glyph unicode="&#x16a;" horiz-adv-x="710" d="M655 260q0 -53 -18 -102.5t-55.5 -88t-94 -61.5t-132.5 -23q-86 0 -144 23t-92.5 60t-49 84t-14.5 95v433h188v-410q0 -24 6 -45.5t19.5 -37.5t34.5 -25.5t52 -9.5q23 0 43.5 6t35.5 19.5t24 36.5t9 56v410h188v-420zM218 760v90h274v-90h-274z" />
<glyph unicode="&#x16b;" d="M318 52q-22 -26 -56 -46t-77 -20q-27 0 -52.5 8.5t-45.5 27.5t-32.5 49.5t-12.5 74.5v322h180v-274q0 -32 15.5 -45t29.5 -13q18 0 32 10t19 22v300h180v-468h-163l-9 52h-8zM138 548v90h274v-90h-274z" />
<glyph unicode="&#x16e;" horiz-adv-x="710" d="M655 260q0 -53 -18 -102.5t-55.5 -88t-94 -61.5t-132.5 -23q-86 0 -144 23t-92.5 60t-49 84t-14.5 95v433h188v-410q0 -24 6 -45.5t19.5 -37.5t34.5 -25.5t52 -9.5q23 0 43.5 6t35.5 19.5t24 36.5t9 56v410h188v-420zM242 846q0 24 9 44.5t24 35.5t35.5 24t44.5 9 t44.5 -9t35.5 -24t24 -35.5t9 -44.5t-9 -44.5t-24 -35.5t-35.5 -24t-44.5 -9t-44.5 9t-35.5 24t-24 35.5t-9 44.5zM308 846q0 -21 12.5 -35.5t33.5 -14.5q20 0 33.5 14.5t13.5 35.5q0 20 -13.5 36t-33.5 16q-21 0 -33.5 -16t-12.5 -36z" />
<glyph unicode="&#x16f;" d="M318 52q-22 -26 -56 -46t-77 -20q-27 0 -52.5 8.5t-45.5 27.5t-32.5 49.5t-12.5 74.5v322h180v-274q0 -32 15.5 -45t29.5 -13q18 0 32 10t19 22v300h180v-468h-163l-9 52h-8zM162 634q0 24 9 44.5t24 35.5t35.5 24t44.5 9t44.5 -9t35.5 -24t24 -35.5t9 -44.5t-9 -44.5 t-24 -35.5t-35.5 -24t-44.5 -9t-44.5 9t-35.5 24t-24 35.5t-9 44.5zM228 634q0 -21 12.5 -35.5t33.5 -14.5q20 0 33.5 14.5t13.5 35.5q0 20 -13.5 36t-33.5 16q-21 0 -33.5 -16t-12.5 -36z" />
<glyph unicode="&#x170;" horiz-adv-x="710" d="M655 260q0 -53 -18 -102.5t-55.5 -88t-94 -61.5t-132.5 -23q-86 0 -144 23t-92.5 60t-49 84t-14.5 95v433h188v-410q0 -24 6 -45.5t19.5 -37.5t34.5 -25.5t52 -9.5q23 0 43.5 6t35.5 19.5t24 36.5t9 56v410h188v-420zM203 748l86 124h144v-10l-134 -122h-96v8zM383 748 l86 124h144v-10l-134 -122h-96v8z" />
<glyph unicode="&#x171;" d="M318 52q-22 -26 -56 -46t-77 -20q-27 0 -52.5 8.5t-45.5 27.5t-32.5 49.5t-12.5 74.5v322h180v-274q0 -32 15.5 -45t29.5 -13q18 0 32 10t19 22v300h180v-468h-163l-9 52h-8zM133 526l96 164h134v-10l-154 -162h-76v8zM303 526l96 164h134v-10l-154 -162h-76v8z" />
<glyph unicode="&#x172;" horiz-adv-x="710" d="M655 260q0 -77 -38.5 -144.5t-117.5 -102.5q-30 -21 -46 -44.5t-16 -45.5q0 -20 10.5 -28t24.5 -8q8 0 14 1.5t12 3.5v-83q-11 -4 -24.5 -6t-35.5 -2q-17 0 -35 4.5t-32.5 13.5t-24 24t-9.5 36q0 28 13.5 55.5t36.5 51.5q-8 -1 -16 -1h-16q-86 0 -144 23t-92.5 60t-49 84 t-14.5 95v433h188v-410q0 -24 6 -45.5t19.5 -37.5t34.5 -25.5t52 -9.5q23 0 43.5 6t35.5 19.5t24 36.5t9 56v410h188v-420z" />
<glyph unicode="&#x173;" d="M318 52q-22 -26 -56 -46t-77 -20q-27 0 -52.5 8.5t-45.5 27.5t-32.5 49.5t-12.5 74.5v322h180v-274q0 -32 15.5 -45t29.5 -13q18 0 32 10t19 22v300h180v-468h-81q-45 -39 -45 -77q0 -20 10.5 -28t24.5 -8q8 0 14 1.5t12 3.5v-83q-11 -4 -24.5 -6t-35.5 -2q-17 0 -35 4.5 t-32.5 13.5t-24 24t-9.5 36q0 32 17.5 63.5t46.5 57.5h-1l-9 52h-8z" />
<glyph unicode="&#x174;" horiz-adv-x="900" d="M448 337l-98 -337h-145l-210 680h200l87 -361h5l98 361h130l98 -361h5l87 361h200l-210 -680h-145l-97 337h-5zM628 740h-101l-76 53l-75 -53h-101v8l136 124h81l136 -124v-8z" />
<glyph unicode="&#x175;" horiz-adv-x="690" d="M343 206l-58 -206h-130l-160 468h180l52 -211h6l50 211h124l50 -211h6l52 211h180l-160 -468h-130l-56 206h-6zM508 528h-91l-71 68l-70 -68h-91v8l131 154h61l131 -154v-8z" />
<glyph unicode="&#x176;" horiz-adv-x="630" d="M315 452l125 228h200l-231 -392v-288h-188v288l-231 392h200zM493 740h-101l-76 53l-75 -53h-101v8l136 124h81l136 -124v-8z" />
<glyph unicode="&#x177;" horiz-adv-x="500" d="M33 -207l-5 43q46 31 78.5 84.5t46.5 112.5l-158 435h185l67 -250h7l66 250h185l-200 -537q-19 -50 -46.5 -81.5t-53.5 -35.5zM416 528h-91l-71 68l-70 -68h-91v8l131 154h61l131 -154v-8z" />
<glyph unicode="&#x178;" horiz-adv-x="630" d="M315 452l125 228h200l-231 -392v-288h-188v288l-231 392h200zM481 807q0 -14 -6 -26t-16 -21.5t-22.5 -15t-25.5 -5.5q-28 0 -49 20.5t-21 47.5q0 28 21 49t49 21q13 0 25.5 -5.5t22.5 -15.5t16 -22.5t6 -26.5zM289 807q0 -27 -20 -47.5t-49 -20.5q-28 0 -49.5 20.5 t-21.5 47.5q0 28 21.5 49t49.5 21q29 0 49 -21t20 -49z" />
<glyph unicode="&#x179;" horiz-adv-x="630" d="M317 520h-283v160h577l5 -6l-307 -510l3 -4h292v-160h-585l-5 9l306 508zM235 748l106 124h159v-10l-159 -122h-106v8z" />
<glyph unicode="&#x17a;" horiz-adv-x="450" d="M183 331h-152v137h403l3 -4l-178 -322l4 -5h162v-137h-414l-4 6l180 323zM133 536l106 154h144v-10l-149 -152h-101v8z" />
<glyph unicode="&#x17b;" horiz-adv-x="630" d="M317 520h-283v160h577l5 -6l-307 -510l3 -4h292v-160h-585l-5 9l306 508zM234 803q0 16 7 30.5t20 25t29.5 17t36.5 6.5q19 0 36 -6.5t30 -17t20 -25t7 -30.5t-7 -30.5t-20 -25t-30 -17t-36 -6.5q-20 0 -36.5 6.5t-29.5 17t-20 25t-7 30.5z" />
<glyph unicode="&#x17c;" horiz-adv-x="450" d="M183 331h-152v137h403l3 -4l-178 -322l4 -5h162v-137h-414l-4 6l180 323zM120 602q0 18 8 33.5t21.5 27t32 18.5t39.5 7t39.5 -7t32 -18.5t21.5 -27t8 -33.5t-8 -33.5t-21.5 -27t-32 -18.5t-39.5 -7t-39.5 7t-32 18.5t-21.5 27t-8 33.5z" />
<glyph unicode="&#x17d;" horiz-adv-x="630" d="M317 520h-283v160h577l5 -6l-307 -510l3 -4h292v-160h-585l-5 9l306 508zM505 864l-136 -124h-81l-136 124v8h101l75 -53l76 53h101v-8z" />
<glyph unicode="&#x17e;" horiz-adv-x="450" d="M183 331h-152v137h403l3 -4l-178 -322l4 -5h162v-137h-414l-4 6l180 323zM383 682l-131 -154h-61l-131 154v8h91l70 -68l71 68h91v-8z" />
<glyph unicode="&#x192;" horiz-adv-x="530" d="M103 415h94l25 100q7 30 23.5 62t40.5 58t56.5 43t72.5 17q57 0 91 -22t34 -51q0 -19 -10.5 -33t-34.5 -14q-19 0 -28.5 11t-17 24.5t-17.5 25t-31 11.5q-17 0 -30 -10t-23.5 -28.5t-19 -44t-17.5 -56.5l-26 -93h120l-14 -49h-117l-88 -327q-11 -41 -27 -75.5t-37 -59.5 t-46 -39.5t-55 -14.5q-40 0 -69 19t-29 50q0 18 10 31.5t27 13.5q15 0 24.5 -10.5t17.5 -23.5t16 -23.5t20 -10.5t22 15t18.5 36t14.5 43t9 36l86 340h-99z" />
<glyph unicode="&#x218;" horiz-adv-x="570" d="M81 219q41 -31 89.5 -48.5t93.5 -17.5t64.5 12.5t19.5 30.5q0 11 -8 20t-21 17t-30 15.5t-36 16.5q-51 23 -89.5 47.5t-64.5 52.5t-39 62t-13 77q0 36 15.5 70t45.5 61t73.5 43.5t99.5 16.5q72 0 130.5 -17.5t110.5 -46.5l-51 -165q-47 31 -92.5 46t-87.5 15 q-23 0 -39.5 -6.5t-16.5 -26.5q0 -12 10.5 -22.5t28.5 -21.5t41.5 -22t50.5 -24q53 -26 86.5 -52.5t52 -54t25.5 -56t7 -56.5q0 -55 -23 -93t-60 -62t-83.5 -34.5t-92.5 -10.5q-76 0 -144 20.5t-108 51.5zM197 -216l40 149h116v-5l-77 -149h-79v5z" />
<glyph unicode="&#x219;" horiz-adv-x="430" d="M373 308q-28 17 -68.5 29t-74.5 12q-17 0 -30 -3t-13 -13q0 -9 37 -23q42 -16 76.5 -31.5t59 -35t38 -45.5t13.5 -63q0 -41 -18 -69.5t-46.5 -46t-64.5 -25.5t-71 -8q-61 0 -110 15t-85 38l41 127q12 -7 29.5 -15t38 -15t42.5 -12t42 -5q17 0 26.5 4.5t9.5 12.5 q0 9 -13 16t-31 14q-42 16 -74 32.5t-53.5 36t-32 44t-10.5 57.5q0 37 15.5 64.5t41 45.5t59 27t68.5 9q56 0 103.5 -14.5t83.5 -38.5zM129 -216l40 149h116v-5l-77 -149h-79v5z" />
<glyph unicode="&#x259;" horiz-adv-x="500" d="M307 275q0 22 -10 36t-26 21.5t-35 10t-37 2.5q-19 0 -40.5 -2.5t-42 -7t-38 -11t-29.5 -14.5h-4l10 127q35 23 88 34t102 11q47 0 89.5 -13t74 -40t50 -70t18.5 -103t-20 -109.5t-53.5 -85t-77.5 -55.5t-92 -20q-47 0 -86 16.5t-67 44.5t-43 63.5t-15 74.5q0 16 3 41 t13 49h268zM177 197q-2 -35 16 -54.5t42 -19.5q27 0 47 21.5t23 52.5h-128z" />
<glyph unicode="&#x2c6;" horiz-adv-x="500" d="M413 463h-91l-71 68l-70 -68h-91v8l131 154h61l131 -154v-8z" />
<glyph unicode="&#x2c7;" horiz-adv-x="500" d="M413 617l-131 -154h-61l-131 154v8h91l70 -68l71 68h91v-8z" />
<glyph unicode="&#x2d8;" horiz-adv-x="500" d="M249 458q-26 0 -50.5 10t-43 30.5t-29.5 52t-11 74.5h67q0 -32 18 -57.5t50 -25.5q27 0 47.5 23.5t20.5 59.5h67q0 -42 -11.5 -73.5t-30.5 -52.5t-43.5 -31t-50.5 -10z" />
<glyph unicode="&#x2d9;" horiz-adv-x="500" d="M150 537q0 18 8 33.5t21.5 27t32 18.5t39.5 7t39.5 -7t32 -18.5t21.5 -27t8 -33.5t-8 -33.5t-21.5 -27t-32 -18.5t-39.5 -7t-39.5 7t-32 18.5t-21.5 27t-8 33.5z" />
<glyph unicode="&#x2da;" horiz-adv-x="500" d="M137 569q0 24 9 44.5t24 35.5t35.5 24t44.5 9t44.5 -9t35.5 -24t24 -35.5t9 -44.5t-9 -44.5t-24 -35.5t-35.5 -24t-44.5 -9t-44.5 9t-35.5 24t-24 35.5t-9 44.5zM203 569q0 -21 12.5 -35.5t33.5 -14.5q20 0 33.5 14.5t13.5 35.5q0 20 -13.5 36t-33.5 16q-21 0 -33.5 -16 t-12.5 -36z" />
<glyph unicode="&#x2db;" horiz-adv-x="500" d="M288 18q-34 -22 -52 -47t-18 -48q0 -20 10.5 -28t24.5 -8q8 0 14 1.5t12 3.5v-83q-11 -4 -24.5 -6t-35.5 -2q-17 0 -35 4.5t-32.5 13.5t-24 24t-9.5 36q0 24 11 49t29.5 47t42 40t48.5 29l39 -20v-6z" />
<glyph unicode="&#x2dc;" horiz-adv-x="500" d="M420 618q0 -63 -29 -103t-76 -40q-23 0 -39 9.5t-30 21t-27.5 21t-29.5 9.5q-17 0 -25.5 -15t-8.5 -41h-75q0 74 31 108.5t74 34.5q20 0 36 -9.5t30 -21.5t28 -21.5t29 -9.5q17 0 27 15.5t10 41.5h75z" />
<glyph unicode="&#x2dd;" horiz-adv-x="500" d="M108 461l96 164h134v-10l-154 -162h-76v8zM278 461l96 164h134v-10l-154 -162h-76v8z" />
<glyph unicode="&#x3bb;" d="M521 12l-177 -28l-71 267h-6l-66 -251h-187l160 431q-14 39 -25 68.5t-25 54t-33 45.5t-48 41l1 46h163q32 -4 58.5 -33t45.5 -78z" />
<glyph unicode="&#x3c0;" horiz-adv-x="570" d="M185 22q-26 -27 -57 -31.5t-53 7t-28 35t20 51.5q48 52 63 113t15 139h-16q-26 0 -42 -7t-23 -29l-37 5q11 84 38 123.5t72 39.5h387v-132h-86l-21 -203q-3 -25 4.5 -35.5t22.5 -10.5t26 10t24 37l40 -13q-21 -61 -57.5 -94.5t-92.5 -33.5q-49 0 -72 29.5t-18 78.5 l27 235h-69q-1 -35 -2.5 -79t-8.5 -88t-20 -83t-36 -64z" />
<glyph unicode="&#x1e80;" horiz-adv-x="900" d="M448 337l-98 -337h-145l-210 680h200l87 -361h5l98 361h130l98 -361h5l87 361h200l-210 -680h-145l-97 337h-5zM542 740h-106l-159 122v10h159l106 -124v-8z" />
<glyph unicode="&#x1e81;" horiz-adv-x="690" d="M343 206l-58 -206h-130l-160 468h180l52 -211h6l50 211h124l50 -211h6l52 211h180l-160 -468h-130l-56 206h-6zM432 528h-101l-149 152v10h144l106 -154v-8z" />
<glyph unicode="&#x1e82;" horiz-adv-x="900" d="M448 337l-98 -337h-145l-210 680h200l87 -361h5l98 361h130l98 -361h5l87 361h200l-210 -680h-145l-97 337h-5zM358 748l106 124h159v-10l-159 -122h-106v8z" />
<glyph unicode="&#x1e83;" horiz-adv-x="690" d="M343 206l-58 -206h-130l-160 468h180l52 -211h6l50 211h124l50 -211h6l52 211h180l-160 -468h-130l-56 206h-6zM258 536l106 154h144v-10l-149 -152h-101v8z" />
<glyph unicode="&#x1e84;" horiz-adv-x="900" d="M448 337l-98 -337h-145l-210 680h200l87 -361h5l98 361h130l98 -361h5l87 361h200l-210 -680h-145l-97 337h-5zM616 807q0 -14 -6 -26t-16 -21.5t-22.5 -15t-25.5 -5.5q-28 0 -49 20.5t-21 47.5q0 28 21 49t49 21q13 0 25.5 -5.5t22.5 -15.5t16 -22.5t6 -26.5zM424 807 q0 -27 -20 -47.5t-49 -20.5q-28 0 -49.5 20.5t-21.5 47.5q0 28 21.5 49t49.5 21q29 0 49 -21t20 -49z" />
<glyph unicode="&#x1e85;" horiz-adv-x="690" d="M343 206l-58 -206h-130l-160 468h180l52 -211h6l50 211h124l50 -211h6l52 211h180l-160 -468h-130l-56 206h-6zM511 595q0 -14 -6 -26t-16 -21.5t-22.5 -15t-25.5 -5.5q-28 0 -49 20.5t-21 47.5q0 28 21 49t49 21q13 0 25.5 -5.5t22.5 -15.5t16 -22.5t6 -26.5zM319 595 q0 -27 -20 -47.5t-49 -20.5q-28 0 -49.5 20.5t-21.5 47.5q0 28 21.5 49t49.5 21q29 0 49 -21t20 -49z" />
<glyph unicode="&#x1e9e;" horiz-adv-x="720" d="M600 532q0 -33 -10.5 -53.5t-23 -36t-23 -29.5t-10.5 -33q0 -16 12 -27t30.5 -22t39.5 -24t39.5 -32t30.5 -46.5t12 -67.5q0 -45 -20.5 -78t-53 -54.5t-73 -32.5t-80.5 -11q-58 0 -102.5 8.5t-63.5 19.5l24 163q26 -12 53.5 -19t64.5 -7q33 0 48.5 9.5t15.5 23.5 q0 12 -12 21t-30 17.5t-38.5 18t-38.5 22t-30 29.5t-12 41q0 27 8.5 43.5t19 30t19 28.5t8.5 39q0 27 -20.5 40t-45.5 13q-32 0 -57 -14t-38 -29v-483h-188v582q51 54 124.5 83.5t169.5 29.5q62 0 109 -13.5t78.5 -36t47.5 -52t16 -61.5z" />
<glyph unicode="&#x1ef2;" horiz-adv-x="630" d="M315 452l125 228h200l-231 -392v-288h-188v288l-231 392h200zM407 740h-106l-159 122v10h159l106 -124v-8z" />
<glyph unicode="&#x1ef3;" horiz-adv-x="500" d="M33 -207l-5 43q46 31 78.5 84.5t46.5 112.5l-158 435h185l67 -250h7l66 250h185l-200 -537q-19 -50 -46.5 -81.5t-53.5 -35.5zM340 528h-101l-149 152v10h144l106 -154v-8z" />
<glyph unicode="&#x2011;" horiz-adv-x="370" d="M325 309v-139h-280v139h280z" />
<glyph unicode="&#x2013;" horiz-adv-x="500" d="M455 309v-139h-410v139h410z" />
<glyph unicode="&#x2014;" horiz-adv-x="1000" d="M908 296v-113h-816v113h816z" />
<glyph unicode="&#x2018;" horiz-adv-x="350" d="M300 675l-63 -279h-187v5l146 279h104v-5z" />
<glyph unicode="&#x2019;" horiz-adv-x="350" d="M50 401l63 279h187v-5l-146 -279h-104v5z" />
<glyph unicode="&#x201a;" horiz-adv-x="350" d="M50 -164l63 279h187v-5l-146 -279h-104v5z" />
<glyph unicode="&#x201c;" horiz-adv-x="600" d="M300 675l-63 -279h-187v5l146 279h104v-5zM550 675l-63 -279h-187v5l146 279h104v-5z" />
<glyph unicode="&#x201d;" horiz-adv-x="600" d="M50 401l63 279h187v-5l-146 -279h-104v5zM300 401l63 279h187v-5l-146 -279h-104v5z" />
<glyph unicode="&#x201e;" horiz-adv-x="600" d="M50 -164l63 279h187v-5l-146 -279h-104v5zM300 -164l63 279h187v-5l-146 -279h-104v5z" />
<glyph unicode="&#x2020;" horiz-adv-x="620" d="M383 486l187 19v-155l-193 19l-20 -428h-94l-21 427l-192 -18v155l187 -18l-9 193h164z" />
<glyph unicode="&#x2021;" horiz-adv-x="620" d="M382 486l188 19v-155l-193 19l-6 -128l164 14v-155l-170 14l-8 -173h-94l-9 172l-169 -13v155l163 -13l-6 126l-192 -18v155l187 -18l-9 193h164z" />
<glyph unicode="&#x2022;" horiz-adv-x="480" d="M104 264q0 28 10.5 53t29 43.5t43.5 29t53 10.5t53 -10.5t43.5 -29t29 -43.5t10.5 -53t-10.5 -53t-29 -43.5t-43.5 -29t-53 -10.5t-53 10.5t-43.5 29t-29 43.5t-10.5 53z" />
<glyph unicode="&#x2026;" horiz-adv-x="930" d="M52 86q0 19 7.5 36t20 29.5t29.5 20t36 7.5t36 -7.5t29.5 -20t20 -29.5t7.5 -36t-7.5 -36t-20 -29.5t-29.5 -20t-36 -7.5t-36 7.5t-29.5 20t-20 29.5t-7.5 36zM372 86q0 19 7.5 36t20 29.5t29.5 20t36 7.5t36 -7.5t29.5 -20t20 -29.5t7.5 -36t-7.5 -36t-20 -29.5 t-29.5 -20t-36 -7.5t-36 7.5t-29.5 20t-20 29.5t-7.5 36zM692 86q0 19 7.5 36t20 29.5t29.5 20t36 7.5t36 -7.5t29.5 -20t20 -29.5t7.5 -36t-7.5 -36t-20 -29.5t-29.5 -20t-36 -7.5t-36 7.5t-29.5 20t-20 29.5t-7.5 36z" />
<glyph unicode="&#x2030;" horiz-adv-x="1000" d="M955 146q0 -35 -11.5 -63.5t-31 -49.5t-46.5 -32.5t-57 -11.5q-31 0 -58 11.5t-46.5 32.5t-30.5 49.5t-11 63.5t11 65t30 51.5t45 34t57 12.5q34 0 61.5 -12.5t47 -34t30 -51.5t10.5 -65zM852 147q0 33 -11.5 53.5t-31.5 20.5q-19 0 -31 -21t-12 -53t12.5 -51t33.5 -19 q16 0 28 18.5t12 51.5zM306 341l245 348l56 -31l-252 -339l-232 -328l-56 33zM635 146q0 -35 -11.5 -63.5t-31 -49.5t-46.5 -32.5t-57 -11.5q-31 0 -58 11.5t-46.5 32.5t-30.5 49.5t-11 63.5t11 65t30 51.5t45 34t57 12.5q34 0 61.5 -12.5t47 -34t30 -51.5t10.5 -65z M532 147q0 33 -11.5 53.5t-31.5 20.5q-19 0 -31 -21t-12 -53t12.5 -51t33.5 -19q16 0 28 18.5t12 51.5zM337 528q0 -35 -11.5 -63.5t-31 -49.5t-46.5 -32.5t-57 -11.5q-31 0 -58 11.5t-46.5 32.5t-30.5 49.5t-11 63.5t11 65t30 51.5t45 34t57 12.5q34 0 61.5 -12.5t47 -34 t30 -51.5t10.5 -65zM234 529q0 33 -11.5 53.5t-31.5 20.5q-19 0 -31 -21t-12 -53t12.5 -51t33.5 -19q16 0 28 18.5t12 51.5z" />
<glyph unicode="&#x2032;" horiz-adv-x="350" d="M121 697l153 -51l-128 -288l-99 34z" />
<glyph unicode="&#x2033;" horiz-adv-x="590" d="M121 697l153 -51l-128 -288l-99 34zM361 697l153 -51l-128 -288l-99 34z" />
<glyph unicode="&#x2039;" horiz-adv-x="430" d="M287 459l76 -57l-125 -172l122 -172l-78 -62l-223 228v9z" />
<glyph unicode="&#x203a;" horiz-adv-x="430" d="M371 233v-9l-223 -228l-78 62l122 172l-125 172l76 57z" />
<glyph unicode="&#x2042;" horiz-adv-x="790" d="M424 560l105 63l29 -104l-123 -7l110 -86l-82 -72l-64 126l-65 -126l-80 77l103 81l-119 7l31 100l102 -56l-24 139h111zM226 197l105 63l29 -104l-123 -7l110 -86l-82 -72l-64 126l-65 -126l-80 77l103 81l-119 7l31 100l102 -56l-24 139h111zM616 197l105 63l29 -104 l-123 -7l110 -86l-82 -72l-64 126l-65 -126l-80 77l103 81l-119 7l31 100l102 -56l-24 139h111z" />
<glyph unicode="&#x2044;" horiz-adv-x="780" d="M380 345l235 358l51 -31l-247 -349l-242 -375l-51 33z" />
<glyph unicode="&#x2070;" horiz-adv-x="320" d="M308 606q0 -52 -11.5 -89.5t-31 -62t-46 -36t-57.5 -11.5q-30 0 -57.5 10.5t-48 33.5t-32.5 61t-12 94q0 51 12 87.5t32.5 59.5t48 33.5t57.5 10.5q64 0 105 -47.5t41 -143.5zM194 607q0 51 -10 72t-25 21q-12 0 -22 -20.5t-10 -72.5q0 -30 3 -50t8 -32t11 -16.5t13 -4.5 q16 0 24 22.5t8 80.5z" />
<glyph unicode="&#x2074;" horiz-adv-x="320" d="M319 504h-38v-89h-104v89h-159l-9 49l159 236h113v-204h38v-81zM177 583v103h-4l-64 -99l2 -5z" />
<glyph unicode="&#x2075;" horiz-adv-x="320" d="M35 579l26 210h224l-5 -94l-147 5l-7 -44q6 1 13.5 1h14.5q38 0 65 -9.5t44.5 -25t26 -35.5t8.5 -41q0 -33 -16 -58.5t-43 -43.5t-63.5 -27.5t-77.5 -9.5q-46 0 -68 7l8 89q11 -5 26.5 -5.5t26.5 -0.5q52 0 71 13.5t19 28.5q0 41 -91 41q-15 0 -26.5 -0.5t-25.5 -1.5z " />
<glyph unicode="&#x2076;" horiz-adv-x="320" d="M135 632q11 7 23.5 10.5t32.5 3.5t41 -6.5t38.5 -21t29 -36.5t11.5 -52q0 -61 -41 -92t-104 -31q-42 0 -71.5 12.5t-48.5 33.5t-27.5 48.5t-8.5 57.5q0 59 22 102.5t59.5 72.5t87 43.5t103.5 16.5l-8 -83q-62 -4 -99 -26t-44 -50zM202 537q0 24 -12.5 33.5t-26.5 9.5 q-11 0 -20.5 -3.5t-16.5 -11.5q-3 -14 -2 -28t6 -25t13.5 -17.5t20.5 -6.5q17 0 27.5 13t10.5 36z" />
<glyph unicode="&#x2077;" horiz-adv-x="320" d="M309 777q-58 -89 -90 -179.5t-34 -182.5h-125q6 39 18 77.5t28.5 74.5t37 68t43.5 58l-4 5l-157 -6l5 97h270z" />
<glyph unicode="&#x2078;" horiz-adv-x="320" d="M10 508q0 18 6 33t15.5 27t21 20.5t22.5 12.5v3q-34 22 -44.5 44t-10.5 45q0 43 36.5 73.5t108.5 30.5q28 0 53 -6.5t43.5 -18.5t29 -29t10.5 -39q0 -60 -61 -89v-3q22 -11 35.5 -23t21.5 -24.5t11 -25t3 -23.5q0 -24 -11 -44t-31.5 -34.5t-48.5 -22.5t-61 -8 q-67 0 -108 28.5t-41 72.5zM202 519q0 11 -11 21.5t-46 27.5q-13 -8 -20 -21.5t-7 -25.5q0 -16 13 -26t30 -10q19 0 30 9t11 25zM125 688q0 -13 9 -23.5t41 -24.5q11 8 17.5 19.5t6.5 26.5q0 14 -9.5 23.5t-26.5 9.5q-21 0 -29.5 -10.5t-8.5 -20.5z" />
<glyph unicode="&#x2079;" horiz-adv-x="320" d="M60 491q52 11 88 30.5t42 50.5l-4 3q-11 -8 -26 -13t-35 -5q-21 0 -42 6.5t-37 20t-26 34t-10 47.5q0 32 12 56.5t32.5 41.5t46.5 25.5t55 8.5q39 0 68 -12.5t48.5 -34t29 -50.5t9.5 -63q0 -51 -17.5 -89t-47.5 -65t-70 -45t-85 -29l-31 78v4zM119 665q0 -22 11 -31.5 t27 -9.5q9 0 19 2.5t19 10.5q7 36 -4.5 57.5t-32.5 21.5q-17 0 -28 -13.5t-11 -37.5z" />
<glyph unicode="&#x20ac;" horiz-adv-x="620" d="M587 31q-75 -46 -166 -46q-63 0 -116 19.5t-94.5 54t-70 82.5t-40.5 104h-77l17 75h51v9v15.5t1 15.5h-64l19 75h56q15 62 46.5 110.5t74.5 81.5t95 50.5t109 17.5q89 0 157 -43l-45 -150q-24 16 -52.5 26.5t-61.5 9.5q-45 -1 -85 -25.5t-62 -77.5h239l-19 -75h-236 q-1 -7 -1 -13.5v-13.5v-13h227l-17 -75h-195q19 -48 57 -75.5t89 -27.5q36 0 65.5 8t56.5 24z" />
<glyph unicode="&#x2117;" horiz-adv-x="790" d="M83 323q0 64 24.5 121t67.5 99.5t99.5 67t121.5 24.5q67 0 124.5 -24.5t98.5 -67t64.5 -99.5t23.5 -121q0 -65 -22.5 -121.5t-63.5 -99.5t-98.5 -67.5t-126.5 -24.5q-65 0 -121.5 23t-99.5 64.5t-67.5 99t-24.5 126.5zM142 321q0 -56 19.5 -103t53.5 -81t80.5 -53 t101.5 -19q54 0 100 19t79.5 53t52.5 81t19 103q0 58 -19.5 106t-53.5 82.5t-80 53.5t-99 19t-99 -19.5t-80.5 -54.5t-54.5 -82.5t-20 -104.5zM551 385q0 -27 -11 -50t-29.5 -39.5t-44 -26t-53.5 -9.5h-43v-119h-86v369h120q64 0 105.5 -31.5t41.5 -93.5zM463 385 q0 24 -15 37.5t-38 13.5h-40v-102h40q19 0 36 12.5t17 38.5z" />
<glyph unicode="&#x2122;" horiz-adv-x="690" d="M220 617v-197h-68v197h-88v63h244v-63h-88zM532 540l-52 -122h-25l-52 122h-4l-21 -120h-68l51 260h49l56 -141h4l55 141h50l51 -260h-69l-20 120h-5z" />
<glyph unicode="&#x2126;" horiz-adv-x="600" d="M299 528q-24 0 -41 -12.5t-28.5 -33.5t-16.5 -49.5t-5 -60.5q0 -39 5.5 -73.5t14.5 -61.5t21 -45.5t25 -26.5v-165h-258v164h110v5q-23 19 -42.5 45t-34.5 57t-23.5 67t-8.5 75q0 62 20 113.5t56.5 89t89 58.5t117.5 21t117.5 -22t89 -59.5t56.5 -87.5t20 -105 q0 -83 -32 -148t-77 -104v-5h110v-164h-258v165q12 7 24 25.5t21 45.5t15 61t6 72q0 31 -5.5 60t-16.5 51t-29 35t-42 13z" />
<glyph unicode="&#x2153;" horiz-adv-x="780" d="M380 345l235 358l51 -31l-247 -349l-242 -375l-51 33zM127 315v262l-75 -7l-9 102l179 21l20 -13v-365h-115zM452 70q52 -22 100 -22q27 0 44.5 7.5t17.5 24.5q0 13 -13 22t-37 8l-78 -3l5 82l71 -4q25 -1 35.5 10t10.5 25q0 26 -57 26q-23 0 -44 -6.5t-34 -12.5h-5l5 98 q14 5 42 11t63 6q29 0 55 -6t46 -18t31.5 -29.5t11.5 -41.5q0 -36 -18 -59t-47 -34v-5q33 -11 52.5 -32.5t19.5 -50.5q0 -37 -18 -59.5t-43.5 -34.5t-52.5 -16t-46 -4q-69 0 -118 20l-2 98h3z" />
<glyph unicode="&#x2154;" horiz-adv-x="780" d="M380 345l235 358l51 -31l-247 -349l-242 -375l-51 33zM26 656q25 17 58.5 29t77.5 12q26 0 51 -5.5t44.5 -18t31.5 -32t12 -47.5q0 -48 -30 -92t-84 -82l3 -5l117 8v-108h-274l-12 52q89 70 126 118t37 73q0 21 -11.5 30t-37.5 9q-21 0 -45 -9.5t-42 -23.5zM452 70 q52 -22 100 -22q27 0 44.5 7.5t17.5 24.5q0 13 -13 22t-37 8l-78 -3l5 82l71 -4q25 -1 35.5 10t10.5 25q0 26 -57 26q-23 0 -44 -6.5t-34 -12.5h-5l5 98q14 5 42 11t63 6q29 0 55 -6t46 -18t31.5 -29.5t11.5 -41.5q0 -36 -18 -59t-47 -34v-5q33 -11 52.5 -32.5t19.5 -50.5 q0 -37 -18 -59.5t-43.5 -34.5t-52.5 -16t-46 -4q-69 0 -118 20l-2 98h3z" />
<glyph unicode="&#x2155;" horiz-adv-x="780" d="M380 345l235 358l51 -31l-247 -349l-242 -375l-51 33zM127 315v262l-75 -7l-9 102l179 21l20 -13v-365h-115zM461 124l26 210h224l-5 -94l-147 5l-7 -44q6 1 13.5 1h14.5q38 0 65 -9.5t44.5 -25t26 -35.5t8.5 -41q0 -33 -16 -58.5t-43 -43.5t-63.5 -27.5t-77.5 -9.5 q-46 0 -68 7l8 89q11 -5 26.5 -5.5t26.5 -0.5q52 0 71 13.5t19 28.5q0 41 -91 41q-15 0 -26.5 -0.5t-25.5 -1.5z" />
<glyph unicode="&#x2156;" horiz-adv-x="780" d="M380 345l235 358l51 -31l-247 -349l-242 -375l-51 33zM26 656q25 17 58.5 29t77.5 12q26 0 51 -5.5t44.5 -18t31.5 -32t12 -47.5q0 -48 -30 -92t-84 -82l3 -5l117 8v-108h-274l-12 52q89 70 126 118t37 73q0 21 -11.5 30t-37.5 9q-21 0 -45 -9.5t-42 -23.5zM461 124 l26 210h224l-5 -94l-147 5l-7 -44q6 1 13.5 1h14.5q38 0 65 -9.5t44.5 -25t26 -35.5t8.5 -41q0 -33 -16 -58.5t-43 -43.5t-63.5 -27.5t-77.5 -9.5q-46 0 -68 7l8 89q11 -5 26.5 -5.5t26.5 -0.5q52 0 71 13.5t19 28.5q0 41 -91 41q-15 0 -26.5 -0.5t-25.5 -1.5z" />
<glyph unicode="&#x2157;" horiz-adv-x="780" d="M380 345l235 358l51 -31l-247 -349l-242 -375l-51 33zM44 425q52 -22 100 -22q27 0 44.5 7.5t17.5 24.5q0 13 -13 22t-37 8l-78 -3l5 82l71 -4q25 -1 35.5 10t10.5 25q0 26 -57 26q-23 0 -44 -6.5t-34 -12.5h-5l5 98q14 5 42 11t63 6q29 0 55 -6t46 -18t31.5 -29.5 t11.5 -41.5q0 -36 -18 -59t-47 -34v-5q33 -11 52.5 -32.5t19.5 -50.5q0 -37 -18 -59.5t-43.5 -34.5t-52.5 -16t-46 -4q-69 0 -118 20l-2 98h3zM461 124l26 210h224l-5 -94l-147 5l-7 -44q6 1 13.5 1h14.5q38 0 65 -9.5t44.5 -25t26 -35.5t8.5 -41q0 -33 -16 -58.5t-43 -43.5 t-63.5 -27.5t-77.5 -9.5q-46 0 -68 7l8 89q11 -5 26.5 -5.5t26.5 -0.5q52 0 71 13.5t19 28.5q0 41 -91 41q-15 0 -26.5 -0.5t-25.5 -1.5z" />
<glyph unicode="&#x2158;" horiz-adv-x="780" d="M380 345l235 358l51 -31l-247 -349l-242 -375l-51 33zM325 404h-38v-89h-104v89h-159l-9 49l159 236h113v-204h38v-81zM183 483v103h-4l-64 -99l2 -5zM461 124l26 210h224l-5 -94l-147 5l-7 -44q6 1 13.5 1h14.5q38 0 65 -9.5t44.5 -25t26 -35.5t8.5 -41q0 -33 -16 -58.5 t-43 -43.5t-63.5 -27.5t-77.5 -9.5q-46 0 -68 7l8 89q11 -5 26.5 -5.5t26.5 -0.5q52 0 71 13.5t19 28.5q0 41 -91 41q-15 0 -26.5 -0.5t-25.5 -1.5z" />
<glyph unicode="&#x2159;" horiz-adv-x="780" d="M380 345l235 358l51 -31l-247 -349l-242 -375l-51 33zM127 315v262l-75 -7l-9 102l179 21l20 -13v-365h-115zM543 177q11 7 23.5 10.5t32.5 3.5t41 -6.5t38.5 -21t29 -36.5t11.5 -52q0 -61 -41 -92t-104 -31q-42 0 -71.5 12.5t-48.5 33.5t-27.5 48.5t-8.5 57.5 q0 59 22 102.5t59.5 72.5t87 43.5t103.5 16.5l-8 -83q-62 -4 -99 -26t-44 -50zM610 82q0 24 -12.5 33.5t-26.5 9.5q-11 0 -20.5 -3.5t-16.5 -11.5q-3 -14 -2 -28t6 -25t13.5 -17.5t20.5 -6.5q17 0 27.5 13t10.5 36z" />
<glyph unicode="&#x215a;" horiz-adv-x="780" d="M380 345l235 358l51 -31l-247 -349l-242 -375l-51 33zM53 479l26 210h224l-5 -94l-147 5l-7 -44q6 1 13.5 1h14.5q38 0 65 -9.5t44.5 -25t26 -35.5t8.5 -41q0 -33 -16 -58.5t-43 -43.5t-63.5 -27.5t-77.5 -9.5q-46 0 -68 7l8 89q11 -5 26.5 -5.5t26.5 -0.5q52 0 71 13.5 t19 28.5q0 41 -91 41q-15 0 -26.5 -0.5t-25.5 -1.5zM543 177q11 7 23.5 10.5t32.5 3.5t41 -6.5t38.5 -21t29 -36.5t11.5 -52q0 -61 -41 -92t-104 -31q-42 0 -71.5 12.5t-48.5 33.5t-27.5 48.5t-8.5 57.5q0 59 22 102.5t59.5 72.5t87 43.5t103.5 16.5l-8 -83q-62 -4 -99 -26 t-44 -50zM610 82q0 24 -12.5 33.5t-26.5 9.5q-11 0 -20.5 -3.5t-16.5 -11.5q-3 -14 -2 -28t6 -25t13.5 -17.5t20.5 -6.5q17 0 27.5 13t10.5 36z" />
<glyph unicode="&#x215b;" horiz-adv-x="780" d="M380 345l235 358l51 -31l-247 -349l-242 -375l-51 33zM127 315v262l-75 -7l-9 102l179 21l20 -13v-365h-115zM436 53q0 18 6 33t15.5 27t21 20.5t22.5 12.5v3q-34 22 -44.5 44t-10.5 45q0 43 36.5 73.5t108.5 30.5q28 0 53 -6.5t43.5 -18.5t29 -29t10.5 -39 q0 -60 -61 -89v-3q22 -11 35.5 -23t21.5 -24.5t11 -25t3 -23.5q0 -24 -11 -44t-31.5 -34.5t-48.5 -22.5t-61 -8q-67 0 -108 28.5t-41 72.5zM628 64q0 11 -11 21.5t-46 27.5q-13 -8 -20 -21.5t-7 -25.5q0 -16 13 -26t30 -10q19 0 30 9t11 25zM551 233q0 -13 9 -23.5t41 -24.5 q11 8 17.5 19.5t6.5 26.5q0 14 -9.5 23.5t-26.5 9.5q-21 0 -29.5 -10.5t-8.5 -20.5z" />
<glyph unicode="&#x215c;" horiz-adv-x="780" d="M380 345l235 358l51 -31l-247 -349l-242 -375l-51 33zM44 425q52 -22 100 -22q27 0 44.5 7.5t17.5 24.5q0 13 -13 22t-37 8l-78 -3l5 82l71 -4q25 -1 35.5 10t10.5 25q0 26 -57 26q-23 0 -44 -6.5t-34 -12.5h-5l5 98q14 5 42 11t63 6q29 0 55 -6t46 -18t31.5 -29.5 t11.5 -41.5q0 -36 -18 -59t-47 -34v-5q33 -11 52.5 -32.5t19.5 -50.5q0 -37 -18 -59.5t-43.5 -34.5t-52.5 -16t-46 -4q-69 0 -118 20l-2 98h3zM436 53q0 18 6 33t15.5 27t21 20.5t22.5 12.5v3q-34 22 -44.5 44t-10.5 45q0 43 36.5 73.5t108.5 30.5q28 0 53 -6.5t43.5 -18.5 t29 -29t10.5 -39q0 -60 -61 -89v-3q22 -11 35.5 -23t21.5 -24.5t11 -25t3 -23.5q0 -24 -11 -44t-31.5 -34.5t-48.5 -22.5t-61 -8q-67 0 -108 28.5t-41 72.5zM628 64q0 11 -11 21.5t-46 27.5q-13 -8 -20 -21.5t-7 -25.5q0 -16 13 -26t30 -10q19 0 30 9t11 25zM551 233 q0 -13 9 -23.5t41 -24.5q11 8 17.5 19.5t6.5 26.5q0 14 -9.5 23.5t-26.5 9.5q-21 0 -29.5 -10.5t-8.5 -20.5z" />
<glyph unicode="&#x215d;" horiz-adv-x="780" d="M380 345l235 358l51 -31l-247 -349l-242 -375l-51 33zM53 479l26 210h224l-5 -94l-147 5l-7 -44q6 1 13.5 1h14.5q38 0 65 -9.5t44.5 -25t26 -35.5t8.5 -41q0 -33 -16 -58.5t-43 -43.5t-63.5 -27.5t-77.5 -9.5q-46 0 -68 7l8 89q11 -5 26.5 -5.5t26.5 -0.5q52 0 71 13.5 t19 28.5q0 41 -91 41q-15 0 -26.5 -0.5t-25.5 -1.5zM436 53q0 18 6 33t15.5 27t21 20.5t22.5 12.5v3q-34 22 -44.5 44t-10.5 45q0 43 36.5 73.5t108.5 30.5q28 0 53 -6.5t43.5 -18.5t29 -29t10.5 -39q0 -60 -61 -89v-3q22 -11 35.5 -23t21.5 -24.5t11 -25t3 -23.5 q0 -24 -11 -44t-31.5 -34.5t-48.5 -22.5t-61 -8q-67 0 -108 28.5t-41 72.5zM628 64q0 11 -11 21.5t-46 27.5q-13 -8 -20 -21.5t-7 -25.5q0 -16 13 -26t30 -10q19 0 30 9t11 25zM551 233q0 -13 9 -23.5t41 -24.5q11 8 17.5 19.5t6.5 26.5q0 14 -9.5 23.5t-26.5 9.5 q-21 0 -29.5 -10.5t-8.5 -20.5z" />
<glyph unicode="&#x215e;" horiz-adv-x="780" d="M380 345l235 358l51 -31l-247 -349l-242 -375l-51 33zM370 677q-58 -89 -90 -179.5t-34 -182.5h-125q6 39 18 77.5t28.5 74.5t37 68t43.5 58l-4 5l-157 -6l5 97h270zM436 53q0 18 6 33t15.5 27t21 20.5t22.5 12.5v3q-34 22 -44.5 44t-10.5 45q0 43 36.5 73.5t108.5 30.5 q28 0 53 -6.5t43.5 -18.5t29 -29t10.5 -39q0 -60 -61 -89v-3q22 -11 35.5 -23t21.5 -24.5t11 -25t3 -23.5q0 -24 -11 -44t-31.5 -34.5t-48.5 -22.5t-61 -8q-67 0 -108 28.5t-41 72.5zM628 64q0 11 -11 21.5t-46 27.5q-13 -8 -20 -21.5t-7 -25.5q0 -16 13 -26t30 -10 q19 0 30 9t11 25zM551 233q0 -13 9 -23.5t41 -24.5q11 8 17.5 19.5t6.5 26.5q0 14 -9.5 23.5t-26.5 9.5q-21 0 -29.5 -10.5t-8.5 -20.5z" />
<glyph unicode="&#x2191;" horiz-adv-x="700" d="M631 367l-96 -106l-112 103v-314h-149v311l-109 -100l-97 106l276 237h13z" />
<glyph unicode="&#x2193;" horiz-adv-x="700" d="M357 50h-13l-276 237l97 106l109 -101v312h149v-315l112 104l96 -106z" />
<glyph unicode="&#x2202;" horiz-adv-x="530" d="M243 562q-32 0 -57 -11.5t-42 -23.5h-35l17 113q18 20 57 35.5t81 15.5q50 0 94 -24.5t77 -72t52 -118.5t19 -164q0 -81 -18 -142.5t-50.5 -102.5t-78 -61.5t-99.5 -20.5q-53 0 -96.5 19t-74.5 51t-48 73.5t-17 86.5q0 46 15.5 91t43.5 81t67 58t86 22q40 0 68 -12.5 t53 -41.5l5 3q-1 29 -10.5 55.5t-25.5 46.5t-37.5 32t-45.5 12zM325 234q0 49 -15 77.5t-43 28.5q-23 0 -42.5 -26.5t-19.5 -79.5q0 -51 18.5 -78.5t41.5 -27.5q24 0 42 26t18 80z" />
<glyph unicode="&#x2206;" horiz-adv-x="610" d="M10 0l263 695h45l282 -695h-590zM189 154h175l-90 217z" />
<glyph unicode="&#x220f;" horiz-adv-x="670" d="M653 680v-164h-73v-516h-188v516h-114v-516h-188v516h-73v164h636z" />
<glyph unicode="&#x2211;" horiz-adv-x="620" d="M328 164h256v-164h-566l-4 10l243 320v7l-229 336l5 7h551v-164h-245l-3 -3l114 -170v-11l-125 -163z" />
<glyph unicode="&#x2212;" horiz-adv-x="530" d="M33 246v110h464v-110h-464z" />
<glyph unicode="&#x221a;" horiz-adv-x="530" d="M325 61l152 695l49 -10l-184 -883h-37l-195 526l-98 -35l-16 37l175 59l141 -389h13z" />
<glyph unicode="&#x221e;" horiz-adv-x="530" d="M402 149q-35 0 -68.5 18.5t-68.5 68.5q-32 -42 -63.5 -64.5t-73.5 -22.5q-32 0 -55.5 11.5t-39 30t-23 41t-7.5 44.5q0 27 10 51t27 41.5t39.5 28t47.5 10.5q45 0 76 -25.5t59 -66.5q32 41 62.5 66.5t72.5 25.5q28 0 51.5 -9t41 -26t27 -40.5t9.5 -51.5q0 -27 -10 -51 t-26.5 -41.5t-39.5 -28t-48 -10.5zM398 359q-15 0 -26.5 -4t-23.5 -13.5t-26 -26.5t-32 -43q28 -39 54.5 -56t53.5 -17q32 0 54.5 21.5t22.5 59.5q0 36 -23.5 57.5t-53.5 21.5zM129 197q30 0 52 18.5t55 63.5q-29 42 -53.5 60t-53.5 18q-30 0 -52.5 -21.5t-22.5 -59.5 q0 -37 23 -58t52 -21z" />
<glyph unicode="&#x222b;" horiz-adv-x="530" d="M310 10q1 -47 -12 -86.5t-36.5 -68t-56 -44t-70.5 -15.5q-28 0 -51.5 15.5t-23.5 50.5q0 19 11.5 36.5t37.5 17.5q20 0 36.5 -14t20.5 -50l26 -7q10 9 18 26t13 38t8 44.5t2 46.5l-12 487q-1 48 12 87.5t36 67.5t55 43t70 15q29 0 53 -15.5t24 -49.5q0 -19 -12 -36.5 t-38 -17.5q-19 0 -35.5 14t-20.5 50l-26 7q-21 -20 -32 -57t-9 -98z" />
<glyph unicode="&#x2248;" horiz-adv-x="530" d="M477 366q-7 -21 -18 -42t-27 -37.5t-37.5 -26.5t-48.5 -10q-25 0 -47 11t-42.5 24.5t-40 25t-39.5 11.5t-33.5 -5.5t-24 -14.5t-18 -20t-14.5 -22l-44 32q7 14 19.5 29.5t30 29t39 22t45.5 8.5t46 -11t42.5 -24t40.5 -24t41 -11q29 0 50 24t27 53zM487 206 q-7 -20 -20 -37t-30.5 -30.5t-37.5 -21t-41 -7.5q-30 0 -54.5 11t-46 24.5t-41 24.5t-39.5 11q-24 0 -41 -19t-31 -45l-46 30q7 12 17 28t24.5 30.5t33.5 24.5t43 10t46 -11t44 -24t44 -24t47 -11q32 0 53 18t29 41z" />
<glyph unicode="&#x2260;" horiz-adv-x="530" d="M257 146l-62 -132l-90 46l40 86h-102v110h154l39 82h-193v110h245l62 132l90 -46l-41 -86h88v-110h-140l-38 -82h178v-110h-230z" />
<glyph unicode="&#x2264;" horiz-adv-x="530" d="M196 383l303 -143l-45 -100l-404 200v82l404 200l45 -100zM43 0v104h444v-104h-444z" />
<glyph unicode="&#x2265;" horiz-adv-x="530" d="M31 522l45 100l404 -200v-82l-404 -200l-45 100l303 143zM43 0v104h444v-104h-444z" />
<glyph unicode="&#x25ca;" horiz-adv-x="530" d="M19 275l245 375l246 -375l-246 -373zM264 29l162 246l-162 248l-161 -248z" />
<glyph unicode="&#x25fc;" horiz-adv-x="470" d="M0 470h470v-470h-470v470z" />
<glyph unicode="&#x2605;" horiz-adv-x="570" d="M123 -5l66 186l-166 118l2 5l201 -7l57 193h6l58 -193l199 5l1 -4l-163 -117l66 -188l-3 -1l-161 118l-159 -118z" />
<glyph unicode="&#xf6c3;" horiz-adv-x="500" d="M166 -216l40 149h116v-5l-77 -149h-79v5z" />
<glyph unicode="&#xf8ff;" horiz-adv-x="530" d="M227 720l32 -121l-3 -82l68 -8l64 99l8 99h12l7 -99l-17 -129l36 -85l35 -38l1 -6l-7 -8v-18l8 -4l-1 -9l-17 -36l-36 7l-11 101l-34 56l-13 -2l26 -60l4 -99l-37 -46l3 -22l26 -37l7 -71l-64 -23l-33 16l-35 57l-75 25l-28 47l-3 42l-30 41l-2 58l4 27l-11 44l105 284 h11zM500 235l-3 -37l-12 -17l-5 -33l23 -8l-3 -10l-23 7l-43 -26l-5 10l39 23l5 36l-36 14l-13 31l-1 10l14 15l24 4l33 -10zM313 291l11 13l-3 14l-11 10l-30 -10l-3 -13zM337 60l-7 -21l-40 -43l-68 -23l-97 14l-55 48l-18 62l34 95l11 -1l-9 -71l22 -41l37 -33l88 -16 l48 3l51 31zM158 429l33 34l11 76h-18l-35 -101z" />
<glyph horiz-adv-x="640" d="M540 477q-34 25 -72 36.5t-73 10.5q-24 0 -48 -6t-44.5 -19t-37 -33t-26.5 -48l249 6v-160l-255 4q9 -30 26 -51.5t39.5 -34.5t49 -19t54.5 -6q38 0 77.5 12.5t65.5 32.5h5l55 -149q-51 -36 -106 -52t-118 -16q-78 0 -142 26t-109 71.5t-70 108.5t-25 138q0 81 28.5 148 t76.5 115.5t112 75.5t136 27q48 0 100 -12.5t112 -48.5l-55 -157h-5z" />
<glyph horiz-adv-x="750" d="M528 458q-20 32 -51.5 51t-77.5 19q-33 0 -63.5 -11.5t-54 -35t-37.5 -59.5t-14 -84q0 -42 12.5 -76.5t35 -59.5t54.5 -38.5t70 -13.5q59 0 95 26t35 85h-163v146h341q16 -113 -2.5 -193t-63 -131t-111 -74.5t-146.5 -23.5q-66 0 -129.5 21.5t-113 64.5t-79.5 107.5 t-30 150.5q0 81 27 148t75 115.5t113.5 75.5t142.5 27q43 0 85 -8.5t80 -27t70.5 -48.5t55.5 -73z" />
<glyph horiz-adv-x="810" d="M562 338l-154 -227h-6l-154 227h-5v-338h-188v680h145l205 -304h6l202 304h142v-680h-188v338h-5z" />
<glyph horiz-adv-x="860" d="M615 347l-165 -349h-40l-165 349h-5v-347h-185v680h193l179 -349h6l179 349h193v-680h-185v347h-5z" />
<glyph horiz-adv-x="780" d="M745 335q0 -94 -37.5 -167t-101.5 -118l129 -173v-5h-210l-86 116q-24 -3 -48 -3q-78 0 -143.5 24t-113 69.5t-73.5 110.5t-26 146t28.5 147t77.5 113.5t113.5 73.5t136.5 26q73 0 137.5 -25.5t112.5 -72.5t76 -113.5t28 -148.5zM550 337q0 46 -13 82t-35 60t-51.5 36.5 t-62.5 12.5q-32 0 -60.5 -12t-50 -36t-34.5 -60t-13 -83q0 -45 12.5 -79.5t34.5 -58t52 -35.5t66 -12q68 0 111.5 48t43.5 137z" />
<glyph horiz-adv-x="780" d="M745 335q0 -66 -19 -122t-53.5 -99.5t-82 -73.5t-104.5 -44v-152h-190v151q-59 13 -107 42t-82.5 72.5t-53 100t-18.5 125.5q0 81 28.5 147t77.5 113.5t113.5 73.5t136.5 26q73 0 137.5 -25.5t112.5 -72.5t76 -113.5t28 -148.5zM550 337q0 46 -13 82t-35 60t-51.5 36.5 t-62.5 12.5q-32 0 -60.5 -12t-50 -36t-34.5 -60t-13 -83q0 -45 12.5 -79.5t34.5 -58t52 -35.5t66 -12q68 0 111.5 48t43.5 137z" />
<glyph horiz-adv-x="680" d="M448 329q24 -10 48 -34t47 -55.5t43.5 -66.5t38 -68t31 -59.5t21.5 -40.5v-5h-209q-8 13 -20.5 38t-28 55t-34 61t-38.5 56.5t-41.5 42t-43.5 16.5h-17v-269h-190v680h236q68 0 118 -16t82.5 -42.5t48 -61.5t15.5 -73q0 -58 -27 -98.5t-80 -54.5v-5zM365 462 q0 33 -19.5 51t-51.5 18h-51v-133h52q29 0 49.5 14.5t20.5 49.5z" />
<glyph horiz-adv-x="900" d="M570 288h5l135 392h195l-255 -680h-115l-87 232l-78 -232h-120l-255 680h195l135 -392h5l33 89l-108 303h160l36 -136l34 136h160l-109 -301z" />
<glyph d="M323 417l10 51h165v-468h-165l-10 54h-5q-17 -27 -47 -47.5t-76 -20.5q-33 0 -64 15t-55 44.5t-38.5 72t-14.5 97.5q0 58 15.5 107t41.5 84.5t60 55.5t72 20q29 0 56 -12.5t50 -52.5h5zM266 128q13 0 28 7.5t24 24.5v150q-5 11 -18.5 20.5t-30.5 9.5q-32 0 -49 -33.5 t-17 -84.5q0 -48 17.5 -71t45.5 -23z" />
<glyph horiz-adv-x="360" d="M362 543q-19 8 -41 8q-24 0 -40 -18t-16 -41v-24h80v-137h-80v-331h-180v331h-65v109l65 36v25q0 45 16 79.5t44 58.5t65 36.5t78 12.5q55 0 78 -9v-136h-4z" />
<glyph horiz-adv-x="500" d="M234 170h-21t-20 2l-23 -28v-5l133 -16q85 -11 133.5 -52.5t48.5 -111.5q0 -44 -23.5 -75.5t-60 -51.5t-82 -29.5t-89.5 -9.5q-109 0 -169.5 32t-60.5 86q0 32 25 56t61 40v5l-61 10v104l65 75q-35 20 -53.5 49.5t-18.5 68.5q0 34 15.5 63.5t44 51t68.5 33.5t90 12 q41 0 72 -6t54 -17l138 17v-112l-54 1q6 -23 6 -44q0 -28 -14 -54.5t-41.5 -47.5t-68 -33.5t-94.5 -12.5zM310 -55q0 31 -52 38l-55 8q-20 -5 -34 -17t-14 -29q0 -23 25 -34.5t58 -11.5q32 0 52 11t20 35zM281 317q0 26 -13.5 39.5t-33.5 13.5q-19 0 -32 -15t-13 -39 q0 -27 14 -38.5t32 -11.5q15 0 30.5 11.5t15.5 39.5z" />
<glyph horiz-adv-x="270" d="M45 454l180 19v-669h-180v650zM34 602q0 18 8 33.5t21.5 27t32 18.5t39.5 7t39.5 -7t32 -18.5t21.5 -27t8 -33.5t-8 -33.5t-21.5 -27t-32 -18.5t-39.5 -7t-39.5 7t-32 18.5t-21.5 27t-8 33.5z" />
<glyph horiz-adv-x="310" d="M298 145v-130q-18 -11 -42 -17.5t-53 -6.5q-30 0 -58.5 9.5t-50.5 28t-35.5 46.5t-13.5 65v537l180 15v-503q0 -24 10.5 -37.5t29.5 -13.5q15 0 28 7h5z" />
<glyph horiz-adv-x="390" d="M366 145v-126q-23 -16 -59.5 -24.5t-71.5 -8.5q-86 0 -128 42.5t-42 111.5v196h-47v102l134 135h90v-105h122v-132h-122v-151q0 -29 18.5 -43t46.5 -14q11 0 26.5 4.5t27.5 12.5h5z" />
<glyph d="M498 184q0 -44 -15.5 -80.5t-45.5 -62.5t-73.5 -40.5t-98.5 -14.5q-64 0 -107 14.5t-68.5 40t-36.5 61.5t-11 79v287h180v-287q0 -29 13 -41t36 -12q17 0 32 13t15 41v286h180v-284z" />
<glyph horiz-adv-x="350" d="M94 235l20 207h118l21 -206l22 -236h-200zM264 591q0 -38 -26 -64t-66 -26q-46 0 -70 28.5t-24 65.5q0 19 7 36t19 29.5t29 19.5t37 7q42 0 68 -26t26 -70z" />
<glyph horiz-adv-x="490" d="M419 155l-9 -139q-15 -7 -47 -15t-83 -8q-56 0 -100 14t-75.5 39.5t-48 60t-16.5 76.5q0 46 20 80.5t51.5 58.5t69.5 38t74 20v70h132v-173q-32 -2 -63 -7t-55 -15t-39 -26t-15 -41q0 -27 23 -42.5t58 -15.5q29 0 59.5 6.5t54.5 18.5h9zM414 599q0 -38 -26 -64t-66 -26 q-46 0 -70 28.5t-24 65.5q0 19 7 36t19 29.5t29 19.5t37 7q42 0 68 -26t26 -70z" />
<glyph horiz-adv-x="370" d="M325 369v-139h-280v139h280z" />
<glyph horiz-adv-x="500" d="M455 369v-139h-410v139h410z" />
<glyph horiz-adv-x="1000" d="M908 356v-113h-816v113h816z" />
<glyph horiz-adv-x="430" d="M287 549l76 -57l-125 -172l122 -172l-78 -62l-223 228v9z" />
<glyph horiz-adv-x="430" d="M371 323v-9l-223 -228l-78 62l122 172l-125 172l76 57z" />
<glyph horiz-adv-x="680" d="M287 549l76 -57l-125 -172l122 -172l-78 -62l-223 228v9zM537 549l76 -57l-125 -172l122 -172l-78 -62l-223 228v9z" />
<glyph horiz-adv-x="680" d="M371 323v-9l-223 -228l-78 62l122 172l-125 172l76 57zM621 323v-9l-223 -228l-78 62l122 172l-125 172l76 57z" />
<glyph horiz-adv-x="720" d="M693 0h-191l-44 44q-45 -28 -95.5 -43.5t-103.5 -15.5q-51 0 -92 13t-70 35.5t-44.5 52.5t-15.5 65q0 34 10.5 61.5t28 50t40.5 41t48 34.5q-43 45 -65.5 87t-22.5 89q0 38 14.5 71t42.5 57.5t69 38.5t94 14q51 0 89.5 -15t64.5 -40t39 -56.5t13 -65.5q0 -35 -10.5 -62 t-27.5 -49t-39.5 -39.5t-47.5 -32.5l88 -92q14 23 23 50.5t9 58.5h160q-3 -57 -26.5 -112t-64.5 -103l127 -132v-5zM287 130q31 0 69 18l-107 108q-18 -15 -28.5 -32.5t-10.5 -39.5q0 -26 21 -40t56 -14zM241 498q0 -22 14.5 -41t35.5 -39q20 17 33 36t13 42q0 25 -11.5 42 t-36.5 17t-36.5 -17t-11.5 -40z" />
<glyph horiz-adv-x="590" d="M560 347q0 -95 -19.5 -163.5t-54.5 -112.5t-83.5 -65t-105.5 -21q-54 0 -102.5 19t-85 61.5t-58 111.5t-21.5 170q0 93 21.5 159t58 108t85 61.5t102.5 19.5q57 0 105.5 -21.5t83.5 -65t54.5 -109t19.5 -152.5zM370 349q0 52 -6 87.5t-16 58t-24.5 32.5t-30.5 10 q-14 0 -27.5 -9.5t-23.5 -32t-16 -58.5t-6 -88q0 -61 6.5 -100.5t17 -63t25 -33t29.5 -9.5q17 0 30.5 10.5t22.5 34.5t14 63.5t5 97.5z" />
<glyph horiz-adv-x="590" d="M239 0v499l-129 -13l-13 173l317 30l13 -12v-677h-188z" />
<glyph horiz-adv-x="590" d="M51 620q16 15 41.5 29t56 24t66 16t73.5 6q48 0 94 -10.5t81.5 -34t57 -60t21.5 -88.5q0 -91 -60.5 -176.5t-172.5 -157.5l2 -5l241 15v-178h-502l-23 75q87 68 148 127t99.5 107t55.5 85.5t17 62.5q0 38 -21 55t-68 17q-41 0 -86.5 -18t-80.5 -42z" />
<glyph horiz-adv-x="590" d="M43 182q48 -20 96 -30.5t95 -10.5q49 0 81.5 16t32.5 52q0 28 -23.5 47t-68.5 17l-150 -6l8 149l138 -6q23 -1 39 4.5t26 14.5t14.5 20t4.5 23q0 32 -25.5 49t-77.5 17q-46 0 -86 -12t-66 -23h-8l9 161q26 10 76.5 20.5t114.5 10.5q51 0 96.5 -11t80.5 -33.5t55.5 -56 t20.5 -78.5q0 -61 -29 -102t-84 -64v-5q27 -7 50 -21.5t39.5 -35.5t26 -47t9.5 -54q0 -43 -15 -74.5t-38.5 -54t-54 -37t-62 -22.5t-60.5 -11t-51 -3q-63 0 -117 10t-98 27l-4 160h5z" />
<glyph horiz-adv-x="590" d="M564 170h-60v-170h-185v170h-284l-16 69l285 441h200v-372l60 2v-140zM319 301v197h-5l-116 -197v-4z" />
<glyph horiz-adv-x="590" d="M65 320l48 360h408l-10 -158l-266 10l-12 -91q10 1 20.5 1.5t19.5 0.5q72 0 124 -17.5t86 -47t50 -67.5t16 -78q0 -62 -29 -108.5t-78.5 -77.5t-115.5 -46.5t-141 -15.5q-45 0 -75.5 3.5t-53.5 10.5l16 144q19 -5 48 -8t47 -3q49 0 84.5 8.5t58.5 22t33.5 31t10.5 35.5 q0 45 -50.5 69t-138.5 24q-26 0 -48.5 -1t-45.5 -4z" />
<glyph horiz-adv-x="590" d="M247 397q21 15 47.5 24t64.5 9q35 0 72 -13.5t68 -41t50.5 -69t19.5 -97.5t-20.5 -97.5t-55 -70t-81 -42.5t-98.5 -14q-74 0 -126 22.5t-85 60.5t-48.5 88t-15.5 105q0 105 40 183.5t107 132t155 82t184 31.5l-14 -146q-57 -3 -102 -16t-78.5 -32.5t-55 -44t-31.5 -51.5z M379 212q0 52 -23.5 75t-55.5 23q-20 0 -35 -7t-32 -21q-6 -29 -4 -57t11.5 -50t26.5 -35.5t42 -13.5q29 0 49.5 20.5t20.5 65.5z" />
<glyph horiz-adv-x="590" d="M580 668q-108 -165 -167 -331t-63 -337h-210q10 73 30 145.5t48 139.5t62.5 127t73.5 110l-4 4l-290 -11l10 165h500z" />
<glyph horiz-adv-x="590" d="M35 170q0 32 11.5 59.5t30.5 49.5t41.5 37.5t45.5 23.5v2q-61 41 -85 84t-24 83q0 38 16 71.5t47.5 59t79 40.5t110.5 15q50 0 93.5 -12t75.5 -35t50 -55.5t18 -72.5q0 -54 -25.5 -91t-85.5 -69v-3q39 -23 64.5 -45.5t40 -45.5t20.5 -45.5t6 -45.5q0 -41 -18 -76 t-52 -60.5t-83.5 -39.5t-113.5 -14q-61 0 -110 14t-83 38.5t-52 58.5t-18 74zM384 181q0 25 -24.5 50t-86.5 55q-29 -17 -41.5 -42t-12.5 -49q0 -35 24.5 -54.5t60.5 -19.5q32 0 56 14.5t24 45.5zM234 504q0 -9 4 -18.5t14.5 -20.5t29 -24.5t48.5 -29.5q23 17 31.5 39 t8.5 41q0 29 -19.5 48.5t-51.5 19.5q-29 0 -47 -16t-18 -39z" />
<glyph horiz-adv-x="590" d="M109 128q51 10 95 26t77 36t54.5 44.5t28.5 51.5l-3 3q-45 -39 -129 -39q-33 0 -68 13.5t-64.5 40.5t-48.5 67t-19 93q0 55 21.5 98t57 72.5t81.5 45t96 15.5q68 0 119.5 -22.5t86 -62t51.5 -92.5t17 -114q0 -93 -31 -161.5t-84.5 -118t-124.5 -82t-151 -52.5l-62 130v8z M222 458q0 -45 22.5 -66.5t54.5 -21.5q37 0 69 33q5 22 5 48.5t-7.5 49.5t-24 38t-44.5 15q-35 0 -55 -26.5t-20 -69.5z" />
<glyph horiz-adv-x="570" d="M545 264q0 -66 -20 -118t-54.5 -88t-81 -54.5t-98.5 -18.5q-56 0 -104.5 17.5t-84.5 52t-56.5 86t-20.5 119.5q0 63 20.5 113.5t56 86.5t83.5 55.5t102 19.5q56 0 103.5 -19.5t82 -55.5t53.5 -86t19 -110zM362 262q0 70 -23 100t-53 30q-33 0 -55.5 -30.5t-22.5 -99.5 q0 -71 23.5 -102.5t55.5 -31.5q29 0 52 31t23 103z" />
<glyph horiz-adv-x="470" d="M179 0v350l-115 -11l-12 157l300 29l7 -7v-518h-180z" />
<glyph horiz-adv-x="500" d="M32 480q13 7 35.5 17t52 18t64.5 14t74 6q40 0 77 -9t64.5 -27.5t44 -47t16.5 -66.5q0 -26 -9 -55.5t-29.5 -59.5t-54 -60.5t-82.5 -59.5l3 -5l177 13v-158h-437l-10 70q69 49 117 87.5t78 70t43 58t13 51.5t-18 37.5t-47 12.5q-26 0 -48.5 -6t-40.5 -14t-31.5 -16.5 t-20.5 -13.5z" />
<glyph horiz-adv-x="490" d="M25 151q36 -16 78.5 -25t82.5 -9q38 0 61 9t23 35q0 18 -18.5 31t-55.5 11l-110 -3l8 121l98 -3q37 -2 51.5 12.5t14.5 31.5q0 19 -19.5 30t-60.5 11q-31 0 -63.5 -7t-67.5 -21l9 134q23 8 64 17t97 9q109 0 172 -39t63 -105q0 -46 -27.5 -76t-75.5 -44v-3 q54 -14 84.5 -49.5t30.5 -77.5t-20 -72t-54.5 -48.5t-81.5 -27t-101 -8.5q-53 0 -97.5 7t-81.5 20z" />
<glyph horiz-adv-x="530" d="M504 105h-59v-105h-170v105h-235l-16 76l229 339h192v-293l59 2v-124zM275 223v141h-6l-82 -138l1 -6z" />
<glyph horiz-adv-x="490" d="M40 203l36 317h365l-12 -143l-237 9l-8 -66q18 1 31.5 1.5t30.5 0.5q56 0 97 -12t67.5 -32t39 -47.5t12.5 -57.5q0 -48 -24 -83.5t-67 -59t-101.5 -34.5t-128.5 -11q-29 0 -55.5 2t-49.5 9l16 135q17 -5 41 -7.5t44 -2.5q77 0 108 14.5t31 31.5q0 24 -33 33.5t-93 9.5 q-28 0 -57.5 -2.5t-48.5 -7.5z" />
<glyph horiz-adv-x="510" d="M220 298q20 13 44 20t55 7t62 -10t55.5 -30.5t39.5 -51.5t15 -74q0 -36 -15 -67.5t-44 -55t-72 -37.5t-99 -14q-62 0 -107 16t-74.5 44t-43.5 66.5t-14 82.5q0 66 29.5 126t83.5 105.5t130 73.5t169 31l-10 -126q-96 -8 -145 -36t-63 -66zM314 172q0 27 -17 39.5 t-35 12.5q-20 0 -33.5 -5.5t-24.5 -14.5q-3 -16 -1.5 -32t8.5 -28.5t19.5 -20t31.5 -7.5t35.5 13.5t16.5 42.5z" />
<glyph horiz-adv-x="480" d="M476 513q-80 -130 -126 -261t-55 -252h-200q10 47 27 96t39.5 97t49.5 94.5t58 88.5l-4 5l-228 -9l9 148h425z" />
<glyph horiz-adv-x="520" d="M394 277q57 -28 79 -62.5t22 -74.5q0 -35 -15.5 -63.5t-45.5 -48.5t-73 -31.5t-98 -11.5q-61 0 -105.5 11.5t-74 31t-44 45t-14.5 52.5q0 24 9 44.5t24 38t33.5 31.5t37.5 24q-26 17 -42.5 32.5t-25.5 30.5t-12.5 30.5t-3.5 32.5q0 29 13 55.5t40.5 46.5t69.5 32t100 12 q47 0 85 -10.5t65 -29t42 -43t15 -52.5q0 -46 -22.5 -75t-58.5 -45v-3zM239 204q-3 1 -5.5 2t-5.5 3q-26 -26 -26 -59q0 -20 15 -33.5t43 -13.5q19 0 35 10.5t16 32.5q0 11 -6 19t-15.5 14.5t-22.5 12t-28 12.5zM219 378q0 -15 15.5 -29.5t57.5 -31.5q27 27 27 58 q0 17 -13.5 31t-37.5 14q-25 0 -37 -13.5t-12 -28.5z" />
<glyph horiz-adv-x="510" d="M81 113q88 13 142 35t80 66l-4 3q-25 -13 -50 -17.5t-62 -4.5q-30 0 -60.5 9.5t-54.5 29.5t-39.5 50t-15.5 72q0 38 17 71t47.5 57t74 37.5t96.5 13.5q63 0 107.5 -18.5t72.5 -48.5t41 -69t13 -80q0 -78 -30 -136t-79.5 -98t-113 -64.5t-130.5 -35.5zM198 348 q0 -24 17.5 -38t41.5 -14q19 0 29 4.5t22 12.5q10 36 -4 63.5t-52 27.5q-23 0 -38.5 -14t-15.5 -42z" />
<glyph horiz-adv-x="530" d="M320 286h177v-110h-177v-177h-110v177h-177v110h177v177h110v-177z" />
<glyph horiz-adv-x="530" d="M33 176v110h464v-110h-464z" />
<glyph horiz-adv-x="530" d="M265 309l142 142l78 -78l-142 -142l142 -142l-78 -78l-142 142l-142 -142l-78 78l142 142l-142 142l78 78z" />
<glyph horiz-adv-x="530" d="M33 176v110h464v-110h-464zM189 408q0 32 22 54t54 22t54 -22t22 -54t-22 -54t-54 -22t-54 22t-22 54zM189 54q0 32 22 54t54 22t54 -22t22 -54t-22 -54t-54 -22t-54 22t-22 54z" />
<glyph horiz-adv-x="530" d="M43 76v110h444v-110h-444zM43 268v110h444v-110h-444z" />
<glyph horiz-adv-x="530" d="M257 76l-62 -132l-90 46l40 86h-102v110h154l39 82h-193v110h245l62 132l90 -46l-41 -86h88v-110h-140l-38 -82h178v-110h-230z" />
<glyph horiz-adv-x="530" d="M196 253l303 -143l-45 -100l-404 200v82l404 200l45 -100z" />
<glyph horiz-adv-x="530" d="M31 392l45 100l404 -200v-82l-404 -200l-45 100l303 143z" />
<glyph horiz-adv-x="530" d="M196 313l303 -143l-45 -100l-404 200v82l404 200l45 -100zM43 -70v104h444v-104h-444z" />
<glyph horiz-adv-x="530" d="M31 452l45 100l404 -200v-82l-404 -200l-45 100l303 143zM43 -70v104h444v-104h-444z" />
<glyph horiz-adv-x="510" d="M159 -104l18 95q-42 7 -76.5 18.5t-56.5 26.5l29 137q28 -17 61.5 -31t73.5 -20l16 83l-13 6q-45 20 -74.5 39.5t-47 40t-25 43.5t-7.5 51q0 29 13 56t37.5 48t61.5 33.5t85 12.5q8 0 15 -0.5t14 -0.5l19 97l60 -12l-19 -93q33 -7 60 -17.5t49 -23.5l-29 -136 q-29 17 -55 29.5t-55 19.5l-14 -75l10 -3q51 -20 81.5 -42t47.5 -45.5t22.5 -48t5.5 -49.5q0 -41 -19.5 -69.5t-49.5 -46.5t-66.5 -26.5t-70.5 -8.5h-10.5t-10.5 1l-20 -101zM312 143q0 10 -8 18t-32 21l-12 -63q52 0 52 24zM210 380q0 -10 8 -17.5t32 -18.5l12 61h-8 q-17 0 -30.5 -6.5t-13.5 -18.5z" />
<glyph horiz-adv-x="470" d="M217 -85l11 104q-41 7 -74.5 26t-57.5 47.5t-37 66t-13 81.5q0 55 19 101t50.5 79.5t73.5 52.5t89 19l10 99l61 -5l-11 -101q25 -5 45 -16t41 -25l-35 -114q-16 13 -32.5 22.5t-36.5 14.5l-24 -229q30 3 53.5 15t42.5 26l25 -115q-23 -18 -56.5 -31.5t-71.5 -16.5 l-11 -106zM191 242q0 -42 15 -66t40 -33l24 226q-35 -7 -57 -40.5t-22 -86.5z" />
<glyph horiz-adv-x="590" d="M495 367q-5 4 -14.5 9t-23 10t-30.5 8t-36 3q-35 -1 -65.5 -14.5t-48.5 -44.5h209l-15 -60h-212q-1 -5 -1 -10v-10v-14h206l-15 -60h-171q18 -28 47.5 -44.5t67.5 -16.5q35 0 61 10t51 23l35 -130q-70 -41 -159 -41q-53 0 -98.5 15t-81.5 41.5t-60.5 63t-36.5 79.5h-58 l15 60h34v12v11t1 11h-50l17 60h43q13 47 40.5 83.5t64 62t81 38.5t91.5 13q49 0 88.5 -12t59.5 -26z" />
<glyph horiz-adv-x="520" d="M456 141l16 -116q-23 -20 -50 -30t-49 -10t-38.5 6t-33 12.5t-36.5 12.5t-49 6t-65 -12t-63 -25l-40 75q47 35 66 78t19 82q0 8 -1 13h-64v65h48q-8 23 -14.5 45.5t-6.5 43.5q0 39 17.5 67t46.5 46t65 26.5t74 8.5q44 0 82.5 -11t69.5 -34l-26 -115q-14 11 -41 21.5 t-59 10.5q-25 0 -45.5 -13t-20.5 -43q0 -13 3.5 -26t8.5 -27h107v-65h-87q1 -4 1 -10q0 -25 -18.5 -51.5t-67.5 -48.5l8 -12q13 8 37 17t45 9q18 0 28 -3.5t18 -7t17.5 -7t24.5 -3.5q17 0 33 5.5t34 21.5z" />
<glyph horiz-adv-x="550" d="M190 225v3l-177 292h168l94 -164h4l90 164h168l-177 -292v-3h71v-65h-71v-34h71v-65h-71v-61h-170v61h-71v65h71v34h-71v65h71z" />
<glyph horiz-adv-x="500" d="M179 424l38 158l73 -16l-37 -154l73 -12l43 173l73 -16l-43 -169l72 -12l-15 -88l-78 13l-28 -113l69 -11l-16 -88l-75 12l-46 -184l-73 16l45 180l-70 12l-47 -198l-73 16l46 194l-75 13l15 88l81 -14l27 113l-70 12l15 88zM205 212l71 -11l28 112l-72 12z" />
<glyph horiz-adv-x="610" d="M298 260l198 262l46 -30l-209 -259l-219 -284l-46 31z" />
<glyph horiz-adv-x="740" d="M345 263l240 255l46 -30l-251 -251l-227 -247l-46 31zM699 146q0 -35 -11.5 -63.5t-31 -49.5t-46.5 -32.5t-57 -11.5q-31 0 -58 11.5t-46.5 32.5t-30.5 49.5t-11 63.5t11 65t30 51.5t45 34t57 12.5q34 0 61.5 -12.5t47 -34t30 -51.5t10.5 -65zM596 147q0 33 -11.5 53.5 t-31.5 20.5q-19 0 -31 -21t-12 -53t12.5 -51t33.5 -19q16 0 28 18.5t12 51.5zM333 368q0 -35 -11.5 -63.5t-31 -49.5t-46.5 -32.5t-57 -11.5q-31 0 -58 11.5t-46.5 32.5t-30.5 49.5t-11 63.5t11 65t30 51.5t45 34t57 12.5q34 0 61.5 -12.5t47 -34t30 -51.5t10.5 -65z M230 369q0 33 -11.5 53.5t-31.5 20.5q-19 0 -31 -21t-12 -53t12.5 -51t33.5 -19q16 0 28 18.5t12 51.5z" />
<glyph horiz-adv-x="1060" d="M1019 146q0 -35 -11.5 -63.5t-31 -49.5t-46.5 -32.5t-57 -11.5q-31 0 -58 11.5t-46.5 32.5t-30.5 49.5t-11 63.5t11 65t30 51.5t45 34t57 12.5q34 0 61.5 -12.5t47 -34t30 -51.5t10.5 -65zM916 147q0 33 -11.5 53.5t-31.5 20.5q-19 0 -31 -21t-12 -53t12.5 -51t33.5 -19 q16 0 28 18.5t12 51.5zM345 263l240 255l46 -30l-251 -251l-227 -247l-46 31zM699 146q0 -35 -11.5 -63.5t-31 -49.5t-46.5 -32.5t-57 -11.5q-31 0 -58 11.5t-46.5 32.5t-30.5 49.5t-11 63.5t11 65t30 51.5t45 34t57 12.5q34 0 61.5 -12.5t47 -34t30 -51.5t10.5 -65z M596 147q0 33 -11.5 53.5t-31.5 20.5q-19 0 -31 -21t-12 -53t12.5 -51t33.5 -19q16 0 28 18.5t12 51.5zM333 368q0 -35 -11.5 -63.5t-31 -49.5t-46.5 -32.5t-57 -11.5q-31 0 -58 11.5t-46.5 32.5t-30.5 49.5t-11 63.5t11 65t30 51.5t45 34t57 12.5q34 0 61.5 -12.5t47 -34 t30 -51.5t10.5 -65zM230 369q0 33 -11.5 53.5t-31.5 20.5q-19 0 -31 -21t-12 -53t12.5 -51t33.5 -19q16 0 28 18.5t12 51.5z" />
<glyph horiz-adv-x="420" d="M378 213l-88 -35q-15 3 -25 14.5t-13 22.5h-4q-18 -16 -44.5 -26t-56.5 -10q-45 0 -75.5 25.5t-30.5 73.5q0 58 38 89t99 31q15 0 26.5 -1.5t24.5 -3.5v16q0 17 -13 24.5t-33 7.5q-23 0 -47 -6.5t-47 -19.5l-25 87q24 13 64 23t82 10q28 0 54 -7t46 -22.5t31.5 -40 t11.5 -60.5l-2 -132q0 -23 8 -35.5t19 -20.5v-4zM229 326q-15 9 -33 9q-15 0 -25 -9.5t-10 -22.5q0 -14 8 -22t19 -8t22 4.5t19 18.5v30z" />
<glyph horiz-adv-x="440" d="M392 354q0 -37 -13.5 -69t-36.5 -55.5t-55 -37t-68 -13.5q-35 0 -66.5 12.5t-54.5 35.5t-36.5 55t-13.5 72q0 39 13 72.5t36 57.5t53.5 37.5t66.5 13.5q39 0 71 -13.5t55.5 -38t36 -57.5t12.5 -72zM264 356q0 78 -43 78q-20 0 -32.5 -20t-12.5 -58q0 -42 12.5 -58.5 t33.5 -16.5q17 0 29.5 18.5t12.5 56.5z" />
<glyph horiz-adv-x="370" d="M42 401q0 30 11.5 56t31 45.5t45.5 31t55 11.5q30 0 56 -11.5t45.5 -31t31 -45.5t11.5 -56q0 -29 -11.5 -55t-31 -45.5t-45.5 -31t-56 -11.5q-29 0 -55 11.5t-45.5 31t-31 45.5t-11.5 55zM120 401q0 -29 17.5 -50.5t46.5 -21.5t47.5 21.5t18.5 50.5t-18.5 51.5 t-47.5 22.5t-46.5 -22.5t-17.5 -51.5z" />
<glyph horiz-adv-x="320" d="M308 506q0 -52 -11.5 -89.5t-31 -62t-46 -36t-57.5 -11.5q-30 0 -57.5 10.5t-48 33.5t-32.5 61t-12 94q0 51 12 87.5t32.5 59.5t48 33.5t57.5 10.5q64 0 105 -47.5t41 -143.5zM194 507q0 51 -10 72t-25 21q-12 0 -22 -20.5t-10 -72.5q0 -30 3 -50t8 -32t11 -16.5t13 -4.5 q16 0 24 22.5t8 80.5z" />
<glyph horiz-adv-x="320" d="M121 315v262l-75 -7l-9 102l179 21l20 -13v-365h-115z" />
<glyph horiz-adv-x="320" d="M20 656q25 17 58.5 29t77.5 12q26 0 51 -5.5t44.5 -18t31.5 -32t12 -47.5q0 -48 -30 -92t-84 -82l3 -5l117 8v-108h-274l-12 52q89 70 126 118t37 73q0 21 -11.5 30t-37.5 9q-21 0 -45 -9.5t-42 -23.5z" />
<glyph horiz-adv-x="320" d="M26 425q52 -22 100 -22q27 0 44.5 7.5t17.5 24.5q0 13 -13 22t-37 8l-78 -3l5 82l71 -4q25 -1 35.5 10t10.5 25q0 26 -57 26q-23 0 -44 -6.5t-34 -12.5h-5l5 98q14 5 42 11t63 6q29 0 55 -6t46 -18t31.5 -29.5t11.5 -41.5q0 -36 -18 -59t-47 -34v-5q33 -11 52.5 -32.5 t19.5 -50.5q0 -37 -18 -59.5t-43.5 -34.5t-52.5 -16t-46 -4q-69 0 -118 20l-2 98h3z" />
<glyph horiz-adv-x="320" d="M319 404h-38v-89h-104v89h-159l-9 49l159 236h113v-204h38v-81zM177 483v103h-4l-64 -99l2 -5z" />
<glyph horiz-adv-x="320" d="M35 479l26 210h224l-5 -94l-147 5l-7 -44q6 1 13.5 1h14.5q38 0 65 -9.5t44.5 -25t26 -35.5t8.5 -41q0 -33 -16 -58.5t-43 -43.5t-63.5 -27.5t-77.5 -9.5q-46 0 -68 7l8 89q11 -5 26.5 -5.5t26.5 -0.5q52 0 71 13.5t19 28.5q0 41 -91 41q-15 0 -26.5 -0.5t-25.5 -1.5z " />
<glyph horiz-adv-x="320" d="M135 532q11 7 23.5 10.5t32.5 3.5t41 -6.5t38.5 -21t29 -36.5t11.5 -52q0 -61 -41 -92t-104 -31q-42 0 -71.5 12.5t-48.5 33.5t-27.5 48.5t-8.5 57.5q0 59 22 102.5t59.5 72.5t87 43.5t103.5 16.5l-8 -83q-62 -4 -99 -26t-44 -50zM202 437q0 24 -12.5 33.5t-26.5 9.5 q-11 0 -20.5 -3.5t-16.5 -11.5q-3 -14 -2 -28t6 -25t13.5 -17.5t20.5 -6.5q17 0 27.5 13t10.5 36z" />
<glyph horiz-adv-x="320" d="M309 677q-58 -89 -90 -179.5t-34 -182.5h-125q6 39 18 77.5t28.5 74.5t37 68t43.5 58l-4 5l-157 -6l5 97h270z" />
<glyph horiz-adv-x="320" d="M10 408q0 18 6 33t15.5 27t21 20.5t22.5 12.5v3q-34 22 -44.5 44t-10.5 45q0 43 36.5 73.5t108.5 30.5q28 0 53 -6.5t43.5 -18.5t29 -29t10.5 -39q0 -60 -61 -89v-3q22 -11 35.5 -23t21.5 -24.5t11 -25t3 -23.5q0 -24 -11 -44t-31.5 -34.5t-48.5 -22.5t-61 -8 q-67 0 -108 28.5t-41 72.5zM202 419q0 11 -11 21.5t-46 27.5q-13 -8 -20 -21.5t-7 -25.5q0 -16 13 -26t30 -10q19 0 30 9t11 25zM125 588q0 -13 9 -23.5t41 -24.5q11 8 17.5 19.5t6.5 26.5q0 14 -9.5 23.5t-26.5 9.5q-21 0 -29.5 -10.5t-8.5 -20.5z" />
<glyph horiz-adv-x="320" d="M60 391q52 11 88 30.5t42 50.5l-4 3q-11 -8 -26 -13t-35 -5q-21 0 -42 6.5t-37 20t-26 34t-10 47.5q0 32 12 56.5t32.5 41.5t46.5 25.5t55 8.5q39 0 68 -12.5t48.5 -34t29 -50.5t9.5 -63q0 -51 -17.5 -89t-47.5 -65t-70 -45t-85 -29l-31 78v4zM119 565q0 -22 11 -31.5 t27 -9.5q9 0 19 2.5t19 10.5q7 36 -4.5 57.5t-32.5 21.5q-17 0 -28 -13.5t-11 -37.5z" />
<glyph horiz-adv-x="320" d="M308 151q0 -52 -11.5 -89.5t-31 -62t-46 -36t-57.5 -11.5q-30 0 -57.5 10.5t-48 33.5t-32.5 61t-12 94q0 51 12 87.5t32.5 59.5t48 33.5t57.5 10.5q64 0 105 -47.5t41 -143.5zM194 152q0 51 -10 72t-25 21q-12 0 -22 -20.5t-10 -72.5q0 -30 3 -50t8 -32t11 -16.5t13 -4.5 q16 0 24 22.5t8 80.5z" />
<glyph horiz-adv-x="320" d="M121 -40v262l-75 -7l-9 102l179 21l20 -13v-365h-115z" />
<glyph horiz-adv-x="320" d="M20 301q25 17 58.5 29t77.5 12q26 0 51 -5.5t44.5 -18t31.5 -32t12 -47.5q0 -48 -30 -92t-84 -82l3 -5l117 8v-108h-274l-12 52q89 70 126 118t37 73q0 21 -11.5 30t-37.5 9q-21 0 -45 -9.5t-42 -23.5z" />
<glyph horiz-adv-x="320" d="M26 70q52 -22 100 -22q27 0 44.5 7.5t17.5 24.5q0 13 -13 22t-37 8l-78 -3l5 82l71 -4q25 -1 35.5 10t10.5 25q0 26 -57 26q-23 0 -44 -6.5t-34 -12.5h-5l5 98q14 5 42 11t63 6q29 0 55 -6t46 -18t31.5 -29.5t11.5 -41.5q0 -36 -18 -59t-47 -34v-5q33 -11 52.5 -32.5 t19.5 -50.5q0 -37 -18 -59.5t-43.5 -34.5t-52.5 -16t-46 -4q-69 0 -118 20l-2 98h3z" />
<glyph horiz-adv-x="320" d="M319 49h-38v-89h-104v89h-159l-9 49l159 236h113v-204h38v-81zM177 128v103h-4l-64 -99l2 -5z" />
<glyph horiz-adv-x="320" d="M35 124l26 210h224l-5 -94l-147 5l-7 -44q6 1 13.5 1h14.5q38 0 65 -9.5t44.5 -25t26 -35.5t8.5 -41q0 -33 -16 -58.5t-43 -43.5t-63.5 -27.5t-77.5 -9.5q-46 0 -68 7l8 89q11 -5 26.5 -5.5t26.5 -0.5q52 0 71 13.5t19 28.5q0 41 -91 41q-15 0 -26.5 -0.5t-25.5 -1.5z " />
<glyph horiz-adv-x="320" d="M135 177q11 7 23.5 10.5t32.5 3.5t41 -6.5t38.5 -21t29 -36.5t11.5 -52q0 -61 -41 -92t-104 -31q-42 0 -71.5 12.5t-48.5 33.5t-27.5 48.5t-8.5 57.5q0 59 22 102.5t59.5 72.5t87 43.5t103.5 16.5l-8 -83q-62 -4 -99 -26t-44 -50zM202 82q0 24 -12.5 33.5t-26.5 9.5 q-11 0 -20.5 -3.5t-16.5 -11.5q-3 -14 -2 -28t6 -25t13.5 -17.5t20.5 -6.5q17 0 27.5 13t10.5 36z" />
<glyph horiz-adv-x="320" d="M309 322q-58 -89 -90 -179.5t-34 -182.5h-125q6 39 18 77.5t28.5 74.5t37 68t43.5 58l-4 5l-157 -6l5 97h270z" />
<glyph horiz-adv-x="320" d="M10 53q0 18 6 33t15.5 27t21 20.5t22.5 12.5v3q-34 22 -44.5 44t-10.5 45q0 43 36.5 73.5t108.5 30.5q28 0 53 -6.5t43.5 -18.5t29 -29t10.5 -39q0 -60 -61 -89v-3q22 -11 35.5 -23t21.5 -24.5t11 -25t3 -23.5q0 -24 -11 -44t-31.5 -34.5t-48.5 -22.5t-61 -8 q-67 0 -108 28.5t-41 72.5zM202 64q0 11 -11 21.5t-46 27.5q-13 -8 -20 -21.5t-7 -25.5q0 -16 13 -26t30 -10q19 0 30 9t11 25zM125 233q0 -13 9 -23.5t41 -24.5q11 8 17.5 19.5t6.5 26.5q0 14 -9.5 23.5t-26.5 9.5q-21 0 -29.5 -10.5t-8.5 -20.5z" />
<glyph horiz-adv-x="320" d="M60 36q52 11 88 30.5t42 50.5l-4 3q-11 -8 -26 -13t-35 -5q-21 0 -42 6.5t-37 20t-26 34t-10 47.5q0 32 12 56.5t32.5 41.5t46.5 25.5t55 8.5q39 0 68 -12.5t48.5 -34t29 -50.5t9.5 -63q0 -51 -17.5 -89t-47.5 -65t-70 -45t-85 -29l-31 78v4zM119 210q0 -22 11 -31.5 t27 -9.5q9 0 19 2.5t19 10.5q7 36 -4.5 57.5t-32.5 21.5q-17 0 -28 -13.5t-11 -37.5z" />
<glyph horiz-adv-x="320" d="M308 426q0 -52 -11.5 -89.5t-31 -62t-46 -36t-57.5 -11.5q-30 0 -57.5 10.5t-48 33.5t-32.5 61t-12 94q0 51 12 87.5t32.5 59.5t48 33.5t57.5 10.5q64 0 105 -47.5t41 -143.5zM194 427q0 51 -10 72t-25 21q-12 0 -22 -20.5t-10 -72.5q0 -30 3 -50t8 -32t11 -16.5t13 -4.5 q16 0 24 22.5t8 80.5z" />
<glyph horiz-adv-x="320" d="M121 235v262l-75 -7l-9 102l179 21l20 -13v-365h-115z" />
<glyph horiz-adv-x="320" d="M20 576q25 17 58.5 29t77.5 12q26 0 51 -5.5t44.5 -18t31.5 -32t12 -47.5q0 -48 -30 -92t-84 -82l3 -5l117 8v-108h-274l-12 52q89 70 126 118t37 73q0 21 -11.5 30t-37.5 9q-21 0 -45 -9.5t-42 -23.5z" />
<glyph horiz-adv-x="320" d="M26 345q52 -22 100 -22q27 0 44.5 7.5t17.5 24.5q0 13 -13 22t-37 8l-78 -3l5 82l71 -4q25 -1 35.5 10t10.5 25q0 26 -57 26q-23 0 -44 -6.5t-34 -12.5h-5l5 98q14 5 42 11t63 6q29 0 55 -6t46 -18t31.5 -29.5t11.5 -41.5q0 -36 -18 -59t-47 -34v-5q33 -11 52.5 -32.5 t19.5 -50.5q0 -37 -18 -59.5t-43.5 -34.5t-52.5 -16t-46 -4q-69 0 -118 20l-2 98h3z" />
<glyph horiz-adv-x="320" d="M319 324h-38v-89h-104v89h-159l-9 49l159 236h113v-204h38v-81zM177 403v103h-4l-64 -99l2 -5z" />
<glyph horiz-adv-x="320" d="M35 399l26 210h224l-5 -94l-147 5l-7 -44q6 1 13.5 1h14.5q38 0 65 -9.5t44.5 -25t26 -35.5t8.5 -41q0 -33 -16 -58.5t-43 -43.5t-63.5 -27.5t-77.5 -9.5q-46 0 -68 7l8 89q11 -5 26.5 -5.5t26.5 -0.5q52 0 71 13.5t19 28.5q0 41 -91 41q-15 0 -26.5 -0.5t-25.5 -1.5z " />
<glyph horiz-adv-x="320" d="M135 452q11 7 23.5 10.5t32.5 3.5t41 -6.5t38.5 -21t29 -36.5t11.5 -52q0 -61 -41 -92t-104 -31q-42 0 -71.5 12.5t-48.5 33.5t-27.5 48.5t-8.5 57.5q0 59 22 102.5t59.5 72.5t87 43.5t103.5 16.5l-8 -83q-62 -4 -99 -26t-44 -50zM202 357q0 24 -12.5 33.5t-26.5 9.5 q-11 0 -20.5 -3.5t-16.5 -11.5q-3 -14 -2 -28t6 -25t13.5 -17.5t20.5 -6.5q17 0 27.5 13t10.5 36z" />
<glyph horiz-adv-x="320" d="M309 597q-58 -89 -90 -179.5t-34 -182.5h-125q6 39 18 77.5t28.5 74.5t37 68t43.5 58l-4 5l-157 -6l5 97h270z" />
<glyph horiz-adv-x="320" d="M10 328q0 18 6 33t15.5 27t21 20.5t22.5 12.5v3q-34 22 -44.5 44t-10.5 45q0 43 36.5 73.5t108.5 30.5q28 0 53 -6.5t43.5 -18.5t29 -29t10.5 -39q0 -60 -61 -89v-3q22 -11 35.5 -23t21.5 -24.5t11 -25t3 -23.5q0 -24 -11 -44t-31.5 -34.5t-48.5 -22.5t-61 -8 q-67 0 -108 28.5t-41 72.5zM202 339q0 11 -11 21.5t-46 27.5q-13 -8 -20 -21.5t-7 -25.5q0 -16 13 -26t30 -10q19 0 30 9t11 25zM125 508q0 -13 9 -23.5t41 -24.5q11 8 17.5 19.5t6.5 26.5q0 14 -9.5 23.5t-26.5 9.5q-21 0 -29.5 -10.5t-8.5 -20.5z" />
<glyph horiz-adv-x="320" d="M60 311q52 11 88 30.5t42 50.5l-4 3q-11 -8 -26 -13t-35 -5q-21 0 -42 6.5t-37 20t-26 34t-10 47.5q0 32 12 56.5t32.5 41.5t46.5 25.5t55 8.5q39 0 68 -12.5t48.5 -34t29 -50.5t9.5 -63q0 -51 -17.5 -89t-47.5 -65t-70 -45t-85 -29l-31 78v4zM119 485q0 -22 11 -31.5 t27 -9.5q9 0 19 2.5t19 10.5q7 36 -4.5 57.5t-32.5 21.5q-17 0 -28 -13.5t-11 -37.5z" />
<glyph horiz-adv-x="320" d="M308 71q0 -52 -11.5 -89.5t-31 -62t-46 -36t-57.5 -11.5q-30 0 -57.5 10.5t-48 33.5t-32.5 61t-12 94q0 51 12 87.5t32.5 59.5t48 33.5t57.5 10.5q64 0 105 -47.5t41 -143.5zM194 72q0 51 -10 72t-25 21q-12 0 -22 -20.5t-10 -72.5q0 -30 3 -50t8 -32t11 -16.5t13 -4.5 q16 0 24 22.5t8 80.5z" />
<glyph horiz-adv-x="320" d="M121 -120v262l-75 -7l-9 102l179 21l20 -13v-365h-115z" />
<glyph horiz-adv-x="320" d="M20 221q25 17 58.5 29t77.5 12q26 0 51 -5.5t44.5 -18t31.5 -32t12 -47.5q0 -48 -30 -92t-84 -82l3 -5l117 8v-108h-274l-12 52q89 70 126 118t37 73q0 21 -11.5 30t-37.5 9q-21 0 -45 -9.5t-42 -23.5z" />
<glyph horiz-adv-x="320" d="M26 -10q52 -22 100 -22q27 0 44.5 7.5t17.5 24.5q0 13 -13 22t-37 8l-78 -3l5 82l71 -4q25 -1 35.5 10t10.5 25q0 26 -57 26q-23 0 -44 -6.5t-34 -12.5h-5l5 98q14 5 42 11t63 6q29 0 55 -6t46 -18t31.5 -29.5t11.5 -41.5q0 -36 -18 -59t-47 -34v-5q33 -11 52.5 -32.5 t19.5 -50.5q0 -37 -18 -59.5t-43.5 -34.5t-52.5 -16t-46 -4q-69 0 -118 20l-2 98h3z" />
<glyph horiz-adv-x="320" d="M319 -31h-38v-89h-104v89h-159l-9 49l159 236h113v-204h38v-81zM177 48v103h-4l-64 -99l2 -5z" />
<glyph horiz-adv-x="320" d="M35 44l26 210h224l-5 -94l-147 5l-7 -44q6 1 13.5 1h14.5q38 0 65 -9.5t44.5 -25t26 -35.5t8.5 -41q0 -33 -16 -58.5t-43 -43.5t-63.5 -27.5t-77.5 -9.5q-46 0 -68 7l8 89q11 -5 26.5 -5.5t26.5 -0.5q52 0 71 13.5t19 28.5q0 41 -91 41q-15 0 -26.5 -0.5t-25.5 -1.5z" />
<glyph horiz-adv-x="320" d="M135 97q11 7 23.5 10.5t32.5 3.5t41 -6.5t38.5 -21t29 -36.5t11.5 -52q0 -61 -41 -92t-104 -31q-42 0 -71.5 12.5t-48.5 33.5t-27.5 48.5t-8.5 57.5q0 59 22 102.5t59.5 72.5t87 43.5t103.5 16.5l-8 -83q-62 -4 -99 -26t-44 -50zM202 2q0 24 -12.5 33.5t-26.5 9.5 q-11 0 -20.5 -3.5t-16.5 -11.5q-3 -14 -2 -28t6 -25t13.5 -17.5t20.5 -6.5q17 0 27.5 13t10.5 36z" />
<glyph horiz-adv-x="320" d="M309 242q-58 -89 -90 -179.5t-34 -182.5h-125q6 39 18 77.5t28.5 74.5t37 68t43.5 58l-4 5l-157 -6l5 97h270z" />
<glyph horiz-adv-x="320" d="M10 -27q0 18 6 33t15.5 27t21 20.5t22.5 12.5v3q-34 22 -44.5 44t-10.5 45q0 43 36.5 73.5t108.5 30.5q28 0 53 -6.5t43.5 -18.5t29 -29t10.5 -39q0 -60 -61 -89v-3q22 -11 35.5 -23t21.5 -24.5t11 -25t3 -23.5q0 -24 -11 -44t-31.5 -34.5t-48.5 -22.5t-61 -8 q-67 0 -108 28.5t-41 72.5zM202 -16q0 11 -11 21.5t-46 27.5q-13 -8 -20 -21.5t-7 -25.5q0 -16 13 -26t30 -10q19 0 30 9t11 25zM125 153q0 -13 9 -23.5t41 -24.5q11 8 17.5 19.5t6.5 26.5q0 14 -9.5 23.5t-26.5 9.5q-21 0 -29.5 -10.5t-8.5 -20.5z" />
<glyph horiz-adv-x="320" d="M60 -44q52 11 88 30.5t42 50.5l-4 3q-11 -8 -26 -13t-35 -5q-21 0 -42 6.5t-37 20t-26 34t-10 47.5q0 32 12 56.5t32.5 41.5t46.5 25.5t55 8.5q39 0 68 -12.5t48.5 -34t29 -50.5t9.5 -63q0 -51 -17.5 -89t-47.5 -65t-70 -45t-85 -29l-31 78v4zM119 130q0 -22 11 -31.5 t27 -9.5q9 0 19 2.5t19 10.5q7 36 -4.5 57.5t-32.5 21.5q-17 0 -28 -13.5t-11 -37.5z" />
<glyph horiz-adv-x="780" d="M380 265l235 358l51 -31l-247 -349l-242 -375l-51 33zM127 235v262l-75 -7l-9 102l179 21l20 -13v-365h-115zM446 221q25 17 58.5 29t77.5 12q26 0 51 -5.5t44.5 -18t31.5 -32t12 -47.5q0 -48 -30 -92t-84 -82l3 -5l117 8v-108h-274l-12 52q89 70 126 118t37 73 q0 21 -11.5 30t-37.5 9q-21 0 -45 -9.5t-42 -23.5z" />
<glyph horiz-adv-x="780" d="M380 265l235 358l51 -31l-247 -349l-242 -375l-51 33zM127 235v262l-75 -7l-9 102l179 21l20 -13v-365h-115zM452 -10q52 -22 100 -22q27 0 44.5 7.5t17.5 24.5q0 13 -13 22t-37 8l-78 -3l5 82l71 -4q25 -1 35.5 10t10.5 25q0 26 -57 26q-23 0 -44 -6.5t-34 -12.5h-5 l5 98q14 5 42 11t63 6q29 0 55 -6t46 -18t31.5 -29.5t11.5 -41.5q0 -36 -18 -59t-47 -34v-5q33 -11 52.5 -32.5t19.5 -50.5q0 -37 -18 -59.5t-43.5 -34.5t-52.5 -16t-46 -4q-69 0 -118 20l-2 98h3z" />
<glyph horiz-adv-x="780" d="M380 265l235 358l51 -31l-247 -349l-242 -375l-51 33zM127 235v262l-75 -7l-9 102l179 21l20 -13v-365h-115zM723 -30h-38v-89h-104v89h-159l-9 49l159 236h113v-204h38v-81zM581 49v103h-4l-64 -99l2 -5z" />
<glyph horiz-adv-x="780" d="M380 265l235 358l51 -31l-247 -349l-242 -375l-51 33zM127 235v262l-75 -7l-9 102l179 21l20 -13v-365h-115zM461 44l26 210h224l-5 -94l-147 5l-7 -44q6 1 13.5 1h14.5q38 0 65 -9.5t44.5 -25t26 -35.5t8.5 -41q0 -33 -16 -58.5t-43 -43.5t-63.5 -27.5t-77.5 -9.5 q-46 0 -68 7l8 89q11 -5 26.5 -5.5t26.5 -0.5q52 0 71 13.5t19 28.5q0 41 -91 41q-15 0 -26.5 -0.5t-25.5 -1.5z" />
<glyph horiz-adv-x="780" d="M380 265l235 358l51 -31l-247 -349l-242 -375l-51 33zM127 235v262l-75 -7l-9 102l179 21l20 -13v-365h-115zM543 97q11 7 23.5 10.5t32.5 3.5t41 -6.5t38.5 -21t29 -36.5t11.5 -52q0 -61 -41 -92t-104 -31q-42 0 -71.5 12.5t-48.5 33.5t-27.5 48.5t-8.5 57.5 q0 59 22 102.5t59.5 72.5t87 43.5t103.5 16.5l-8 -83q-62 -4 -99 -26t-44 -50zM610 2q0 24 -12.5 33.5t-26.5 9.5q-11 0 -20.5 -3.5t-16.5 -11.5q-3 -14 -2 -28t6 -25t13.5 -17.5t20.5 -6.5q17 0 27.5 13t10.5 36z" />
<glyph horiz-adv-x="780" d="M380 265l235 358l51 -31l-247 -349l-242 -375l-51 33zM127 235v262l-75 -7l-9 102l179 21l20 -13v-365h-115zM752 242q-58 -89 -90 -179.5t-34 -182.5h-125q6 39 18 77.5t28.5 74.5t37 68t43.5 58l-4 5l-157 -6l5 97h270z" />
<glyph horiz-adv-x="780" d="M380 265l235 358l51 -31l-247 -349l-242 -375l-51 33zM127 235v262l-75 -7l-9 102l179 21l20 -13v-365h-115zM436 -27q0 18 6 33t15.5 27t21 20.5t22.5 12.5v3q-34 22 -44.5 44t-10.5 45q0 43 36.5 73.5t108.5 30.5q28 0 53 -6.5t43.5 -18.5t29 -29t10.5 -39 q0 -60 -61 -89v-3q22 -11 35.5 -23t21.5 -24.5t11 -25t3 -23.5q0 -24 -11 -44t-31.5 -34.5t-48.5 -22.5t-61 -8q-67 0 -108 28.5t-41 72.5zM628 -16q0 11 -11 21.5t-46 27.5q-13 -8 -20 -21.5t-7 -25.5q0 -16 13 -26t30 -10q19 0 30 9t11 25zM551 153q0 -13 9 -23.5 t41 -24.5q11 8 17.5 19.5t6.5 26.5q0 14 -9.5 23.5t-26.5 9.5q-21 0 -29.5 -10.5t-8.5 -20.5z" />
<glyph horiz-adv-x="780" d="M380 265l235 358l51 -31l-247 -349l-242 -375l-51 33zM127 235v262l-75 -7l-9 102l179 21l20 -13v-365h-115zM506 -44q52 11 88 30.5t42 50.5l-4 3q-11 -8 -26 -13t-35 -5q-21 0 -42 6.5t-37 20t-26 34t-10 47.5q0 32 12 56.5t32.5 41.5t46.5 25.5t55 8.5q39 0 68 -12.5 t48.5 -34t29 -50.5t9.5 -63q0 -51 -17.5 -89t-47.5 -65t-70 -45t-85 -29l-31 78v4zM565 130q0 -22 11 -31.5t27 -9.5q9 0 19 2.5t19 10.5q7 36 -4.5 57.5t-32.5 21.5q-17 0 -28 -13.5t-11 -37.5z" />
<glyph horiz-adv-x="780" d="M380 265l235 358l51 -31l-247 -349l-242 -375l-51 33zM26 576q25 17 58.5 29t77.5 12q26 0 51 -5.5t44.5 -18t31.5 -32t12 -47.5q0 -48 -30 -92t-84 -82l3 -5l117 8v-108h-274l-12 52q89 70 126 118t37 73q0 21 -11.5 30t-37.5 9q-21 0 -45 -9.5t-42 -23.5zM452 -10 q52 -22 100 -22q27 0 44.5 7.5t17.5 24.5q0 13 -13 22t-37 8l-78 -3l5 82l71 -4q25 -1 35.5 10t10.5 25q0 26 -57 26q-23 0 -44 -6.5t-34 -12.5h-5l5 98q14 5 42 11t63 6q29 0 55 -6t46 -18t31.5 -29.5t11.5 -41.5q0 -36 -18 -59t-47 -34v-5q33 -11 52.5 -32.5t19.5 -50.5 q0 -37 -18 -59.5t-43.5 -34.5t-52.5 -16t-46 -4q-69 0 -118 20l-2 98h3z" />
<glyph horiz-adv-x="780" d="M380 265l235 358l51 -31l-247 -349l-242 -375l-51 33zM26 576q25 17 58.5 29t77.5 12q26 0 51 -5.5t44.5 -18t31.5 -32t12 -47.5q0 -48 -30 -92t-84 -82l3 -5l117 8v-108h-274l-12 52q89 70 126 118t37 73q0 21 -11.5 30t-37.5 9q-21 0 -45 -9.5t-42 -23.5zM461 44 l26 210h224l-5 -94l-147 5l-7 -44q6 1 13.5 1h14.5q38 0 65 -9.5t44.5 -25t26 -35.5t8.5 -41q0 -33 -16 -58.5t-43 -43.5t-63.5 -27.5t-77.5 -9.5q-46 0 -68 7l8 89q11 -5 26.5 -5.5t26.5 -0.5q52 0 71 13.5t19 28.5q0 41 -91 41q-15 0 -26.5 -0.5t-25.5 -1.5z" />
<glyph horiz-adv-x="780" d="M380 265l235 358l51 -31l-247 -349l-242 -375l-51 33zM26 576q25 17 58.5 29t77.5 12q26 0 51 -5.5t44.5 -18t31.5 -32t12 -47.5q0 -48 -30 -92t-84 -82l3 -5l117 8v-108h-274l-12 52q89 70 126 118t37 73q0 21 -11.5 30t-37.5 9q-21 0 -45 -9.5t-42 -23.5zM752 242 q-58 -89 -90 -179.5t-34 -182.5h-125q6 39 18 77.5t28.5 74.5t37 68t43.5 58l-4 5l-157 -6l5 97h270z" />
<glyph horiz-adv-x="780" d="M380 265l235 358l51 -31l-247 -349l-242 -375l-51 33zM26 576q25 17 58.5 29t77.5 12q26 0 51 -5.5t44.5 -18t31.5 -32t12 -47.5q0 -48 -30 -92t-84 -82l3 -5l117 8v-108h-274l-12 52q89 70 126 118t37 73q0 21 -11.5 30t-37.5 9q-21 0 -45 -9.5t-42 -23.5zM506 -44 q52 11 88 30.5t42 50.5l-4 3q-11 -8 -26 -13t-35 -5q-21 0 -42 6.5t-37 20t-26 34t-10 47.5q0 32 12 56.5t32.5 41.5t46.5 25.5t55 8.5q39 0 68 -12.5t48.5 -34t29 -50.5t9.5 -63q0 -51 -17.5 -89t-47.5 -65t-70 -45t-85 -29l-31 78v4zM565 130q0 -22 11 -31.5t27 -9.5 q9 0 19 2.5t19 10.5q7 36 -4.5 57.5t-32.5 21.5q-17 0 -28 -13.5t-11 -37.5z" />
<glyph horiz-adv-x="780" d="M380 265l235 358l51 -31l-247 -349l-242 -375l-51 33zM44 345q52 -22 100 -22q27 0 44.5 7.5t17.5 24.5q0 13 -13 22t-37 8l-78 -3l5 82l71 -4q25 -1 35.5 10t10.5 25q0 26 -57 26q-23 0 -44 -6.5t-34 -12.5h-5l5 98q14 5 42 11t63 6q29 0 55 -6t46 -18t31.5 -29.5 t11.5 -41.5q0 -36 -18 -59t-47 -34v-5q33 -11 52.5 -32.5t19.5 -50.5q0 -37 -18 -59.5t-43.5 -34.5t-52.5 -16t-46 -4q-69 0 -118 20l-2 98h3zM723 -30h-38v-89h-104v89h-159l-9 49l159 236h113v-204h38v-81zM581 49v103h-4l-64 -99l2 -5z" />
<glyph horiz-adv-x="780" d="M380 265l235 358l51 -31l-247 -349l-242 -375l-51 33zM44 345q52 -22 100 -22q27 0 44.5 7.5t17.5 24.5q0 13 -13 22t-37 8l-78 -3l5 82l71 -4q25 -1 35.5 10t10.5 25q0 26 -57 26q-23 0 -44 -6.5t-34 -12.5h-5l5 98q14 5 42 11t63 6q29 0 55 -6t46 -18t31.5 -29.5 t11.5 -41.5q0 -36 -18 -59t-47 -34v-5q33 -11 52.5 -32.5t19.5 -50.5q0 -37 -18 -59.5t-43.5 -34.5t-52.5 -16t-46 -4q-69 0 -118 20l-2 98h3zM461 44l26 210h224l-5 -94l-147 5l-7 -44q6 1 13.5 1h14.5q38 0 65 -9.5t44.5 -25t26 -35.5t8.5 -41q0 -33 -16 -58.5t-43 -43.5 t-63.5 -27.5t-77.5 -9.5q-46 0 -68 7l8 89q11 -5 26.5 -5.5t26.5 -0.5q52 0 71 13.5t19 28.5q0 41 -91 41q-15 0 -26.5 -0.5t-25.5 -1.5z" />
<glyph horiz-adv-x="780" d="M380 265l235 358l51 -31l-247 -349l-242 -375l-51 33zM44 345q52 -22 100 -22q27 0 44.5 7.5t17.5 24.5q0 13 -13 22t-37 8l-78 -3l5 82l71 -4q25 -1 35.5 10t10.5 25q0 26 -57 26q-23 0 -44 -6.5t-34 -12.5h-5l5 98q14 5 42 11t63 6q29 0 55 -6t46 -18t31.5 -29.5 t11.5 -41.5q0 -36 -18 -59t-47 -34v-5q33 -11 52.5 -32.5t19.5 -50.5q0 -37 -18 -59.5t-43.5 -34.5t-52.5 -16t-46 -4q-69 0 -118 20l-2 98h3zM752 242q-58 -89 -90 -179.5t-34 -182.5h-125q6 39 18 77.5t28.5 74.5t37 68t43.5 58l-4 5l-157 -6l5 97h270z" />
<glyph horiz-adv-x="780" d="M380 265l235 358l51 -31l-247 -349l-242 -375l-51 33zM44 345q52 -22 100 -22q27 0 44.5 7.5t17.5 24.5q0 13 -13 22t-37 8l-78 -3l5 82l71 -4q25 -1 35.5 10t10.5 25q0 26 -57 26q-23 0 -44 -6.5t-34 -12.5h-5l5 98q14 5 42 11t63 6q29 0 55 -6t46 -18t31.5 -29.5 t11.5 -41.5q0 -36 -18 -59t-47 -34v-5q33 -11 52.5 -32.5t19.5 -50.5q0 -37 -18 -59.5t-43.5 -34.5t-52.5 -16t-46 -4q-69 0 -118 20l-2 98h3zM436 -27q0 18 6 33t15.5 27t21 20.5t22.5 12.5v3q-34 22 -44.5 44t-10.5 45q0 43 36.5 73.5t108.5 30.5q28 0 53 -6.5t43.5 -18.5 t29 -29t10.5 -39q0 -60 -61 -89v-3q22 -11 35.5 -23t21.5 -24.5t11 -25t3 -23.5q0 -24 -11 -44t-31.5 -34.5t-48.5 -22.5t-61 -8q-67 0 -108 28.5t-41 72.5zM628 -16q0 11 -11 21.5t-46 27.5q-13 -8 -20 -21.5t-7 -25.5q0 -16 13 -26t30 -10q19 0 30 9t11 25zM551 153 q0 -13 9 -23.5t41 -24.5q11 8 17.5 19.5t6.5 26.5q0 14 -9.5 23.5t-26.5 9.5q-21 0 -29.5 -10.5t-8.5 -20.5z" />
<glyph horiz-adv-x="780" d="M380 265l235 358l51 -31l-247 -349l-242 -375l-51 33zM325 324h-38v-89h-104v89h-159l-9 49l159 236h113v-204h38v-81zM183 403v103h-4l-64 -99l2 -5zM461 44l26 210h224l-5 -94l-147 5l-7 -44q6 1 13.5 1h14.5q38 0 65 -9.5t44.5 -25t26 -35.5t8.5 -41q0 -33 -16 -58.5 t-43 -43.5t-63.5 -27.5t-77.5 -9.5q-46 0 -68 7l8 89q11 -5 26.5 -5.5t26.5 -0.5q52 0 71 13.5t19 28.5q0 41 -91 41q-15 0 -26.5 -0.5t-25.5 -1.5z" />
<glyph horiz-adv-x="780" d="M380 265l235 358l51 -31l-247 -349l-242 -375l-51 33zM325 324h-38v-89h-104v89h-159l-9 49l159 236h113v-204h38v-81zM183 403v103h-4l-64 -99l2 -5zM752 242q-58 -89 -90 -179.5t-34 -182.5h-125q6 39 18 77.5t28.5 74.5t37 68t43.5 58l-4 5l-157 -6l5 97h270z" />
<glyph horiz-adv-x="780" d="M380 265l235 358l51 -31l-247 -349l-242 -375l-51 33zM325 324h-38v-89h-104v89h-159l-9 49l159 236h113v-204h38v-81zM183 403v103h-4l-64 -99l2 -5zM506 -44q52 11 88 30.5t42 50.5l-4 3q-11 -8 -26 -13t-35 -5q-21 0 -42 6.5t-37 20t-26 34t-10 47.5q0 32 12 56.5 t32.5 41.5t46.5 25.5t55 8.5q39 0 68 -12.5t48.5 -34t29 -50.5t9.5 -63q0 -51 -17.5 -89t-47.5 -65t-70 -45t-85 -29l-31 78v4zM565 130q0 -22 11 -31.5t27 -9.5q9 0 19 2.5t19 10.5q7 36 -4.5 57.5t-32.5 21.5q-17 0 -28 -13.5t-11 -37.5z" />
<glyph horiz-adv-x="780" d="M380 265l235 358l51 -31l-247 -349l-242 -375l-51 33zM53 399l26 210h224l-5 -94l-147 5l-7 -44q6 1 13.5 1h14.5q38 0 65 -9.5t44.5 -25t26 -35.5t8.5 -41q0 -33 -16 -58.5t-43 -43.5t-63.5 -27.5t-77.5 -9.5q-46 0 -68 7l8 89q11 -5 26.5 -5.5t26.5 -0.5q52 0 71 13.5 t19 28.5q0 41 -91 41q-15 0 -26.5 -0.5t-25.5 -1.5zM543 97q11 7 23.5 10.5t32.5 3.5t41 -6.5t38.5 -21t29 -36.5t11.5 -52q0 -61 -41 -92t-104 -31q-42 0 -71.5 12.5t-48.5 33.5t-27.5 48.5t-8.5 57.5q0 59 22 102.5t59.5 72.5t87 43.5t103.5 16.5l-8 -83q-62 -4 -99 -26 t-44 -50zM610 2q0 24 -12.5 33.5t-26.5 9.5q-11 0 -20.5 -3.5t-16.5 -11.5q-3 -14 -2 -28t6 -25t13.5 -17.5t20.5 -6.5q17 0 27.5 13t10.5 36z" />
<glyph horiz-adv-x="780" d="M380 265l235 358l51 -31l-247 -349l-242 -375l-51 33zM53 399l26 210h224l-5 -94l-147 5l-7 -44q6 1 13.5 1h14.5q38 0 65 -9.5t44.5 -25t26 -35.5t8.5 -41q0 -33 -16 -58.5t-43 -43.5t-63.5 -27.5t-77.5 -9.5q-46 0 -68 7l8 89q11 -5 26.5 -5.5t26.5 -0.5q52 0 71 13.5 t19 28.5q0 41 -91 41q-15 0 -26.5 -0.5t-25.5 -1.5zM752 242q-58 -89 -90 -179.5t-34 -182.5h-125q6 39 18 77.5t28.5 74.5t37 68t43.5 58l-4 5l-157 -6l5 97h270z" />
<glyph horiz-adv-x="780" d="M380 265l235 358l51 -31l-247 -349l-242 -375l-51 33zM53 399l26 210h224l-5 -94l-147 5l-7 -44q6 1 13.5 1h14.5q38 0 65 -9.5t44.5 -25t26 -35.5t8.5 -41q0 -33 -16 -58.5t-43 -43.5t-63.5 -27.5t-77.5 -9.5q-46 0 -68 7l8 89q11 -5 26.5 -5.5t26.5 -0.5q52 0 71 13.5 t19 28.5q0 41 -91 41q-15 0 -26.5 -0.5t-25.5 -1.5zM436 -27q0 18 6 33t15.5 27t21 20.5t22.5 12.5v3q-34 22 -44.5 44t-10.5 45q0 43 36.5 73.5t108.5 30.5q28 0 53 -6.5t43.5 -18.5t29 -29t10.5 -39q0 -60 -61 -89v-3q22 -11 35.5 -23t21.5 -24.5t11 -25t3 -23.5 q0 -24 -11 -44t-31.5 -34.5t-48.5 -22.5t-61 -8q-67 0 -108 28.5t-41 72.5zM628 -16q0 11 -11 21.5t-46 27.5q-13 -8 -20 -21.5t-7 -25.5q0 -16 13 -26t30 -10q19 0 30 9t11 25zM551 153q0 -13 9 -23.5t41 -24.5q11 8 17.5 19.5t6.5 26.5q0 14 -9.5 23.5t-26.5 9.5 q-21 0 -29.5 -10.5t-8.5 -20.5z" />
<glyph horiz-adv-x="780" d="M380 265l235 358l51 -31l-247 -349l-242 -375l-51 33zM53 399l26 210h224l-5 -94l-147 5l-7 -44q6 1 13.5 1h14.5q38 0 65 -9.5t44.5 -25t26 -35.5t8.5 -41q0 -33 -16 -58.5t-43 -43.5t-63.5 -27.5t-77.5 -9.5q-46 0 -68 7l8 89q11 -5 26.5 -5.5t26.5 -0.5q52 0 71 13.5 t19 28.5q0 41 -91 41q-15 0 -26.5 -0.5t-25.5 -1.5zM506 -44q52 11 88 30.5t42 50.5l-4 3q-11 -8 -26 -13t-35 -5q-21 0 -42 6.5t-37 20t-26 34t-10 47.5q0 32 12 56.5t32.5 41.5t46.5 25.5t55 8.5q39 0 68 -12.5t48.5 -34t29 -50.5t9.5 -63q0 -51 -17.5 -89t-47.5 -65 t-70 -45t-85 -29l-31 78v4zM565 130q0 -22 11 -31.5t27 -9.5q9 0 19 2.5t19 10.5q7 36 -4.5 57.5t-32.5 21.5q-17 0 -28 -13.5t-11 -37.5z" />
<glyph horiz-adv-x="780" d="M380 265l235 358l51 -31l-247 -349l-242 -375l-51 33zM370 597q-58 -89 -90 -179.5t-34 -182.5h-125q6 39 18 77.5t28.5 74.5t37 68t43.5 58l-4 5l-157 -6l5 97h270zM436 -27q0 18 6 33t15.5 27t21 20.5t22.5 12.5v3q-34 22 -44.5 44t-10.5 45q0 43 36.5 73.5t108.5 30.5 q28 0 53 -6.5t43.5 -18.5t29 -29t10.5 -39q0 -60 -61 -89v-3q22 -11 35.5 -23t21.5 -24.5t11 -25t3 -23.5q0 -24 -11 -44t-31.5 -34.5t-48.5 -22.5t-61 -8q-67 0 -108 28.5t-41 72.5zM628 -16q0 11 -11 21.5t-46 27.5q-13 -8 -20 -21.5t-7 -25.5q0 -16 13 -26t30 -10 q19 0 30 9t11 25zM551 153q0 -13 9 -23.5t41 -24.5q11 8 17.5 19.5t6.5 26.5q0 14 -9.5 23.5t-26.5 9.5q-21 0 -29.5 -10.5t-8.5 -20.5z" />
<glyph horiz-adv-x="780" d="M380 265l235 358l51 -31l-247 -349l-242 -375l-51 33zM370 597q-58 -89 -90 -179.5t-34 -182.5h-125q6 39 18 77.5t28.5 74.5t37 68t43.5 58l-4 5l-157 -6l5 97h270zM506 -44q52 11 88 30.5t42 50.5l-4 3q-11 -8 -26 -13t-35 -5q-21 0 -42 6.5t-37 20t-26 34t-10 47.5 q0 32 12 56.5t32.5 41.5t46.5 25.5t55 8.5q39 0 68 -12.5t48.5 -34t29 -50.5t9.5 -63q0 -51 -17.5 -89t-47.5 -65t-70 -45t-85 -29l-31 78v4zM565 130q0 -22 11 -31.5t27 -9.5q9 0 19 2.5t19 10.5q7 36 -4.5 57.5t-32.5 21.5q-17 0 -28 -13.5t-11 -37.5z" />
<glyph horiz-adv-x="780" d="M380 265l235 358l51 -31l-247 -349l-242 -375l-51 33zM16 328q0 18 6 33t15.5 27t21 20.5t22.5 12.5v3q-34 22 -44.5 44t-10.5 45q0 43 36.5 73.5t108.5 30.5q28 0 53 -6.5t43.5 -18.5t29 -29t10.5 -39q0 -60 -61 -89v-3q22 -11 35.5 -23t21.5 -24.5t11 -25t3 -23.5 q0 -24 -11 -44t-31.5 -34.5t-48.5 -22.5t-61 -8q-67 0 -108 28.5t-41 72.5zM208 339q0 11 -11 21.5t-46 27.5q-13 -8 -20 -21.5t-7 -25.5q0 -16 13 -26t30 -10q19 0 30 9t11 25zM131 508q0 -13 9 -23.5t41 -24.5q11 8 17.5 19.5t6.5 26.5q0 14 -9.5 23.5t-26.5 9.5 q-21 0 -29.5 -10.5t-8.5 -20.5zM506 -44q52 11 88 30.5t42 50.5l-4 3q-11 -8 -26 -13t-35 -5q-21 0 -42 6.5t-37 20t-26 34t-10 47.5q0 32 12 56.5t32.5 41.5t46.5 25.5t55 8.5q39 0 68 -12.5t48.5 -34t29 -50.5t9.5 -63q0 -51 -17.5 -89t-47.5 -65t-70 -45t-85 -29l-31 78 v4zM565 130q0 -22 11 -31.5t27 -9.5q9 0 19 2.5t19 10.5q7 36 -4.5 57.5t-32.5 21.5q-17 0 -28 -13.5t-11 -37.5z" />
<glyph horiz-adv-x="320" d="M308 31q0 -52 -11.5 -89.5t-31 -62t-46 -36t-57.5 -11.5q-30 0 -57.5 10.5t-48 33.5t-32.5 61t-12 94q0 51 12 87.5t32.5 59.5t48 33.5t57.5 10.5q64 0 105 -47.5t41 -143.5zM194 32q0 51 -10 72t-25 21q-12 0 -22 -20.5t-10 -72.5q0 -30 3 -50t8 -32t11 -16.5t13 -4.5 q16 0 24 22.5t8 80.5z" />
<glyph horiz-adv-x="320" d="M121 -160v262l-75 -7l-9 102l179 21l20 -13v-365h-115z" />
<glyph horiz-adv-x="320" d="M20 181q25 17 58.5 29t77.5 12q26 0 51 -5.5t44.5 -18t31.5 -32t12 -47.5q0 -48 -30 -92t-84 -82l3 -5l117 8v-108h-274l-12 52q89 70 126 118t37 73q0 21 -11.5 30t-37.5 9q-21 0 -45 -9.5t-42 -23.5z" />
<glyph horiz-adv-x="320" d="M26 -50q52 -22 100 -22q27 0 44.5 7.5t17.5 24.5q0 13 -13 22t-37 8l-78 -3l5 82l71 -4q25 -1 35.5 10t10.5 25q0 26 -57 26q-23 0 -44 -6.5t-34 -12.5h-5l5 98q14 5 42 11t63 6q29 0 55 -6t46 -18t31.5 -29.5t11.5 -41.5q0 -36 -18 -59t-47 -34v-5q33 -11 52.5 -32.5 t19.5 -50.5q0 -37 -18 -59.5t-43.5 -34.5t-52.5 -16t-46 -4q-69 0 -118 20l-2 98h3z" />
<glyph horiz-adv-x="320" d="M319 -71h-38v-89h-104v89h-159l-9 49l159 236h113v-204h38v-81zM177 8v103h-4l-64 -99l2 -5z" />
<glyph horiz-adv-x="320" d="M35 4l26 210h224l-5 -94l-147 5l-7 -44q6 1 13.5 1h14.5q38 0 65 -9.5t44.5 -25t26 -35.5t8.5 -41q0 -33 -16 -58.5t-43 -43.5t-63.5 -27.5t-77.5 -9.5q-46 0 -68 7l8 89q11 -5 26.5 -5.5t26.5 -0.5q52 0 71 13.5t19 28.5q0 41 -91 41q-15 0 -26.5 -0.5t-25.5 -1.5z" />
<glyph horiz-adv-x="320" d="M135 57q11 7 23.5 10.5t32.5 3.5t41 -6.5t38.5 -21t29 -36.5t11.5 -52q0 -61 -41 -92t-104 -31q-42 0 -71.5 12.5t-48.5 33.5t-27.5 48.5t-8.5 57.5q0 59 22 102.5t59.5 72.5t87 43.5t103.5 16.5l-8 -83q-62 -4 -99 -26t-44 -50zM202 -38q0 24 -12.5 33.5t-26.5 9.5 q-11 0 -20.5 -3.5t-16.5 -11.5q-3 -14 -2 -28t6 -25t13.5 -17.5t20.5 -6.5q17 0 27.5 13t10.5 36z" />
<glyph horiz-adv-x="320" d="M309 202q-58 -89 -90 -179.5t-34 -182.5h-125q6 39 18 77.5t28.5 74.5t37 68t43.5 58l-4 5l-157 -6l5 97h270z" />
<glyph horiz-adv-x="320" d="M10 -67q0 18 6 33t15.5 27t21 20.5t22.5 12.5v3q-34 22 -44.5 44t-10.5 45q0 43 36.5 73.5t108.5 30.5q28 0 53 -6.5t43.5 -18.5t29 -29t10.5 -39q0 -60 -61 -89v-3q22 -11 35.5 -23t21.5 -24.5t11 -25t3 -23.5q0 -24 -11 -44t-31.5 -34.5t-48.5 -22.5t-61 -8 q-67 0 -108 28.5t-41 72.5zM202 -56q0 11 -11 21.5t-46 27.5q-13 -8 -20 -21.5t-7 -25.5q0 -16 13 -26t30 -10q19 0 30 9t11 25zM125 113q0 -13 9 -23.5t41 -24.5q11 8 17.5 19.5t6.5 26.5q0 14 -9.5 23.5t-26.5 9.5q-21 0 -29.5 -10.5t-8.5 -20.5z" />
<glyph horiz-adv-x="320" d="M60 -84q52 11 88 30.5t42 50.5l-4 3q-11 -8 -26 -13t-35 -5q-21 0 -42 6.5t-37 20t-26 34t-10 47.5q0 32 12 56.5t32.5 41.5t46.5 25.5t55 8.5q39 0 68 -12.5t48.5 -34t29 -50.5t9.5 -63q0 -51 -17.5 -89t-47.5 -65t-70 -45t-85 -29l-31 78v4zM119 90q0 -22 11 -31.5 t27 -9.5q9 0 19 2.5t19 10.5q7 36 -4.5 57.5t-32.5 21.5q-17 0 -28 -13.5t-11 -37.5z" />
<glyph horiz-adv-x="500" d="M158 466l106 124h159v-10l-159 -122h-106v8z" />
<glyph horiz-adv-x="500" d="M342 458h-106l-159 122v10h159l106 -124v-8z" />
<glyph horiz-adv-x="500" d="M428 458h-101l-76 53l-75 -53h-101v8l136 124h81l136 -124v-8z" />
<glyph horiz-adv-x="500" d="M249 448q-26 0 -50.5 7.5t-43 24t-29.5 41t-11 59.5h62q0 -22 19.5 -40t53.5 -18q29 0 51 16.5t22 41.5h62q0 -35 -11.5 -59.5t-30.5 -41t-43.5 -24t-50.5 -7.5z" />
<glyph horiz-adv-x="500" d="M428 582l-136 -124h-81l-136 124v8h101l75 -53l76 53h101v-8z" />
<glyph horiz-adv-x="500" d="M98 466l86 124h144v-10l-134 -122h-96v8zM278 466l86 124h144v-10l-134 -122h-96v8z" />
<glyph horiz-adv-x="530" d="M320 376h167v-110h-167v-177h-110v177h-167v110h167v177h110v-177zM43 -70v110h444v-110h-444z" />
<glyph horiz-adv-x="420" d="M321 -180q-50 35 -95 75.5t-79 89t-54.5 106.5t-20.5 129q0 67 20.5 126t55 108.5t79.5 90t94 70.5l71 -95q-33 -25 -61 -56.5t-49 -69.5t-33 -82t-12 -92q0 -91 44.5 -166.5t120.5 -133.5z" />
<glyph horiz-adv-x="420" d="M18 -80q76 58 120.5 133.5t44.5 166.5q0 48 -12 92t-33 82t-49 69.5t-61 56.5l71 95q49 -30 94 -70.5t79.5 -90t55 -108.5t20.5 -126q0 -71 -20.5 -129t-54.5 -106.5t-79.5 -89t-94.5 -75.5z" />
<glyph horiz-adv-x="430" d="M244 494l-6 -267l6 -271l140 4v-120l-293 -4l8 394l-8 384l287 -4v-120z" />
<glyph horiz-adv-x="430" d="M52 490v120l287 4l-8 -384l8 -394l-293 4v120l140 -4l6 271l-6 267z" />
<glyph horiz-adv-x="430" d="M172 232q22 -2 42.5 -9t36 -18t24.5 -26.5t9 -34.5q0 -25 -7.5 -53.5t-7.5 -67.5q0 -14 3.5 -26.5t16.5 -21.5t38 -14t68 -5v-116q-82 0 -136 9.5t-85.5 27.5t-44 44.5t-12.5 61.5q0 17 4.5 35t9.5 36t9.5 35.5t4.5 32.5q0 35 -24.5 52t-60.5 17v95q36 0 60.5 19.5 t24.5 45.5q0 19 -4 36.5t-9 34.5t-9 34t-4 36q0 34 14.5 58t47 39.5t85 23t129.5 7.5v-116q-126 0 -126 -66q0 -31 7.5 -55t7.5 -47q0 -17 -9.5 -32.5t-25 -27.5t-35.5 -19.5t-42 -10.5v-14z" />
<glyph horiz-adv-x="430" d="M258 246q-22 3 -42 10.5t-35.5 19.5t-25 27.5t-9.5 32.5q0 23 7.5 47t7.5 55q0 66 -126 66v116q76 0 129 -7.5t85.5 -23t47 -39.5t14.5 -58q0 -19 -4 -36t-9 -34t-9 -34.5t-4 -36.5q0 -26 24.5 -45.5t60.5 -19.5v-95q-36 0 -60.5 -17t-24.5 -52q0 -15 4.5 -32.5 t9.5 -35.5t9.5 -36t4.5 -35q0 -35 -12.5 -61.5t-44 -44.5t-85.5 -27.5t-136 -9.5v116q43 0 68 5t38 14t16.5 21.5t3.5 26.5q0 39 -7.5 67.5t-7.5 53.5q0 19 9 34.5t24.5 26.5t36 18t42.5 9v14z" />
<glyph horiz-adv-x="590" d="M520 236q12 -19 16 -37.5t4 -28.5q0 -45 -20 -79.5t-55.5 -58t-84.5 -35.5t-107 -12q-48 0 -93 9t-79.5 28t-55 48t-20.5 69q0 57 29.5 92.5t70.5 51.5v5q-34 16 -47 44.5t-13 54.5q0 33 17.5 60t46.5 46.5t66.5 30.5t77.5 11q56 0 93 -10.5t69 -24.5l-38 -119 q-24 11 -47 19t-49 8q-28 0 -47.5 -12.5t-19.5 -35.5q0 -16 14 -29.5t37 -13.5v-66q-23 -1 -39 -8t-27 -17.5t-16 -23.5t-5 -26q0 -31 25 -49t68 -18q51 0 80.5 19.5t29.5 48.5q0 14 -7 30l-43 -9l-20 89l213 48l20 -89z" />
<glyph horiz-adv-x="590" d="M583 0h-164l-32 29q-40 -21 -87 -32.5t-99 -11.5q-82 0 -130 35.5t-48 92.5q0 29 9 51.5t23.5 40t34 31t40.5 24.5q-38 27 -61 58t-23 70q0 27 13.5 53.5t39.5 47t63.5 33.5t86.5 13q45 0 79 -12.5t56.5 -32.5t34 -45t11.5 -50t-8.5 -45.5t-22.5 -38t-32 -31.5t-38 -26 l61 -60q11 16 16.5 33t6.5 32h140q-6 -45 -24 -84t-47 -71l101 -98v-6zM245 103q25 0 47 15l-73 69q-24 -19 -24 -40q0 -20 14 -32t36 -12zM210 376q0 -16 8 -27.5t28 -27.5q14 11 22 24.5t8 30.5t-8.5 28.5t-23.5 11.5q-16 0 -25 -11.5t-9 -28.5z" />
<glyph horiz-adv-x="450" d="M248 363l119 77l32 -114l-139 -7l126 -103l-84 -76l-78 138l-73 -143l-90 83l122 92l-132 12l30 108l118 -64l-30 154h118z" />
<glyph horiz-adv-x="430" d="M318 536h102l-308 -593h-102z" />
<glyph horiz-adv-x="430" d="M420 -57h-102l-308 593h102z" />
<glyph horiz-adv-x="470" d="M431 213q0 -29 -15 -54t-40 -46q26 -23 36 -48.5t10 -51.5q0 -34 -15 -57.5t-41 -38.5t-62 -21.5t-79 -6.5q-60 0 -109 11.5t-72 26.5l22 116q29 -17 69 -29t88 -12q62 0 62 23q0 13 -17 25t-62 26q-81 26 -124 61.5t-43 92.5q0 29 14.5 57t38.5 51q-26 20 -37 42t-11 51 q0 52 46 88t138 36q53 0 99.5 -10.5t73.5 -22.5l-20 -119q-29 17 -69.5 28t-81.5 11q-26 0 -38.5 -6.5t-12.5 -15.5q0 -5 3.5 -10t13.5 -11.5t29 -14.5t49 -18q49 -16 79.5 -33.5t47.5 -36.5t23.5 -40t6.5 -43zM223 275q-14 5 -26.5 9.5t-24.5 9.5q-11 -17 -11 -33 q0 -24 20 -44t72 -37q11 -4 21.5 -8t20.5 -8q12 15 12 35q0 23 -20 41.5t-64 34.5z" />
<glyph horiz-adv-x="600" d="M582 458h-44v-570h-97v570h-46v-570h-97v265q-57 0 -102.5 13t-77.5 38t-49 60.5t-17 79.5t17.5 79.5t49 60t75 38t94.5 13.5h294v-77zM298 458q-38 0 -62 -31t-24 -82t22 -83t64 -32v228z" />
<glyph horiz-adv-x="570" d="M461 -44q-31 -21 -71 -30.5t-82 -9.5q-54 0 -104.5 19.5t-89 57.5t-61.5 94t-23 129q0 63 21 121t61 102t97.5 70t131.5 26q43 0 79 -9t61.5 -27.5t38.5 -47t10 -67.5l-15 -186q-2 -26 4.5 -45t16.5 -30l-1 -8l-109 -23l-14 33h-5q-32 -27 -73 -27q-46 0 -79 30.5 t-33 90.5q0 30 11 55.5t30.5 44t44.5 29t54 10.5q14 0 30 -0.5t29 -5.5l3 22q2 28 -22.5 41.5t-67.5 13.5q-40 0 -74.5 -15.5t-59.5 -44t-39.5 -68t-14.5 -86.5q0 -48 14 -84t38 -59.5t55 -35.5t65 -12q31 0 56.5 7t44.5 20h3zM414 260q-9 5 -19 5.5t-19 0.5 q-17 0 -30.5 -11.5t-13.5 -35.5q0 -16 9.5 -23.5t20.5 -7.5q23 0 46 18z" />
<glyph horiz-adv-x="780" d="M380 265l235 358l51 -31l-247 -349l-242 -375l-51 33zM141 452q11 7 23.5 10.5t32.5 3.5t41 -6.5t38.5 -21t29 -36.5t11.5 -52q0 -61 -41 -92t-104 -31q-42 0 -71.5 12.5t-48.5 33.5t-27.5 48.5t-8.5 57.5q0 59 22 102.5t59.5 72.5t87 43.5t103.5 16.5l-8 -83 q-62 -4 -99 -26t-44 -50zM208 357q0 24 -12.5 33.5t-26.5 9.5q-11 0 -20.5 -3.5t-16.5 -11.5q-3 -14 -2 -28t6 -25t13.5 -17.5t20.5 -6.5q17 0 27.5 13t10.5 36zM752 242q-58 -89 -90 -179.5t-34 -182.5h-125q6 39 18 77.5t28.5 74.5t37 68t43.5 58l-4 5l-157 -6l5 97h270z " />
<glyph d="M520 264q0 -66 -18.5 -118t-51.5 -88t-77.5 -54.5t-96.5 -18.5q-54 0 -101 18t-81.5 53.5t-54 86.5t-19.5 117q0 63 20 113.5t54 86.5t80 55.5t98 19.5q54 0 99.5 -19.5t78.5 -55.5t51.5 -86t18.5 -110zM337 262q0 70 -20 100t-46 30q-29 0 -48.5 -30.5t-19.5 -99.5 q0 -71 21 -102.5t48 -31.5q24 0 44.5 31t20.5 103z" />
<glyph d="M220 0v350l-115 -11l-12 157l300 29l7 -7v-518h-180z" />
<glyph d="M52 480q13 7 35.5 17t52 18t64.5 14t74 6q40 0 77 -9t64.5 -27.5t44 -47t16.5 -66.5q0 -26 -9 -55.5t-29.5 -59.5t-54 -60.5t-82.5 -59.5l3 -5l177 13v-158h-437l-10 70q69 49 117 87.5t78 70t43 58t13 51.5t-18 37.5t-47 12.5q-26 0 -48.5 -6t-40.5 -14t-31.5 -16.5 t-20.5 -13.5z" />
<glyph d="M52 151q36 -16 78.5 -25t82.5 -9q38 0 61 9t23 35q0 18 -18.5 31t-55.5 11l-110 -3l8 121l98 -3q37 -2 51.5 12.5t14.5 31.5q0 19 -19.5 30t-60.5 11q-31 0 -63.5 -7t-67.5 -21l9 134q23 8 64 17t97 9q109 0 172 -39t63 -105q0 -46 -27.5 -76t-75.5 -44v-3 q54 -14 84.5 -49.5t30.5 -77.5t-20 -72t-54.5 -48.5t-81.5 -27t-101 -8.5q-53 0 -97.5 7t-81.5 20z" />
<glyph d="M501 105h-59v-105h-170v105h-235l-16 76l229 339h192v-293l59 2v-124zM272 223v141h-6l-82 -138l1 -6z" />
<glyph d="M68 203l36 317h365l-12 -143l-237 9l-8 -66q18 1 31.5 1.5t30.5 0.5q56 0 97 -12t67.5 -32t39 -47.5t12.5 -57.5q0 -48 -24 -83.5t-67 -59t-101.5 -34.5t-128.5 -11q-29 0 -55.5 2t-49.5 9l16 135q17 -5 41 -7.5t44 -2.5q77 0 108 14.5t31 31.5q0 24 -33 33.5t-93 9.5 q-28 0 -57.5 -2.5t-48.5 -7.5z" />
<glyph d="M233 298q20 13 44 20t55 7t62 -10t55.5 -30.5t39.5 -51.5t15 -74q0 -36 -15 -67.5t-44 -55t-72 -37.5t-99 -14q-62 0 -107 16t-74.5 44t-43.5 66.5t-14 82.5q0 66 29.5 126t83.5 105.5t130 73.5t169 31l-10 -126q-96 -8 -145 -36t-63 -66zM327 172q0 27 -17 39.5 t-35 12.5q-20 0 -33.5 -5.5t-24.5 -14.5q-3 -16 -1.5 -32t8.5 -28.5t19.5 -20t31.5 -7.5t35.5 13.5t16.5 42.5z" />
<glyph d="M512 513q-80 -130 -126 -261t-55 -252h-200q10 47 27 96t39.5 97t49.5 94.5t58 88.5l-4 5l-228 -9l9 148h425z" />
<glyph d="M404 277q57 -28 79 -62.5t22 -74.5q0 -35 -15.5 -63.5t-45.5 -48.5t-73 -31.5t-98 -11.5q-61 0 -105.5 11.5t-74 31t-44 45t-14.5 52.5q0 24 9 44.5t24 38t33.5 31.5t37.5 24q-26 17 -42.5 32.5t-25.5 30.5t-12.5 30.5t-3.5 32.5q0 29 13 55.5t40.5 46.5t69.5 32t100 12 q47 0 85 -10.5t65 -29t42 -43t15 -52.5q0 -46 -22.5 -75t-58.5 -45v-3zM249 204q-3 1 -5.5 2t-5.5 3q-26 -26 -26 -59q0 -20 15 -33.5t43 -13.5q19 0 35 10.5t16 32.5q0 11 -6 19t-15.5 14.5t-22.5 12t-28 12.5zM229 378q0 -15 15.5 -29.5t57.5 -31.5q27 27 27 58 q0 17 -13.5 31t-37.5 14q-25 0 -37 -13.5t-12 -28.5z" />
<glyph d="M96 113q88 13 142 35t80 66l-4 3q-25 -13 -50 -17.5t-62 -4.5q-30 0 -60.5 9.5t-54.5 29.5t-39.5 50t-15.5 72q0 38 17 71t47.5 57t74 37.5t96.5 13.5q63 0 107.5 -18.5t72.5 -48.5t41 -69t13 -80q0 -78 -30 -136t-79.5 -98t-113 -64.5t-130.5 -35.5zM213 348 q0 -24 17.5 -38t41.5 -14q19 0 29 4.5t22 12.5q10 36 -4 63.5t-52 27.5q-23 0 -38.5 -14t-15.5 -42z" />
<glyph horiz-adv-x="290" d="M64 520h162l-29 -314h-105z" />
<glyph horiz-adv-x="510" d="M64 520h162l-29 -314h-105zM284 520h162l-29 -314h-105z" />
<glyph horiz-adv-x="350" d="M121 537l153 -51l-128 -288l-99 34z" />
<glyph horiz-adv-x="590" d="M121 537l153 -51l-128 -288l-99 34zM361 537l153 -51l-128 -288l-99 34z" />
<glyph horiz-adv-x="790" d="M83 253q0 64 24.5 121t67.5 99.5t99.5 67t121.5 24.5q67 0 124.5 -24.5t98.5 -67t64.5 -99.5t23.5 -121q0 -65 -22.5 -121.5t-63.5 -99.5t-98.5 -67.5t-126.5 -24.5q-65 0 -121.5 23t-99.5 64.5t-67.5 99t-24.5 126.5zM142 251q0 -56 19.5 -103t53.5 -81t80.5 -53 t101.5 -19q54 0 100 19t79.5 53t52.5 81t19 103q0 58 -19.5 106t-53.5 82.5t-80 53.5t-99 19t-99 -19.5t-80.5 -54.5t-54.5 -82.5t-20 -104.5zM508 328q-6 3 -16 8.5t-23.5 11t-30 9t-34.5 3.5t-35.5 -6t-31 -19t-22 -33.5t-8.5 -49.5q0 -44 27 -72.5t71 -28.5q33 0 59 10.5 t49 24.5l18 -80q-22 -16 -56 -27t-71 -11q-42 0 -76 14t-58.5 39t-38 58t-13.5 71q0 45 15 81t40.5 61t59.5 38t72 13t70 -11.5t49 -22.5z" />
<glyph horiz-adv-x="790" d="M83 253q0 64 24.5 121t67.5 99.5t99.5 67t121.5 24.5q67 0 124.5 -24.5t98.5 -67t64.5 -99.5t23.5 -121q0 -65 -22.5 -121.5t-63.5 -99.5t-98.5 -67.5t-126.5 -24.5q-65 0 -121.5 23t-99.5 64.5t-67.5 99t-24.5 126.5zM142 251q0 -56 19.5 -103t53.5 -81t80.5 -53 t101.5 -19q54 0 100 19t79.5 53t52.5 81t19 103q0 58 -19.5 106t-53.5 82.5t-80 53.5t-99 19t-99 -19.5t-80.5 -54.5t-54.5 -82.5t-20 -104.5zM551 315q0 -27 -11 -50t-29.5 -39.5t-44 -26t-53.5 -9.5h-43v-119h-86v369h120q64 0 105.5 -31.5t41.5 -93.5zM463 315 q0 24 -15 37.5t-38 13.5h-40v-102h40q19 0 36 12.5t17 38.5z" />
<glyph horiz-adv-x="800" d="M493 193q0 -22 10 -36t26 -21.5t35 -10t37 -2.5q19 0 40.5 2.5t42 7t38 11t29.5 14.5h4l-10 -127q-35 -23 -88 -34t-102 -11q-48 0 -93 14h-129l-10 54h-5q-17 -27 -47 -47.5t-76 -20.5q-33 0 -64 15t-55 44.5t-38.5 72t-14.5 97.5q0 58 15.5 107t41.5 84.5t60 55.5 t72 20q29 0 56 -12.5t50 -52.5h5l10 51h155q39 14 78 14q47 0 86 -16.5t66.5 -44.5t43 -63.5t15.5 -74.5q0 -16 -3 -41t-13 -49h-268zM266 128q13 0 28 7.5t24 24.5v150q-5 11 -18.5 20.5t-30.5 9.5q-32 0 -49 -33.5t-17 -84.5q0 -48 17.5 -71t45.5 -23zM623 271 q2 35 -16 54.5t-42 19.5q-27 0 -47 -21.5t-23 -52.5h128z" />
<glyph horiz-adv-x="310" d="M298 145v-130q-18 -11 -42 -17.5t-53 -6.5q-30 0 -58.5 9.5t-50.5 28t-35.5 46.5t-13.5 65v92l-29 -20l-39 60l68 48v357l180 15v-245l36 26l39 -60l-75 -53v-171q0 -24 10.5 -37.5t29.5 -13.5q15 0 28 7h5z" />
<glyph horiz-adv-x="500" d="M157 521q0 16 7 30.5t20 25t29.5 17t36.5 6.5q19 0 36 -6.5t30 -17t20 -25t7 -30.5t-7 -30.5t-20 -25t-30 -17t-36 -6.5q-20 0 -36.5 6.5t-29.5 17t-20 25t-7 30.5z" />
<glyph horiz-adv-x="500" d="M267 447l15 199h125v-5l-47 -199h-93v5z" />
<glyph horiz-adv-x="500" d="M347 621l-40 -154h-126v5l77 154h89v-5z" />
<glyph horiz-adv-x="710" d="M695 493h-680v97h680v-97z" />
<glyph horiz-adv-x="500" d="M128 363v104h324v-104h-324z" />
<glyph horiz-adv-x="310" d="M298 145v-130q-18 -11 -42 -17.5t-53 -6.5q-30 0 -58.5 9.5t-50.5 28t-35.5 46.5t-13.5 65v537l180 15v-503q0 -24 10.5 -37.5t29.5 -13.5q15 0 28 7h5zM279 490l15 199h125v-5l-47 -199h-93v5z" />
<glyph horiz-adv-x="370" d="M325 369v-139h-280v139h280z" />
<glyph horiz-adv-x="820" d="M254 0h-188v680h188v-680zM68 748l106 124h159v-10l-159 -122h-106v8zM383 180q22 -17 48.5 -22.5t43.5 -5.5q43 0 72.5 30t29.5 90v408h188v-444q0 -63 -23 -110t-59.5 -78.5t-83 -47t-93.5 -15.5q-54 0 -96.5 10t-71.5 28l40 157h5zM584 748l106 124h159v-10l-159 -122 h-106v8z" />
<glyph d="M315 454l180 19v-457q0 -69 -19 -119.5t-47 -80.5l-165 -23l-6 53q29 22 43 60t14 107v441zM225 473v-473h-180v454zM48 536l106 154h144v-10l-149 -152h-101v8zM320 536l106 154h144v-10l-149 -152h-101v8z" />
<glyph horiz-adv-x="500" d="M198 471l61 154h139v-10l-104 -152h-96v8z" />
<glyph horiz-adv-x="500" d="M198 466l56 124h149v-10l-99 -122h-106v8z" />
<glyph horiz-adv-x="320" d="M254 0h-188v680h188v-680z" />
<glyph horiz-adv-x="270" d="M225 473v-473h-180v454zM34 602q0 18 8 33.5t21.5 27t32 18.5t39.5 7t39.5 -7t32 -18.5t21.5 -27t8 -33.5t-8 -33.5t-21.5 -27t-32 -18.5t-39.5 -7t-39.5 7t-32 18.5t-21.5 27t-8 33.5z" />
<glyph horiz-adv-x="780" d="M380 345l235 358l51 -31l-247 -349l-242 -375l-51 33zM127 315v262l-75 -7l-9 102l179 21l20 -13v-365h-115zM752 322q-58 -89 -90 -179.5t-34 -182.5h-125q6 39 18 77.5t28.5 74.5t37 68t43.5 58l-4 5l-157 -6l5 97h270z" />
<glyph horiz-adv-x="780" d="M380 345l235 358l51 -31l-247 -349l-242 -375l-51 33zM127 315v262l-75 -7l-9 102l179 21l20 -13v-365h-115zM506 36q52 11 88 30.5t42 50.5l-4 3q-11 -8 -26 -13t-35 -5q-21 0 -42 6.5t-37 20t-26 34t-10 47.5q0 32 12 56.5t32.5 41.5t46.5 25.5t55 8.5q39 0 68 -12.5 t48.5 -34t29 -50.5t9.5 -63q0 -51 -17.5 -89t-47.5 -65t-70 -45t-85 -29l-31 78v4zM565 210q0 -22 11 -31.5t27 -9.5q9 0 19 2.5t19 10.5q7 36 -4.5 57.5t-32.5 21.5q-17 0 -28 -13.5t-11 -37.5z" />
<glyph horiz-adv-x="780" d="M380 345l235 358l51 -31l-247 -349l-242 -375l-51 33zM26 656q25 17 58.5 29t77.5 12q26 0 51 -5.5t44.5 -18t31.5 -32t12 -47.5q0 -48 -30 -92t-84 -82l3 -5l117 8v-108h-274l-12 52q89 70 126 118t37 73q0 21 -11.5 30t-37.5 9q-21 0 -45 -9.5t-42 -23.5zM752 322 q-58 -89 -90 -179.5t-34 -182.5h-125q6 39 18 77.5t28.5 74.5t37 68t43.5 58l-4 5l-157 -6l5 97h270z" />
<glyph horiz-adv-x="780" d="M380 345l235 358l51 -31l-247 -349l-242 -375l-51 33zM26 656q25 17 58.5 29t77.5 12q26 0 51 -5.5t44.5 -18t31.5 -32t12 -47.5q0 -48 -30 -92t-84 -82l3 -5l117 8v-108h-274l-12 52q89 70 126 118t37 73q0 21 -11.5 30t-37.5 9q-21 0 -45 -9.5t-42 -23.5zM506 36 q52 11 88 30.5t42 50.5l-4 3q-11 -8 -26 -13t-35 -5q-21 0 -42 6.5t-37 20t-26 34t-10 47.5q0 32 12 56.5t32.5 41.5t46.5 25.5t55 8.5q39 0 68 -12.5t48.5 -34t29 -50.5t9.5 -63q0 -51 -17.5 -89t-47.5 -65t-70 -45t-85 -29l-31 78v4zM565 210q0 -22 11 -31.5t27 -9.5 q9 0 19 2.5t19 10.5q7 36 -4.5 57.5t-32.5 21.5q-17 0 -28 -13.5t-11 -37.5z" />
<glyph horiz-adv-x="780" d="M380 345l235 358l51 -31l-247 -349l-242 -375l-51 33zM44 425q52 -22 100 -22q27 0 44.5 7.5t17.5 24.5q0 13 -13 22t-37 8l-78 -3l5 82l71 -4q25 -1 35.5 10t10.5 25q0 26 -57 26q-23 0 -44 -6.5t-34 -12.5h-5l5 98q14 5 42 11t63 6q29 0 55 -6t46 -18t31.5 -29.5 t11.5 -41.5q0 -36 -18 -59t-47 -34v-5q33 -11 52.5 -32.5t19.5 -50.5q0 -37 -18 -59.5t-43.5 -34.5t-52.5 -16t-46 -4q-69 0 -118 20l-2 98h3zM752 322q-58 -89 -90 -179.5t-34 -182.5h-125q6 39 18 77.5t28.5 74.5t37 68t43.5 58l-4 5l-157 -6l5 97h270z" />
<glyph horiz-adv-x="780" d="M380 345l235 358l51 -31l-247 -349l-242 -375l-51 33zM325 404h-38v-89h-104v89h-159l-9 49l159 236h113v-204h38v-81zM183 483v103h-4l-64 -99l2 -5zM752 322q-58 -89 -90 -179.5t-34 -182.5h-125q6 39 18 77.5t28.5 74.5t37 68t43.5 58l-4 5l-157 -6l5 97h270z" />
<glyph horiz-adv-x="780" d="M380 345l235 358l51 -31l-247 -349l-242 -375l-51 33zM325 404h-38v-89h-104v89h-159l-9 49l159 236h113v-204h38v-81zM183 483v103h-4l-64 -99l2 -5zM506 36q52 11 88 30.5t42 50.5l-4 3q-11 -8 -26 -13t-35 -5q-21 0 -42 6.5t-37 20t-26 34t-10 47.5q0 32 12 56.5 t32.5 41.5t46.5 25.5t55 8.5q39 0 68 -12.5t48.5 -34t29 -50.5t9.5 -63q0 -51 -17.5 -89t-47.5 -65t-70 -45t-85 -29l-31 78v4zM565 210q0 -22 11 -31.5t27 -9.5q9 0 19 2.5t19 10.5q7 36 -4.5 57.5t-32.5 21.5q-17 0 -28 -13.5t-11 -37.5z" />
<glyph horiz-adv-x="780" d="M380 345l235 358l51 -31l-247 -349l-242 -375l-51 33zM53 479l26 210h224l-5 -94l-147 5l-7 -44q6 1 13.5 1h14.5q38 0 65 -9.5t44.5 -25t26 -35.5t8.5 -41q0 -33 -16 -58.5t-43 -43.5t-63.5 -27.5t-77.5 -9.5q-46 0 -68 7l8 89q11 -5 26.5 -5.5t26.5 -0.5q52 0 71 13.5 t19 28.5q0 41 -91 41q-15 0 -26.5 -0.5t-25.5 -1.5zM752 322q-58 -89 -90 -179.5t-34 -182.5h-125q6 39 18 77.5t28.5 74.5t37 68t43.5 58l-4 5l-157 -6l5 97h270z" />
<glyph horiz-adv-x="780" d="M380 345l235 358l51 -31l-247 -349l-242 -375l-51 33zM53 479l26 210h224l-5 -94l-147 5l-7 -44q6 1 13.5 1h14.5q38 0 65 -9.5t44.5 -25t26 -35.5t8.5 -41q0 -33 -16 -58.5t-43 -43.5t-63.5 -27.5t-77.5 -9.5q-46 0 -68 7l8 89q11 -5 26.5 -5.5t26.5 -0.5q52 0 71 13.5 t19 28.5q0 41 -91 41q-15 0 -26.5 -0.5t-25.5 -1.5zM506 36q52 11 88 30.5t42 50.5l-4 3q-11 -8 -26 -13t-35 -5q-21 0 -42 6.5t-37 20t-26 34t-10 47.5q0 32 12 56.5t32.5 41.5t46.5 25.5t55 8.5q39 0 68 -12.5t48.5 -34t29 -50.5t9.5 -63q0 -51 -17.5 -89t-47.5 -65 t-70 -45t-85 -29l-31 78v4zM565 210q0 -22 11 -31.5t27 -9.5q9 0 19 2.5t19 10.5q7 36 -4.5 57.5t-32.5 21.5q-17 0 -28 -13.5t-11 -37.5z" />
<glyph horiz-adv-x="780" d="M380 345l235 358l51 -31l-247 -349l-242 -375l-51 33zM141 532q11 7 23.5 10.5t32.5 3.5t41 -6.5t38.5 -21t29 -36.5t11.5 -52q0 -61 -41 -92t-104 -31q-42 0 -71.5 12.5t-48.5 33.5t-27.5 48.5t-8.5 57.5q0 59 22 102.5t59.5 72.5t87 43.5t103.5 16.5l-8 -83 q-62 -4 -99 -26t-44 -50zM208 437q0 24 -12.5 33.5t-26.5 9.5q-11 0 -20.5 -3.5t-16.5 -11.5q-3 -14 -2 -28t6 -25t13.5 -17.5t20.5 -6.5q17 0 27.5 13t10.5 36zM752 322q-58 -89 -90 -179.5t-34 -182.5h-125q6 39 18 77.5t28.5 74.5t37 68t43.5 58l-4 5l-157 -6l5 97h270z " />
<glyph horiz-adv-x="780" d="M380 345l235 358l51 -31l-247 -349l-242 -375l-51 33zM370 677q-58 -89 -90 -179.5t-34 -182.5h-125q6 39 18 77.5t28.5 74.5t37 68t43.5 58l-4 5l-157 -6l5 97h270zM506 36q52 11 88 30.5t42 50.5l-4 3q-11 -8 -26 -13t-35 -5q-21 0 -42 6.5t-37 20t-26 34t-10 47.5 q0 32 12 56.5t32.5 41.5t46.5 25.5t55 8.5q39 0 68 -12.5t48.5 -34t29 -50.5t9.5 -63q0 -51 -17.5 -89t-47.5 -65t-70 -45t-85 -29l-31 78v4zM565 210q0 -22 11 -31.5t27 -9.5q9 0 19 2.5t19 10.5q7 36 -4.5 57.5t-32.5 21.5q-17 0 -28 -13.5t-11 -37.5z" />
<glyph horiz-adv-x="780" d="M380 345l235 358l51 -31l-247 -349l-242 -375l-51 33zM16 408q0 18 6 33t15.5 27t21 20.5t22.5 12.5v3q-34 22 -44.5 44t-10.5 45q0 43 36.5 73.5t108.5 30.5q28 0 53 -6.5t43.5 -18.5t29 -29t10.5 -39q0 -60 -61 -89v-3q22 -11 35.5 -23t21.5 -24.5t11 -25t3 -23.5 q0 -24 -11 -44t-31.5 -34.5t-48.5 -22.5t-61 -8q-67 0 -108 28.5t-41 72.5zM208 419q0 11 -11 21.5t-46 27.5q-13 -8 -20 -21.5t-7 -25.5q0 -16 13 -26t30 -10q19 0 30 9t11 25zM131 588q0 -13 9 -23.5t41 -24.5q11 8 17.5 19.5t6.5 26.5q0 14 -9.5 23.5t-26.5 9.5 q-21 0 -29.5 -10.5t-8.5 -20.5zM506 36q52 11 88 30.5t42 50.5l-4 3q-11 -8 -26 -13t-35 -5q-21 0 -42 6.5t-37 20t-26 34t-10 47.5q0 32 12 56.5t32.5 41.5t46.5 25.5t55 8.5q39 0 68 -12.5t48.5 -34t29 -50.5t9.5 -63q0 -51 -17.5 -89t-47.5 -65t-70 -45t-85 -29l-31 78v4 zM565 210q0 -22 11 -31.5t27 -9.5q9 0 19 2.5t19 10.5q7 36 -4.5 57.5t-32.5 21.5q-17 0 -28 -13.5t-11 -37.5z" />
<glyph horiz-adv-x="630" d="M362 543q-19 8 -41 8q-24 0 -40 -18t-16 -41v-24h80v-137h-80v-331h-180v331h-65v109l65 36v25q0 45 16 79.5t44 58.5t65 36.5t78 12.5q55 0 78 -9v-136h-4zM585 473v-473h-180v454zM394 602q0 18 8 33.5t21.5 27t32 18.5t39.5 7t39.5 -7t32 -18.5t21.5 -27t8 -33.5 t-8 -33.5t-21.5 -27t-32 -18.5t-39.5 -7t-39.5 7t-32 18.5t-21.5 27t-8 33.5z" />
<glyph horiz-adv-x="670" d="M362 543q-19 8 -41 8q-24 0 -40 -18t-16 -41v-24h80v-137h-80v-331h-180v331h-65v109l65 36v25q0 45 16 79.5t44 58.5t65 36.5t78 12.5q55 0 78 -9v-136h-4zM658 145v-130q-18 -11 -42 -17.5t-53 -6.5q-30 0 -58.5 9.5t-50.5 28t-35.5 46.5t-13.5 65v537l180 15v-503 q0 -24 10.5 -37.5t29.5 -13.5q15 0 28 7h5z" />
<glyph horiz-adv-x="630" d="M362 543q-19 8 -41 8q-24 0 -40 -18t-16 -41v-24h80v-137h-80v-331h-180v331h-65v109l65 36v25q0 45 16 79.5t44 58.5t65 36.5t78 12.5q55 0 78 -9v-136h-4zM585 692v-692h-180v677z" />
<glyph horiz-adv-x="650" d="M560 467q-37 30 -80 44t-82 13q-33 0 -63.5 -12t-54 -35.5t-37 -59t-13.5 -83.5q0 -45 14 -78.5t38.5 -55.5t56.5 -32.5t68 -10.5q42 0 85.5 16.5t72.5 41.5h5l55 -152q-54 -42 -117.5 -60t-126.5 -18q-78 0 -142 26t-109 71.5t-70 108.5t-25 138q0 81 28 148t75.5 115.5 t110.5 75.5t134 27q56 0 112.5 -14.5t124.5 -56.5l-55 -157h-5zM339 748l56 124h149v-10l-99 -122h-106v8z" />
<glyph horiz-adv-x="640" d="M540 477q-34 25 -72 36.5t-73 10.5q-24 0 -48 -6t-44.5 -19t-37 -33t-26.5 -48l249 6v-160l-255 4q9 -30 26 -51.5t39.5 -34.5t49 -19t54.5 -6q38 0 77.5 12.5t65.5 32.5h5l55 -149q-51 -36 -106 -52t-118 -16q-78 0 -142 26t-109 71.5t-70 108.5t-25 138q0 81 28.5 148 t76.5 115.5t112 75.5t136 27q48 0 100 -12.5t112 -48.5l-55 -157h-5zM266 748l106 124h159v-10l-159 -122h-106v8z" />
<glyph horiz-adv-x="640" d="M540 477q-34 25 -72 36.5t-73 10.5q-24 0 -48 -6t-44.5 -19t-37 -33t-26.5 -48l249 6v-160l-255 4q9 -30 26 -51.5t39.5 -34.5t49 -19t54.5 -6q38 0 77.5 12.5t65.5 32.5h5l55 -149q-51 -36 -106 -52t-118 -16q-78 0 -142 26t-109 71.5t-70 108.5t-25 138q0 81 28.5 148 t76.5 115.5t112 75.5t136 27q48 0 100 -12.5t112 -48.5l-55 -157h-5zM450 740h-106l-159 122v10h159l106 -124v-8z" />
<glyph horiz-adv-x="640" d="M540 477q-34 25 -72 36.5t-73 10.5q-24 0 -48 -6t-44.5 -19t-37 -33t-26.5 -48l249 6v-160l-255 4q9 -30 26 -51.5t39.5 -34.5t49 -19t54.5 -6q38 0 77.5 12.5t65.5 32.5h5l55 -149q-51 -36 -106 -52t-118 -16q-78 0 -142 26t-109 71.5t-70 108.5t-25 138q0 81 28.5 148 t76.5 115.5t112 75.5t136 27q48 0 100 -12.5t112 -48.5l-55 -157h-5zM536 740h-101l-76 53l-75 -53h-101v8l136 124h81l136 -124v-8z" />
<glyph horiz-adv-x="640" d="M540 477q-34 25 -72 36.5t-73 10.5q-24 0 -48 -6t-44.5 -19t-37 -33t-26.5 -48l249 6v-160l-255 4q9 -30 26 -51.5t39.5 -34.5t49 -19t54.5 -6q38 0 77.5 12.5t65.5 32.5h5l55 -149q-51 -36 -106 -52t-118 -16q-78 0 -142 26t-109 71.5t-70 108.5t-25 138q0 81 28.5 148 t76.5 115.5t112 75.5t136 27q48 0 100 -12.5t112 -48.5l-55 -157h-5zM524 807q0 -14 -6 -26t-16 -21.5t-22.5 -15t-25.5 -5.5q-28 0 -49 20.5t-21 47.5q0 28 21 49t49 21q13 0 25.5 -5.5t22.5 -15.5t16 -22.5t6 -26.5zM332 807q0 -27 -20 -47.5t-49 -20.5q-28 0 -49.5 20.5 t-21.5 47.5q0 28 21.5 49t49.5 21q29 0 49 -21t20 -49z" />
<glyph horiz-adv-x="640" d="M540 477q-34 25 -72 36.5t-73 10.5q-24 0 -48 -6t-44.5 -19t-37 -33t-26.5 -48l249 6v-160l-255 4q9 -30 26 -51.5t39.5 -34.5t49 -19t54.5 -6q38 0 77.5 12.5t65.5 32.5h5l55 -149q-51 -36 -106 -52t-118 -16q-78 0 -142 26t-109 71.5t-70 108.5t-25 138q0 81 28.5 148 t76.5 115.5t112 75.5t136 27q48 0 100 -12.5t112 -48.5l-55 -157h-5zM221 760v90h274v-90h-274z" />
<glyph horiz-adv-x="640" d="M540 477q-34 25 -72 36.5t-73 10.5q-24 0 -48 -6t-44.5 -19t-37 -33t-26.5 -48l249 6v-160l-255 4q9 -30 26 -51.5t39.5 -34.5t49 -19t54.5 -6q38 0 77.5 12.5t65.5 32.5h5l55 -149q-51 -36 -106 -52t-118 -16q-78 0 -142 26t-109 71.5t-70 108.5t-25 138q0 81 28.5 148 t76.5 115.5t112 75.5t136 27q48 0 100 -12.5t112 -48.5l-55 -157h-5zM536 864l-136 -124h-81l-136 124v8h101l75 -53l76 53h101v-8z" />
<glyph horiz-adv-x="640" d="M540 477q-34 25 -72 36.5t-73 10.5q-24 0 -48 -6t-44.5 -19t-37 -33t-26.5 -48l249 6v-160l-255 4q9 -30 26 -51.5t39.5 -34.5t49 -19t54.5 -6q38 0 77.5 12.5t65.5 32.5h5l55 -149q-51 -36 -106 -52t-118 -16q-78 0 -142 26t-109 71.5t-70 108.5t-25 138q0 81 28.5 148 t76.5 115.5t112 75.5t136 27q48 0 100 -12.5t112 -48.5l-55 -157h-5zM265 803q0 16 7 30.5t20 25t29.5 17t36.5 6.5q19 0 36 -6.5t30 -17t20 -25t7 -30.5t-7 -30.5t-20 -25t-30 -17t-36 -6.5q-20 0 -36.5 6.5t-29.5 17t-20 25t-7 30.5z" />
<glyph horiz-adv-x="640" d="M540 477q-34 25 -72 36.5t-73 10.5q-24 0 -48 -6t-44.5 -19t-37 -33t-26.5 -48l249 6v-160l-255 4q9 -30 26 -51.5t39.5 -34.5t49 -19t54.5 -6q38 0 77.5 12.5t65.5 32.5h5l55 -149q-35 -25 -70 -39q-31 -21 -47 -45t-16 -46q0 -20 10.5 -28t24.5 -8q8 0 14 1.5t12 3.5 v-83q-11 -4 -24.5 -6t-35.5 -2q-17 0 -35 4.5t-32.5 13.5t-24 24t-9.5 36q0 28 14 56t37 52q-11 -1 -21 -1.5t-21 -0.5q-78 0 -142 26t-109 71.5t-70 108.5t-25 138q0 81 28.5 148t76.5 115.5t112 75.5t136 27q48 0 100 -12.5t112 -48.5l-55 -157h-5z" />
<glyph horiz-adv-x="750" d="M528 458q-20 32 -51.5 51t-77.5 19q-33 0 -63.5 -11.5t-54 -35t-37.5 -59.5t-14 -84q0 -42 12.5 -76.5t35 -59.5t54.5 -38.5t70 -13.5q59 0 95 26t35 85h-163v146h341q16 -113 -2.5 -193t-63 -131t-111 -74.5t-146.5 -23.5q-66 0 -129.5 21.5t-113 64.5t-79.5 107.5 t-30 150.5q0 81 27 148t75 115.5t113.5 75.5t142.5 27q43 0 85 -8.5t80 -27t70.5 -48.5t55.5 -73zM385 730q-26 0 -50.5 7.5t-43 24t-29.5 41t-11 59.5h62q0 -22 19.5 -40t53.5 -18q29 0 51 16.5t22 41.5h62q0 -35 -11.5 -59.5t-30.5 -41t-43.5 -24t-50.5 -7.5z" />
<glyph horiz-adv-x="750" d="M528 458q-20 32 -51.5 51t-77.5 19q-33 0 -63.5 -11.5t-54 -35t-37.5 -59.5t-14 -84q0 -42 12.5 -76.5t35 -59.5t54.5 -38.5t70 -13.5q59 0 95 26t35 85h-163v146h341q16 -113 -2.5 -193t-63 -131t-111 -74.5t-146.5 -23.5q-66 0 -129.5 21.5t-113 64.5t-79.5 107.5 t-30 150.5q0 81 27 148t75 115.5t113.5 75.5t142.5 27q43 0 85 -8.5t80 -27t70.5 -48.5t55.5 -73zM293 803q0 16 7 30.5t20 25t29.5 17t36.5 6.5q19 0 36 -6.5t30 -17t20 -25t7 -30.5t-7 -30.5t-20 -25t-30 -17t-36 -6.5q-20 0 -36.5 6.5t-29.5 17t-20 25t-7 30.5z" />
<glyph horiz-adv-x="750" d="M528 458q-20 32 -51.5 51t-77.5 19q-33 0 -63.5 -11.5t-54 -35t-37.5 -59.5t-14 -84q0 -42 12.5 -76.5t35 -59.5t54.5 -38.5t70 -13.5q59 0 95 26t35 85h-163v146h341q16 -113 -2.5 -193t-63 -131t-111 -74.5t-146.5 -23.5q-66 0 -129.5 21.5t-113 64.5t-79.5 107.5 t-30 150.5q0 81 27 148t75 115.5t113.5 75.5t142.5 27q43 0 85 -8.5t80 -27t70.5 -48.5t55.5 -73zM313 -216l40 149h116v-5l-77 -149h-79v5z" />
<glyph horiz-adv-x="760" d="M512 313h5v367h188v-680h-142l-315 362h-5v-362h-188v680h140zM313 748l56 124h149v-10l-99 -122h-106v8z" />
<glyph horiz-adv-x="780" d="M745 335q0 -79 -27 -143.5t-74.5 -110.5t-112.5 -71t-140 -25q-78 0 -143.5 24t-113 69.5t-73.5 110.5t-26 146t28.5 147t77.5 113.5t113.5 73.5t136.5 26q73 0 137.5 -25.5t112.5 -72.5t76 -113.5t28 -148.5zM550 337q0 46 -13 82t-35 60t-51.5 36.5t-62.5 12.5 q-32 0 -60.5 -12t-50 -36t-34.5 -60t-13 -83q0 -45 12.5 -79.5t34.5 -58t52 -35.5t66 -12q68 0 111.5 48t43.5 137zM338 748l56 124h149v-10l-99 -122h-106v8z" />
<glyph horiz-adv-x="680" d="M448 329q24 -10 48 -34t47 -55.5t43.5 -66.5t38 -68t31 -59.5t21.5 -40.5v-5h-209q-8 13 -20.5 38t-28 55t-34 61t-38.5 56.5t-41.5 42t-43.5 16.5h-17v-269h-190v680h236q68 0 118 -16t82.5 -42.5t48 -61.5t15.5 -73q0 -58 -27 -98.5t-80 -54.5v-5zM365 462 q0 33 -19.5 51t-51.5 18h-51v-133h52q29 0 49.5 14.5t20.5 49.5zM195 748l106 124h159v-10l-159 -122h-106v8z" />
<glyph horiz-adv-x="680" d="M448 329q24 -10 48 -34t47 -55.5t43.5 -66.5t38 -68t31 -59.5t21.5 -40.5v-5h-209q-8 13 -20.5 38t-28 55t-34 61t-38.5 56.5t-41.5 42t-43.5 16.5h-17v-269h-190v680h236q68 0 118 -16t82.5 -42.5t48 -61.5t15.5 -73q0 -58 -27 -98.5t-80 -54.5v-5zM365 462 q0 33 -19.5 51t-51.5 18h-51v-133h52q29 0 49.5 14.5t20.5 49.5zM465 864l-136 -124h-81l-136 124v8h101l75 -53l76 53h101v-8z" />
<glyph horiz-adv-x="570" d="M81 219q41 -31 89.5 -48.5t93.5 -17.5t64.5 12.5t19.5 30.5q0 11 -8 20t-21 17t-30 15.5t-36 16.5q-51 23 -89.5 47.5t-64.5 52.5t-39 62t-13 77q0 36 15.5 70t45.5 61t73.5 43.5t99.5 16.5q72 0 130.5 -17.5t110.5 -46.5l-51 -165q-47 31 -92.5 46t-87.5 15 q-23 0 -39.5 -6.5t-16.5 -26.5q0 -12 10.5 -22.5t28.5 -21.5t41.5 -22t50.5 -24q53 -26 86.5 -52.5t52 -54t25.5 -56t7 -56.5q0 -55 -23 -93t-60 -62t-83.5 -34.5t-92.5 -10.5q-76 0 -144 20.5t-108 51.5zM237 748l56 124h149v-10l-99 -122h-106v8z" />
<glyph horiz-adv-x="900" d="M570 288h5l135 392h195l-255 -680h-115l-87 232l-78 -232h-120l-255 680h195l135 -392h5l33 89l-108 303h160l36 -136l34 136h160l-109 -301zM328 748l106 124h159v-10l-159 -122h-106v8z" />
<glyph horiz-adv-x="900" d="M570 288h5l135 392h195l-255 -680h-115l-87 232l-78 -232h-120l-255 680h195l135 -392h5l33 89l-108 303h160l36 -136l34 136h160l-109 -301zM598 740h-101l-76 53l-75 -53h-101v8l136 124h81l136 -124v-8z" />
<glyph horiz-adv-x="900" d="M570 288h5l135 392h195l-255 -680h-115l-87 232l-78 -232h-120l-255 680h195l135 -392h5l33 89l-108 303h160l36 -136l34 136h160l-109 -301zM586 807q0 -14 -6 -26t-16 -21.5t-22.5 -15t-25.5 -5.5q-28 0 -49 20.5t-21 47.5q0 28 21 49t49 21q13 0 25.5 -5.5t22.5 -15.5 t16 -22.5t6 -26.5zM394 807q0 -27 -20 -47.5t-49 -20.5q-28 0 -49.5 20.5t-21.5 47.5q0 28 21.5 49t49.5 21q29 0 49 -21t20 -49z" />
<glyph horiz-adv-x="900" d="M570 288h5l135 392h195l-255 -680h-115l-87 232l-78 -232h-120l-255 680h195l135 -392h5l33 89l-108 303h160l36 -136l34 136h160l-109 -301zM512 740h-106l-159 122v10h159l106 -124v-8z" />
<glyph horiz-adv-x="630" d="M317 520h-283v160h577l5 -6l-307 -510l3 -4h292v-160h-585l-5 9l306 508zM275 748l56 124h149v-10l-99 -122h-106v8z" />
<glyph d="M323 417l10 51h165v-468h-165l-10 54h-5q-17 -27 -47 -47.5t-76 -20.5q-33 0 -64 15t-55 44.5t-38.5 72t-14.5 97.5q0 58 15.5 107t41.5 84.5t60 55.5t72 20q29 0 56 -12.5t50 -52.5h5zM266 128q13 0 28 7.5t24 24.5v150q-5 11 -18.5 20.5t-30.5 9.5q-32 0 -49 -33.5 t-17 -84.5q0 -48 17.5 -71t45.5 -23zM197 536l106 154h144v-10l-149 -152h-101v8z" />
<glyph d="M323 417l10 51h165v-468h-165l-10 54h-5q-17 -27 -47 -47.5t-76 -20.5q-33 0 -64 15t-55 44.5t-38.5 72t-14.5 97.5q0 58 15.5 107t41.5 84.5t60 55.5t72 20q29 0 56 -12.5t50 -52.5h5zM266 128q13 0 28 7.5t24 24.5v150q-5 11 -18.5 20.5t-30.5 9.5q-32 0 -49 -33.5 t-17 -84.5q0 -48 17.5 -71t45.5 -23zM371 528h-101l-149 152v10h144l106 -154v-8z" />
<glyph d="M323 417l10 51h165v-468h-165l-10 54h-5q-17 -27 -47 -47.5t-76 -20.5q-33 0 -64 15t-55 44.5t-38.5 72t-14.5 97.5q0 58 15.5 107t41.5 84.5t60 55.5t72 20q29 0 56 -12.5t50 -52.5h5zM266 128q13 0 28 7.5t24 24.5v150q-5 11 -18.5 20.5t-30.5 9.5q-32 0 -49 -33.5 t-17 -84.5q0 -48 17.5 -71t45.5 -23zM447 528h-91l-71 68l-70 -68h-91v8l131 154h61l131 -154v-8z" />
<glyph d="M323 417l10 51h165v-468h-165l-10 54h-5q-17 -27 -47 -47.5t-76 -20.5q-33 0 -64 15t-55 44.5t-38.5 72t-14.5 97.5q0 58 15.5 107t41.5 84.5t60 55.5t72 20q29 0 56 -12.5t50 -52.5h5zM266 128q13 0 28 7.5t24 24.5v150q-5 11 -18.5 20.5t-30.5 9.5q-32 0 -49 -33.5 t-17 -84.5q0 -48 17.5 -71t45.5 -23zM450 595q0 -14 -6 -26t-16 -21.5t-22.5 -15t-25.5 -5.5q-28 0 -49 20.5t-21 47.5q0 28 21 49t49 21q13 0 25.5 -5.5t22.5 -15.5t16 -22.5t6 -26.5zM258 595q0 -27 -20 -47.5t-49 -20.5q-28 0 -49.5 20.5t-21.5 47.5q0 28 21.5 49 t49.5 21q29 0 49 -21t20 -49z" />
<glyph d="M323 417l10 51h165v-468h-165l-10 54h-5q-17 -27 -47 -47.5t-76 -20.5q-33 0 -64 15t-55 44.5t-38.5 72t-14.5 97.5q0 58 15.5 107t41.5 84.5t60 55.5t72 20q29 0 56 -12.5t50 -52.5h5zM266 128q13 0 28 7.5t24 24.5v150q-5 11 -18.5 20.5t-30.5 9.5q-32 0 -49 -33.5 t-17 -84.5q0 -48 17.5 -71t45.5 -23zM454 683q0 -63 -29 -103t-76 -40q-23 0 -39 9.5t-30 21t-27.5 21t-29.5 9.5q-17 0 -25.5 -15t-8.5 -41h-75q0 74 31 108.5t74 34.5q20 0 36 -9.5t30 -21.5t28 -21.5t29 -9.5q17 0 27 15.5t10 41.5h75z" />
<glyph d="M323 417l10 51h165v-468h-165l-10 54h-5q-17 -27 -47 -47.5t-76 -20.5q-33 0 -64 15t-55 44.5t-38.5 72t-14.5 97.5q0 58 15.5 107t41.5 84.5t60 55.5t72 20q29 0 56 -12.5t50 -52.5h5zM266 128q13 0 28 7.5t24 24.5v150q-5 11 -18.5 20.5t-30.5 9.5q-32 0 -49 -33.5 t-17 -84.5q0 -48 17.5 -71t45.5 -23zM171 634q0 24 9 44.5t24 35.5t35.5 24t44.5 9t44.5 -9t35.5 -24t24 -35.5t9 -44.5t-9 -44.5t-24 -35.5t-35.5 -24t-44.5 -9t-44.5 9t-35.5 24t-24 35.5t-9 44.5zM237 634q0 -21 12.5 -35.5t33.5 -14.5q20 0 33.5 14.5t13.5 35.5 q0 20 -13.5 36t-33.5 16q-21 0 -33.5 -16t-12.5 -36z" />
<glyph d="M323 417l10 51h165v-468h-165l-10 54h-5q-17 -27 -47 -47.5t-76 -20.5q-33 0 -64 15t-55 44.5t-38.5 72t-14.5 97.5q0 58 15.5 107t41.5 84.5t60 55.5t72 20q29 0 56 -12.5t50 -52.5h5zM266 128q13 0 28 7.5t24 24.5v150q-5 11 -18.5 20.5t-30.5 9.5q-32 0 -49 -33.5 t-17 -84.5q0 -48 17.5 -71t45.5 -23zM283 523q-26 0 -50.5 10t-43 30.5t-29.5 52t-11 74.5h67q0 -32 18 -57.5t50 -25.5q27 0 47.5 23.5t20.5 59.5h67q0 -42 -11.5 -73.5t-30.5 -52.5t-43.5 -31t-50.5 -10z" />
<glyph d="M323 417l10 51h165v-468h-165l-10 54h-5q-17 -27 -47 -47.5t-76 -20.5q-33 0 -64 15t-55 44.5t-38.5 72t-14.5 97.5q0 58 15.5 107t41.5 84.5t60 55.5t72 20q29 0 56 -12.5t50 -52.5h5zM266 128q13 0 28 7.5t24 24.5v150q-5 11 -18.5 20.5t-30.5 9.5q-32 0 -49 -33.5 t-17 -84.5q0 -48 17.5 -71t45.5 -23zM147 548v90h274v-90h-274z" />
<glyph d="M323 417l10 51h165v-468h-82q-45 -39 -45 -77q0 -20 10.5 -28t24.5 -8q8 0 14 1.5t12 3.5v-83q-11 -4 -24.5 -6t-35.5 -2q-17 0 -35 4.5t-32.5 13.5t-24 24t-9.5 36q0 32 17.5 63.5t46.5 57.5h-2l-10 54h-5q-17 -27 -47 -47.5t-76 -20.5q-33 0 -64 15t-55 44.5t-38.5 72 t-14.5 97.5q0 58 15.5 107t41.5 84.5t60 55.5t72 20q29 0 56 -12.5t50 -52.5h5zM266 128q13 0 28 7.5t24 24.5v150q-5 11 -18.5 20.5t-30.5 9.5q-32 0 -49 -33.5t-17 -84.5q0 -48 17.5 -71t45.5 -23z" />
<glyph horiz-adv-x="440" d="M402 305q-18 14 -42.5 24.5t-53.5 10.5q-22 0 -41 -8.5t-32.5 -22.5t-21.5 -34t-8 -42q0 -27 8.5 -46.5t23 -32.5t32.5 -19.5t37 -6.5q30 0 55.5 8t47.5 22h6v-135q-29 -19 -67.5 -28t-83.5 -9q-62 0 -107 19t-74.5 51t-43.5 74.5t-14 89.5q0 57 20.5 105t54.5 83 t79 54.5t95 19.5q44 0 77 -10t59 -27v-140h-6zM218 536l61 154h139v-10l-104 -152h-96v8z" />
<glyph horiz-adv-x="500" d="M234 170h-21t-20 2l-23 -28v-5l133 -16q85 -11 133.5 -52.5t48.5 -111.5q0 -44 -23.5 -75.5t-60 -51.5t-82 -29.5t-89.5 -9.5q-109 0 -169.5 32t-60.5 86q0 32 25 56t61 40v5l-61 10v104l65 75q-35 20 -53.5 49.5t-18.5 68.5q0 34 15.5 63.5t44 51t68.5 33.5t90 12 q41 0 72 -6t54 -17l138 17v-112l-54 1q6 -23 6 -44q0 -28 -14 -54.5t-41.5 -47.5t-68 -33.5t-94.5 -12.5zM310 -55q0 31 -52 38l-55 8q-20 -5 -34 -17t-14 -29q0 -23 25 -34.5t58 -11.5q32 0 52 11t20 35zM281 317q0 26 -13.5 39.5t-33.5 13.5q-19 0 -32 -15t-13 -39 q0 -27 14 -38.5t32 -11.5q15 0 30.5 11.5t15.5 39.5zM237 523q-26 0 -50.5 10t-43 30.5t-29.5 52t-11 74.5h67q0 -32 18 -57.5t50 -25.5q27 0 47.5 23.5t20.5 59.5h67q0 -42 -11.5 -73.5t-30.5 -52.5t-43.5 -31t-50.5 -10z" />
<glyph horiz-adv-x="500" d="M234 170h-21t-20 2l-23 -28v-5l133 -16q85 -11 133.5 -52.5t48.5 -111.5q0 -44 -23.5 -75.5t-60 -51.5t-82 -29.5t-89.5 -9.5q-109 0 -169.5 32t-60.5 86q0 32 25 56t61 40v5l-61 10v104l65 75q-35 20 -53.5 49.5t-18.5 68.5q0 34 15.5 63.5t44 51t68.5 33.5t90 12 q41 0 72 -6t54 -17l138 17v-112l-54 1q6 -23 6 -44q0 -28 -14 -54.5t-41.5 -47.5t-68 -33.5t-94.5 -12.5zM310 -55q0 31 -52 38l-55 8q-20 -5 -34 -17t-14 -29q0 -23 25 -34.5t58 -11.5q32 0 52 11t20 35zM281 317q0 26 -13.5 39.5t-33.5 13.5q-19 0 -32 -15t-13 -39 q0 -27 14 -38.5t32 -11.5q15 0 30.5 11.5t15.5 39.5zM138 602q0 18 8 33.5t21.5 27t32 18.5t39.5 7t39.5 -7t32 -18.5t21.5 -27t8 -33.5t-8 -33.5t-21.5 -27t-32 -18.5t-39.5 -7t-39.5 7t-32 18.5t-21.5 27t-8 33.5z" />
<glyph horiz-adv-x="500" d="M234 170h-21t-20 2l-23 -28v-5l133 -16q85 -11 133.5 -52.5t48.5 -111.5q0 -44 -23.5 -75.5t-60 -51.5t-82 -29.5t-89.5 -9.5q-109 0 -169.5 32t-60.5 86q0 32 25 56t61 40v5l-61 10v104l65 75q-35 20 -53.5 49.5t-18.5 68.5q0 34 15.5 63.5t44 51t68.5 33.5t90 12 q41 0 72 -6t54 -17l138 17v-112l-54 1q6 -23 6 -44q0 -28 -14 -54.5t-41.5 -47.5t-68 -33.5t-94.5 -12.5zM310 -55q0 31 -52 38l-55 8q-20 -5 -34 -17t-14 -29q0 -23 25 -34.5t58 -11.5q32 0 52 11t20 35zM281 317q0 26 -13.5 39.5t-33.5 13.5q-19 0 -32 -15t-13 -39 q0 -27 14 -38.5t32 -11.5q15 0 30.5 11.5t15.5 39.5zM335 691l-40 -154h-126v5l77 154h89v-5z" />
<glyph horiz-adv-x="310" d="M298 145v-130q-18 -11 -42 -17.5t-53 -6.5q-30 0 -58.5 9.5t-50.5 28t-35.5 46.5t-13.5 65v537l180 15v-503q0 -24 10.5 -37.5t29.5 -13.5q15 0 28 7h5zM48 760l106 124h159v-10l-159 -122h-106v8z" />
<glyph horiz-adv-x="310" d="M298 145v-130q-18 -11 -42 -17.5t-53 -6.5q-30 0 -58.5 9.5t-50.5 28t-35.5 46.5t-13.5 65v537l180 15v-503q0 -24 10.5 -37.5t29.5 -13.5q15 0 28 7h5zM87 -216l40 149h116v-5l-77 -149h-79v5z" />
<glyph d="M220 413q22 29 56.5 49t82.5 20q24 0 48.5 -9t44.5 -27t33 -46.5t13 -67.5v-332h-180v274q0 32 -15 45t-32 13q-15 0 -28 -8.5t-21 -22.5v-301h-180v468h159l12 -55h7zM221 536l61 154h139v-10l-104 -152h-96v8z" />
<glyph horiz-adv-x="530" d="M507 230q0 -51 -19 -95.5t-52 -77.5t-77 -52t-94 -19t-94 17t-77 49t-52 77t-19 101q0 55 18.5 101t50.5 79.5t75.5 52.5t93.5 19q54 0 99.5 -19t78 -52.5t50.5 -80t18 -100.5zM327 233q0 55 -16.5 81t-44.5 26q-27 0 -45 -27t-18 -80q0 -57 18 -81t46 -24 q23 0 41.5 25.5t18.5 79.5zM213 536l61 154h139v-10l-104 -152h-96v8z" />
<glyph horiz-adv-x="430" d="M373 308q-28 17 -68.5 29t-74.5 12q-17 0 -30 -3t-13 -13q0 -9 37 -23q42 -16 76.5 -31.5t59 -35t38 -45.5t13.5 -63q0 -41 -18 -69.5t-46.5 -46t-64.5 -25.5t-71 -8q-61 0 -110 15t-85 38l41 127q12 -7 29.5 -15t38 -15t42.5 -12t42 -5q17 0 26.5 4.5t9.5 12.5 q0 9 -13 16t-31 14q-42 16 -74 32.5t-53.5 36t-32 44t-10.5 57.5q0 37 15.5 64.5t41 45.5t59 27t68.5 9q56 0 103.5 -14.5t83.5 -38.5zM169 536l61 154h139v-10l-104 -152h-96v8z" />
<glyph horiz-adv-x="390" d="M366 145v-126q-23 -16 -59.5 -24.5t-71.5 -8.5q-86 0 -128 42.5t-42 111.5v196h-47v102l134 135h90v-105h122v-132h-122v-151q0 -29 18.5 -43t46.5 -14q11 0 26.5 4.5t27.5 12.5h5zM325 502l15 199h125v-5l-47 -199h-93v5z" />
<glyph horiz-adv-x="390" d="M366 145v-126q-23 -16 -59.5 -24.5t-71.5 -8.5q-86 0 -128 42.5t-42 111.5v196h-47v102l134 135h90v-105h122v-132h-122v-151q0 -29 18.5 -43t46.5 -14q11 0 26.5 4.5t27.5 12.5h5zM148 -216l40 149h116v-5l-77 -149h-79v5z" />
<glyph d="M498 184q0 -44 -15.5 -80.5t-45.5 -62.5t-73.5 -40.5t-98.5 -14.5q-64 0 -107 14.5t-68.5 40t-36.5 61.5t-11 79v287h180v-287q0 -29 13 -41t36 -12q17 0 32 13t15 41v286h180v-284zM185 536l106 154h144v-10l-149 -152h-101v8z" />
<glyph d="M498 184q0 -44 -15.5 -80.5t-45.5 -62.5t-73.5 -40.5t-98.5 -14.5q-64 0 -107 14.5t-68.5 40t-36.5 61.5t-11 79v287h180v-287q0 -29 13 -41t36 -12q17 0 32 13t15 41v286h180v-284zM359 528h-101l-149 152v10h144l106 -154v-8z" />
<glyph d="M498 184q0 -44 -15.5 -80.5t-45.5 -62.5t-73.5 -40.5t-98.5 -14.5q-64 0 -107 14.5t-68.5 40t-36.5 61.5t-11 79v287h180v-287q0 -29 13 -41t36 -12q17 0 32 13t15 41v286h180v-284zM435 528h-91l-71 68l-70 -68h-91v8l131 154h61l131 -154v-8z" />
<glyph d="M498 184q0 -44 -15.5 -80.5t-45.5 -62.5t-73.5 -40.5t-98.5 -14.5q-64 0 -107 14.5t-68.5 40t-36.5 61.5t-11 79v287h180v-287q0 -29 13 -41t36 -12q17 0 32 13t15 41v286h180v-284zM438 595q0 -14 -6 -26t-16 -21.5t-22.5 -15t-25.5 -5.5q-28 0 -49 20.5t-21 47.5 q0 28 21 49t49 21q13 0 25.5 -5.5t22.5 -15.5t16 -22.5t6 -26.5zM246 595q0 -27 -20 -47.5t-49 -20.5q-28 0 -49.5 20.5t-21.5 47.5q0 28 21.5 49t49.5 21q29 0 49 -21t20 -49z" />
<glyph d="M498 184q0 -44 -15.5 -80.5t-45.5 -62.5t-73.5 -40.5t-98.5 -14.5q-64 0 -107 14.5t-68.5 40t-36.5 61.5t-11 79v287h180v-287q0 -29 13 -41t36 -12q17 0 32 13t15 41v286h180v-284zM135 548v90h274v-90h-274z" />
<glyph d="M498 184q0 -44 -15.5 -80.5t-45.5 -62.5t-73.5 -40.5t-98.5 -14.5q-64 0 -107 14.5t-68.5 40t-36.5 61.5t-11 79v287h180v-287q0 -29 13 -41t36 -12q17 0 32 13t15 41v286h180v-284zM130 526l96 164h134v-10l-154 -162h-76v8zM300 526l96 164h134v-10l-154 -162h-76v8z " />
<glyph d="M498 184q0 -44 -15.5 -80.5t-45.5 -62.5t-73.5 -40.5t-98.5 -14.5q-64 0 -107 14.5t-68.5 40t-36.5 61.5t-11 79v287h180v-287q0 -29 13 -41t36 -12q17 0 32 13t15 41v286h180v-284zM159 634q0 24 9 44.5t24 35.5t35.5 24t44.5 9t44.5 -9t35.5 -24t24 -35.5t9 -44.5 t-9 -44.5t-24 -35.5t-35.5 -24t-44.5 -9t-44.5 9t-35.5 24t-24 35.5t-9 44.5zM225 634q0 -21 12.5 -35.5t33.5 -14.5q20 0 33.5 14.5t13.5 35.5q0 20 -13.5 36t-33.5 16q-21 0 -33.5 -16t-12.5 -36z" />
<glyph d="M498 184q0 -60 -27.5 -104.5t-80.5 -69.5q-29 -20 -44 -43t-15 -44q0 -20 10.5 -28t24.5 -8q8 0 14 1.5t12 3.5v-83q-11 -4 -24.5 -6t-35.5 -2q-17 0 -35 4.5t-32.5 13.5t-24 24t-9.5 36q0 28 13.5 56t36.5 52q-4 0 -8 -0.5t-8 -0.5q-64 0 -107 14.5t-68.5 40t-36.5 61.5 t-11 79v287h180v-287q0 -29 13 -41t36 -12q17 0 32 13t15 41v286h180v-284z" />
<glyph horiz-adv-x="450" d="M183 331h-152v137h403l3 -4l-178 -322l4 -5h162v-137h-414l-4 6l180 323zM168 536l61 154h139v-10l-104 -152h-96v8z" />
</font>
</defs>
</svg>
