<?xml version="1.0" standalone="no"?>
<!DOCTYPE svg PUBLIC "-//W3C//DTD SVG 1.1//EN" "http://www.w3.org/Graphics/SVG/1.1/DTD/svg11.dtd" >
<svg xmlns="http://www.w3.org/2000/svg" xmlns:xlink="http://www.w3.org/1999/xlink" version="1.1">
<metadata></metadata>
<defs>
<font id="concourse_t3italic" horiz-adv-x="290" >
<font-face units-per-em="1000" ascent="742" descent="-258" />
<missing-glyph horiz-adv-x="220" />
<glyph unicode="&#x3c;&#x2d;" horiz-adv-x="700" d="M316 536l45 -37l-177 -201h450v-65h-451l178 -202l-45 -38l-237 266v13z" />
<glyph unicode="&#x2d;&#x3e;" horiz-adv-x="700" d="M621 272v-13l-237 -266l-45 38l177 202h-450v65h449l-176 201l45 37z" />
<glyph unicode="fi" horiz-adv-x="550" d="M197 386l-76 -418l-2 -71l-80 -10l89 505l-94 -1l8 45l97 15l7 40q13 72 53 120t104 71h80v-38q-77 -10 -119 -53t-52 -106l-6 -38l107 1l-9 -52zM492 452l-64 -362l-5 -85l-80 -10l64 368l4 80zM434 629q0 23 14.5 37.5t34.5 14.5t34.5 -14.5t14.5 -37.5 q0 -20 -14.5 -35.5t-34.5 -15.5t-34.5 15.5t-14.5 35.5z" />
<glyph unicode="fl" horiz-adv-x="550" d="M197 386l-76 -418l-2 -71l-80 -10l89 505l-94 -1l8 45l97 15l7 40q13 72 53 120t104 71h80v-38q-77 -10 -119 -53t-52 -106l-6 -38l107 1l-9 -52zM542 691l-66 -348l-42 -246l-6 -92l-83 -10l66 364l37 225l7 96z" />
<glyph unicode="&#x28;&#x3c;&#x2d;&#x29;" horiz-adv-x="880" d="M162 272v-13l237 -266l45 38l-178 202h451v65h-450l177 201l-45 37zM822 263q0 -78 -30 -147.5t-81.5 -121t-121 -81.5t-147.5 -30q-80 0 -149.5 30t-122 81.5t-82.5 121t-30 147.5q0 79 30 149t82.5 122t122 82t149.5 30q78 0 147.5 -30t121 -82t81.5 -122t30 -149z" />
<glyph unicode="&#x28;&#x2d;&#x3e;&#x29;" horiz-adv-x="880" d="M481 536l-45 -37l177 -201h-450v-65h451l-178 -202l45 -38l237 266v13zM58 263q0 79 30 149t81.5 122t121 82t147.5 30q79 0 149 -30t122.5 -82t82.5 -122t30 -149q0 -78 -30 -147.5t-82.5 -121t-122.5 -81.5t-149 -30q-78 0 -147.5 30t-121 81.5t-81.5 121t-30 147.5z " />
<glyph unicode="&#x28;&#x2191;&#x29;" horiz-adv-x="880" d="M447 542h-13l-266 -237l38 -45l202 178v-451h65v450l201 -177l37 45zM438 -118q-78 0 -147.5 30t-121 81.5t-81.5 121t-30 147.5q0 79 30 149t81.5 122.5t121 82.5t147.5 30q79 0 149 -30t122 -82.5t82 -122.5t30 -149q0 -78 -30 -147.5t-82 -121t-122 -81.5t-149 -30z " />
<glyph unicode="&#x28;&#x2193;&#x29;" horiz-adv-x="880" d="M711 223l-37 45l-201 -177v450h-65v-451l-202 178l-38 -45l266 -237h13zM438 646q79 0 149 -30t122 -81.5t82 -121t30 -147.5q0 -80 -30 -149.5t-82 -122t-122 -82.5t-149 -30q-78 0 -147.5 30t-121 82.5t-81.5 122t-30 149.5q0 78 30 147.5t81.5 121t121 81.5t147.5 30z " />
<glyph horiz-adv-x="0" />
<glyph horiz-adv-x="0" />
<glyph unicode=" "  horiz-adv-x="220" />
<glyph unicode="&#x09;" horiz-adv-x="220" />
<glyph unicode="&#xa0;" horiz-adv-x="220" />
<glyph unicode="!" horiz-adv-x="310" d="M272 678l-58 -235l-59 -243l-47 -4l43 248l35 234l83 5zM55 46q0 23 15.5 38.5t38.5 15.5q22 0 38 -15.5t16 -38.5t-16 -38t-38 -15q-23 0 -38.5 15t-15.5 38z" />
<glyph unicode="&#x22;" horiz-adv-x="400" d="M157 680h86l-92 -274h-43zM307 680h86l-92 -274h-43z" />
<glyph unicode="#" horiz-adv-x="510" d="M189 498l52 226l46 -10l-52 -224l103 -18l59 243l46 -10l-59 -241l116 -20l-9 -51l-119 21l-40 -168l106 -19l-8 -51l-111 19l-61 -254l-46 11l61 251l-101 18l-62 -270l-46 11l62 267l-117 21l10 51l119 -21l39 168l-107 19l9 51zM184 272l101 -18l41 168l-103 18z" />
<glyph unicode="$" horiz-adv-x="470" d="M108 -62l26 95q-42 7 -79 22.5t-52 29.5l29 57q23 -17 53.5 -29.5t65.5 -17.5l66 239l-1 1q-26 15 -49.5 31.5t-40.5 36t-27 43t-10 52.5t14 59t40 54t64.5 39t87.5 15h13l24 84l41 -10l-22 -79q32 -6 59 -18t48 -26l-33 -60q-22 14 -43.5 25t-47.5 16l-61 -219 q0 -1 2 -1q69 -40 98.5 -79t29.5 -87q0 -49 -21 -83.5t-53.5 -56.5t-72.5 -32t-78 -10h-2l-27 -100zM334 210q0 29 -18 52t-61 50l-61 -219q66 2 103 34t37 83zM157 500q0 -26 17 -48.5t61 -50.5l56 200q-57 -1 -95.5 -27t-38.5 -74z" />
<glyph unicode="%" horiz-adv-x="680" d="M331 562q0 -38 -13.5 -72.5t-35.5 -61t-51 -42t-60 -15.5q-56 0 -89 35t-33 92q0 40 14 75.5t36.5 61.5t51.5 41t59 15q57 0 89 -35.5t32 -93.5zM272 561q0 36 -16.5 57t-46.5 21q-19 0 -37 -10.5t-32.5 -29t-23 -44t-8.5 -54.5q0 -36 17 -57.5t48 -21.5q19 0 37.5 11.5 t32.5 31t22 44.5t7 52zM332 353l219 333l47 -22l-232 -326l-232 -348l-47 25zM642 180q0 -38 -13.5 -72.5t-35.5 -61t-51 -42t-60 -15.5q-56 0 -89 35t-33 92q0 40 14 75.5t36.5 61.5t51.5 41t59 15q57 0 89 -35.5t32 -93.5zM583 179q0 36 -16.5 57t-46.5 21 q-19 0 -37 -10.5t-32.5 -29t-23 -44t-8.5 -54.5q0 -36 17 -57.5t48 -21.5q19 0 37 11.5t31.5 31t22 44.5t8.5 52z" />
<glyph unicode="&#x26;" horiz-adv-x="650" d="M540 311q11 -28 11 -61q0 -63 -23.5 -112t-63.5 -82.5t-92.5 -51t-109.5 -17.5q-53 0 -95.5 13.5t-71.5 37.5t-44.5 57t-15.5 71q0 47 15 87t40.5 71.5t60 54t74.5 35.5l1 6q-37 17 -52 45t-15 55q0 37 17 69t45.5 55t67 36t82.5 13q55 0 94.5 -14t62.5 -31l-38 -61 q-23 17 -54 27t-66 10q-27 0 -51.5 -7.5t-43 -21t-29 -32.5t-10.5 -43q0 -35 22 -56.5t57 -28.5l-11 -58q-42 -8 -78 -24.5t-62 -41.5t-41 -57t-15 -70q0 -63 45 -95t114 -32q46 0 85 13.5t67.5 38t45 58t16.5 73.5q0 13 -2.5 28t-9.5 27l-85 -18l-11 61l226 48l11 -60z" />
<glyph unicode="'" horiz-adv-x="250" d="M157 680h86l-92 -274h-43z" />
<glyph unicode="(" horiz-adv-x="350" d="M212 -177q-33 31 -62 69.5t-50.5 84.5t-33.5 98.5t-12 111.5q0 87 26 169.5t69.5 154t101 129t119.5 95.5l30 -43q-57 -37 -105.5 -92t-84.5 -122.5t-56.5 -144t-20.5 -155.5q0 -98 32 -176.5t86 -134.5z" />
<glyph unicode=")" horiz-adv-x="350" d="M118 735q33 -31 62 -69.5t50.5 -84.5t33.5 -98.5t12 -111.5q0 -87 -26 -169.5t-69.5 -154t-101 -129.5t-119.5 -95l-30 43q57 37 105.5 92t84.5 122.5t56.5 143.5t20.5 156q0 98 -32 176.5t-86 134.5z" />
<glyph unicode="*" horiz-adv-x="530" d="M305 481l165 43l8 -82l-170 5l103 -169l-68 -35l-66 191l-137 -153l-47 62l157 114l-153 58l41 69l131 -93l22 192l84 -17z" />
<glyph unicode="+" horiz-adv-x="530" d="M294 330h203v-58h-203v-203h-58v203h-203v58h203v203h58v-203z" />
<glyph unicode="," horiz-adv-x="250" d="M-47 -156v2l75 135l39 107h87v-6l-62 -127l-82 -111h-57z" />
<glyph unicode="-" horiz-adv-x="340" d="M295 279l-10 -69l-260 -10l10 69z" />
<glyph unicode="." horiz-adv-x="270" d="M40 46q0 23 15.5 38.5t38.5 15.5q22 0 38 -15.5t16 -38.5t-16 -38t-38 -15q-23 0 -38.5 15t-15.5 38z" />
<glyph unicode="/" horiz-adv-x="460" d="M455 700h70l-541 -860h-69z" />
<glyph unicode="0" horiz-adv-x="590" d="M556 443q0 -94 -23.5 -177t-65.5 -145t-99.5 -98t-126.5 -36q-44 0 -81 15.5t-64 47t-42 77.5t-15 108q0 111 27.5 196.5t72 143.5t100 88t112.5 30q94 0 149.5 -64t55.5 -186zM481 440q0 88 -35.5 137.5t-100.5 49.5q-39 0 -80.5 -24.5t-75 -72.5t-55 -119.5 t-21.5 -166.5q0 -50 10.5 -86.5t29 -60t43 -34.5t53.5 -11q52 0 95 33.5t73.5 88.5t47 124.5t16.5 141.5z" />
<glyph unicode="1" horiz-adv-x="450" d="M158 -5l107 618l-141 -16l11 66l199 25l15 -12l-102 -577l-7 -94z" />
<glyph unicode="2" horiz-adv-x="540" d="M116 628q16 12 38.5 23.5t48.5 21t54.5 15t57.5 5.5q39 0 74 -9t61.5 -28t41.5 -49.5t15 -73.5q0 -52 -28.5 -109t-80.5 -116.5t-126.5 -120t-165.5 -120.5l1 -3l329 10l-12 -69l-445 -10l-4 38q132 96 219.5 170.5t139.5 133t73.5 104.5t21.5 85q0 51 -32 76.5t-88 25.5 q-26 0 -51.5 -6.5t-48 -15.5t-40.5 -19t-28 -17z" />
<glyph unicode="3" horiz-adv-x="520" d="M-1 98q41 -23 81.5 -34.5t87.5 -11.5q36 0 71 10.5t62 31t44 50t17 68.5q0 23 -8.5 43t-24 34t-38.5 22t-52 7l-125 -4l20 71l110 -3q31 -1 60.5 10.5t51.5 31.5t35.5 47t13.5 59q0 46 -31 72.5t-82 26.5q-38 0 -75 -9t-73 -26l-17 57q24 14 68 28t98 14q85 0 137.5 -40 t52.5 -114q0 -35 -11.5 -65.5t-32 -54.5t-48 -41t-58.5 -24l-1 -6q25 -6 44.5 -18.5t33 -29.5t20.5 -37.5t7 -42.5q0 -64 -27 -108.5t-67.5 -72t-89 -40t-90.5 -12.5q-56 0 -98.5 10t-77.5 29l9 70z" />
<glyph unicode="4" horiz-adv-x="550" d="M481 205l-80 -2l-22 -127l-3 -71l-79 -10l35 207l-297 -7l-10 33l373 450l87 5l-73 -418l80 4zM343 263l57 320h-11l-263 -319l3 -9z" />
<glyph unicode="5" horiz-adv-x="540" d="M83 385l90 290l355 10l-22 -71l-286 -3l-52 -162q16 2 33 3t34 1q58 0 103 -15t75.5 -41.5t46 -62t15.5 -76.5q0 -65 -29 -115.5t-79.5 -85t-118 -52.5t-143.5 -18q-27 0 -51 2.5t-44 9.5l20 64q17 -5 40.5 -8t44.5 -3q67 0 120 15.5t89.5 42t55.5 63t19 78.5 q0 35 -14 61.5t-38.5 44t-59 26.5t-75.5 9q-22 0 -39.5 -0.5t-32 -2t-27.5 -3.5t-27 -4z" />
<glyph unicode="6" horiz-adv-x="540" d="M36 186q0 108 41.5 199t110.5 158t157.5 106t181.5 44l-23 -72q-65 -4 -123.5 -27.5t-105.5 -58.5t-80 -79t-48 -90l5 -5q30 19 65.5 29t69.5 10q37 0 71.5 -10t61 -31t42.5 -54.5t16 -80.5q0 -56 -21.5 -99.5t-55.5 -74.5t-77 -47t-85 -16q-52 0 -90.5 15t-63.5 41.5 t-37 63t-12 79.5zM402 221q0 30 -10.5 52.5t-28.5 37.5t-41.5 22t-48.5 7q-35 0 -74 -11t-74 -35q-9 -28 -12.5 -52t-3.5 -47q0 -67 34 -106.5t95 -39.5q34 0 64.5 13t53 35.5t35 54t11.5 69.5z" />
<glyph unicode="7" horiz-adv-x="500" d="M528 673q-136 -169 -223 -332.5t-125 -335.5l-87 -10q25 87 59 171.5t75 164t88 151t98 132.5l-3 5l-329 -14l19 70l420 10z" />
<glyph unicode="8" horiz-adv-x="530" d="M339 348q62 -38 89 -77.5t27 -82.5q0 -44 -19.5 -80.5t-52.5 -63.5t-76.5 -42t-91.5 -15q-45 0 -81 11.5t-61.5 32t-39 49.5t-13.5 64q0 36 13.5 67.5t37.5 58.5t56.5 48.5t71.5 36.5v3q-49 35 -70 72t-21 75t17.5 72.5t48 60t71 40.5t85.5 15q37 0 68.5 -9.5t54.5 -28 t36 -44.5t13 -59q0 -35 -14 -65.5t-36.5 -56.5t-52 -46t-60.5 -33v-3zM381 182q0 23 -10 43t-27.5 37.5t-40.5 33t-50 29.5q-79 -29 -118.5 -77t-39.5 -97q0 -47 35.5 -75t89.5 -28q34 0 63 10t51 28t34.5 42.5t12.5 53.5zM183 510q0 -38 24 -68.5t77 -62.5q63 26 103 69 t40 97q0 39 -29 63.5t-74 24.5q-33 0 -59 -10.5t-44 -27.5t-28 -39t-10 -46z" />
<glyph unicode="9" horiz-adv-x="540" d="M504 490q0 -105 -35 -191t-94 -150t-135.5 -105.5t-158.5 -58.5l-14 62l1 3q133 32 215.5 101.5t113.5 161.5l-5 4q-32 -19 -68 -28t-71 -9q-36 0 -70.5 10t-61 31t-42.5 52.5t-16 75.5q0 52 19.5 96.5t52 77.5t75 51.5t87.5 18.5q53 0 92 -15.5t64.5 -43t38 -64.5 t12.5 -80zM138 459q1 -31 12.5 -53t30.5 -36.5t44 -21.5t54 -7q35 0 70 10t67 32q7 29 11 54t4 48q0 66 -35 105.5t-98 39.5q-33 0 -62.5 -14t-51.5 -37t-34.5 -54.5t-11.5 -65.5z" />
<glyph unicode=":" horiz-adv-x="270" d="M39 46q0 23 15.5 38.5t38.5 15.5q22 0 38 -15.5t16 -38.5t-16 -38t-38 -15q-23 0 -38.5 15t-15.5 38zM90 366q0 23 15.5 38.5t38.5 15.5q22 0 38 -15.5t16 -38.5t-16 -38t-38 -15q-23 0 -38.5 15t-15.5 38z" />
<glyph unicode=";" d="M-41 -156v2l75 135l39 107h87v-6l-62 -127l-82 -111h-57zM102 366q0 23 15.5 38.5t38.5 15.5q22 0 38 -15.5t16 -38.5t-16 -38t-38 -15q-23 0 -38.5 15t-15.5 38z" />
<glyph unicode="&#x3c;" horiz-adv-x="530" d="M120 321l359 -171l-25 -50l-404 195v52l404 195l25 -50z" />
<glyph unicode="=" horiz-adv-x="530" d="M43 168v58h444v-58h-444zM43 368v58h444v-58h-444z" />
<glyph unicode="&#x3e;" horiz-adv-x="530" d="M51 492l25 50l404 -195v-52l-404 -195l-25 50l359 171z" />
<glyph unicode="?" horiz-adv-x="450" d="M143 642q32 22 71 37.5t85 15.5q33 0 61 -9.5t48 -26.5t31 -40.5t11 -51.5q0 -43 -22 -73t-55.5 -51.5t-72 -37.5t-72 -31.5t-55.5 -33.5t-22 -42q0 -15 10.5 -24.5t28.5 -9.5q10 0 21.5 3.5t23.5 11.5l24 -45q-20 -14 -41.5 -20t-43.5 -6q-37 0 -65 20t-28 61 q0 40 22 66.5t54.5 46.5t71 35.5t71 33t54.5 39t22 54.5q0 18 -7.5 31t-19 21.5t-26 12t-29.5 3.5q-29 0 -63 -12t-60 -32zM63 46q0 23 15.5 38.5t38.5 15.5q22 0 38 -15.5t16 -38.5t-16 -38t-38 -15q-23 0 -38.5 15t-15.5 38z" />
<glyph unicode="@" horiz-adv-x="690" d="M530 -35q-34 -26 -79 -37.5t-79 -11.5q-73 0 -128.5 26t-93 75t-57 119.5t-19.5 158.5q0 78 21 150.5t61.5 128t99.5 89t136 33.5q42 0 78.5 -9.5t63.5 -29t42 -49.5t15 -72q0 -5 -0.5 -10t-0.5 -10l-19 -277v-7q0 -23 8 -39.5t19 -27.5q0 -2 -0.5 -5t-0.5 -5l-59 -20 q-8 11 -13 22.5t-10 25.5h-11q-48 -42 -118 -42q-55 0 -92.5 37t-37.5 109q0 38 12.5 70t35 55.5t52.5 36.5t65 13q24 0 52 -4t48 -10l5 60q1 5 1 10.5v10.5q0 30 -10.5 50.5t-29 32.5t-43.5 17.5t-54 5.5q-54 0 -99.5 -25t-79.5 -70.5t-53 -108t-19 -137.5q0 -82 18 -141.5 t49.5 -98.5t74.5 -57.5t92 -18.5q82 0 132 37h6zM518 392q-22 8 -44.5 11.5t-44.5 3.5q-47 0 -78 -31t-31 -89q0 -51 25 -69.5t61 -18.5q24 0 52.5 9.5t48.5 25.5z" />
<glyph unicode="A" horiz-adv-x="680" d="M-16 15l458 683h18l135 -688l-70 -20l-39 210l-302 -9l-131 -201l-68 19zM229 259l245 8l-51 279h-7z" />
<glyph unicode="B" horiz-adv-x="560" d="M372 358q52 -13 82.5 -50.5t30.5 -92.5q0 -51 -19 -89.5t-52 -65t-78 -41t-96 -16.5l-212 -8l65 355l46 246l2 79l173 8q47 2 83 -9.5t60 -32.5t36.5 -49.5t12.5 -61.5q0 -26 -8 -51.5t-24.5 -48t-42 -41t-59.5 -28.5v-3zM160 317l-44 -253l132 6q23 1 51 7t52 22 t40.5 43.5t16.5 72.5q0 28 -11 48.5t-29 33.5t-42.5 19.5t-51.5 6.5zM427 523q0 46 -33 70.5t-93 20.5l-86 -5l-43 -226l116 6q29 1 54.5 11.5t44 28t29.5 41.5t11 53z" />
<glyph unicode="C" horiz-adv-x="660" d="M622 554q-10 10 -27 22t-39.5 22.5t-50.5 17.5t-61 7q-56 0 -111.5 -22.5t-99.5 -66.5t-71.5 -108t-27.5 -147q0 -105 57.5 -163.5t157.5 -58.5q30 0 58.5 6t54 15.5t48 22t40.5 25.5l32 -57q-48 -37 -111 -59.5t-132 -22.5q-64 0 -116 22.5t-89 61t-57.5 91t-20.5 112.5 q0 98 34.5 175.5t91 131.5t127 83t142.5 29q35 0 66.5 -7t58.5 -18.5t49.5 -26t38.5 -28.5z" />
<glyph unicode="D" horiz-adv-x="670" d="M237 72q66 3 122 27t97 66t64 100.5t23 130.5q0 60 -19.5 102.5t-51.5 70t-73.5 39.5t-85.5 10l-101 -5l-53 -281l-44 -266zM28 -5l62 340l41 251l6 89l178 10q55 3 109 -12.5t97.5 -51t70.5 -91.5t27 -133q0 -82 -28 -152t-78.5 -121.5t-120.5 -83t-153 -35.5z" />
<glyph unicode="E" horiz-adv-x="510" d="M497 618l-285 -8l-43 -227l260 10l-14 -68l-258 -10l-42 -251l300 8l-16 -67l-371 -10l62 335l40 248l7 97l376 10z" />
<glyph unicode="F" horiz-adv-x="490" d="M492 618l-280 -10l-41 -225l252 10l-12 -68l-252 -10l-41 -228l-4 -82l-84 -10l62 352l43 248l4 80l364 10z" />
<glyph unicode="G" horiz-adv-x="710" d="M133 275q0 -48 15 -88t43.5 -69t69 -45t92.5 -16q49 0 96 16t75 40l30 177l-194 -8l12 68l268 10l-49 -288q-51 -40 -116 -62.5t-137 -22.5q-65 0 -117 23t-89 61.5t-56.5 89t-19.5 105.5q0 90 30.5 168t84 135.5t126.5 90.5t159 33q36 0 68 -8t59 -20t47.5 -26t34.5 -27 l-44 -58q-12 10 -27.5 22t-37 22.5t-49 17.5t-61.5 7q-55 0 -110.5 -21.5t-100 -65t-73 -109t-29.5 -152.5z" />
<glyph unicode="H" horiz-adv-x="690" d="M596 330l-35 -230l-7 -95l-88 -10l61 330l-368 -10l-35 -219l-6 -91l-88 -10l66 350l38 242l5 88l88 10l-56 -302l368 10l28 183l8 99l88 10z" />
<glyph unicode="I" horiz-adv-x="270" d="M175 347l-38 -240l-8 -102l-88 -10l65 346l38 242l6 92l88 10z" />
<glyph unicode="J" horiz-adv-x="410" d="M-8 84q17 -11 37.5 -19t50.5 -8q58 0 96 41t55 140l65 365l3 72l84 10l-83 -472q-20 -114 -81 -168.5t-146 -54.5q-35 0 -64.5 8.5t-52.5 23.5z" />
<glyph unicode="K" horiz-adv-x="600" d="M152 283l-36 -219l-1 -59l-85 -10l59 328l48 283l2 69l85 10l-59 -325h7l381 331l57 -30l-2 -7l-354 -308l266 -320l-2 -8l-60 -27l-271 323z" />
<glyph unicode="L" horiz-adv-x="490" d="M162 336l-45 -272l298 13l-11 -67l-374 -15l62 344l42 257l4 79l87 10z" />
<glyph unicode="M" horiz-adv-x="850" d="M668 468l-299 -478h-6l-137 478l-5 -1l-131 -407l-11 -67l-79 8l216 687l13 2l158 -546h4l341 546l13 -1l-9 -613l7 -75l-82 -8l12 474z" />
<glyph unicode="N" horiz-adv-x="750" d="M548 144l9 2l78 442l5 87l83 10l-64 -351l-56 -335l-28 -8l-371 544l-8 -2l-75 -427l-8 -101l-84 -10l69 375l52 311l28 8z" />
<glyph unicode="O" horiz-adv-x="770" d="M724 406q0 -85 -29.5 -161t-81.5 -133.5t-123.5 -91t-155.5 -33.5q-62 0 -113 22t-87.5 60.5t-57 89.5t-20.5 109q0 99 34.5 178t90 134t126 84t142.5 29q53 0 102.5 -20t88 -57t61.5 -90t23 -120zM647 401q-1 50 -16 91t-42 70t-65 45t-86 16q-55 0 -109.5 -24 t-97.5 -68.5t-70 -108.5t-27 -144q0 -46 13.5 -86.5t39.5 -70.5t65.5 -47t91.5 -17q67 0 123.5 28.5t96.5 76.5t62 110t21 129z" />
<glyph unicode="P" horiz-adv-x="520" d="M502 515q0 -57 -21.5 -98.5t-56.5 -69.5t-79.5 -42t-90.5 -16l-102 -4l-35 -207l-3 -73l-85 -10l63 349l44 254l3 77l165 8q43 2 79.5 -9.5t63 -34t41 -54t14.5 -70.5zM425 511q0 50 -35.5 79t-95.5 26l-82 -5l-48 -259l99 5q29 1 58 10t52 27t37.5 47t14.5 70z" />
<glyph unicode="Q" horiz-adv-x="770" d="M724 406q0 -85 -29.5 -161t-81.5 -133.5t-123.5 -91t-155.5 -33.5q-7 0 -13.5 0.5t-12.5 0.5v-4q24 -20 53 -39.5t63 -35t72.5 -25.5t80.5 -10l-17 -70q-52 0 -96 14t-82.5 36t-72.5 47t-66.5 48t-64 39t-64.5 19l26 56q-40 38 -62 91t-22 114q0 99 34.5 178t90 134 t126 84t142.5 29q53 0 102.5 -20t88 -57t61.5 -90t23 -120zM647 401q-1 50 -16 91t-42 70t-65 45t-86 16q-55 0 -109.5 -24t-97.5 -68.5t-70 -108.5t-27 -144q0 -46 13.5 -86.5t39.5 -70.5t65.5 -47t91.5 -17q67 0 123.5 28.5t96.5 76.5t62 110t21 129z" />
<glyph unicode="R" horiz-adv-x="570" d="M446 512q0 51 -36 81.5t-99 25.5l-103 -7l-48 -263l104 9q33 3 66 12t58.5 27.5t41.5 46.5t16 68zM518 515q0 -86 -58.5 -141.5t-161.5 -72.5l193 -278l-2 -8l-59 -28l-206 306l-75 -7l-33 -201l-4 -80l-84 -10l63 346l44 253l4 81l170 10q47 3 85.5 -8.5t66 -34 t42.5 -55t15 -72.5z" />
<glyph unicode="S" horiz-adv-x="510" d="M48 126q27 -32 65 -50.5t94 -18.5q36 0 63.5 10.5t46 28t28 40.5t9.5 48q0 36 -19 62.5t-47 48.5t-61 42t-61 44t-47 54t-19 71q0 33 14 66t41 60t67.5 44t93.5 17q63 0 106 -22t66 -46l-41 -60q-25 27 -58 42.5t-75 15.5q-63 0 -100 -30.5t-37 -79.5q0 -31 19 -54.5 t47 -44t61 -42t61 -47t47 -59t19 -79.5q0 -50 -19.5 -87.5t-51.5 -62.5t-73.5 -37.5t-84.5 -12.5q-77 0 -128 24.5t-73 56.5z" />
<glyph unicode="T" horiz-adv-x="560" d="M373 614l-56 -297l-38 -231l-4 -81l-88 -10l63 338l45 279l-218 -4l11 67l509 10l-11 -67z" />
<glyph unicode="U" horiz-adv-x="690" d="M584 242q-10 -57 -33 -104t-59 -80.5t-85.5 -52t-113.5 -18.5q-74 0 -120.5 22.5t-70.5 58.5t-29.5 80.5t2.5 88.5l64 357l4 81l83 10l-77 -431q-9 -54 -3 -91.5t26 -61t52 -34t75 -10.5q41 0 76.5 10.5t63.5 34t47.5 61t28.5 91.5l59 339l5 82l83 10z" />
<glyph unicode="V" horiz-adv-x="610" d="M265 147h8l309 540l70 -16l-401 -684h-20l-153 684l70 16z" />
<glyph unicode="W" horiz-adv-x="870" d="M909 666l-386 -679h-26l-27 519h-7l-272 -519h-26l-87 684l71 16l58 -518h8l277 522h26l33 -522h8l283 518l66 -15z" />
<glyph unicode="X" horiz-adv-x="590" d="M252 346l-173 324l74 17l148 -284l246 284l76 -16l-288 -332l177 -333l-74 -13l-153 289l-251 -289l-76 13z" />
<glyph unicode="Y" horiz-adv-x="590" d="M296 373h7l257 314l72 -16l-306 -368l-43 -239v-59l-83 -10l53 308l-175 368l70 16z" />
<glyph unicode="Z" horiz-adv-x="590" d="M106 66l399 16l-11 -67l-527 -20l-5 12l526 602l-2 6l-378 -17l11 67l508 20l5 -8l-530 -606z" />
<glyph unicode="[" horiz-adv-x="370" d="M237 666l-71 -379l-66 -393l167 4l-10 -58l-243 -4l85 454l72 434l235 -4l-10 -58z" />
<glyph unicode="\" horiz-adv-x="460" d="M404 -160h-61l-298 860h61z" />
<glyph unicode="]" horiz-adv-x="370" d="M113 -106l71 379l66 393l-167 -4l10 58l243 4l-85 -454l-72 -434l-235 4l10 58z" />
<glyph unicode="^" horiz-adv-x="530" d="M500 314l-48 -33l-182 307h-8l-185 -307l-47 33l227 377h17z" />
<glyph unicode="_" horiz-adv-x="530" d="M485 -152l-10 -58h-580l10 58h580z" />
<glyph unicode="`" horiz-adv-x="500" d="M304 456h-45l-95 158l1 10h65l75 -160z" />
<glyph unicode="a" horiz-adv-x="450" d="M356 9l-62 -22q-6 11 -10.5 29.5t-2.5 46.5h-5q-11 -11 -27 -23t-35.5 -22.5t-42 -19t-45.5 -11.5q-26 2 -47.5 13t-38 27.5t-25.5 36.5t-9 41q0 37 16 72q57 50 131 70t149 15l7 39q8 49 -16 74.5t-64 25.5q-28 0 -61 -13t-68 -37l-24 50q33 23 74 41t88 18q35 0 63 -12 t46.5 -33.5t25.5 -51.5t1 -66l-35 -203q-4 -24 1.5 -46.5t15.5 -34.5v-4zM294 209q-29 2 -60 -0.5t-59.5 -10t-53 -20t-41.5 -28.5q-3 -9 -5 -18.5t-2 -18.5q0 -27 16.5 -45t48.5 -23q19 2 39.5 9.5t39 18t35 23t28.5 25.5z" />
<glyph unicode="b" horiz-adv-x="490" d="M143 367q14 16 32.5 32.5t39.5 29.5t45 21.5t48 10.5q25 -5 48 -18.5t39.5 -35t26.5 -50t10 -62.5q0 -62 -22 -117.5t-60 -97.5t-89.5 -67t-110.5 -25q-32 0 -69 12.5t-66 44.5l62 341l37 218l2 76l83 12l-61 -325h5zM283 399q-17 -3 -37.5 -13t-41.5 -25.5t-40.5 -35 t-34.5 -40.5l-43 -211q12 -11 31 -18.5t45 -7.5q34 0 69 17t63.5 48.5t46 76t17.5 100.5q0 19 -5 37.5t-15 33.5t-23.5 25t-31.5 13z" />
<glyph unicode="c" horiz-adv-x="400" d="M354 357q-20 21 -42.5 33t-51.5 12q-39 0 -70.5 -20t-53.5 -52.5t-34 -73.5t-12 -83q0 -58 30 -93t76 -35q32 0 57 11.5t50 33.5l27 -49q-26 -25 -62.5 -39t-74.5 -14q-40 0 -72 13.5t-55 37.5t-35.5 58t-12.5 76q0 57 19 108.5t51.5 91.5t76.5 63.5t94 23.5q44 0 76 -15 t58 -44z" />
<glyph unicode="d" horiz-adv-x="490" d="M322 105q-12 -17 -30 -35t-41.5 -34.5t-50 -29.5t-54.5 -19q-22 4 -45 15t-41.5 31.5t-30 51t-11.5 73.5q0 57 20 111.5t53.5 96.5t77 68t90.5 26q34 0 58 -9.5t51 -30.5h3l29 181l4 79l85 12l-69 -378l-33 -197l-9 -112l-63 -10l11 110h-4zM159 50q48 10 92.5 46.5 t75.5 82.5l34 176q-20 20 -43 32.5t-53 12.5q-41 0 -73 -21t-54.5 -55.5t-34.5 -77.5t-12 -87q0 -50 19.5 -74.5t48.5 -34.5z" />
<glyph unicode="e" horiz-adv-x="450" d="M389 264q-24 -18 -60.5 -32.5t-77 -23.5t-81.5 -12t-75 2q-4 -20 -4 -40q0 -55 27 -83.5t69 -28.5q38 0 75.5 14t59.5 35h3l23 -48q-14 -14 -33.5 -25t-42 -18.5t-45.5 -11.5t-44 -4q-35 0 -65 10.5t-52.5 31t-35 51t-12.5 71.5q0 66 20 122.5t52.5 98t74.5 64.5t86 23 q33 0 61 -11t48 -30t31 -45t11 -57q0 -12 -2.5 -24.5t-10.5 -28.5zM103 252q27 -3 60 -1.5t65 7t59.5 15.5t44.5 23q2 5 2 9v9q0 42 -25 65t-58 23q-27 0 -50.5 -11.5t-42.5 -32t-33 -48t-22 -58.5z" />
<glyph unicode="f" horiz-adv-x="320" d="M197 386l-76 -418l-2 -71l-80 -10l89 505l-94 -1l8 45l97 15l7 40q13 72 53 120t104 71h80v-38q-77 -10 -119 -53t-52 -106l-6 -38l107 1l-9 -52z" />
<glyph unicode="g" horiz-adv-x="490" d="M164 58q21 4 44 15t44.5 26.5t40.5 35t33 41.5l31 177q-11 19 -37.5 33t-58.5 14t-63 -18t-55 -49t-38.5 -73.5t-14.5 -91.5q0 -46 21 -74.5t53 -35.5zM29 -114q19 -15 45.5 -24.5t64.5 -9.5q24 0 48.5 7.5t46.5 25.5t39.5 48.5t26.5 75.5l18 89h-4q-29 -37 -74.5 -64.5 t-90.5 -38.5q-57 11 -94 52t-37 111q0 55 19 109t51.5 97t76.5 69.5t94 26.5q31 0 59 -11t52 -34h5l10 36l60 -4l-42 -228l-36 -216q-10 -57 -33.5 -97t-55.5 -65t-68.5 -36.5t-71.5 -11.5q-51 0 -86 11t-55 28l30 54h2z" />
<glyph unicode="h" horiz-adv-x="480" d="M151 394q31 28 71 47t80 19q27 0 50 -10t38 -30t20.5 -49.5t-1.5 -69.5l-39 -224l-3 -72l-80 -10l51 298q5 28 1 48t-14 32t-24 17.5t-29 5.5q-34 0 -70 -18t-67 -49l-44 -244l-4 -80l-80 -10l63 352l41 244l5 89l83 12l-53 -298h5z" />
<glyph unicode="i" horiz-adv-x="230" d="M172 452l-64 -362l-5 -85l-80 -10l64 368l4 80zM114 629q0 23 14.5 37.5t34.5 14.5t34.5 -14.5t14.5 -37.5q0 -20 -14.5 -35.5t-34.5 -15.5t-34.5 15.5t-14.5 35.5z" />
<glyph unicode="j" horiz-adv-x="230" d="M86 362l4 81l81 9l-82 -467q-10 -75 -30.5 -118t-51.5 -66l-63 -6l-2 23q31 22 51.5 65t29.5 110zM114 629q0 23 14.5 37.5t34.5 14.5t34.5 -14.5t14.5 -37.5q0 -20 -14.5 -35.5t-34.5 -15.5t-34.5 15.5t-14.5 35.5z" />
<glyph unicode="k" horiz-adv-x="440" d="M419 420l-207 -179v-1l159 -220l-1 -3l-59 -28l-155 219l-51 -42l-13 -85l-4 -76l-81 -10l59 335l45 264l5 86l84 12l-82 -450h4l252 216l45 -35v-3z" />
<glyph unicode="l" horiz-adv-x="230" d="M222 691l-66 -348l-42 -246l-6 -92l-83 -10l66 364l37 225l7 96z" />
<glyph unicode="m" horiz-adv-x="750" d="M409 387q45 34 83.5 53.5t83.5 19.5q24 0 46.5 -8.5t38 -26t22 -44.5t-0.5 -65l-43 -245l-2 -66l-80 -10l53 306q8 51 -13 73t-54 22q-36 0 -71 -19t-61 -42l-45 -256l-4 -79l-80 -5l53 311q4 26 -1 43.5t-16 28t-25.5 14.5t-29.5 4q-32 0 -66.5 -17.5t-61.5 -44.5 l-44 -256l-4 -78l-80 -5l64 369l4 79l69 10l-2 -61h4q31 30 71 49t82 19q36 0 64.5 -18.5t39.5 -54.5h6z" />
<glyph unicode="n" horiz-adv-x="480" d="M145 389q35 32 75 51.5t80 19.5q60 0 92 -39t18 -119l-39 -220l-4 -77l-80 -10l51 296q5 31 1.5 51t-13.5 32t-25 17t-32 5q-35 0 -71 -20t-63 -52l-43 -235l-5 -84l-80 -10l63 364l5 84l68 10l-2 -64h4z" />
<glyph unicode="o" horiz-adv-x="490" d="M432 274q0 -61 -19 -113t-51.5 -90.5t-77 -60.5t-95.5 -22q-37 0 -68.5 13.5t-54 37.5t-35.5 58t-13 76q0 57 19 109t52 91.5t77 63t93 23.5q41 0 73 -13.5t54.5 -38t34 -59t11.5 -75.5zM360 272q0 59 -28 94.5t-79 35.5q-32 0 -61 -18t-51.5 -49t-36 -73t-13.5 -89 q0 -58 27.5 -92.5t76.5 -34.5q37 0 68 19.5t53 51t33.5 72t10.5 83.5z" />
<glyph unicode="p" horiz-adv-x="490" d="M141 365q31 34 73.5 61.5t90.5 34.5q26 -3 49 -16t40.5 -35t27.5 -53t10 -71q0 -68 -22.5 -123t-58 -94t-79 -60t-85.5 -21q-25 0 -55 10t-48 33h-5l-23 -147l-3 -76l-85 -12l54 290l46 276l5 81l71 8l-8 -86h5zM285 399q-20 -4 -41.5 -14.5t-42.5 -25.5t-40 -34.5 t-34 -40.5l-36 -191q14 -16 34 -30.5t55 -14.5q34 0 66.5 16t57 46t39.5 74t15 100q0 54 -22.5 82.5t-50.5 32.5z" />
<glyph unicode="q" horiz-adv-x="490" d="M375 411l13 41l57 -5l-62 -340l-39 -234l-1 -65l-84 -12l57 300h-3q-14 -17 -34.5 -35.5t-44 -34t-47.5 -26t-43 -13.5q-23 6 -45.5 17.5t-40.5 31.5t-29 48.5t-11 68.5q0 67 21.5 123t56.5 97t78 64t87 23q67 0 110 -49h4zM265 400q-30 0 -61 -16t-56 -46.5t-41 -74.5 t-16 -99q0 -57 21 -82t50 -32q18 4 42 17t47.5 31t43.5 38.5t30 38.5l34 179q-16 18 -41 32t-53 14z" />
<glyph unicode="r" horiz-adv-x="320" d="M298 456q7 0 11 -0.5t9 -1.5l-13 -75h-25q-22 -2 -46 -14t-46 -32t-40.5 -47.5t-30.5 -59.5l-26 -142l-4 -79l-80 -10l65 373l3 75l66 10l-12 -110h7q28 48 70.5 80t91.5 33z" />
<glyph unicode="s" horiz-adv-x="370" d="M302 344q-26 29 -51.5 43.5t-54.5 14.5q-35 0 -55.5 -18t-20.5 -47q0 -21 12.5 -36.5t31.5 -29t41 -27t41 -30.5t31.5 -39t12.5 -52q0 -31 -13 -56t-35.5 -42.5t-52.5 -27t-64 -9.5q-47 0 -84 17.5t-57 42.5l40 49q22 -23 46.5 -36t60.5 -13t63.5 17t27.5 52 q0 22 -12.5 38t-31.5 29.5t-41 26.5t-41 30t-31.5 39t-12.5 54q0 24 10.5 46.5t30 40t46.5 28.5t60 11q47 0 82.5 -19.5t59.5 -48.5z" />
<glyph unicode="t" horiz-adv-x="310" d="M236 604l-30 -157l107 1l-10 -53l-106 -9l-54 -305l-3 -76l-80 -10l69 397l-95 -1l8 45l98 14l14 130z" />
<glyph unicode="u" horiz-adv-x="480" d="M297 59q-30 -29 -70 -50t-90 -21q-26 0 -48.5 11t-37 32.5t-20 55t2.5 78.5l34 197l4 81l80 10l-49 -291q-5 -31 -3 -52t10 -34t21.5 -19t31.5 -6q22 0 43.5 7t40.5 18.5t35 27t26 33.5l38 217l6 89l80 10l-62 -357l-6 -91l-66 -10l3 64h-4z" />
<glyph unicode="v" horiz-adv-x="440" d="M177 125h3l190 330l65 -15l-270 -452h-22l-100 452l65 15z" />
<glyph unicode="w" horiz-adv-x="640" d="M306 302l-178 -314h-24l-60 452l63 15l38 -318h4l182 318h24l23 -318h4l190 318l64 -15l-280 -452h-24l-21 314h-5z" />
<glyph unicode="x" horiz-adv-x="440" d="M165 234l-110 206l69 15l85 -171l149 171l67 -15l-186 -213l118 -220l-69 -14l-93 184l-161 -184l-67 14z" />
<glyph unicode="y" horiz-adv-x="440" d="M119 -92q-20 -35 -39 -63t-37 -42l-72 -10l-2 32q39 21 78.5 78t78.5 141l-83 396l65 15l69 -331h3l190 331l65 -15z" />
<glyph unicode="z" horiz-adv-x="420" d="M-30 6l312 379l-2 3l-223 -14l10 59l336 20l3 -6l-316 -386l1 -2l243 15l-10 -59l-348 -20z" />
<glyph unicode="{" horiz-adv-x="370" d="M118 275q24 -2 45 -11t35.5 -23t21 -33t2.5 -42q-4 -21 -13.5 -42.5t-20.5 -43.5t-21 -45t-14 -48q-4 -21 -3 -37.5t14 -28t40 -17.5t76 -6l-10 -58q-62 -1 -102.5 8t-63.5 26.5t-29.5 42.5t-1.5 56q4 23 13.5 45.5t20 44.5t20 43.5t13.5 43.5q9 51 -23 77t-88 26l12 68 q28 0 53 7.5t44.5 21t32.5 30.5t16 37q4 25 3 47t-3.5 44t-4 45t3.5 49q6 32 20 54.5t42 36.5t71 20.5t106 6.5l-10 -58q-71 0 -109.5 -14t-46.5 -61q-5 -25 -3.5 -49t4.5 -46.5t5 -43.5t-1 -42q-4 -23 -17 -42.5t-32 -34t-43 -23.5t-50 -10z" />
<glyph unicode="|" horiz-adv-x="530" d="M236 750h58v-980h-58v980z" />
<glyph unicode="}" horiz-adv-x="370" d="M232 284q-24 2 -45 11t-35.5 23t-21 33t-2.5 42q4 21 13.5 42.5t20.5 43.5t20.5 45t14.5 48q4 21 3 37.5t-14 28t-40 17.5t-76 6l10 58q62 1 102.5 -8t63.5 -26.5t29.5 -42.5t1.5 -56q-4 -23 -13.5 -45.5t-20 -44.5t-20 -43.5t-13.5 -43.5q-9 -51 23 -77t88 -26l-12 -68 q-28 0 -53 -7.5t-44.5 -21t-32.5 -31t-16 -36.5q-5 -25 -3.5 -47t4 -44t3.5 -45t-3 -49q-6 -32 -20 -54.5t-42 -36.5t-71 -20.5t-106 -6.5l10 58q71 0 109.5 14t46.5 61q4 25 3 48.5t-4 46t-5 44t1 42.5q4 23 17 42.5t32 34t43 23t50 10.5z" />
<glyph unicode="~" horiz-adv-x="530" d="M502 369q0 -36 -10 -67t-28 -53.5t-43.5 -35t-56.5 -12.5q-35 0 -60.5 17.5t-47 39t-41.5 39t-44 17.5q-38 0 -61.5 -31.5t-23.5 -79.5h-54q0 40 11.5 71.5t30.5 53t44.5 32.5t52.5 11q34 0 60 -18t48.5 -39t42.5 -39t43 -18q37 0 58 33t21 79h58z" />
<glyph unicode="&#xa1;" horiz-adv-x="310" d="M13 -212l58 235l59 243l47 4l-43 -248l-35 -234l-83 -5zM230 420q0 -23 -15.5 -38.5t-38.5 -15.5q-22 0 -38 15.5t-16 38.5t16 38t38 15q23 0 38.5 -15t15.5 -38z" />
<glyph unicode="&#xa2;" horiz-adv-x="430" d="M134 5l27 98q-52 14 -82.5 56.5t-30.5 107.5q0 62 20.5 116.5t54.5 95.5t78 65.5t92 26.5q8 28 15.5 55t15.5 55l41 -10q-8 -26 -15 -51t-14 -51q26 -4 49.5 -14t46.5 -30l-35 -51q-21 17 -39.5 25.5t-38.5 10.5l-99 -353h14q34 0 63.5 13t53.5 30l18 -51 q-30 -25 -70 -39t-82 -14h-13q-8 -26 -14.5 -50.5t-13.5 -50.5zM120 273q0 -43 16 -69t43 -37l96 341q-30 -7 -58 -27t-49.5 -50.5t-34.5 -70.5t-13 -87z" />
<glyph unicode="&#xa3;" horiz-adv-x="500" d="M423 77l6 -55q-24 -18 -53.5 -26.5t-51.5 -8.5q-26 0 -44.5 6.5t-36 14.5t-37 14.5t-47.5 6.5q-35 0 -71 -14t-64 -28l-23 57q39 30 66 64.5t43.5 71t24 73.5t8.5 72h-84l8 49h75q-1 22 -2 43t-1 42q0 63 19.5 107.5t51 72.5t71.5 41t81 13q35 0 62 -7t46.5 -16.5t31 -19 t15.5 -13.5l-35 -54q-16 16 -48 31t-75 15q-31 0 -58 -10t-46.5 -31.5t-30.5 -56.5t-11 -84q0 -18 1 -36.5t2 -36.5h165l-8 -49h-156q0 -65 -25.5 -130t-83.5 -114l6 -10q12 8 32.5 15t43.5 7q27 0 43.5 -6.5t31 -14t30.5 -14t41 -6.5q20 0 39 5.5t42 21.5z" />
<glyph unicode="&#xa4;" horiz-adv-x="620" d="M89 272q0 35 10.5 67.5t29.5 59.5l-45 44q-9 9 -5 21.5t13.5 22.5t22 14.5t20.5 -3.5l46 -47q27 20 60 31t69 11t68 -10t58 -29l43 45q8 9 21.5 3.5t24.5 -17t16 -25t-3 -21.5l-45 -43q18 -26 28 -57.5t10 -66.5q0 -37 -11 -69.5t-31 -60.5l48 -46q9 -9 5 -21.5 t-13.5 -23t-22 -15t-20.5 4.5l-50 50q-55 -40 -126 -40q-35 0 -66.5 9.5t-57.5 26.5l-42 -44q-9 -9 -22.5 -5t-25 14.5t-16 23.5t4.5 22l44 43q-40 55 -40 131zM159 271q0 -35 11 -64t30.5 -51t47.5 -34t63 -12q31 0 58.5 12t47 34t31 51t11.5 64q0 36 -11.5 66t-31.5 51 t-47 33t-59 12q-36 0 -64 -12.5t-47.5 -34.5t-29.5 -51.5t-10 -63.5z" />
<glyph unicode="&#xa5;" horiz-adv-x="580" d="M228 159l9 56h-115l9 48h115l7 40l-171 370l75 9l141 -306h7l246 306l77 -9l-302 -370l-7 -40h115l-9 -48h-115l-10 -56h116l-9 -48h-115l-7 -38l-2 -68l-83 -10l20 116h-116l9 48h115z" />
<glyph unicode="&#xa6;" horiz-adv-x="530" d="M236 400v350h58v-350h-58zM294 120v-350h-58v350h58z" />
<glyph unicode="&#xa7;" horiz-adv-x="570" d="M479 269q0 -50 -28 -87.5t-70 -63.5q45 -42 45 -95q0 -44 -18.5 -78t-49 -57t-71 -35t-84.5 -12q-56 0 -104 14t-82 40l33 60q27 -20 66.5 -34t90.5 -14q34 0 60.5 9.5t44 25t26.5 34.5t9 39q0 34 -28.5 59t-87.5 51q-45 20 -75 38.5t-47.5 37t-25 39.5t-7.5 47 q0 42 25 83t69 74q-23 18 -35 38.5t-12 47.5t12.5 56t38.5 52.5t66 39t95 15.5q53 0 99.5 -16.5t72.5 -34.5l-32 -62q-30 22 -66.5 34.5t-79.5 12.5q-34 0 -58.5 -8t-40.5 -21t-23.5 -29t-7.5 -32q0 -13 6.5 -24t21.5 -22.5t40 -25t62 -29.5q44 -20 73 -40t46 -40.5t24 -42 t7 -44.5zM284 382q-20 9 -36.5 17t-31.5 16q-27 -20 -47 -51.5t-20 -64.5q0 -32 29.5 -60.5t92.5 -54.5q35 -16 62 -31q38 20 54.5 49.5t16.5 58.5q0 34 -27 62.5t-93 58.5z" />
<glyph unicode="&#xa8;" horiz-adv-x="500" d="M385 510q0 -17 -13.5 -30t-30.5 -13t-31 13t-14 30t14 30.5t31 13.5q16 0 30 -13.5t14 -30.5zM224 510q0 -17 -13 -30t-32 -13q-17 0 -31 13t-14 30t14 30.5t31 13.5q19 0 32 -13.5t13 -30.5z" />
<glyph unicode="&#xa9;" horiz-adv-x="790" d="M88 323q0 63 24 119t65.5 97.5t97.5 66t121 24.5q68 0 124 -24.5t96.5 -66t63 -97.5t22.5 -119t-22 -119t-62.5 -98t-97 -66.5t-124.5 -24.5q-66 0 -122 22.5t-97.5 63.5t-65 97.5t-23.5 124.5zM137 321q0 -57 19.5 -105t54.5 -82.5t82.5 -54t103.5 -19.5q55 0 102 19.5 t81 54t53.5 82.5t19.5 105q0 59 -20 108t-54.5 84t-81.5 54.5t-101 19.5q-53 0 -100 -20t-82.5 -55.5t-56 -84t-20.5 -106.5zM508 418q-13 8 -42 20t-67 12q-21 0 -41.5 -7.5t-36 -23.5t-25 -40t-9.5 -57q0 -53 31 -87t82 -34q35 0 62.5 10.5t50.5 24.5l13 -50 q-22 -16 -56 -27t-71 -11q-38 0 -69.5 13.5t-54 37t-35 54.5t-12.5 67q0 43 14 77t37.5 57.5t54.5 36t66 12.5q38 0 70 -11.5t49 -22.5z" />
<glyph unicode="&#xaa;" horiz-adv-x="360" d="M329 309l-56 -18q-8 8 -12.5 21.5t-3.5 33.5h-4q-21 -28 -50.5 -41.5t-59.5 -13.5q-25 0 -44 8t-32 21.5t-19.5 31t-6.5 36.5q0 15 2.5 30t10.5 30q46 41 106.5 57.5t120.5 12.5l6 32q7 38 -12.5 58t-50.5 20q-24 0 -50 -10.5t-55 -30.5l-21 49q26 18 61 32t72 14 q29 0 52 -10t38.5 -27.5t21.5 -42.5t1 -55l-29 -168q-3 -20 1.5 -38.5t12.5 -28.5v-3zM274 471q-23 2 -47.5 -0.5t-47 -9t-41.5 -16.5t-31 -23q-5 -8 -5.5 -16t-0.5 -16q0 -18 12 -32t40 -14q16 0 34.5 7.5t35.5 23t30.5 39.5t20.5 57z" />
<glyph unicode="&#xab;" horiz-adv-x="620" d="M303 459l36 -30l-192 -208l-1 -6l122 -189l-40 -30l-172 224l1 9zM513 459l36 -30l-192 -208l-1 -6l122 -189l-40 -30l-172 224l1 9z" />
<glyph unicode="&#xac;" horiz-adv-x="530" d="M432 255h-399v58h457v-261h-58v203z" />
<glyph unicode="&#xae;" horiz-adv-x="560" d="M66 481q0 46 17 85t46 67.5t68 45t83 16.5q46 0 85.5 -16.5t68 -45t44.5 -68t16 -84.5q0 -46 -17 -85t-46 -67.5t-68 -45t-83 -16.5t-83 15.5t-68 43.5t-46 67.5t-17 87.5zM108 480q0 -39 13 -71t36 -55t54.5 -35.5t69.5 -12.5q35 0 66 12.5t54.5 35.5t37 55t13.5 71 t-13.5 71.5t-37 55.5t-55 36t-66.5 13q-40 0 -71.5 -14t-54 -38t-34.5 -56t-12 -68zM362 541q0 -26 -15.5 -45.5t-45.5 -24.5l82 -103v-4h-44l-80 104h-18v-104h-39v249h73q42 0 64.5 -18.5t22.5 -53.5zM323 541q0 20 -14 29.5t-36 9.5h-32v-79h35q21 0 34 9t13 31z" />
<glyph unicode="&#xaf;" horiz-adv-x="500" d="M143 486v52h234v-52h-234z" />
<glyph unicode="&#xb0;" horiz-adv-x="370" d="M71 549q0 30 11.5 56t31 45.5t45.5 31t55 11.5q30 0 56 -11.5t45.5 -31t31 -45.5t11.5 -56q0 -29 -11.5 -55t-31 -45.5t-45.5 -31t-56 -11.5q-29 0 -55 11.5t-45.5 31t-31 45.5t-11.5 55zM128 549q0 -37 24 -63.5t61 -26.5t61.5 26.5t24.5 63.5t-24.5 64.5t-61.5 27.5 t-61 -27.5t-24 -64.5z" />
<glyph unicode="&#xb1;" horiz-adv-x="530" d="M294 420h193v-58h-193v-203h-58v203h-193v58h193v203h58v-203zM43 45v58h444v-58h-444z" />
<glyph unicode="&#xb2;" d="M114 764q4 3 14.5 8.5t24.5 11t31.5 9t36.5 3.5q47 0 77.5 -19.5t30.5 -64.5q0 -57 -51.5 -118.5t-142.5 -125.5l2 -3l157 10l-10 -55l-249 -10l-2 24q67 51 112.5 91t73.5 72.5t39.5 57.5t11.5 46q0 23 -15 34t-40 11q-29 0 -52.5 -9t-34.5 -15z" />
<glyph unicode="&#xb3;" d="M66 482q37 -24 84 -24q18 0 34 5t29 14.5t20.5 24t7.5 32.5q0 20 -14 35t-40 14l-64 -2l10 54l59 -2q13 0 26 4.5t23.5 13.5t17 21t6.5 26q0 23 -16 36t-43 13q-16 0 -34.5 -4.5t-36.5 -13.5l-9 43q14 8 39.5 16t51.5 8q48 0 77 -23t29 -65q0 -38 -24 -64t-59 -33l-1 -5 q26 -5 42 -26.5t16 -45.5q0 -36 -16 -60t-39.5 -39t-49.5 -21t-46 -6q-61 0 -98 24z" />
<glyph unicode="&#xb4;" horiz-adv-x="500" d="M205 464l121 160h75l-1 -10l-149 -158h-47z" />
<glyph unicode="&#xb5;" horiz-adv-x="530" d="M365 52q-23 -27 -57 -45.5t-79 -18.5q-26 0 -49.5 7.5t-42.5 24.5q3 -26 6.5 -51.5t6 -47.5t4.5 -40t2 -30q0 -38 -12.5 -49t-26.5 -11q-19 0 -28 15t-9 37q0 15 1.5 48.5t3.5 77t3.5 92t1.5 95.5v292h70v-284q0 -64 22 -88.5t61 -24.5q19 0 38.5 6.5t37 18t31 26.5 t20.5 33v313h70v-352q0 -17 3.5 -30t17.5 -13q11 0 20 11.5t14 22.5l28 -11q-8 -25 -18.5 -41.5t-22 -26t-23 -13.5t-20.5 -4q-27 0 -42 14.5t-22 46.5h-10z" />
<glyph unicode="&#xb6;" horiz-adv-x="640" d="M644 620h-56l-125 -708l-2 -64l-75 -10l137 782h-75l-125 -699l-2 -73l-75 -10l72 413q-50 0 -94 12t-77 35.5t-52 57t-19 76.5q0 56 25 102t67 78.5t97 50t115 17.5h274zM383 620q-50 0 -92 -13.5t-72.5 -37.5t-48 -57.5t-17.5 -73.5q0 -30 13 -53t36.5 -38.5t55.5 -24 t71 -8.5z" />
<glyph unicode="&#xb7;" horiz-adv-x="270" d="M76 253q0 23 15.5 38.5t38.5 15.5q22 0 38 -15.5t16 -38.5t-16 -38t-38 -15q-23 0 -38.5 15t-15.5 38z" />
<glyph unicode="&#xb8;" horiz-adv-x="500" d="M160 -185q47 6 77.5 22.5t30.5 41.5q0 18 -20.5 26.5t-53.5 8.5q-6 0 -15.5 -0.5t-14.5 -1.5l-4 7l78 101h47l-54 -72q38 0 63.5 -15.5t25.5 -47.5q0 -20 -13.5 -37.5t-35.5 -31t-50.5 -23t-58.5 -13.5z" />
<glyph unicode="&#xb9;" d="M141 410l56 326l-64 -8l5 52l115 14l8 -7l-54 -304l-5 -65z" />
<glyph unicode="&#xba;" horiz-adv-x="400" d="M396 528q0 -50 -15.5 -93.5t-42.5 -75.5t-63.5 -50t-78.5 -18q-31 0 -56.5 11t-44 31t-29 48t-10.5 63q0 48 15.5 91t42.5 75.5t63 52t77 19.5q69 0 105.5 -42.5t36.5 -111.5zM331 526q0 47 -20.5 75t-61.5 28q-25 0 -48 -14.5t-40.5 -39.5t-28 -59t-10.5 -72 q0 -46 20.5 -73t58.5 -27q30 0 54 15.5t41.5 41t26.5 58.5t8 67z" />
<glyph unicode="&#xbb;" horiz-adv-x="620" d="M77 -4l-36 30l192 208l1 6l-122 189l40 30l172 -224l-1 -9zM287 -4l-36 30l192 208l1 6l-122 189l40 30l172 -224l-1 -9z" />
<glyph unicode="&#xbc;" horiz-adv-x="740" d="M361 345l282 349l35 -27l-295 -345l-299 -379l-33 28zM147 310l56 326l-64 -8l5 52l115 14l8 -7l-54 -304l-5 -65zM592 70l-41 -1l-19 -104l-54 -10l19 113l-157 -8l-5 32l193 240l70 4l-40 -222l41 1zM504 112l29 156l-6 1l-127 -159l2 -4z" />
<glyph unicode="&#xbd;" horiz-adv-x="740" d="M361 345l282 349l35 -27l-295 -345l-299 -379l-33 28zM147 310l56 326l-64 -8l5 52l115 14l8 -7l-54 -304l-5 -65zM445 309q4 3 14.5 8.5t24.5 11t31.5 9t36.5 3.5q47 0 77.5 -19.5t30.5 -64.5q0 -57 -51.5 -118.5t-142.5 -125.5l2 -3l157 10l-10 -55l-249 -10l-2 24 q67 51 112.5 91t73.5 72.5t39.5 57.5t11.5 46q0 23 -15 34t-40 11q-29 0 -52.5 -9t-34.5 -15z" />
<glyph unicode="&#xbe;" horiz-adv-x="740" d="M361 345l282 349l35 -27l-295 -345l-299 -379l-33 28zM72 382q37 -24 84 -24q18 0 34 5t29 14.5t20.5 24t7.5 32.5q0 20 -14 35t-40 14l-64 -2l10 54l59 -2q13 0 26 4.5t23.5 13.5t17 21t6.5 26q0 23 -16 36t-43 13q-16 0 -34.5 -4.5t-36.5 -13.5l-9 43q14 8 39.5 16 t51.5 8q48 0 77 -23t29 -65q0 -38 -24 -64t-59 -33l-1 -5q26 -5 42 -26.5t16 -45.5q0 -36 -16 -60t-39.5 -39t-49.5 -21t-46 -6q-61 0 -98 24zM592 70l-41 -1l-19 -104l-54 -10l19 113l-157 -8l-5 32l193 240l70 4l-40 -222l41 1zM504 112l29 156l-6 1l-127 -159l2 -4z" />
<glyph unicode="&#xbf;" horiz-adv-x="450" d="M307 -64q-32 -22 -71 -37.5t-85 -15.5q-33 0 -61 9.5t-48 26.5t-31 40.5t-11 51.5q0 43 22 73t55.5 51.5t72 37.5t72 31.5t55.5 33t22 42.5q0 15 -10.5 24.5t-28.5 9.5q-10 0 -21.5 -3.5t-23.5 -11.5l-24 45q20 14 41.5 20t43.5 6q37 0 65 -20t28 -61q0 -40 -22 -66.5 t-54.5 -46.5t-71 -35.5t-71 -33t-54.5 -39.5t-22 -54q0 -18 7.5 -31t19 -21.5t26 -12t29.5 -3.5q29 0 63 12t60 32zM387 532q0 -23 -15.5 -38.5t-38.5 -15.5q-22 0 -38 15.5t-16 38.5t16 38t38 15q23 0 38.5 -15t15.5 -38z" />
<glyph unicode="&#xc0;" horiz-adv-x="680" d="M-16 15l458 683h18l135 -688l-70 -20l-39 210l-302 -9l-131 -201l-68 19zM229 259l245 8l-51 279h-7zM499 733h-47l-108 122l2 10h67l87 -124z" />
<glyph unicode="&#xc1;" horiz-adv-x="680" d="M-16 15l458 683h18l135 -688l-70 -20l-39 210l-302 -9l-131 -201l-68 19zM229 259l245 8l-51 279h-7zM402 741l121 124h78l-2 -10l-151 -122h-47z" />
<glyph unicode="&#xc2;" horiz-adv-x="680" d="M-16 15l458 683h18l135 -688l-70 -20l-39 210l-302 -9l-131 -201l-68 19zM229 259l245 8l-51 279h-7zM590 733h-44l-65 75l-101 -75h-44l1 8l131 124h36l87 -124z" />
<glyph unicode="&#xc3;" horiz-adv-x="680" d="M-16 15l458 683h18l135 -688l-70 -20l-39 210l-302 -9l-131 -201l-68 19zM229 259l245 8l-51 279h-7zM601 865q0 -49 -23 -82.5t-58 -33.5q-20 0 -35 11t-27 24t-23.5 24t-25.5 11q-21 0 -32.5 -19.5t-11.5 -48.5h-41q0 58 25 87t59 29q20 0 35 -11t27.5 -24.5t24 -24.5 t24.5 -11q21 0 30 20.5t9 48.5h43z" />
<glyph unicode="&#xc4;" horiz-adv-x="680" d="M-16 15l458 683h18l135 -688l-70 -20l-39 210l-302 -9l-131 -201l-68 19zM229 259l245 8l-51 279h-7zM588 785q0 -17 -13.5 -30t-30.5 -13t-31 13t-14 30t14 30.5t31 13.5q16 0 30 -13.5t14 -30.5zM427 785q0 -17 -13 -30t-32 -13q-17 0 -31 13t-14 30t14 30.5t31 13.5 q19 0 32 -13.5t13 -30.5z" />
<glyph unicode="&#xc5;" horiz-adv-x="680" d="M-16 15l458 683h18l135 -688l-70 -20l-39 210l-302 -9l-131 -201l-68 19zM229 259l245 8l-51 279h-7zM377 821q0 19 7.5 36.5t20 30t29.5 20t37 7.5q39 0 66.5 -27.5t27.5 -66.5q0 -20 -7.5 -37t-20 -29.5t-30 -20t-36.5 -7.5q-20 0 -37 7.5t-29.5 20t-20 29.5t-7.5 37z M417 821q0 -26 14.5 -41.5t38.5 -15.5q23 0 38.5 16t15.5 41t-15.5 41.5t-38.5 16.5q-24 0 -38.5 -17t-14.5 -41z" />
<glyph unicode="&#xc6;" horiz-adv-x="900" d="M887 618l-285 -8l-43 -227l260 10l-14 -68l-258 -10l-42 -251l300 8l-16 -67l-371 -10l37 203l-250 -8l-164 -200l-57 29l535 656h8l376 10zM261 259l207 8l12 63l38 235h-6z" />
<glyph unicode="&#xc7;" horiz-adv-x="660" d="M254 -185q47 6 77.5 22.5t30.5 41.5q0 18 -20.5 26.5t-53.5 8.5q-6 0 -15.5 -0.5t-14.5 -1.5l-4 7l53 70q-57 5 -103.5 29t-79 62.5t-50.5 88t-18 105.5q0 98 34.5 175.5t91 131.5t127 83t142.5 29q35 0 66.5 -7t58.5 -18.5t49.5 -26t38.5 -28.5l-42 -59q-10 10 -27 22 t-39.5 22.5t-50.5 17.5t-61 7q-56 0 -111.5 -22.5t-99.5 -66.5t-71.5 -108t-27.5 -147q0 -105 57.5 -163.5t157.5 -58.5q30 0 58.5 6t54 15.5t48 22t40.5 25.5l32 -57q-45 -35 -104 -57t-124 -25l-29 -39q38 0 63.5 -15.5t25.5 -47.5q0 -20 -13.5 -37.5t-35.5 -31t-50.5 -23 t-58.5 -13.5z" />
<glyph unicode="&#xc8;" horiz-adv-x="510" d="M497 618l-285 -8l-43 -227l260 10l-14 -68l-258 -10l-42 -251l300 8l-16 -67l-371 -10l62 335l40 248l7 97l376 10zM384 733h-47l-108 122l2 10h67l87 -124z" />
<glyph unicode="&#xc9;" horiz-adv-x="510" d="M497 618l-285 -8l-43 -227l260 10l-14 -68l-258 -10l-42 -251l300 8l-16 -67l-371 -10l62 335l40 248l7 97l376 10zM287 741l121 124h78l-2 -10l-151 -122h-47z" />
<glyph unicode="&#xca;" horiz-adv-x="510" d="M497 618l-285 -8l-43 -227l260 10l-14 -68l-258 -10l-42 -251l300 8l-16 -67l-371 -10l62 335l40 248l7 97l376 10zM475 733h-44l-65 75l-101 -75h-44l1 8l131 124h36l87 -124z" />
<glyph unicode="&#xcb;" horiz-adv-x="510" d="M497 618l-285 -8l-43 -227l260 10l-14 -68l-258 -10l-42 -251l300 8l-16 -67l-371 -10l62 335l40 248l7 97l376 10zM473 785q0 -17 -13.5 -30t-30.5 -13t-31 13t-14 30t14 30.5t31 13.5q16 0 30 -13.5t14 -30.5zM312 785q0 -17 -13 -30t-32 -13q-17 0 -31 13t-14 30 t14 30.5t31 13.5q19 0 32 -13.5t13 -30.5z" />
<glyph unicode="&#xcc;" horiz-adv-x="270" d="M175 347l-38 -240l-8 -102l-88 -10l65 346l38 242l6 92l88 10zM244 733h-47l-108 122l2 10h67l87 -124z" />
<glyph unicode="&#xcd;" horiz-adv-x="270" d="M175 347l-38 -240l-8 -102l-88 -10l65 346l38 242l6 92l88 10zM147 741l121 124h78l-2 -10l-151 -122h-47z" />
<glyph unicode="&#xce;" horiz-adv-x="270" d="M175 347l-38 -240l-8 -102l-88 -10l65 346l38 242l6 92l88 10zM335 733h-44l-65 75l-101 -75h-44l1 8l131 124h36l87 -124z" />
<glyph unicode="&#xcf;" horiz-adv-x="270" d="M175 347l-38 -240l-8 -102l-88 -10l65 346l38 242l6 92l88 10zM333 785q0 -17 -13.5 -30t-30.5 -13t-31 13t-14 30t14 30.5t31 13.5q16 0 30 -13.5t14 -30.5zM172 785q0 -17 -13 -30t-32 -13q-17 0 -31 13t-14 30t14 30.5t31 13.5q19 0 32 -13.5t13 -30.5z" />
<glyph unicode="&#xd0;" horiz-adv-x="670" d="M28 -5l56 309l-95 -3l10 51l94 3l38 231l6 89l178 10q55 3 109 -12.5t97.5 -51t70.5 -91.5t27 -133q0 -82 -28 -152t-78.5 -121.5t-120.5 -83t-153 -35.5zM237 72q66 3 122 27t97 66t64 100.5t23 130.5q0 60 -19.5 102.5t-51.5 70t-73.5 39.5t-85.5 10l-101 -5l-49 -256 l164 5l-10 -51l-163 -5l-39 -240z" />
<glyph unicode="&#xd1;" horiz-adv-x="750" d="M548 144l9 2l78 442l5 87l83 10l-64 -351l-56 -335l-28 -8l-371 544l-8 -2l-75 -427l-8 -101l-84 -10l69 375l52 311l28 8zM589 865q0 -49 -23 -82.5t-58 -33.5q-20 0 -35 11t-27 24t-23.5 24t-25.5 11q-21 0 -32.5 -19.5t-11.5 -48.5h-41q0 58 25 87t59 29q20 0 35 -11 t27.5 -24.5t24 -24.5t24.5 -11q21 0 30 20.5t9 48.5h43z" />
<glyph unicode="&#xd2;" horiz-adv-x="770" d="M724 406q0 -85 -29.5 -161t-81.5 -133.5t-123.5 -91t-155.5 -33.5q-62 0 -113 22t-87.5 60.5t-57 89.5t-20.5 109q0 99 34.5 178t90 134t126 84t142.5 29q53 0 102.5 -20t88 -57t61.5 -90t23 -120zM647 401q-1 50 -16 91t-42 70t-65 45t-86 16q-55 0 -109.5 -24 t-97.5 -68.5t-70 -108.5t-27 -144q0 -46 13.5 -86.5t39.5 -70.5t65.5 -47t91.5 -17q67 0 123.5 28.5t96.5 76.5t62 110t21 129zM506 733h-47l-108 122l2 10h67l87 -124z" />
<glyph unicode="&#xd3;" horiz-adv-x="770" d="M724 406q0 -85 -29.5 -161t-81.5 -133.5t-123.5 -91t-155.5 -33.5q-62 0 -113 22t-87.5 60.5t-57 89.5t-20.5 109q0 99 34.5 178t90 134t126 84t142.5 29q53 0 102.5 -20t88 -57t61.5 -90t23 -120zM647 401q-1 50 -16 91t-42 70t-65 45t-86 16q-55 0 -109.5 -24 t-97.5 -68.5t-70 -108.5t-27 -144q0 -46 13.5 -86.5t39.5 -70.5t65.5 -47t91.5 -17q67 0 123.5 28.5t96.5 76.5t62 110t21 129zM409 741l121 124h78l-2 -10l-151 -122h-47z" />
<glyph unicode="&#xd4;" horiz-adv-x="770" d="M724 406q0 -85 -29.5 -161t-81.5 -133.5t-123.5 -91t-155.5 -33.5q-62 0 -113 22t-87.5 60.5t-57 89.5t-20.5 109q0 99 34.5 178t90 134t126 84t142.5 29q53 0 102.5 -20t88 -57t61.5 -90t23 -120zM647 401q-1 50 -16 91t-42 70t-65 45t-86 16q-55 0 -109.5 -24 t-97.5 -68.5t-70 -108.5t-27 -144q0 -46 13.5 -86.5t39.5 -70.5t65.5 -47t91.5 -17q67 0 123.5 28.5t96.5 76.5t62 110t21 129zM597 733h-44l-65 75l-101 -75h-44l1 8l131 124h36l87 -124z" />
<glyph unicode="&#xd5;" horiz-adv-x="770" d="M724 406q0 -85 -29.5 -161t-81.5 -133.5t-123.5 -91t-155.5 -33.5q-62 0 -113 22t-87.5 60.5t-57 89.5t-20.5 109q0 99 34.5 178t90 134t126 84t142.5 29q53 0 102.5 -20t88 -57t61.5 -90t23 -120zM647 401q-1 50 -16 91t-42 70t-65 45t-86 16q-55 0 -109.5 -24 t-97.5 -68.5t-70 -108.5t-27 -144q0 -46 13.5 -86.5t39.5 -70.5t65.5 -47t91.5 -17q67 0 123.5 28.5t96.5 76.5t62 110t21 129zM608 865q0 -49 -23 -82.5t-58 -33.5q-20 0 -35 11t-27 24t-23.5 24t-25.5 11q-21 0 -32.5 -19.5t-11.5 -48.5h-41q0 58 25 87t59 29q20 0 35 -11 t27.5 -24.5t24 -24.5t24.5 -11q21 0 30 20.5t9 48.5h43z" />
<glyph unicode="&#xd6;" horiz-adv-x="770" d="M724 406q0 -85 -29.5 -161t-81.5 -133.5t-123.5 -91t-155.5 -33.5q-62 0 -113 22t-87.5 60.5t-57 89.5t-20.5 109q0 99 34.5 178t90 134t126 84t142.5 29q53 0 102.5 -20t88 -57t61.5 -90t23 -120zM647 401q-1 50 -16 91t-42 70t-65 45t-86 16q-55 0 -109.5 -24 t-97.5 -68.5t-70 -108.5t-27 -144q0 -46 13.5 -86.5t39.5 -70.5t65.5 -47t91.5 -17q67 0 123.5 28.5t96.5 76.5t62 110t21 129zM595 785q0 -17 -13.5 -30t-30.5 -13t-31 13t-14 30t14 30.5t31 13.5q16 0 30 -13.5t14 -30.5zM434 785q0 -17 -13 -30t-32 -13q-17 0 -31 13 t-14 30t14 30.5t31 13.5q19 0 32 -13.5t13 -30.5z" />
<glyph unicode="&#xd7;" horiz-adv-x="530" d="M265 337l154 154l41 -41l-154 -154l154 -154l-41 -41l-154 154l-154 -154l-41 41l154 154l-154 154l41 41z" />
<glyph unicode="&#xd8;" horiz-adv-x="770" d="M724 406q0 -85 -29.5 -161t-81.5 -133.5t-123.5 -91t-155.5 -33.5t-147 40l-48 -65l-36 27l47 64q-45 39 -69.5 94.5t-24.5 120.5q0 99 34.5 178t90 134t126 84t142.5 29q38 0 75 -10.5t69 -30.5l46 62l36 -27l-46 -62q43 -37 69 -92.5t26 -126.5zM647 401 q-2 105 -62 165l-355 -481q47 -28 114 -28t123.5 28.5t96.5 76.5t62 110t21 129zM134 278q0 -50 15 -92t45 -73l356 481q-23 14 -51.5 21.5t-60.5 7.5q-55 0 -109.5 -24t-97.5 -68.5t-70 -108.5t-27 -144z" />
<glyph unicode="&#xd9;" horiz-adv-x="690" d="M584 242q-10 -57 -33 -104t-59 -80.5t-85.5 -52t-113.5 -18.5q-74 0 -120.5 22.5t-70.5 58.5t-29.5 80.5t2.5 88.5l64 357l4 81l83 10l-77 -431q-9 -54 -3 -91.5t26 -61t52 -34t75 -10.5q41 0 76.5 10.5t63.5 34t47.5 61t28.5 91.5l59 339l5 82l83 10zM445 733h-47 l-108 122l2 10h67l87 -124z" />
<glyph unicode="&#xda;" horiz-adv-x="690" d="M584 242q-10 -57 -33 -104t-59 -80.5t-85.5 -52t-113.5 -18.5q-74 0 -120.5 22.5t-70.5 58.5t-29.5 80.5t2.5 88.5l64 357l4 81l83 10l-77 -431q-9 -54 -3 -91.5t26 -61t52 -34t75 -10.5q41 0 76.5 10.5t63.5 34t47.5 61t28.5 91.5l59 339l5 82l83 10zM348 741l121 124 h78l-2 -10l-151 -122h-47z" />
<glyph unicode="&#xdb;" horiz-adv-x="690" d="M584 242q-10 -57 -33 -104t-59 -80.5t-85.5 -52t-113.5 -18.5q-74 0 -120.5 22.5t-70.5 58.5t-29.5 80.5t2.5 88.5l64 357l4 81l83 10l-77 -431q-9 -54 -3 -91.5t26 -61t52 -34t75 -10.5q41 0 76.5 10.5t63.5 34t47.5 61t28.5 91.5l59 339l5 82l83 10zM536 733h-44 l-65 75l-101 -75h-44l1 8l131 124h36l87 -124z" />
<glyph unicode="&#xdc;" horiz-adv-x="690" d="M584 242q-10 -57 -33 -104t-59 -80.5t-85.5 -52t-113.5 -18.5q-74 0 -120.5 22.5t-70.5 58.5t-29.5 80.5t2.5 88.5l64 357l4 81l83 10l-77 -431q-9 -54 -3 -91.5t26 -61t52 -34t75 -10.5q41 0 76.5 10.5t63.5 34t47.5 61t28.5 91.5l59 339l5 82l83 10zM534 785 q0 -17 -13.5 -30t-30.5 -13t-31 13t-14 30t14 30.5t31 13.5q16 0 30 -13.5t14 -30.5zM373 785q0 -17 -13 -30t-32 -13q-17 0 -31 13t-14 30t14 30.5t31 13.5q19 0 32 -13.5t13 -30.5z" />
<glyph unicode="&#xdd;" horiz-adv-x="590" d="M296 373h7l257 314l72 -16l-306 -368l-43 -239v-59l-83 -10l53 308l-175 368l70 16zM301 741l121 124h78l-2 -10l-151 -122h-47z" />
<glyph unicode="&#xde;" horiz-adv-x="520" d="M221 685l-24 -138l99 3q85 3 133.5 -42t48.5 -123q0 -57 -22 -99t-58 -70t-81.5 -42.5t-91.5 -16.5l-97 -4l-14 -79l-2 -69l-83 -10l106 607l3 73zM401 376q0 51 -31 80t-85 27l-100 -5l-46 -259l95 5q33 1 63 11.5t52.5 30t36.5 47t15 63.5z" />
<glyph unicode="&#xdf;" horiz-adv-x="550" d="M131 491q17 95 73 147t141 52q34 0 64.5 -10t53 -30t35.5 -49.5t13 -68.5q0 -26 -6 -61t-18 -64q-75 0 -114 -22t-39 -60q0 -20 10 -34.5t25 -28t33 -27t33 -30t25 -37.5t10 -49q0 -33 -14.5 -58t-37 -41t-50.5 -24t-55 -8q-38 0 -68.5 12t-47.5 29l36 52q15 -16 37 -25 t51 -9q14 0 28.5 4.5t26 13t19 21.5t7.5 31q0 28 -21.5 48.5t-47 41.5t-47 47t-21.5 65q0 31 12.5 56t35 43.5t53.5 29.5t68 15q18 75 -3.5 121t-86.5 46q-63 0 -99 -40.5t-47 -105.5l-91 -508l-4 -79l-79 -11l90 505h-79l8 45l81 16z" />
<glyph unicode="&#xe0;" horiz-adv-x="450" d="M356 9l-62 -22q-6 11 -10.5 29.5t-2.5 46.5h-5q-11 -11 -27 -23t-35.5 -22.5t-42 -19t-45.5 -11.5q-26 2 -47.5 13t-38 27.5t-25.5 36.5t-9 41q0 37 16 72q57 50 131 70t149 15l7 39q8 49 -16 74.5t-64 25.5q-28 0 -61 -13t-68 -37l-24 50q33 23 74 41t88 18q35 0 63 -12 t46.5 -33.5t25.5 -51.5t1 -66l-35 -203q-4 -24 1.5 -46.5t15.5 -34.5v-4zM294 209q-29 2 -60 -0.5t-59.5 -10t-53 -20t-41.5 -28.5q-3 -9 -5 -18.5t-2 -18.5q0 -27 16.5 -45t48.5 -23q19 2 39.5 9.5t39 18t35 23t28.5 25.5zM308 506h-45l-95 158l1 10h65l75 -160z" />
<glyph unicode="&#xe1;" horiz-adv-x="450" d="M356 9l-62 -22q-6 11 -10.5 29.5t-2.5 46.5h-5q-11 -11 -27 -23t-35.5 -22.5t-42 -19t-45.5 -11.5q-26 2 -47.5 13t-38 27.5t-25.5 36.5t-9 41q0 37 16 72q57 50 131 70t149 15l7 39q8 49 -16 74.5t-64 25.5q-28 0 -61 -13t-68 -37l-24 50q33 23 74 41t88 18q35 0 63 -12 t46.5 -33.5t25.5 -51.5t1 -66l-35 -203q-4 -24 1.5 -46.5t15.5 -34.5v-4zM294 209q-29 2 -60 -0.5t-59.5 -10t-53 -20t-41.5 -28.5q-3 -9 -5 -18.5t-2 -18.5q0 -27 16.5 -45t48.5 -23q19 2 39.5 9.5t39 18t35 23t28.5 25.5zM209 514l121 160h75l-1 -10l-149 -158h-47z" />
<glyph unicode="&#xe2;" horiz-adv-x="450" d="M356 9l-62 -22q-6 11 -10.5 29.5t-2.5 46.5h-5q-11 -11 -27 -23t-35.5 -22.5t-42 -19t-45.5 -11.5q-26 2 -47.5 13t-38 27.5t-25.5 36.5t-9 41q0 37 16 72q57 50 131 70t149 15l7 39q8 49 -16 74.5t-64 25.5q-28 0 -61 -13t-68 -37l-24 50q33 23 74 41t88 18q35 0 63 -12 t46.5 -33.5t25.5 -51.5t1 -66l-35 -203q-4 -24 1.5 -46.5t15.5 -34.5v-4zM294 209q-29 2 -60 -0.5t-59.5 -10t-53 -20t-41.5 -28.5q-3 -9 -5 -18.5t-2 -18.5q0 -27 16.5 -45t48.5 -23q19 2 39.5 9.5t39 18t35 23t28.5 25.5zM380 506h-44l-61 102l-105 -102h-44l1 8l137 160 h36l81 -160z" />
<glyph unicode="&#xe3;" horiz-adv-x="450" d="M356 9l-62 -22q-6 11 -10.5 29.5t-2.5 46.5h-5q-11 -11 -27 -23t-35.5 -22.5t-42 -19t-45.5 -11.5q-26 2 -47.5 13t-38 27.5t-25.5 36.5t-9 41q0 37 16 72q57 50 131 70t149 15l7 39q8 49 -16 74.5t-64 25.5q-28 0 -61 -13t-68 -37l-24 50q33 23 74 41t88 18q35 0 63 -12 t46.5 -33.5t25.5 -51.5t1 -66l-35 -203q-4 -24 1.5 -46.5t15.5 -34.5v-4zM294 209q-29 2 -60 -0.5t-59.5 -10t-53 -20t-41.5 -28.5q-3 -9 -5 -18.5t-2 -18.5q0 -27 16.5 -45t48.5 -23q19 2 39.5 9.5t39 18t35 23t28.5 25.5zM402 640q0 -49 -23 -82.5t-58 -33.5q-20 0 -35 11 t-27 24t-23.5 24t-25.5 11q-21 0 -32.5 -19.5t-11.5 -48.5h-41q0 58 25 87t59 29q20 0 35 -11t27.5 -24.5t24 -24.5t24.5 -11q21 0 30 20.5t9 48.5h43z" />
<glyph unicode="&#xe4;" horiz-adv-x="450" d="M356 9l-62 -22q-6 11 -10.5 29.5t-2.5 46.5h-5q-11 -11 -27 -23t-35.5 -22.5t-42 -19t-45.5 -11.5q-26 2 -47.5 13t-38 27.5t-25.5 36.5t-9 41q0 37 16 72q57 50 131 70t149 15l7 39q8 49 -16 74.5t-64 25.5q-28 0 -61 -13t-68 -37l-24 50q33 23 74 41t88 18q35 0 63 -12 t46.5 -33.5t25.5 -51.5t1 -66l-35 -203q-4 -24 1.5 -46.5t15.5 -34.5v-4zM294 209q-29 2 -60 -0.5t-59.5 -10t-53 -20t-41.5 -28.5q-3 -9 -5 -18.5t-2 -18.5q0 -27 16.5 -45t48.5 -23q19 2 39.5 9.5t39 18t35 23t28.5 25.5zM389 560q0 -17 -13.5 -30t-30.5 -13t-31 13 t-14 30t14 30.5t31 13.5q16 0 30 -13.5t14 -30.5zM228 560q0 -17 -13 -30t-32 -13q-17 0 -31 13t-14 30t14 30.5t31 13.5q19 0 32 -13.5t13 -30.5z" />
<glyph unicode="&#xe5;" horiz-adv-x="450" d="M356 9l-62 -22q-6 11 -10.5 29.5t-2.5 46.5h-5q-11 -11 -27 -23t-35.5 -22.5t-42 -19t-45.5 -11.5q-26 2 -47.5 13t-38 27.5t-25.5 36.5t-9 41q0 37 16 72q57 50 131 70t149 15l7 39q8 49 -16 74.5t-64 25.5q-28 0 -61 -13t-68 -37l-24 50q33 23 74 41t88 18q35 0 63 -12 t46.5 -33.5t25.5 -51.5t1 -66l-35 -203q-4 -24 1.5 -46.5t15.5 -34.5v-4zM294 209q-29 2 -60 -0.5t-59.5 -10t-53 -20t-41.5 -28.5q-3 -9 -5 -18.5t-2 -18.5q0 -27 16.5 -45t48.5 -23q19 2 39.5 9.5t39 18t35 23t28.5 25.5zM178 596q0 19 7.5 36.5t20 30t29.5 20t37 7.5 q19 0 36.5 -7.5t30 -20t20 -30t7.5 -36.5q0 -20 -7.5 -37t-20 -29.5t-30 -20t-36.5 -7.5q-20 0 -37 7.5t-29.5 20t-20 29.5t-7.5 37zM218 596q0 -26 14.5 -41.5t38.5 -15.5q23 0 38.5 16t15.5 41t-15.5 41.5t-38.5 16.5q-24 0 -38.5 -17t-14.5 -41z" />
<glyph unicode="&#xe6;" horiz-adv-x="700" d="M639 264q-23 -18 -58 -32.5t-74 -23.5t-78.5 -12t-71.5 2q-3 -11 -3.5 -20t-0.5 -20q0 -55 23 -83.5t61 -28.5t75.5 14t59.5 35h3l23 -48q-14 -14 -33.5 -25t-42 -18.5t-45.5 -11.5t-44 -4q-48 0 -84.5 25.5t-51.5 77.5q-17 -25 -37.5 -43t-43 -30.5t-46 -20t-45.5 -10.5 q-24 3 -45.5 13t-38 25.5t-26 36t-9.5 43.5q0 37 16 72q55 50 126.5 70t143.5 15l7 39q7 49 -14 74.5t-56 25.5q-28 0 -61 -13t-68 -37l-24 50q33 23 74 41t88 18t75.5 -21.5t39.5 -60.5q31 38 69.5 60t78.5 22q33 0 61 -11t48 -30t31 -45t11 -57q0 -12 -2.5 -24.5 t-10.5 -28.5zM285 209q-28 2 -57.5 -0.5t-57 -10t-51 -20t-39.5 -28.5q-3 -9 -5 -18.5t-2 -18.5q0 -56 65 -68q24 4 47 14t42.5 29t34.5 48.5t23 72.5zM365 252q25 -3 56.5 -1.5t62 7t56.5 15.5t42 23q2 5 2 9v9q0 42 -25 65t-58 23q-26 0 -47.5 -11.5t-38.5 -32t-30 -48 t-20 -58.5z" />
<glyph unicode="&#xe7;" horiz-adv-x="400" d="M99 -185q47 6 77.5 22.5t30.5 41.5q0 18 -20.5 26.5t-53.5 8.5q-6 0 -15.5 -0.5t-14.5 -1.5l-4 7l56 73q-63 11 -100 59.5t-37 121.5q0 57 19 108.5t51.5 91.5t76.5 63.5t94 23.5q44 0 76 -15t58 -44l-39 -44q-20 21 -42.5 33t-51.5 12q-39 0 -70.5 -20t-53.5 -52.5 t-34 -73.5t-12 -83q0 -58 30 -93t76 -35q32 0 57 11.5t50 33.5l27 -49q-26 -24 -60 -37.5t-70 -15.5l-30 -40q38 0 63.5 -15.5t25.5 -47.5q0 -20 -13.5 -37.5t-35.5 -31t-50.5 -23t-58.5 -13.5z" />
<glyph unicode="&#xe8;" horiz-adv-x="450" d="M389 264q-24 -18 -60.5 -32.5t-77 -23.5t-81.5 -12t-75 2q-4 -20 -4 -40q0 -55 27 -83.5t69 -28.5q38 0 75.5 14t59.5 35h3l23 -48q-14 -14 -33.5 -25t-42 -18.5t-45.5 -11.5t-44 -4q-35 0 -65 10.5t-52.5 31t-35 51t-12.5 71.5q0 66 20 122.5t52.5 98t74.5 64.5t86 23 q33 0 61 -11t48 -30t31 -45t11 -57q0 -12 -2.5 -24.5t-10.5 -28.5zM103 252q27 -3 60 -1.5t65 7t59.5 15.5t44.5 23q2 5 2 9v9q0 42 -25 65t-58 23q-27 0 -50.5 -11.5t-42.5 -32t-33 -48t-22 -58.5zM313 506h-45l-95 158l1 10h65l75 -160z" />
<glyph unicode="&#xe9;" horiz-adv-x="450" d="M389 264q-24 -18 -60.5 -32.5t-77 -23.5t-81.5 -12t-75 2q-4 -20 -4 -40q0 -55 27 -83.5t69 -28.5q38 0 75.5 14t59.5 35h3l23 -48q-14 -14 -33.5 -25t-42 -18.5t-45.5 -11.5t-44 -4q-35 0 -65 10.5t-52.5 31t-35 51t-12.5 71.5q0 66 20 122.5t52.5 98t74.5 64.5t86 23 q33 0 61 -11t48 -30t31 -45t11 -57q0 -12 -2.5 -24.5t-10.5 -28.5zM103 252q27 -3 60 -1.5t65 7t59.5 15.5t44.5 23q2 5 2 9v9q0 42 -25 65t-58 23q-27 0 -50.5 -11.5t-42.5 -32t-33 -48t-22 -58.5zM214 514l121 160h75l-1 -10l-149 -158h-47z" />
<glyph unicode="&#xea;" horiz-adv-x="450" d="M389 264q-24 -18 -60.5 -32.5t-77 -23.5t-81.5 -12t-75 2q-4 -20 -4 -40q0 -55 27 -83.5t69 -28.5q38 0 75.5 14t59.5 35h3l23 -48q-14 -14 -33.5 -25t-42 -18.5t-45.5 -11.5t-44 -4q-35 0 -65 10.5t-52.5 31t-35 51t-12.5 71.5q0 66 20 122.5t52.5 98t74.5 64.5t86 23 q33 0 61 -11t48 -30t31 -45t11 -57q0 -12 -2.5 -24.5t-10.5 -28.5zM103 252q27 -3 60 -1.5t65 7t59.5 15.5t44.5 23q2 5 2 9v9q0 42 -25 65t-58 23q-27 0 -50.5 -11.5t-42.5 -32t-33 -48t-22 -58.5zM385 506h-44l-61 102l-105 -102h-44l1 8l137 160h36l81 -160z" />
<glyph unicode="&#xeb;" horiz-adv-x="450" d="M389 264q-24 -18 -60.5 -32.5t-77 -23.5t-81.5 -12t-75 2q-4 -20 -4 -40q0 -55 27 -83.5t69 -28.5q38 0 75.5 14t59.5 35h3l23 -48q-14 -14 -33.5 -25t-42 -18.5t-45.5 -11.5t-44 -4q-35 0 -65 10.5t-52.5 31t-35 51t-12.5 71.5q0 66 20 122.5t52.5 98t74.5 64.5t86 23 q33 0 61 -11t48 -30t31 -45t11 -57q0 -12 -2.5 -24.5t-10.5 -28.5zM103 252q27 -3 60 -1.5t65 7t59.5 15.5t44.5 23q2 5 2 9v9q0 42 -25 65t-58 23q-27 0 -50.5 -11.5t-42.5 -32t-33 -48t-22 -58.5zM394 560q0 -17 -13.5 -30t-30.5 -13t-31 13t-14 30t14 30.5t31 13.5 q16 0 30 -13.5t14 -30.5zM233 560q0 -17 -13 -30t-32 -13q-17 0 -31 13t-14 30t14 30.5t31 13.5q19 0 32 -13.5t13 -30.5z" />
<glyph unicode="&#xec;" horiz-adv-x="230" d="M172 452l-64 -362l-5 -85l-80 -10l64 368l4 80zM188 506h-45l-95 158l1 10h65l75 -160z" />
<glyph unicode="&#xed;" horiz-adv-x="230" d="M172 452l-64 -362l-5 -85l-80 -10l64 368l4 80zM89 514l121 160h75l-1 -10l-149 -158h-47z" />
<glyph unicode="&#xee;" horiz-adv-x="230" d="M172 452l-64 -362l-5 -85l-80 -10l64 368l4 80zM260 506h-44l-61 102l-105 -102h-44l1 8l137 160h36l81 -160z" />
<glyph unicode="&#xef;" horiz-adv-x="230" d="M172 452l-64 -362l-5 -85l-80 -10l64 368l4 80zM269 560q0 -17 -13.5 -30t-30.5 -13t-31 13t-14 30t14 30.5t31 13.5q16 0 30 -13.5t14 -30.5zM108 560q0 -17 -13 -30t-32 -13q-17 0 -31 13t-14 30t14 30.5t31 13.5q19 0 32 -13.5t13 -30.5z" />
<glyph unicode="&#xf0;" horiz-adv-x="490" d="M273 584q-45 37 -106 54l27 52q39 -14 72 -32t59 -42l106 64l19 -37l-96 -58q81 -98 81 -252q0 -60 -16 -121.5t-47 -111t-77.5 -81t-107.5 -31.5q-38 0 -69 13.5t-53.5 37.5t-34.5 58t-12 76q0 61 20 113.5t52.5 91t74.5 60.5t86 22q39 0 65 -12t48 -41l5 2 q-16 89 -65 145l-103 -62l-19 37zM355 271q0 59 -26.5 95t-77.5 36q-32 0 -61 -18t-51 -49.5t-35.5 -73t-13.5 -88.5q0 -58 27 -92.5t75 -34.5q33 0 63 19t53 50.5t35.5 72t11.5 83.5z" />
<glyph unicode="&#xf1;" horiz-adv-x="480" d="M145 389q35 32 75 51.5t80 19.5q60 0 92 -39t18 -119l-39 -220l-4 -77l-80 -10l51 296q5 31 1.5 51t-13.5 32t-25 17t-32 5q-35 0 -71 -20t-63 -52l-43 -235l-5 -84l-80 -10l63 364l5 84l68 10l-2 -64h4zM416 640q0 -49 -23 -82.5t-58 -33.5q-20 0 -35 11t-27 24 t-23.5 24t-25.5 11q-21 0 -32.5 -19.5t-11.5 -48.5h-41q0 58 25 87t59 29q20 0 35 -11t27.5 -24.5t24 -24.5t24.5 -11q21 0 30 20.5t9 48.5h43z" />
<glyph unicode="&#xf2;" horiz-adv-x="490" d="M432 274q0 -61 -19 -113t-51.5 -90.5t-77 -60.5t-95.5 -22q-37 0 -68.5 13.5t-54 37.5t-35.5 58t-13 76q0 57 19 109t52 91.5t77 63t93 23.5q41 0 73 -13.5t54.5 -38t34 -59t11.5 -75.5zM360 272q0 59 -28 94.5t-79 35.5q-32 0 -61 -18t-51.5 -49t-36 -73t-13.5 -89 q0 -58 27.5 -92.5t76.5 -34.5q37 0 68 19.5t53 51t33.5 72t10.5 83.5zM316 506h-45l-95 158l1 10h65l75 -160z" />
<glyph unicode="&#xf3;" horiz-adv-x="490" d="M432 274q0 -61 -19 -113t-51.5 -90.5t-77 -60.5t-95.5 -22q-37 0 -68.5 13.5t-54 37.5t-35.5 58t-13 76q0 57 19 109t52 91.5t77 63t93 23.5q41 0 73 -13.5t54.5 -38t34 -59t11.5 -75.5zM360 272q0 59 -28 94.5t-79 35.5q-32 0 -61 -18t-51.5 -49t-36 -73t-13.5 -89 q0 -58 27.5 -92.5t76.5 -34.5q37 0 68 19.5t53 51t33.5 72t10.5 83.5zM217 514l121 160h75l-1 -10l-149 -158h-47z" />
<glyph unicode="&#xf4;" horiz-adv-x="490" d="M432 274q0 -61 -19 -113t-51.5 -90.5t-77 -60.5t-95.5 -22q-37 0 -68.5 13.5t-54 37.5t-35.5 58t-13 76q0 57 19 109t52 91.5t77 63t93 23.5q41 0 73 -13.5t54.5 -38t34 -59t11.5 -75.5zM360 272q0 59 -28 94.5t-79 35.5q-32 0 -61 -18t-51.5 -49t-36 -73t-13.5 -89 q0 -58 27.5 -92.5t76.5 -34.5q37 0 68 19.5t53 51t33.5 72t10.5 83.5zM388 506h-44l-61 102l-105 -102h-44l1 8l137 160h36l81 -160z" />
<glyph unicode="&#xf5;" horiz-adv-x="490" d="M432 274q0 -61 -19 -113t-51.5 -90.5t-77 -60.5t-95.5 -22q-37 0 -68.5 13.5t-54 37.5t-35.5 58t-13 76q0 57 19 109t52 91.5t77 63t93 23.5q41 0 73 -13.5t54.5 -38t34 -59t11.5 -75.5zM360 272q0 59 -28 94.5t-79 35.5q-32 0 -61 -18t-51.5 -49t-36 -73t-13.5 -89 q0 -58 27.5 -92.5t76.5 -34.5q37 0 68 19.5t53 51t33.5 72t10.5 83.5zM410 640q0 -49 -23 -82.5t-58 -33.5q-20 0 -35 11t-27 24t-23.5 24t-25.5 11q-21 0 -32.5 -19.5t-11.5 -48.5h-41q0 58 25 87t59 29q20 0 35 -11t27.5 -24.5t24 -24.5t24.5 -11q21 0 30 20.5t9 48.5h43z " />
<glyph unicode="&#xf6;" horiz-adv-x="490" d="M432 274q0 -61 -19 -113t-51.5 -90.5t-77 -60.5t-95.5 -22q-37 0 -68.5 13.5t-54 37.5t-35.5 58t-13 76q0 57 19 109t52 91.5t77 63t93 23.5q41 0 73 -13.5t54.5 -38t34 -59t11.5 -75.5zM360 272q0 59 -28 94.5t-79 35.5q-32 0 -61 -18t-51.5 -49t-36 -73t-13.5 -89 q0 -58 27.5 -92.5t76.5 -34.5q37 0 68 19.5t53 51t33.5 72t10.5 83.5zM397 560q0 -17 -13.5 -30t-30.5 -13t-31 13t-14 30t14 30.5t31 13.5q16 0 30 -13.5t14 -30.5zM236 560q0 -17 -13 -30t-32 -13q-17 0 -31 13t-14 30t14 30.5t31 13.5q19 0 32 -13.5t13 -30.5z" />
<glyph unicode="&#xf7;" horiz-adv-x="530" d="M33 272v58h464v-58h-464zM211 465q0 23 15.5 38.5t38.5 15.5t38.5 -15.5t15.5 -38.5t-15.5 -38.5t-38.5 -15.5t-38.5 15.5t-15.5 38.5zM211 137q0 23 15.5 38.5t38.5 15.5t38.5 -15.5t15.5 -38.5t-15.5 -38.5t-38.5 -15.5t-38.5 15.5t-15.5 38.5z" />
<glyph unicode="&#xf8;" horiz-adv-x="490" d="M432 274q0 -61 -19 -113t-51.5 -90.5t-77 -60.5t-95.5 -22q-54 0 -95 27l-41 -55l-33 25l42 58q-44 50 -44 130q0 57 19 109t52 91.5t77 63t93 23.5q27 0 50 -6.5t43 -17.5l36 50l33 -25l-37 -50q48 -51 48 -137zM360 272q0 47 -19 80l-209 -285q26 -21 63 -21t68 19.5 t53 51t33.5 72t10.5 83.5zM91 173q0 -41 14 -72l208 283q-26 18 -60 18q-32 0 -61 -18t-51.5 -49t-36 -73t-13.5 -89z" />
<glyph unicode="&#xf9;" horiz-adv-x="480" d="M297 59q-30 -29 -70 -50t-90 -21q-26 0 -48.5 11t-37 32.5t-20 55t2.5 78.5l34 197l4 81l80 10l-49 -291q-5 -31 -3 -52t10 -34t21.5 -19t31.5 -6q22 0 43.5 7t40.5 18.5t35 27t26 33.5l38 217l6 89l80 10l-62 -357l-6 -91l-66 -10l3 64h-4zM314 506h-45l-95 158l1 10h65 l75 -160z" />
<glyph unicode="&#xfa;" horiz-adv-x="480" d="M297 59q-30 -29 -70 -50t-90 -21q-26 0 -48.5 11t-37 32.5t-20 55t2.5 78.5l34 197l4 81l80 10l-49 -291q-5 -31 -3 -52t10 -34t21.5 -19t31.5 -6q22 0 43.5 7t40.5 18.5t35 27t26 33.5l38 217l6 89l80 10l-62 -357l-6 -91l-66 -10l3 64h-4zM215 514l121 160h75l-1 -10 l-149 -158h-47z" />
<glyph unicode="&#xfb;" horiz-adv-x="480" d="M297 59q-30 -29 -70 -50t-90 -21q-26 0 -48.5 11t-37 32.5t-20 55t2.5 78.5l34 197l4 81l80 10l-49 -291q-5 -31 -3 -52t10 -34t21.5 -19t31.5 -6q22 0 43.5 7t40.5 18.5t35 27t26 33.5l38 217l6 89l80 10l-62 -357l-6 -91l-66 -10l3 64h-4zM386 506h-44l-61 102 l-105 -102h-44l1 8l137 160h36l81 -160z" />
<glyph unicode="&#xfc;" horiz-adv-x="480" d="M297 59q-30 -29 -70 -50t-90 -21q-26 0 -48.5 11t-37 32.5t-20 55t2.5 78.5l34 197l4 81l80 10l-49 -291q-5 -31 -3 -52t10 -34t21.5 -19t31.5 -6q22 0 43.5 7t40.5 18.5t35 27t26 33.5l38 217l6 89l80 10l-62 -357l-6 -91l-66 -10l3 64h-4zM395 560q0 -17 -13.5 -30 t-30.5 -13t-31 13t-14 30t14 30.5t31 13.5q16 0 30 -13.5t14 -30.5zM234 560q0 -17 -13 -30t-32 -13q-17 0 -31 13t-14 30t14 30.5t31 13.5q19 0 32 -13.5t13 -30.5z" />
<glyph unicode="&#xfd;" horiz-adv-x="440" d="M119 -92q-20 -35 -39 -63t-37 -42l-72 -10l-2 32q39 21 78.5 78t78.5 141l-83 396l65 15l69 -331h3l190 331l65 -15zM193 514l121 160h75l-1 -10l-149 -158h-47z" />
<glyph unicode="&#xfe;" horiz-adv-x="490" d="M141 365q31 34 73.5 61.5t90.5 34.5q26 -3 49 -16t40.5 -35t27.5 -53t10 -71q0 -68 -22.5 -123t-58 -94t-79 -60t-85.5 -21q-25 0 -55 10t-48 33h-5l-23 -147l-3 -76l-85 -12l54 290l87 511l5 81l87 13l-65 -326h5zM285 399q-20 -4 -41.5 -14.5t-42.5 -25.5t-40 -34.5 t-34 -40.5l-36 -191q14 -16 34 -30.5t55 -14.5q34 0 66.5 16t57 46t39.5 74t15 100q0 54 -22.5 82.5t-50.5 32.5z" />
<glyph unicode="&#xff;" horiz-adv-x="440" d="M119 -92q-20 -35 -39 -63t-37 -42l-72 -10l-2 32q39 21 78.5 78t78.5 141l-83 396l65 15l69 -331h3l190 331l65 -15zM373 560q0 -17 -13.5 -30t-30.5 -13t-31 13t-14 30t14 30.5t31 13.5q16 0 30 -13.5t14 -30.5zM212 560q0 -17 -13 -30t-32 -13q-17 0 -31 13t-14 30 t14 30.5t31 13.5q19 0 32 -13.5t13 -30.5z" />
<glyph unicode="&#x100;" horiz-adv-x="680" d="M-16 15l458 683h18l135 -688l-70 -20l-39 210l-302 -9l-131 -201l-68 19zM229 259l245 8l-51 279h-7zM346 761v52h234v-52h-234z" />
<glyph unicode="&#x101;" horiz-adv-x="450" d="M356 9l-62 -22q-6 11 -10.5 29.5t-2.5 46.5h-5q-11 -11 -27 -23t-35.5 -22.5t-42 -19t-45.5 -11.5q-26 2 -47.5 13t-38 27.5t-25.5 36.5t-9 41q0 37 16 72q57 50 131 70t149 15l7 39q8 49 -16 74.5t-64 25.5q-28 0 -61 -13t-68 -37l-24 50q33 23 74 41t88 18q35 0 63 -12 t46.5 -33.5t25.5 -51.5t1 -66l-35 -203q-4 -24 1.5 -46.5t15.5 -34.5v-4zM294 209q-29 2 -60 -0.5t-59.5 -10t-53 -20t-41.5 -28.5q-3 -9 -5 -18.5t-2 -18.5q0 -27 16.5 -45t48.5 -23q19 2 39.5 9.5t39 18t35 23t28.5 25.5zM147 536v52h234v-52h-234z" />
<glyph unicode="&#x102;" horiz-adv-x="680" d="M-16 15l458 683h18l135 -688l-70 -20l-39 210l-302 -9l-131 -201l-68 19zM229 259l245 8l-51 279h-7zM456 732q-23 0 -42.5 8t-32 24t-17 41t3.5 60h41q-4 -16 -2.5 -31t8.5 -27t18.5 -19t28.5 -7q36 0 66 23t39 61h41q-8 -35 -23.5 -60t-36.5 -41t-45 -24t-47 -8z" />
<glyph unicode="&#x103;" horiz-adv-x="450" d="M356 9l-62 -22q-6 11 -10.5 29.5t-2.5 46.5h-5q-11 -11 -27 -23t-35.5 -22.5t-42 -19t-45.5 -11.5q-26 2 -47.5 13t-38 27.5t-25.5 36.5t-9 41q0 37 16 72q57 50 131 70t149 15l7 39q8 49 -16 74.5t-64 25.5q-28 0 -61 -13t-68 -37l-24 50q33 23 74 41t88 18q35 0 63 -12 t46.5 -33.5t25.5 -51.5t1 -66l-35 -203q-4 -24 1.5 -46.5t15.5 -34.5v-4zM294 209q-29 2 -60 -0.5t-59.5 -10t-53 -20t-41.5 -28.5q-3 -9 -5 -18.5t-2 -18.5q0 -27 16.5 -45t48.5 -23q19 2 39.5 9.5t39 18t35 23t28.5 25.5zM257 507q-24 0 -44.5 10t-34 30.5t-18 52 t3.5 74.5h41q-4 -22 -2.5 -43.5t9 -38t20.5 -26.5t31 -10q38 0 69 32t41 86h41q-8 -42 -24.5 -73.5t-38 -52.5t-46 -31t-48.5 -10z" />
<glyph unicode="&#x104;" horiz-adv-x="680" d="M-16 15l458 683h18l135 -688l-22 -7q-26 -22 -44 -48.5t-18 -52.5q0 -46 38 -46q18 0 33 5v-54q-11 -4 -23.5 -5t-26.5 -1t-28.5 4.5t-26 14.5t-19 25.5t-7.5 38.5q0 32 19.5 65t51.5 56l-36 195l-302 -9l-131 -201l-68 19zM229 259l245 8l-51 279h-7z" />
<glyph unicode="&#x105;" horiz-adv-x="450" d="M356 9l-36 -12q-23 -22 -38 -46.5t-15 -48.5q0 -46 38 -46q18 0 33 5v-54q-11 -4 -23.5 -5t-26.5 -1t-28.5 4.5t-26 14.5t-19 25.5t-7.5 38.5q0 35 22 68.5t56 57.5q-7 22 -4 53h-5q-11 -11 -27 -23t-35.5 -22.5t-42 -19t-45.5 -11.5q-26 2 -47.5 13t-38 27.5t-25.5 36.5 t-9 41q0 37 16 72q57 50 131 70t149 15l7 39q8 49 -16 74.5t-64 25.5q-28 0 -61 -13t-68 -37l-24 50q33 23 74 41t88 18q35 0 63 -12t46.5 -33.5t25.5 -51.5t1 -66l-35 -203q-4 -24 1.5 -46.5t15.5 -34.5v-4zM294 209q-29 2 -60 -0.5t-59.5 -10t-53 -20t-41.5 -28.5 q-3 -9 -5 -18.5t-2 -18.5q0 -27 16.5 -45t48.5 -23q19 2 39.5 9.5t39 18t35 23t28.5 25.5z" />
<glyph unicode="&#x106;" horiz-adv-x="660" d="M622 554q-10 10 -27 22t-39.5 22.5t-50.5 17.5t-61 7q-56 0 -111.5 -22.5t-99.5 -66.5t-71.5 -108t-27.5 -147q0 -105 57.5 -163.5t157.5 -58.5q30 0 58.5 6t54 15.5t48 22t40.5 25.5l32 -57q-48 -37 -111 -59.5t-132 -22.5q-64 0 -116 22.5t-89 61t-57.5 91t-20.5 112.5 q0 98 34.5 175.5t91 131.5t127 83t142.5 29q35 0 66.5 -7t58.5 -18.5t49.5 -26t38.5 -28.5zM405 746l121 124h78l-2 -10l-151 -122h-47z" />
<glyph unicode="&#x107;" horiz-adv-x="400" d="M354 357q-20 21 -42.5 33t-51.5 12q-39 0 -70.5 -20t-53.5 -52.5t-34 -73.5t-12 -83q0 -58 30 -93t76 -35q32 0 57 11.5t50 33.5l27 -49q-26 -25 -62.5 -39t-74.5 -14q-40 0 -72 13.5t-55 37.5t-35.5 58t-12.5 76q0 57 19 108.5t51.5 91.5t76.5 63.5t94 23.5q44 0 76 -15 t58 -44zM231 514l121 160h75l-1 -10l-149 -158h-47z" />
<glyph unicode="&#x10a;" horiz-adv-x="660" d="M622 554q-10 10 -27 22t-39.5 22.5t-50.5 17.5t-61 7q-56 0 -111.5 -22.5t-99.5 -66.5t-71.5 -108t-27.5 -147q0 -105 57.5 -163.5t157.5 -58.5q30 0 58.5 6t54 15.5t48 22t40.5 25.5l32 -57q-48 -37 -111 -59.5t-132 -22.5q-64 0 -116 22.5t-89 61t-57.5 91t-20.5 112.5 q0 98 34.5 175.5t91 131.5t127 83t142.5 29q35 0 66.5 -7t58.5 -18.5t49.5 -26t38.5 -28.5zM422 809q0 23 14.5 37.5t34.5 14.5t34.5 -14.5t14.5 -37.5q0 -20 -14.5 -35.5t-34.5 -15.5t-34.5 15.5t-14.5 35.5z" />
<glyph unicode="&#x10b;" horiz-adv-x="400" d="M354 357q-20 21 -42.5 33t-51.5 12q-39 0 -70.5 -20t-53.5 -52.5t-34 -73.5t-12 -83q0 -58 30 -93t76 -35q32 0 57 11.5t50 33.5l27 -49q-26 -25 -62.5 -39t-74.5 -14q-40 0 -72 13.5t-55 37.5t-35.5 58t-12.5 76q0 57 19 108.5t51.5 91.5t76.5 63.5t94 23.5q44 0 76 -15 t58 -44zM242 588q0 23 14.5 37.5t34.5 14.5t34.5 -14.5t14.5 -37.5q0 -20 -14.5 -35.5t-34.5 -15.5t-34.5 15.5t-14.5 35.5z" />
<glyph unicode="&#x10c;" horiz-adv-x="660" d="M622 554q-10 10 -27 22t-39.5 22.5t-50.5 17.5t-61 7q-56 0 -111.5 -22.5t-99.5 -66.5t-71.5 -108t-27.5 -147q0 -105 57.5 -163.5t157.5 -58.5q30 0 58.5 6t54 15.5t48 22t40.5 25.5l32 -57q-48 -37 -111 -59.5t-132 -22.5q-64 0 -116 22.5t-89 61t-57.5 91t-20.5 112.5 q0 98 34.5 175.5t91 131.5t127 83t142.5 29q35 0 66.5 -7t58.5 -18.5t49.5 -26t38.5 -28.5zM360 870h44l65 -75l101 75h44l-1 -8l-131 -124h-36l-87 124z" />
<glyph unicode="&#x10d;" horiz-adv-x="400" d="M354 357q-20 21 -42.5 33t-51.5 12q-39 0 -70.5 -20t-53.5 -52.5t-34 -73.5t-12 -83q0 -58 30 -93t76 -35q32 0 57 11.5t50 33.5l27 -49q-26 -25 -62.5 -39t-74.5 -14q-40 0 -72 13.5t-55 37.5t-35.5 58t-12.5 76q0 57 19 108.5t51.5 91.5t76.5 63.5t94 23.5q44 0 76 -15 t58 -44zM183 674h44l61 -102l105 102h44l-1 -8l-137 -160h-36l-81 160z" />
<glyph unicode="&#x10e;" horiz-adv-x="670" d="M237 72q66 3 122 27t97 66t64 100.5t23 130.5q0 60 -19.5 102.5t-51.5 70t-73.5 39.5t-85.5 10l-101 -5l-53 -281l-44 -266zM28 -5l62 340l41 251l6 89l178 10q55 3 109 -12.5t97.5 -51t70.5 -91.5t27 -133q0 -82 -28 -152t-78.5 -121.5t-120.5 -83t-153 -35.5zM210 865 h44l65 -75l101 75h44l-1 -8l-131 -124h-36l-87 124z" />
<glyph unicode="&#x10f;" horiz-adv-x="490" d="M322 105q-12 -17 -30 -35t-41.5 -34.5t-50 -29.5t-54.5 -19q-22 4 -45 15t-41.5 31.5t-30 51t-11.5 73.5q0 57 20 111.5t53.5 96.5t77 68t90.5 26q34 0 58 -9.5t51 -30.5h3l29 181l4 79l85 12l-69 -378l-33 -197l-9 -112l-63 -10l11 110h-4zM159 50q48 10 92.5 46.5 t75.5 82.5l34 176q-20 20 -43 32.5t-53 12.5q-41 0 -73 -21t-54.5 -55.5t-34.5 -77.5t-12 -87q0 -50 19.5 -74.5t48.5 -34.5zM508 522v1l28 96l20 73h60v-4l-34 -85l-32 -81h-42z" />
<glyph unicode="&#x110;" horiz-adv-x="670" d="M28 -5l56 309l-95 -3l10 51l94 3l38 231l6 89l178 10q55 3 109 -12.5t97.5 -51t70.5 -91.5t27 -133q0 -82 -28 -152t-78.5 -121.5t-120.5 -83t-153 -35.5zM237 72q66 3 122 27t97 66t64 100.5t23 130.5q0 60 -19.5 102.5t-51.5 70t-73.5 39.5t-85.5 10l-101 -5l-49 -256 l164 5l-10 -51l-163 -5l-39 -240z" />
<glyph unicode="&#x111;" horiz-adv-x="490" d="M463 550l-43 -236l-33 -197l-9 -112l-63 -10l11 110h-4q-12 -17 -30 -35t-41.5 -34.5t-50 -29.5t-54.5 -19q-22 4 -45 15t-41.5 31.5t-30 51t-11.5 73.5q0 57 20 111.5t53.5 96.5t77 68t90.5 26q34 0 58 -9.5t51 -30.5h3l21 130h-119v52h127l4 78l85 12l-17 -90h50v-52 h-59zM159 50q48 10 92.5 46.5t75.5 82.5l34 176q-20 20 -43 32.5t-53 12.5q-41 0 -73 -21t-54.5 -55.5t-34.5 -77.5t-12 -87q0 -50 19.5 -74.5t48.5 -34.5z" />
<glyph unicode="&#x112;" horiz-adv-x="510" d="M497 618l-285 -8l-43 -227l260 10l-14 -68l-258 -10l-42 -251l300 8l-16 -67l-371 -10l62 335l40 248l7 97l376 10zM231 761v52h234v-52h-234z" />
<glyph unicode="&#x113;" horiz-adv-x="450" d="M389 264q-24 -18 -60.5 -32.5t-77 -23.5t-81.5 -12t-75 2q-4 -20 -4 -40q0 -55 27 -83.5t69 -28.5q38 0 75.5 14t59.5 35h3l23 -48q-14 -14 -33.5 -25t-42 -18.5t-45.5 -11.5t-44 -4q-35 0 -65 10.5t-52.5 31t-35 51t-12.5 71.5q0 66 20 122.5t52.5 98t74.5 64.5t86 23 q33 0 61 -11t48 -30t31 -45t11 -57q0 -12 -2.5 -24.5t-10.5 -28.5zM103 252q27 -3 60 -1.5t65 7t59.5 15.5t44.5 23q2 5 2 9v9q0 42 -25 65t-58 23q-27 0 -50.5 -11.5t-42.5 -32t-33 -48t-22 -58.5zM152 536v52h234v-52h-234z" />
<glyph unicode="&#x116;" horiz-adv-x="510" d="M497 618l-285 -8l-43 -227l260 10l-14 -68l-258 -10l-42 -251l300 8l-16 -67l-371 -10l62 335l40 248l7 97l376 10zM304 804q0 23 14.5 37.5t34.5 14.5t34.5 -14.5t14.5 -37.5q0 -20 -14.5 -35.5t-34.5 -15.5t-34.5 15.5t-14.5 35.5z" />
<glyph unicode="&#x117;" horiz-adv-x="450" d="M389 264q-24 -18 -60.5 -32.5t-77 -23.5t-81.5 -12t-75 2q-4 -20 -4 -40q0 -55 27 -83.5t69 -28.5q38 0 75.5 14t59.5 35h3l23 -48q-14 -14 -33.5 -25t-42 -18.5t-45.5 -11.5t-44 -4q-35 0 -65 10.5t-52.5 31t-35 51t-12.5 71.5q0 66 20 122.5t52.5 98t74.5 64.5t86 23 q33 0 61 -11t48 -30t31 -45t11 -57q0 -12 -2.5 -24.5t-10.5 -28.5zM103 252q27 -3 60 -1.5t65 7t59.5 15.5t44.5 23q2 5 2 9v9q0 42 -25 65t-58 23q-27 0 -50.5 -11.5t-42.5 -32t-33 -48t-22 -58.5zM225 588q0 23 14.5 37.5t34.5 14.5t34.5 -14.5t14.5 -37.5 q0 -20 -14.5 -35.5t-34.5 -15.5t-34.5 15.5t-14.5 35.5z" />
<glyph unicode="&#x118;" horiz-adv-x="510" d="M497 618l-285 -8l-43 -227l260 10l-14 -68l-258 -10l-42 -251l300 8l-16 -67l-15 -1q-27 -22 -45 -49t-18 -53q0 -46 38 -46q18 0 33 5v-54q-11 -4 -23.5 -5t-26.5 -1t-28.5 4.5t-26 14.5t-19 25.5t-7.5 38.5q0 32 19 63.5t49 55.5l-301 -8l62 335l40 248l7 97l376 10z " />
<glyph unicode="&#x119;" horiz-adv-x="450" d="M389 264q-24 -18 -60.5 -32.5t-77 -23.5t-81.5 -12t-75 2q-4 -20 -4 -40q0 -55 27 -83.5t69 -28.5q38 0 75.5 14t59.5 35h3l23 -48q-19 -19 -49 -33q-31 -23 -53 -53t-22 -59q0 -46 38 -46q18 0 33 5v-54q-11 -4 -23.5 -5t-26.5 -1t-28.5 4.5t-26 14.5t-19 25.5 t-7.5 38.5q0 28 15 56t39 51q-18 -3 -35 -3q-35 0 -65 10.5t-52.5 31t-35 51t-12.5 71.5q0 66 20 122.5t52.5 98t74.5 64.5t86 23q33 0 61 -11t48 -30t31 -45t11 -57q0 -12 -2.5 -24.5t-10.5 -28.5zM103 252q27 -3 60 -1.5t65 7t59.5 15.5t44.5 23q2 5 2 9v9q0 42 -25 65 t-58 23q-27 0 -50.5 -11.5t-42.5 -32t-33 -48t-22 -58.5z" />
<glyph unicode="&#x11a;" horiz-adv-x="510" d="M497 618l-285 -8l-43 -227l260 10l-14 -68l-258 -10l-42 -251l300 8l-16 -67l-371 -10l62 335l40 248l7 97l376 10zM242 865h44l65 -75l101 75h44l-1 -8l-131 -124h-36l-87 124z" />
<glyph unicode="&#x11b;" horiz-adv-x="450" d="M389 264q-24 -18 -60.5 -32.5t-77 -23.5t-81.5 -12t-75 2q-4 -20 -4 -40q0 -55 27 -83.5t69 -28.5q38 0 75.5 14t59.5 35h3l23 -48q-14 -14 -33.5 -25t-42 -18.5t-45.5 -11.5t-44 -4q-35 0 -65 10.5t-52.5 31t-35 51t-12.5 71.5q0 66 20 122.5t52.5 98t74.5 64.5t86 23 q33 0 61 -11t48 -30t31 -45t11 -57q0 -12 -2.5 -24.5t-10.5 -28.5zM103 252q27 -3 60 -1.5t65 7t59.5 15.5t44.5 23q2 5 2 9v9q0 42 -25 65t-58 23q-27 0 -50.5 -11.5t-42.5 -32t-33 -48t-22 -58.5zM166 674h44l61 -102l105 102h44l-1 -8l-137 -160h-36l-81 160z" />
<glyph unicode="&#x11e;" horiz-adv-x="710" d="M133 275q0 -48 15 -88t43.5 -69t69 -45t92.5 -16q49 0 96 16t75 40l30 177l-194 -8l12 68l268 10l-49 -288q-51 -40 -116 -62.5t-137 -22.5q-65 0 -117 23t-89 61.5t-56.5 89t-19.5 105.5q0 90 30.5 168t84 135.5t126.5 90.5t159 33q36 0 68 -8t59 -20t47.5 -26t34.5 -27 l-44 -58q-12 10 -27.5 22t-37 22.5t-49 17.5t-61.5 7q-55 0 -110.5 -21.5t-100 -65t-73 -109t-29.5 -152.5zM468 732q-23 0 -42.5 8t-32 24t-17 41t3.5 60h41q-4 -16 -2.5 -31t8.5 -27t18.5 -19t28.5 -7q36 0 66 23t39 61h41q-8 -35 -23.5 -60t-36.5 -41t-45 -24t-47 -8z " />
<glyph unicode="&#x11f;" horiz-adv-x="490" d="M164 58q21 4 44 15t44.5 26.5t40.5 35t33 41.5l31 177q-11 19 -37.5 33t-58.5 14t-63 -18t-55 -49t-38.5 -73.5t-14.5 -91.5q0 -46 21 -74.5t53 -35.5zM29 -114q19 -15 45.5 -24.5t64.5 -9.5q24 0 48.5 7.5t46.5 25.5t39.5 48.5t26.5 75.5l18 89h-4q-29 -37 -74.5 -64.5 t-90.5 -38.5q-57 11 -94 52t-37 111q0 55 19 109t51.5 97t76.5 69.5t94 26.5q31 0 59 -11t52 -34h5l10 36l60 -4l-42 -228l-36 -216q-10 -57 -33.5 -97t-55.5 -65t-68.5 -36.5t-71.5 -11.5q-51 0 -86 11t-55 28l30 54h2zM271 507q-24 0 -44.5 10t-34 30.5t-18 52t3.5 74.5 h41q-4 -22 -2.5 -43.5t9 -38t20.5 -26.5t31 -10q38 0 69 32t41 86h41q-8 -42 -24.5 -73.5t-38 -52.5t-46 -31t-48.5 -10z" />
<glyph unicode="&#x120;" horiz-adv-x="710" d="M133 275q0 -48 15 -88t43.5 -69t69 -45t92.5 -16q49 0 96 16t75 40l30 177l-194 -8l12 68l268 10l-49 -288q-51 -40 -116 -62.5t-137 -22.5q-65 0 -117 23t-89 61.5t-56.5 89t-19.5 105.5q0 90 30.5 168t84 135.5t126.5 90.5t159 33q36 0 68 -8t59 -20t47.5 -26t34.5 -27 l-44 -58q-12 10 -27.5 22t-37 22.5t-49 17.5t-61.5 7q-55 0 -110.5 -21.5t-100 -65t-73 -109t-29.5 -152.5zM431 804q0 23 14.5 37.5t34.5 14.5t34.5 -14.5t14.5 -37.5q0 -20 -14.5 -35.5t-34.5 -15.5t-34.5 15.5t-14.5 35.5z" />
<glyph unicode="&#x121;" horiz-adv-x="490" d="M164 58q21 4 44 15t44.5 26.5t40.5 35t33 41.5l31 177q-11 19 -37.5 33t-58.5 14t-63 -18t-55 -49t-38.5 -73.5t-14.5 -91.5q0 -46 21 -74.5t53 -35.5zM29 -114q19 -15 45.5 -24.5t64.5 -9.5q24 0 48.5 7.5t46.5 25.5t39.5 48.5t26.5 75.5l18 89h-4q-29 -37 -74.5 -64.5 t-90.5 -38.5q-57 11 -94 52t-37 111q0 55 19 109t51.5 97t76.5 69.5t94 26.5q31 0 59 -11t52 -34h5l10 36l60 -4l-42 -228l-36 -216q-10 -57 -33.5 -97t-55.5 -65t-68.5 -36.5t-71.5 -11.5q-51 0 -86 11t-55 28l30 54h2zM234 588q0 23 14.5 37.5t34.5 14.5t34.5 -14.5 t14.5 -37.5q0 -20 -14.5 -35.5t-34.5 -15.5t-34.5 15.5t-14.5 35.5z" />
<glyph unicode="&#x122;" horiz-adv-x="710" d="M133 275q0 -48 15 -88t43.5 -69t69 -45t92.5 -16q49 0 96 16t75 40l30 177l-194 -8l12 68l268 10l-49 -288q-51 -40 -116 -62.5t-137 -22.5q-65 0 -117 23t-89 61.5t-56.5 89t-19.5 105.5q0 90 30.5 168t84 135.5t126.5 90.5t159 33q36 0 68 -8t59 -20t47.5 -26t34.5 -27 l-44 -58q-12 10 -27.5 22t-37 22.5t-49 17.5t-61.5 7q-55 0 -110.5 -21.5t-100 -65t-73 -109t-29.5 -152.5zM242 -217v1l38 86l25 68h60v-4l-39 -80l-42 -71h-42z" />
<glyph unicode="&#x123;" horiz-adv-x="490" d="M164 58q21 4 44 15t44.5 26.5t40.5 35t33 41.5l31 177q-11 19 -37.5 33t-58.5 14t-63 -18t-55 -49t-38.5 -73.5t-14.5 -91.5q0 -46 21 -74.5t53 -35.5zM29 -114q19 -15 45.5 -24.5t64.5 -9.5q24 0 48.5 7.5t46.5 25.5t39.5 48.5t26.5 75.5l18 89h-4q-29 -37 -74.5 -64.5 t-90.5 -38.5q-57 11 -94 52t-37 111q0 55 19 109t51.5 97t76.5 69.5t94 26.5q31 0 59 -11t52 -34h5l10 36l60 -4l-42 -228l-36 -216q-10 -57 -33.5 -97t-55.5 -65t-68.5 -36.5t-71.5 -11.5q-51 0 -86 11t-55 28l30 54h2zM361 694v-1l-38 -96l-25 -73h-64v4l39 85l42 81h46z " />
<glyph unicode="&#x126;" horiz-adv-x="690" d="M671 496l-44 -2l-31 -164l-35 -230l-7 -95l-88 -10l61 330l-368 -10l-35 -219l-6 -91l-88 -10l66 350l21 133l-58 -2l10 57l57 2l8 52l5 88l88 10l-28 -148l364 12l4 27l8 99l88 10l-25 -134l43 2zM539 393l15 99l-365 -12l-18 -97z" />
<glyph unicode="&#x127;" horiz-adv-x="480" d="M151 394q31 28 71 47t80 19q27 0 50 -10t38 -30t20.5 -49.5t-1.5 -69.5l-39 -224l-3 -72l-80 -10l51 298q5 28 1 48t-14 32t-24 17.5t-29 5.5q-34 0 -70 -18t-67 -49l-44 -244l-4 -80l-80 -10l63 352l31 188h-57v52h66l1 4l5 89l83 12l-19 -105h113v-52h-122l-25 -141h5z " />
<glyph unicode="&#x12a;" horiz-adv-x="270" d="M175 347l-38 -240l-8 -102l-88 -10l65 346l38 242l6 92l88 10zM91 761v52h234v-52h-234z" />
<glyph unicode="&#x12b;" horiz-adv-x="230" d="M172 452l-64 -362l-5 -85l-80 -10l64 368l4 80zM27 536v52h234v-52h-234z" />
<glyph unicode="&#x12e;" horiz-adv-x="270" d="M175 347l-38 -240l-8 -102l-27 -3q-26 -23 -43 -48.5t-17 -51.5q0 -46 38 -46q18 0 33 5v-54q-11 -4 -23.5 -5t-26.5 -1t-28.5 4.5t-26 14.5t-19 25.5t-7.5 38.5q0 29 16.5 59t42.5 53l65 345l38 242l6 92l88 10z" />
<glyph unicode="&#x12f;" horiz-adv-x="230" d="M172 452l-64 -362l-5 -85l-22 -3q-26 -22 -43 -48t-17 -52q0 -46 38 -46q18 0 33 5v-54q-11 -4 -23.5 -5t-26.5 -1t-28.5 4.5t-26 14.5t-19 25.5t-7.5 38.5q0 30 17.5 60.5t44.5 54.5l64 364l4 80zM114 629q0 23 14.5 37.5t34.5 14.5t34.5 -14.5t14.5 -37.5 q0 -20 -14.5 -35.5t-34.5 -15.5t-34.5 15.5t-14.5 35.5z" />
<glyph unicode="&#x130;" horiz-adv-x="270" d="M175 347l-38 -240l-8 -102l-88 -10l65 346l38 242l6 92l88 10zM164 804q0 23 14.5 37.5t34.5 14.5t34.5 -14.5t14.5 -37.5q0 -20 -14.5 -35.5t-34.5 -15.5t-34.5 15.5t-14.5 35.5z" />
<glyph unicode="&#x131;" horiz-adv-x="230" d="M172 452l-64 -362l-5 -85l-80 -10l64 368l4 80z" />
<glyph unicode="&#x136;" horiz-adv-x="600" d="M152 283l-36 -219l-1 -59l-85 -10l59 328l48 283l2 69l85 10l-59 -325h7l381 331l57 -30l-2 -7l-354 -308l266 -320l-2 -8l-60 -27l-271 323zM170 -217v1l38 86l25 68h60v-4l-39 -80l-42 -71h-42z" />
<glyph unicode="&#x137;" horiz-adv-x="440" d="M419 420l-207 -179v-1l159 -220l-1 -3l-59 -28l-155 219l-51 -42l-13 -85l-4 -76l-81 -10l59 335l45 264l5 86l84 12l-82 -450h4l252 216l45 -35v-3zM90 -217v1l38 86l25 68h60v-4l-39 -80l-42 -71h-42z" />
<glyph unicode="&#x139;" horiz-adv-x="490" d="M162 336l-45 -272l298 13l-11 -67l-374 -15l62 344l42 257l4 79l87 10zM138 741l121 124h78l-2 -10l-151 -122h-47z" />
<glyph unicode="&#x13a;" horiz-adv-x="230" d="M222 691l-66 -348l-42 -246l-6 -92l-83 -10l66 364l37 225l7 96zM130 742l121 124h78l-2 -10l-151 -122h-47z" />
<glyph unicode="&#x13b;" horiz-adv-x="490" d="M162 336l-45 -272l298 13l-11 -67l-374 -15l62 344l42 257l4 79l87 10zM128 -217v1l38 86l25 68h60v-4l-39 -80l-42 -71h-42z" />
<glyph unicode="&#x13c;" horiz-adv-x="230" d="M222 691l-66 -348l-42 -246l-6 -92l-83 -10l66 364l37 225l7 96zM-26 -217v1l38 86l25 68h60v-4l-39 -80l-42 -71h-42z" />
<glyph unicode="&#x13d;" horiz-adv-x="490" d="M162 336l-45 -272l298 13l-11 -67l-374 -15l62 344l42 257l4 79l87 10zM298 514v1l28 96l20 73h60v-4l-34 -85l-32 -81h-42z" />
<glyph unicode="&#x13e;" horiz-adv-x="230" d="M222 691l-66 -348l-42 -246l-6 -92l-83 -10l66 364l37 225l7 96zM241 522v1l28 96l20 73h60v-4l-34 -85l-32 -81h-42z" />
<glyph unicode="&#x13f;" horiz-adv-x="550" d="M162 336l-45 -272l298 13l-11 -67l-374 -15l62 344l42 257l4 79l87 10zM394 323q0 23 15.5 38.5t38.5 15.5q22 0 38 -15.5t16 -38.5t-16 -38t-38 -15q-23 0 -38.5 15t-15.5 38z" />
<glyph unicode="&#x140;" horiz-adv-x="380" d="M222 691l-66 -348l-42 -246l-6 -92l-83 -10l66 364l37 225l7 96zM245 253q0 23 15.5 38.5t38.5 15.5q22 0 38 -15.5t16 -38.5t-16 -38t-38 -15q-23 0 -38.5 15t-15.5 38z" />
<glyph unicode="&#x141;" horiz-adv-x="490" d="M164 346l174 115l25 -38l-210 -138l-36 -221l298 13l-11 -67l-374 -15l42 236l-59 -39l-25 38l95 63l9 46l42 257l4 79l87 10z" />
<glyph unicode="&#x142;" horiz-adv-x="230" d="M222 691l-53 -277l55 37l25 -38l-92 -62l-1 -8l-42 -246l-6 -92l-83 -10l55 304l-55 -37l-25 38l91 61l37 223l7 96z" />
<glyph unicode="&#x143;" horiz-adv-x="750" d="M548 144l9 2l78 442l5 87l83 10l-64 -351l-56 -335l-28 -8l-371 544l-8 -2l-75 -427l-8 -101l-84 -10l69 375l52 311l28 8zM390 741l121 124h78l-2 -10l-151 -122h-47z" />
<glyph unicode="&#x144;" horiz-adv-x="480" d="M145 389q35 32 75 51.5t80 19.5q60 0 92 -39t18 -119l-39 -220l-4 -77l-80 -10l51 296q5 31 1.5 51t-13.5 32t-25 17t-32 5q-35 0 -71 -20t-63 -52l-43 -235l-5 -84l-80 -10l63 364l5 84l68 10l-2 -64h4zM223 514l121 160h75l-1 -10l-149 -158h-47z" />
<glyph unicode="&#x145;" horiz-adv-x="750" d="M548 144l9 2l78 442l5 87l83 10l-64 -351l-56 -335l-28 -8l-371 544l-8 -2l-75 -427l-8 -101l-84 -10l69 375l52 311l28 8zM222 -217v1l38 86l25 68h60v-4l-39 -80l-42 -71h-42z" />
<glyph unicode="&#x146;" horiz-adv-x="480" d="M145 389q35 32 75 51.5t80 19.5q60 0 92 -39t18 -119l-39 -220l-4 -77l-80 -10l51 296q5 31 1.5 51t-13.5 32t-25 17t-32 5q-35 0 -71 -20t-63 -52l-43 -235l-5 -84l-80 -10l63 364l5 84l68 10l-2 -64h4zM92 -217v1l38 86l25 68h60v-4l-39 -80l-42 -71h-42z" />
<glyph unicode="&#x147;" horiz-adv-x="750" d="M548 144l9 2l78 442l5 87l83 10l-64 -351l-56 -335l-28 -8l-371 544l-8 -2l-75 -427l-8 -101l-84 -10l69 375l52 311l28 8zM345 865h44l65 -75l101 75h44l-1 -8l-131 -124h-36l-87 124z" />
<glyph unicode="&#x148;" horiz-adv-x="480" d="M145 389q35 32 75 51.5t80 19.5q60 0 92 -39t18 -119l-39 -220l-4 -77l-80 -10l51 296q5 31 1.5 51t-13.5 32t-25 17t-32 5q-35 0 -71 -20t-63 -52l-43 -235l-5 -84l-80 -10l63 364l5 84l68 10l-2 -64h4zM175 674h44l61 -102l105 102h44l-1 -8l-137 -160h-36l-81 160z " />
<glyph unicode="&#x14c;" horiz-adv-x="770" d="M724 406q0 -85 -29.5 -161t-81.5 -133.5t-123.5 -91t-155.5 -33.5q-62 0 -113 22t-87.5 60.5t-57 89.5t-20.5 109q0 99 34.5 178t90 134t126 84t142.5 29q53 0 102.5 -20t88 -57t61.5 -90t23 -120zM647 401q-1 50 -16 91t-42 70t-65 45t-86 16q-55 0 -109.5 -24 t-97.5 -68.5t-70 -108.5t-27 -144q0 -46 13.5 -86.5t39.5 -70.5t65.5 -47t91.5 -17q67 0 123.5 28.5t96.5 76.5t62 110t21 129zM353 761v52h234v-52h-234z" />
<glyph unicode="&#x14d;" horiz-adv-x="490" d="M432 274q0 -61 -19 -113t-51.5 -90.5t-77 -60.5t-95.5 -22q-37 0 -68.5 13.5t-54 37.5t-35.5 58t-13 76q0 57 19 109t52 91.5t77 63t93 23.5q41 0 73 -13.5t54.5 -38t34 -59t11.5 -75.5zM360 272q0 59 -28 94.5t-79 35.5q-32 0 -61 -18t-51.5 -49t-36 -73t-13.5 -89 q0 -58 27.5 -92.5t76.5 -34.5q37 0 68 19.5t53 51t33.5 72t10.5 83.5zM155 536v52h234v-52h-234z" />
<glyph unicode="&#x150;" horiz-adv-x="770" d="M724 406q0 -85 -29.5 -161t-81.5 -133.5t-123.5 -91t-155.5 -33.5q-62 0 -113 22t-87.5 60.5t-57 89.5t-20.5 109q0 99 34.5 178t90 134t126 84t142.5 29q53 0 102.5 -20t88 -57t61.5 -90t23 -120zM647 401q-1 50 -16 91t-42 70t-65 45t-86 16q-55 0 -109.5 -24 t-97.5 -68.5t-70 -108.5t-27 -144q0 -46 13.5 -86.5t39.5 -70.5t65.5 -47t91.5 -17q67 0 123.5 28.5t96.5 76.5t62 110t21 129zM359 741l116 124h83l-2 -10l-151 -122h-47zM489 741l116 124h83l-2 -10l-151 -122h-47z" />
<glyph unicode="&#x151;" horiz-adv-x="490" d="M432 274q0 -61 -19 -113t-51.5 -90.5t-77 -60.5t-95.5 -22q-37 0 -68.5 13.5t-54 37.5t-35.5 58t-13 76q0 57 19 109t52 91.5t77 63t93 23.5q41 0 73 -13.5t54.5 -38t34 -59t11.5 -75.5zM360 272q0 59 -28 94.5t-79 35.5q-32 0 -61 -18t-51.5 -49t-36 -73t-13.5 -89 q0 -58 27.5 -92.5t76.5 -34.5q37 0 68 19.5t53 51t33.5 72t10.5 83.5zM175 514l121 160h75l-1 -10l-149 -158h-47zM296 514l121 160h75l-1 -10l-149 -158h-47z" />
<glyph unicode="&#x152;" horiz-adv-x="920" d="M907 618l-285 -8l-43 -227l260 10l-14 -68l-258 -10l-42 -251l300 8l-16 -67l-358 -9q-56 -9 -117 -9q-62 0 -113 22t-87.5 60.5t-57 89.5t-20.5 109q0 99 34.5 178t90 134t126 84t142.5 29q49 0 98 -19v1l376 10zM344 57q29 0 55.5 2.5t51.5 7.5l49 263l40 248l1 21 q-22 11 -48 17.5t-55 6.5q-55 0 -109.5 -24t-97.5 -68.5t-70 -108.5t-27 -144q0 -46 13.5 -86.5t39.5 -70.5t65.5 -47t91.5 -17z" />
<glyph unicode="&#x153;" horiz-adv-x="770" d="M709 264q-24 -18 -59.5 -32.5t-75.5 -23.5t-80.5 -12t-74.5 2q-3 -11 -3.5 -20t-0.5 -20q0 -55 26 -83.5t68 -28.5q38 0 74.5 14t58.5 35h3l23 -48q-14 -14 -33.5 -25t-41 -18.5t-44.5 -11.5t-44 -4q-53 0 -91 25t-55 72q-32 -44 -75 -70.5t-97 -26.5q-37 0 -68 13.5 t-53.5 37.5t-35 58t-12.5 76q0 57 19 109t51.5 91.5t76 63t92.5 23.5q57 0 95 -27.5t54 -73.5q32 51 75.5 76t91.5 25q33 0 60.5 -11t47 -30t30.5 -45t11 -57q0 -12 -2.5 -24.5t-10.5 -28.5zM356 272q0 59 -27 94.5t-78 35.5q-32 0 -61 -18t-51 -49t-35 -73t-13 -89 q0 -58 26.5 -92.5t75.5 -34.5q37 0 67.5 19.5t52 51t33 72t10.5 83.5zM427 252q27 -3 59.5 -1.5t63.5 7t58 15.5t44 23q2 5 2 9v9q0 42 -24 65t-57 23q-27 0 -50 -11.5t-41.5 -32t-32.5 -48t-22 -58.5z" />
<glyph unicode="&#x154;" horiz-adv-x="570" d="M446 512q0 51 -36 81.5t-99 25.5l-103 -7l-48 -263l104 9q33 3 66 12t58.5 27.5t41.5 46.5t16 68zM518 515q0 -86 -58.5 -141.5t-161.5 -72.5l193 -278l-2 -8l-59 -28l-206 306l-75 -7l-33 -201l-4 -80l-84 -10l63 346l44 253l4 81l170 10q47 3 85.5 -8.5t66 -34 t42.5 -55t15 -72.5zM248 741l121 124h78l-2 -10l-151 -122h-47z" />
<glyph unicode="&#x155;" horiz-adv-x="320" d="M298 456q7 0 11 -0.5t9 -1.5l-13 -75h-25q-22 -2 -46 -14t-46 -32t-40.5 -47.5t-30.5 -59.5l-26 -142l-4 -79l-80 -10l65 373l3 75l66 10l-12 -110h7q28 48 70.5 80t91.5 33zM139 514l121 160h75l-1 -10l-149 -158h-47z" />
<glyph unicode="&#x158;" horiz-adv-x="570" d="M446 512q0 51 -36 81.5t-99 25.5l-103 -7l-48 -263l104 9q33 3 66 12t58.5 27.5t41.5 46.5t16 68zM518 515q0 -86 -58.5 -141.5t-161.5 -72.5l193 -278l-2 -8l-59 -28l-206 306l-75 -7l-33 -201l-4 -80l-84 -10l63 346l44 253l4 81l170 10q47 3 85.5 -8.5t66 -34 t42.5 -55t15 -72.5zM203 865h44l65 -75l101 75h44l-1 -8l-131 -124h-36l-87 124z" />
<glyph unicode="&#x159;" horiz-adv-x="320" d="M298 456q7 0 11 -0.5t9 -1.5l-13 -75h-25q-22 -2 -46 -14t-46 -32t-40.5 -47.5t-30.5 -59.5l-26 -142l-4 -79l-80 -10l65 373l3 75l66 10l-12 -110h7q28 48 70.5 80t91.5 33zM91 674h44l61 -102l105 102h44l-1 -8l-137 -160h-36l-81 160z" />
<glyph unicode="&#x15a;" horiz-adv-x="510" d="M48 126q27 -32 65 -50.5t94 -18.5q36 0 63.5 10.5t46 28t28 40.5t9.5 48q0 36 -19 62.5t-47 48.5t-61 42t-61 44t-47 54t-19 71q0 33 14 66t41 60t67.5 44t93.5 17q63 0 106 -22t66 -46l-41 -60q-25 27 -58 42.5t-75 15.5q-63 0 -100 -30.5t-37 -79.5q0 -31 19 -54.5 t47 -44t61 -42t61 -47t47 -59t19 -79.5q0 -50 -19.5 -87.5t-51.5 -62.5t-73.5 -37.5t-84.5 -12.5q-77 0 -128 24.5t-73 56.5zM280 741l121 124h78l-2 -10l-151 -122h-47z" />
<glyph unicode="&#x15b;" horiz-adv-x="370" d="M302 344q-26 29 -51.5 43.5t-54.5 14.5q-35 0 -55.5 -18t-20.5 -47q0 -21 12.5 -36.5t31.5 -29t41 -27t41 -30.5t31.5 -39t12.5 -52q0 -31 -13 -56t-35.5 -42.5t-52.5 -27t-64 -9.5q-47 0 -84 17.5t-57 42.5l40 49q22 -23 46.5 -36t60.5 -13t63.5 17t27.5 52 q0 22 -12.5 38t-31.5 29.5t-41 26.5t-41 30t-31.5 39t-12.5 54q0 24 10.5 46.5t30 40t46.5 28.5t60 11q47 0 82.5 -19.5t59.5 -48.5zM168 514l121 160h75l-1 -10l-149 -158h-47z" />
<glyph unicode="&#x15e;" horiz-adv-x="510" d="M105 -185q47 6 77.5 22.5t30.5 41.5q0 18 -20.5 26.5t-53.5 8.5q-6 0 -15.5 -0.5t-14.5 -1.5l-4 7l54 71q-60 7 -99.5 29t-58.5 49l47 58q27 -32 65 -50.5t94 -18.5q36 0 63.5 10.5t46 28t28 40.5t9.5 48q0 36 -19 62.5t-47 48.5t-61 42t-61 44t-47 54t-19 71q0 33 14 66 t41 60t67.5 44t93.5 17q63 0 106 -22t66 -46l-41 -60q-25 27 -58 42.5t-75 15.5q-63 0 -100 -30.5t-37 -79.5q0 -31 19 -54.5t47 -44t61 -42t61 -47t47 -59t19 -79.5q0 -50 -19 -87t-50.5 -62t-72.5 -38t-84 -13l-29 -39q38 0 63.5 -15.5t25.5 -47.5q0 -20 -13.5 -37.5 t-35.5 -31t-50.5 -23t-58.5 -13.5z" />
<glyph unicode="&#x15f;" horiz-adv-x="370" d="M28 -185q47 6 77.5 22.5t30.5 41.5q0 18 -20.5 26.5t-53.5 8.5q-6 0 -15.5 -0.5t-14.5 -1.5l-4 7l56 73q-33 6 -59 21t-41 35l40 49q22 -23 46.5 -36t60.5 -13t63.5 17t27.5 52q0 22 -12.5 38t-31.5 29.5t-41 26.5t-41 30t-31.5 39t-12.5 54q0 24 10.5 46.5t30 40 t46.5 28.5t60 11q47 0 82.5 -19.5t59.5 -48.5l-39 -48q-26 29 -51.5 43.5t-54.5 14.5q-35 0 -55.5 -18t-20.5 -47q0 -21 12.5 -36.5t31.5 -29t41 -27t41 -30.5t31.5 -39t12.5 -52t-12.5 -55t-34.5 -42.5t-51.5 -27t-62.5 -10.5l-30 -40q38 0 63.5 -15.5t25.5 -47.5 q0 -20 -13.5 -37.5t-35.5 -31t-50.5 -23t-58.5 -13.5z" />
<glyph unicode="&#x160;" horiz-adv-x="510" d="M48 126q27 -32 65 -50.5t94 -18.5q36 0 63.5 10.5t46 28t28 40.5t9.5 48q0 36 -19 62.5t-47 48.5t-61 42t-61 44t-47 54t-19 71q0 33 14 66t41 60t67.5 44t93.5 17q63 0 106 -22t66 -46l-41 -60q-25 27 -58 42.5t-75 15.5q-63 0 -100 -30.5t-37 -79.5q0 -31 19 -54.5 t47 -44t61 -42t61 -47t47 -59t19 -79.5q0 -50 -19.5 -87.5t-51.5 -62.5t-73.5 -37.5t-84.5 -12.5q-77 0 -128 24.5t-73 56.5zM235 865h44l65 -75l101 75h44l-1 -8l-131 -124h-36l-87 124z" />
<glyph unicode="&#x161;" horiz-adv-x="370" d="M302 344q-26 29 -51.5 43.5t-54.5 14.5q-35 0 -55.5 -18t-20.5 -47q0 -21 12.5 -36.5t31.5 -29t41 -27t41 -30.5t31.5 -39t12.5 -52q0 -31 -13 -56t-35.5 -42.5t-52.5 -27t-64 -9.5q-47 0 -84 17.5t-57 42.5l40 49q22 -23 46.5 -36t60.5 -13t63.5 17t27.5 52 q0 22 -12.5 38t-31.5 29.5t-41 26.5t-41 30t-31.5 39t-12.5 54q0 24 10.5 46.5t30 40t46.5 28.5t60 11q47 0 82.5 -19.5t59.5 -48.5zM120 674h44l61 -102l105 102h44l-1 -8l-137 -160h-36l-81 160z" />
<glyph unicode="&#x162;" horiz-adv-x="560" d="M373 614l-56 -297l-38 -231l-4 -81l-88 -10l63 338l45 279l-218 -4l11 67l509 10l-11 -67zM136 -217v1l38 86l25 68h60v-4l-39 -80l-42 -71h-42z" />
<glyph unicode="&#x163;" horiz-adv-x="310" d="M236 604l-30 -157l107 1l-10 -53l-106 -9l-54 -305l-3 -76l-80 -10l69 397l-95 -1l8 45l98 14l14 130zM8 -217v1l38 86l25 68h60v-4l-39 -80l-42 -71h-42z" />
<glyph unicode="&#x164;" horiz-adv-x="560" d="M373 614l-56 -297l-38 -231l-4 -81l-88 -10l63 338l45 279l-218 -4l11 67l509 10l-11 -67zM249 865h44l65 -75l101 75h44l-1 -8l-131 -124h-36l-87 124z" />
<glyph unicode="&#x165;" horiz-adv-x="310" d="M236 604l-30 -157l107 1l-10 -53l-106 -9l-54 -305l-3 -76l-80 -10l69 397l-95 -1l8 45l98 14l14 130zM288 522v1l28 96l20 73h60v-4l-34 -85l-32 -81h-42z" />
<glyph unicode="&#x16a;" horiz-adv-x="690" d="M584 242q-10 -57 -33 -104t-59 -80.5t-85.5 -52t-113.5 -18.5q-74 0 -120.5 22.5t-70.5 58.5t-29.5 80.5t2.5 88.5l64 357l4 81l83 10l-77 -431q-9 -54 -3 -91.5t26 -61t52 -34t75 -10.5q41 0 76.5 10.5t63.5 34t47.5 61t28.5 91.5l59 339l5 82l83 10zM292 761v52h234 v-52h-234z" />
<glyph unicode="&#x16b;" horiz-adv-x="480" d="M297 59q-30 -29 -70 -50t-90 -21q-26 0 -48.5 11t-37 32.5t-20 55t2.5 78.5l34 197l4 81l80 10l-49 -291q-5 -31 -3 -52t10 -34t21.5 -19t31.5 -6q22 0 43.5 7t40.5 18.5t35 27t26 33.5l38 217l6 89l80 10l-62 -357l-6 -91l-66 -10l3 64h-4zM153 536v52h234v-52h-234z " />
<glyph unicode="&#x16e;" horiz-adv-x="690" d="M584 242q-10 -57 -33 -104t-59 -80.5t-85.5 -52t-113.5 -18.5q-74 0 -120.5 22.5t-70.5 58.5t-29.5 80.5t2.5 88.5l64 357l4 81l83 10l-77 -431q-9 -54 -3 -91.5t26 -61t52 -34t75 -10.5q41 0 76.5 10.5t63.5 34t47.5 61t28.5 91.5l59 339l5 82l83 10zM323 821 q0 19 7.5 36.5t20 30t29.5 20t37 7.5q19 0 36.5 -7.5t30 -20t20 -30t7.5 -36.5q0 -20 -7.5 -37t-20 -29.5t-30 -20t-36.5 -7.5q-20 0 -37 7.5t-29.5 20t-20 29.5t-7.5 37zM363 821q0 -26 14.5 -41.5t38.5 -15.5q23 0 38.5 16t15.5 41t-15.5 41.5t-38.5 16.5q-24 0 -38.5 -17 t-14.5 -41z" />
<glyph unicode="&#x16f;" horiz-adv-x="480" d="M297 59q-30 -29 -70 -50t-90 -21q-26 0 -48.5 11t-37 32.5t-20 55t2.5 78.5l34 197l4 81l80 10l-49 -291q-5 -31 -3 -52t10 -34t21.5 -19t31.5 -6q22 0 43.5 7t40.5 18.5t35 27t26 33.5l38 217l6 89l80 10l-62 -357l-6 -91l-66 -10l3 64h-4zM184 596q0 19 7.5 36.5t20 30 t29.5 20t37 7.5q19 0 36.5 -7.5t30 -20t20 -30t7.5 -36.5q0 -20 -7.5 -37t-20 -29.5t-30 -20t-36.5 -7.5q-20 0 -37 7.5t-29.5 20t-20 29.5t-7.5 37zM224 596q0 -26 14.5 -41.5t38.5 -15.5q23 0 38.5 16t15.5 41t-15.5 41.5t-38.5 16.5q-24 0 -38.5 -17t-14.5 -41z" />
<glyph unicode="&#x170;" horiz-adv-x="690" d="M584 242q-10 -57 -33 -104t-59 -80.5t-85.5 -52t-113.5 -18.5q-74 0 -120.5 22.5t-70.5 58.5t-29.5 80.5t2.5 88.5l64 357l4 81l83 10l-77 -431q-9 -54 -3 -91.5t26 -61t52 -34t75 -10.5q41 0 76.5 10.5t63.5 34t47.5 61t28.5 91.5l59 339l5 82l83 10zM298 741l116 124 h83l-2 -10l-151 -122h-47zM428 741l116 124h83l-2 -10l-151 -122h-47z" />
<glyph unicode="&#x171;" horiz-adv-x="480" d="M297 59q-30 -29 -70 -50t-90 -21q-26 0 -48.5 11t-37 32.5t-20 55t2.5 78.5l34 197l4 81l80 10l-49 -291q-5 -31 -3 -52t10 -34t21.5 -19t31.5 -6q22 0 43.5 7t40.5 18.5t35 27t26 33.5l38 217l6 89l80 10l-62 -357l-6 -91l-66 -10l3 64h-4zM173 514l121 160h75l-1 -10 l-149 -158h-47zM294 514l121 160h75l-1 -10l-149 -158h-47z" />
<glyph unicode="&#x172;" horiz-adv-x="690" d="M584 242q-14 -78 -51.5 -137t-101.5 -89q-32 -24 -54.5 -54.5t-22.5 -59.5q0 -46 38 -46q18 0 33 5v-54q-11 -4 -23.5 -5t-26.5 -1t-28.5 4.5t-26 14.5t-19 25.5t-7.5 38.5q0 28 15 56t39 51q-13 -2 -27 -3t-28 -1q-74 0 -120.5 22.5t-70.5 58.5t-29.5 80.5t2.5 88.5 l64 357l4 81l83 10l-77 -431q-9 -54 -3 -91.5t26 -61t52 -34t75 -10.5q41 0 76.5 10.5t63.5 34t47.5 61t28.5 91.5l59 339l5 82l83 10z" />
<glyph unicode="&#x173;" horiz-adv-x="480" d="M297 59q-30 -29 -70 -50t-90 -21q-26 0 -48.5 11t-37 32.5t-20 55t2.5 78.5l34 197l4 81l80 10l-49 -291q-5 -31 -3 -52t10 -34t21.5 -19t31.5 -6q22 0 43.5 7t40.5 18.5t35 27t26 33.5l38 217l6 89l80 10l-62 -357l-6 -91l-20 -3q-26 -23 -43 -48.5t-17 -51.5 q0 -46 38 -46q18 0 33 5v-54q-11 -4 -23.5 -5t-26.5 -1t-28.5 4.5t-26 14.5t-19 25.5t-7.5 38.5q0 33 21 66.5t53 57.5l3 51h-4z" />
<glyph unicode="&#x174;" horiz-adv-x="870" d="M909 666l-386 -679h-26l-27 519h-7l-272 -519h-26l-87 684l71 16l58 -518h8l277 522h26l33 -522h8l283 518l66 -15zM642 733h-44l-65 75l-101 -75h-44l1 8l131 124h36l87 -124z" />
<glyph unicode="&#x175;" horiz-adv-x="640" d="M306 302l-178 -314h-24l-60 452l63 15l38 -318h4l182 318h24l23 -318h4l190 318l64 -15l-280 -452h-24l-21 314h-5zM470 506h-44l-61 102l-105 -102h-44l1 8l137 160h36l81 -160z" />
<glyph unicode="&#x176;" horiz-adv-x="590" d="M296 373h7l257 314l72 -16l-306 -368l-43 -239v-59l-83 -10l53 308l-175 368l70 16zM489 733h-44l-65 75l-101 -75h-44l1 8l131 124h36l87 -124z" />
<glyph unicode="&#x177;" horiz-adv-x="440" d="M119 -92q-20 -35 -39 -63t-37 -42l-72 -10l-2 32q39 21 78.5 78t78.5 141l-83 396l65 15l69 -331h3l190 331l65 -15zM364 506h-44l-61 102l-105 -102h-44l1 8l137 160h36l81 -160z" />
<glyph unicode="&#x178;" horiz-adv-x="590" d="M296 373h7l257 314l72 -16l-306 -368l-43 -239v-59l-83 -10l53 308l-175 368l70 16zM487 785q0 -17 -13.5 -30t-30.5 -13t-31 13t-14 30t14 30.5t31 13.5q16 0 30 -13.5t14 -30.5zM326 785q0 -17 -13 -30t-32 -13q-17 0 -31 13t-14 30t14 30.5t31 13.5q19 0 32 -13.5 t13 -30.5z" />
<glyph unicode="&#x179;" horiz-adv-x="590" d="M106 66l399 16l-11 -67l-527 -20l-5 12l526 602l-2 6l-378 -17l11 67l508 20l5 -8l-530 -606zM325 741l121 124h78l-2 -10l-151 -122h-47z" />
<glyph unicode="&#x17a;" horiz-adv-x="420" d="M-30 6l312 379l-2 3l-223 -14l10 59l336 20l3 -6l-316 -386l1 -2l243 15l-10 -59l-348 -20zM193 514l121 160h75l-1 -10l-149 -158h-47z" />
<glyph unicode="&#x17b;" horiz-adv-x="590" d="M106 66l399 16l-11 -67l-527 -20l-5 12l526 602l-2 6l-378 -17l11 67l508 20l5 -8l-530 -606zM342 804q0 23 14.5 37.5t34.5 14.5t34.5 -14.5t14.5 -37.5q0 -20 -14.5 -35.5t-34.5 -15.5t-34.5 15.5t-14.5 35.5z" />
<glyph unicode="&#x17c;" horiz-adv-x="420" d="M-30 6l312 379l-2 3l-223 -14l10 59l336 20l3 -6l-316 -386l1 -2l243 15l-10 -59l-348 -20zM204 588q0 23 14.5 37.5t34.5 14.5t34.5 -14.5t14.5 -37.5q0 -20 -14.5 -35.5t-34.5 -15.5t-34.5 15.5t-14.5 35.5z" />
<glyph unicode="&#x17d;" horiz-adv-x="590" d="M106 66l399 16l-11 -67l-527 -20l-5 12l526 602l-2 6l-378 -17l11 67l508 20l5 -8l-530 -606zM280 865h44l65 -75l101 75h44l-1 -8l-131 -124h-36l-87 124z" />
<glyph unicode="&#x17e;" horiz-adv-x="420" d="M-30 6l312 379l-2 3l-223 -14l10 59l336 20l3 -6l-316 -386l1 -2l243 15l-10 -59l-348 -20zM145 674h44l61 -102l105 102h44l-1 -8l-137 -160h-36l-81 160z" />
<glyph unicode="&#x192;" horiz-adv-x="530" d="M108 415h94l25 100q7 30 22.5 62t39.5 58t55.5 43t70.5 17q57 0 91 -22t34 -51q0 -19 -10.5 -33t-34.5 -14q-19 0 -28.5 11t-17 24.5t-17.5 25t-31 11.5q-36 0 -56.5 -38.5t-38.5 -100.5l-26 -93h120l-14 -49h-117l-88 -327q-11 -41 -26 -75.5t-35.5 -59.5t-45 -39.5 t-53.5 -14.5q-40 0 -69 19t-29 50q0 18 10 31.5t27 13.5q15 0 24.5 -10.5t17.5 -23.5t16 -23.5t20 -10.5q13 0 24 15t19.5 36t15 43t10.5 36l86 340h-99z" />
<glyph unicode="&#x218;" horiz-adv-x="510" d="M48 126q27 -32 65 -50.5t94 -18.5q36 0 63.5 10.5t46 28t28 40.5t9.5 48q0 36 -19 62.5t-47 48.5t-61 42t-61 44t-47 54t-19 71q0 33 14 66t41 60t67.5 44t93.5 17q63 0 106 -22t66 -46l-41 -60q-25 27 -58 42.5t-75 15.5q-63 0 -100 -30.5t-37 -79.5q0 -31 19 -54.5 t47 -44t61 -42t61 -47t47 -59t19 -79.5q0 -50 -19.5 -87.5t-51.5 -62.5t-73.5 -37.5t-84.5 -12.5q-77 0 -128 24.5t-73 56.5zM101 -217v1l38 86l25 68h60v-4l-39 -80l-42 -71h-42z" />
<glyph unicode="&#x219;" horiz-adv-x="370" d="M302 344q-26 29 -51.5 43.5t-54.5 14.5q-35 0 -55.5 -18t-20.5 -47q0 -21 12.5 -36.5t31.5 -29t41 -27t41 -30.5t31.5 -39t12.5 -52q0 -31 -13 -56t-35.5 -42.5t-52.5 -27t-64 -9.5q-47 0 -84 17.5t-57 42.5l40 49q22 -23 46.5 -36t60.5 -13t63.5 17t27.5 52 q0 22 -12.5 38t-31.5 29.5t-41 26.5t-41 30t-31.5 39t-12.5 54q0 24 10.5 46.5t30 40t46.5 28.5t60 11q47 0 82.5 -19.5t59.5 -48.5zM24 -217v1l38 86l25 68h60v-4l-39 -80l-42 -71h-42z" />
<glyph unicode="&#x259;" horiz-adv-x="450" d="M23 184q24 18 60.5 32t77 23t81.5 12t75 -1q4 20 4 40q0 55 -27 83.5t-69 28.5q-38 0 -75.5 -14t-59.5 -35h-3l-23 48q14 14 33.5 25t42 18.5t45.5 11.5t44 4q35 0 65 -10.5t52.5 -31t35 -51t12.5 -71.5q0 -66 -20 -122.5t-52.5 -98t-74.5 -64.5t-86 -23q-33 0 -61 11 t-48 30t-31 45t-11 57q0 12 2.5 24.5t10.5 28.5zM309 196q-27 3 -60 1.5t-65 -7t-60 -15.5t-44 -23q-2 -5 -2 -9v-9q0 -42 25 -65t58 -23q27 0 50.5 11.5t42.5 32t33 47.5t22 59z" />
<glyph unicode="&#x2c6;" horiz-adv-x="500" d="M376 456h-44l-61 102l-105 -102h-44l1 8l137 160h36l81 -160z" />
<glyph unicode="&#x2c7;" horiz-adv-x="500" d="M157 624h44l61 -102l105 102h44l-1 -8l-137 -160h-36l-81 160z" />
<glyph unicode="&#x2d8;" horiz-adv-x="500" d="M253 457q-24 0 -44.5 10t-34 30.5t-18 52t3.5 74.5h41q-4 -22 -2.5 -43.5t9 -38t20.5 -26.5t31 -10q38 0 69 32t41 86h41q-8 -42 -24.5 -73.5t-38 -52.5t-46 -31t-48.5 -10z" />
<glyph unicode="&#x2d9;" horiz-adv-x="500" d="M216 538q0 23 14.5 37.5t34.5 14.5t34.5 -14.5t14.5 -37.5q0 -20 -14.5 -35.5t-34.5 -15.5t-34.5 15.5t-14.5 35.5z" />
<glyph unicode="&#x2da;" horiz-adv-x="500" d="M174 546q0 19 7.5 36.5t20 30t29.5 20t37 7.5q19 0 36.5 -7.5t30 -20t20 -30t7.5 -36.5q0 -20 -7.5 -37t-20 -29.5t-30 -20t-36.5 -7.5q-20 0 -37 7.5t-29.5 20t-20 29.5t-7.5 37zM214 546q0 -26 14.5 -41.5t38.5 -15.5q23 0 38.5 16t15.5 41t-15.5 41.5t-38.5 16.5 q-24 0 -38.5 -17t-14.5 -41z" />
<glyph unicode="&#x2db;" horiz-adv-x="500" d="M283 18q-32 -24 -56 -55t-24 -61q0 -46 38 -46q18 0 33 5v-54q-11 -4 -23.5 -5t-26.5 -1t-28.5 4.5t-26 14.5t-19 25.5t-7.5 38.5q0 22 10 44.5t26.5 43t38.5 36.5t46 26l19 -10v-6z" />
<glyph unicode="&#x2dc;" horiz-adv-x="500" d="M398 590q0 -49 -23 -82.5t-58 -33.5q-20 0 -35 11t-27 24t-23.5 24t-25.5 11q-21 0 -32.5 -19.5t-11.5 -48.5h-41q0 58 25 87t59 29q20 0 35 -11t27.5 -24.5t24 -24.5t24.5 -11q21 0 30 20.5t9 48.5h43z" />
<glyph unicode="&#x2dd;" horiz-adv-x="500" d="M163 464l121 160h75l-1 -10l-149 -158h-47zM284 464l121 160h75l-1 -10l-149 -158h-47z" />
<glyph unicode="&#x3bb;" horiz-adv-x="460" d="M370 -11l-144 356h-3l-116 -345h-70l151 431q-22 61 -39.5 101t-33.5 65.5t-32 40t-35 24.5v24h65q20 -13 40 -35.5t39 -63.5l238 -572z" />
<glyph unicode="&#x3c0;" horiz-adv-x="550" d="M147 22q-15 -26 -33 -29.5t-30.5 6.5t-15 28t14.5 35q28 28 47 60.5t30.5 72t16.5 88t5 108.5h-21q-31 0 -49 -8t-26 -33l-27 5q14 49 34.5 71t55.5 22h352v-57h-101l-21 -268q-3 -35 7 -53t29 -18q11 0 22 9.5t19 32.5l35 -8q-19 -49 -41 -71t-56 -22q-41 0 -62 34 t-16 83l27 281h-104q-2 -118 -21.5 -208.5t-70.5 -160.5z" />
<glyph unicode="&#x1e80;" horiz-adv-x="870" d="M909 666l-386 -679h-26l-27 519h-7l-272 -519h-26l-87 684l71 16l58 -518h8l277 522h26l33 -522h8l283 518l66 -15zM551 733h-47l-108 122l2 10h67l87 -124z" />
<glyph unicode="&#x1e81;" horiz-adv-x="640" d="M306 302l-178 -314h-24l-60 452l63 15l38 -318h4l182 318h24l23 -318h4l190 318l64 -15l-280 -452h-24l-21 314h-5zM398 506h-45l-95 158l1 10h65l75 -160z" />
<glyph unicode="&#x1e82;" horiz-adv-x="870" d="M909 666l-386 -679h-26l-27 519h-7l-272 -519h-26l-87 684l71 16l58 -518h8l277 522h26l33 -522h8l283 518l66 -15zM454 741l121 124h78l-2 -10l-151 -122h-47z" />
<glyph unicode="&#x1e83;" horiz-adv-x="640" d="M306 302l-178 -314h-24l-60 452l63 15l38 -318h4l182 318h24l23 -318h4l190 318l64 -15l-280 -452h-24l-21 314h-5zM299 514l121 160h75l-1 -10l-149 -158h-47z" />
<glyph unicode="&#x1e84;" horiz-adv-x="870" d="M909 666l-386 -679h-26l-27 519h-7l-272 -519h-26l-87 684l71 16l58 -518h8l277 522h26l33 -522h8l283 518l66 -15zM640 785q0 -17 -13.5 -30t-30.5 -13t-31 13t-14 30t14 30.5t31 13.5q16 0 30 -13.5t14 -30.5zM479 785q0 -17 -13 -30t-32 -13q-17 0 -31 13t-14 30 t14 30.5t31 13.5q19 0 32 -13.5t13 -30.5z" />
<glyph unicode="&#x1e85;" horiz-adv-x="640" d="M306 302l-178 -314h-24l-60 452l63 15l38 -318h4l182 318h24l23 -318h4l190 318l64 -15l-280 -452h-24l-21 314h-5zM479 560q0 -17 -13.5 -30t-30.5 -13t-31 13t-14 30t14 30.5t31 13.5q16 0 30 -13.5t14 -30.5zM318 560q0 -17 -13 -30t-32 -13q-17 0 -31 13t-14 30 t14 30.5t31 13.5q19 0 32 -13.5t13 -30.5z" />
<glyph unicode="&#x1e9e;" horiz-adv-x="640" d="M461 556q0 18 -9.5 31.5t-25 22t-36.5 12.5t-43 4q-52 0 -90 -18t-53 -39l-82 -461l-8 -103l-84 -10l106 611q13 14 33.5 29.5t48 28t61 21t72.5 8.5q91 0 139 -39t48 -96q0 -31 -13 -52.5t-32 -38t-42 -29t-42 -25.5t-32 -28.5t-13 -36.5t15.5 -35t38.5 -26t49.5 -24 t49.5 -28.5t38.5 -39.5t15.5 -57q0 -26 -13.5 -52.5t-40 -48.5t-66.5 -36t-92 -14q-55 0 -93.5 10.5t-54.5 24.5l27 66q26 -15 57 -24t70 -9q27 0 51 6t41 17t27 25t10 31q0 23 -15 39t-38 28.5t-49 24.5t-49 27.5t-38 36.5t-15 52q0 32 12.5 54t31.5 37.5t41.5 27.5 t41.5 25.5t31.5 29.5t12.5 40z" />
<glyph unicode="&#x1ef2;" horiz-adv-x="590" d="M296 373h7l257 314l72 -16l-306 -368l-43 -239v-59l-83 -10l53 308l-175 368l70 16zM398 733h-47l-108 122l2 10h67l87 -124z" />
<glyph unicode="&#x1ef3;" horiz-adv-x="440" d="M119 -92q-20 -35 -39 -63t-37 -42l-72 -10l-2 32q39 21 78.5 78t78.5 141l-83 396l65 15l69 -331h3l190 331l65 -15zM292 506h-45l-95 158l1 10h65l75 -160z" />
<glyph unicode="&#x2011;" horiz-adv-x="340" d="M295 279l-10 -69l-260 -10l10 69z" />
<glyph unicode="&#x2013;" horiz-adv-x="480" d="M426 282l-10 -69l-400 -16l10 69z" />
<glyph unicode="&#x2014;" horiz-adv-x="1000" d="M897 271v-62h-816v62h816z" />
<glyph unicode="&#x2018;" horiz-adv-x="280" d="M295 680l-81 -137l-47 -109h-87l72 133l87 113h56z" />
<glyph unicode="&#x2019;" horiz-adv-x="280" d="M58 434l81 137l47 109h87l-72 -133l-87 -113h-56z" />
<glyph unicode="&#x201a;" horiz-adv-x="280" d="M-15 -131l81 137l47 109h87l-72 -133l-87 -113h-56z" />
<glyph unicode="&#x201c;" horiz-adv-x="470" d="M295 680l-81 -137l-47 -109h-87l72 133l87 113h56zM485 680l-81 -137l-47 -109h-87l72 133l87 113h56z" />
<glyph unicode="&#x201d;" horiz-adv-x="470" d="M58 434l81 137l47 109h87l-72 -133l-87 -113h-56zM248 434l81 137l47 109h87l-72 -133l-87 -113h-56z" />
<glyph unicode="&#x201e;" horiz-adv-x="470" d="M-15 -131l81 137l47 109h87l-72 -133l-87 -113h-56zM175 -131l81 137l47 109h87l-72 -133l-87 -113h-56z" />
<glyph unicode="&#x2020;" horiz-adv-x="540" d="M331 482l180 7l-12 -73l-180 8l-92 -443h-38l64 443l-182 -8l12 73l179 -7l29 198h81z" />
<glyph unicode="&#x2021;" horiz-adv-x="540" d="M331 482l180 7l-12 -73l-180 8l-29 -139l168 7l-13 -72l-167 8l-51 -247h-38l36 246l-170 -7l13 72l165 -7l20 139l-182 -8l12 73l179 -7l29 198h81z" />
<glyph unicode="&#x2022;" horiz-adv-x="480" d="M107 264q0 26 10 48.5t27 39.5t40 27t49 10t48.5 -10t39.5 -27t27 -39.5t10 -48.5t-10 -49t-27 -40t-39.5 -27t-48.5 -10t-49 10t-40 27t-27 40t-10 49z" />
<glyph unicode="&#x2026;" horiz-adv-x="910" d="M40 46q0 23 15.5 38.5t38.5 15.5q22 0 38 -15.5t16 -38.5t-16 -38t-38 -15q-23 0 -38.5 15t-15.5 38zM360 46q0 23 15.5 38.5t38.5 15.5q22 0 38 -15.5t16 -38.5t-16 -38t-38 -15q-23 0 -38.5 15t-15.5 38zM680 46q0 23 15.5 38.5t38.5 15.5q22 0 38 -15.5t16 -38.5 t-16 -38t-38 -15q-23 0 -38.5 15t-15.5 38z" />
<glyph unicode="&#x2030;" horiz-adv-x="990" d="M331 562q0 -38 -13.5 -72.5t-35.5 -61t-51 -42t-60 -15.5q-56 0 -89 35t-33 92q0 40 14 75.5t36.5 61.5t51.5 41t59 15q57 0 89 -35.5t32 -93.5zM272 561q0 36 -16.5 57t-46.5 21q-19 0 -37 -10.5t-32.5 -29t-23 -44t-8.5 -54.5q0 -36 17 -57.5t48 -21.5q19 0 37 11.5 t31.5 31t22 44.5t8.5 52zM642 180q0 -38 -13.5 -72.5t-35.5 -61t-51 -42t-60 -15.5q-56 0 -89 35t-33 92q0 40 14 75.5t36.5 61.5t51.5 41t59 15q57 0 89 -35.5t32 -93.5zM583 179q0 36 -16.5 57t-46.5 21q-19 0 -37 -10.5t-32.5 -29t-23 -44t-8.5 -54.5q0 -36 17 -57.5 t48 -21.5q19 0 37 11.5t31.5 31t22 44.5t8.5 52zM952 180q0 -38 -13.5 -72.5t-35.5 -61t-51 -42t-60 -15.5q-56 0 -89 35t-33 92q0 40 14 75.5t36.5 61.5t51.5 41t59 15q57 0 89 -35.5t32 -93.5zM893 179q0 36 -16.5 57t-46.5 21q-19 0 -37 -10.5t-32.5 -29t-23 -44 t-8.5 -54.5q0 -36 17 -57.5t48 -21.5q19 0 37 11.5t31.5 31t22 44.5t8.5 52zM332 353l219 333l47 -22l-232 -326l-232 -348l-47 25z" />
<glyph unicode="&#x2032;" horiz-adv-x="280" d="M188 685l79 -33l-126 -243l-40 16z" />
<glyph unicode="&#x2033;" horiz-adv-x="470" d="M188 685l79 -33l-126 -243l-40 16zM378 685l79 -33l-126 -243l-40 16z" />
<glyph unicode="&#x2039;" horiz-adv-x="410" d="M303 459l36 -30l-192 -208l-1 -6l122 -189l-40 -30l-172 224l1 9z" />
<glyph unicode="&#x203a;" horiz-adv-x="410" d="M77 -4l-36 30l192 208l1 6l-122 189l40 30l172 -224l-1 -9z" />
<glyph unicode="&#x2042;" horiz-adv-x="770" d="M198 178l127 36l7 -76l-131 9l89 -133l-65 -33l-54 153l-110 -121l-45 59l130 83l-121 44l36 63l103 -75l16 155l77 -16zM588 178l127 36l7 -76l-131 9l89 -133l-65 -33l-54 153l-110 -121l-45 59l130 83l-121 44l36 63l103 -75l16 155l77 -16zM442 541l127 36l7 -76 l-131 9l89 -133l-65 -33l-54 153l-110 -121l-45 59l130 83l-121 44l36 63l103 -75l16 155l77 -16z" />
<glyph unicode="&#x2044;" horiz-adv-x="740" d="M361 345l282 349l35 -27l-295 -345l-299 -379l-33 28z" />
<glyph unicode="&#x2070;" d="M330 662q0 -54 -13 -100.5t-35 -80.5t-51.5 -53.5t-63.5 -19.5q-46 0 -76 31.5t-30 100.5q0 61 14.5 108.5t38 80.5t53 50t58.5 17q48 0 76.5 -33.5t28.5 -100.5zM274 658q0 42 -14.5 65t-37.5 23q-17 0 -35.5 -13t-34 -39t-25.5 -64t-10 -88q0 -45 16 -64.5t38 -19.5 t40.5 17t32.5 45t22 64t8 74z" />
<glyph unicode="&#x2074;" d="M312 525l-41 -1l-19 -104l-54 -10l19 113l-157 -8l-5 32l193 240l70 4l-40 -222l41 1zM224 567l29 156l-6 1l-127 -159l2 -4z" />
<glyph unicode="&#x2075;" d="M88 616l52 168l195 10l-15 -54l-147 -5l-23 -72q7 1 15 1h15q66 0 97.5 -29.5t31.5 -74.5q0 -36 -16.5 -64.5t-44.5 -48t-65 -29.5t-79 -10q-17 0 -31.5 1t-25.5 5l17 51q10 -4 24.5 -4.5t26.5 -0.5q66 0 101 28.5t35 64.5q0 33 -28.5 49.5t-80.5 16.5q-14 0 -26 -1.5 t-26 -3.5z" />
<glyph unicode="&#x2076;" d="M139 615q17 13 35 20.5t38 7.5q19 0 36.5 -6t31.5 -18.5t22.5 -33t8.5 -48.5q0 -32 -12 -56t-31 -40.5t-42.5 -24.5t-47.5 -8q-62 0 -89.5 33.5t-27.5 83.5q0 64 26 114t66.5 84.5t89 53t92.5 19.5l-16 -54q-33 -2 -63 -13.5t-54 -28.5t-41 -38.5t-24 -43.5zM255 535 q0 32 -20.5 46.5t-46.5 14.5q-14 0 -30.5 -5.5t-31.5 -16.5q-5 -14 -6.5 -26t-1.5 -23q0 -32 16.5 -50t45.5 -18q33 0 54.5 22t20.5 56z" />
<glyph unicode="&#x2077;" d="M356 787q-72 -92 -120 -182t-69 -185l-66 -10q27 93 71.5 177t98.5 150l-2 2l-164 -8l13 53l234 10z" />
<glyph unicode="&#x2078;" d="M247 610q32 -23 45.5 -45.5t13.5 -48.5q0 -23 -10.5 -43t-29 -34.5t-43 -22.5t-52.5 -8q-51 0 -80 24t-29 64q0 37 23.5 66.5t69.5 45.5v3q-24 20 -34.5 39.5t-10.5 41.5q0 21 9.5 40t26 33.5t39.5 22.5t49 8q42 0 70 -20.5t28 -58.5q0 -35 -22.5 -60.5t-62.5 -43.5v-3z M250 514q0 23 -17 41t-43 32q-31 -14 -52 -35.5t-21 -51.5q0 -21 16.5 -34t41.5 -13q32 0 53.5 16.5t21.5 44.5zM167 695q0 -18 11 -32.5t35 -30.5q28 13 46 34t18 46q0 17 -13 28.5t-34 11.5q-32 0 -47.5 -18.5t-15.5 -38.5z" />
<glyph unicode="&#x2079;" d="M260 583q-2 0 -4 2q-13 -11 -32 -17.5t-36 -6.5q-20 0 -38.5 6t-33 18.5t-23.5 31.5t-9 45q0 28 11 52.5t30 42.5t43.5 28.5t51.5 10.5q58 0 85.5 -33.5t27.5 -84.5q0 -57 -20 -103t-53 -80t-75 -56.5t-87 -31.5l-5 50q66 14 109.5 48t57.5 78zM141 666q0 -33 20 -45.5 t45 -12.5q17 0 35 6.5t29 15.5q4 11 6.5 24.5t2.5 25.5q0 30 -16 48.5t-45 18.5q-33 0 -56 -23.5t-21 -57.5z" />
<glyph unicode="&#x20ac;" horiz-adv-x="610" d="M123 412q22 64 59.5 116t85.5 88.5t102.5 56.5t109.5 20q47 0 82.5 -9t65.5 -29l-33 -63q-20 14 -51 23.5t-73 9.5q-41 0 -81.5 -14.5t-76.5 -42t-65.5 -67t-47.5 -89.5h319l-21 -48h-312q-6 -27 -9 -55h298l-21 -48h-278q1 -94 49.5 -150.5t135.5 -56.5q44 0 79.5 9.5 t68.5 26.5l24 -61q-42 -23 -85.5 -32.5t-90.5 -9.5q-60 0 -108 20.5t-81.5 57t-51 86.5t-17.5 109v1h-65l20 48h47q3 28 9 55h-58l20 48h51z" />
<glyph unicode="&#x2117;" horiz-adv-x="790" d="M88 323q0 63 24 119t65.5 97.5t97.5 66t121 24.5q68 0 124 -24.5t96.5 -66t63 -97.5t22.5 -119t-22 -119t-62.5 -98t-97 -66.5t-124.5 -24.5q-66 0 -122 22.5t-97.5 63.5t-65 97.5t-23.5 124.5zM137 321q0 -57 19.5 -105t54.5 -82.5t82.5 -54t103.5 -19.5q55 0 102 19.5 t81 54t53.5 82.5t19.5 105q0 59 -20 108t-54.5 84t-81.5 54.5t-101 19.5q-53 0 -100 -20t-82.5 -55.5t-56 -84t-20.5 -106.5zM525 393q0 -25 -9.5 -45t-26 -33.5t-38 -20t-45.5 -6.5h-46v-138h-52v350h102q51 0 83 -27.5t32 -79.5zM471 394q0 29 -17 43t-44 14h-50v-114h47 q23 0 43.5 12.5t20.5 44.5z" />
<glyph unicode="&#x2122;" horiz-adv-x="690" d="M215 635v-215h-48v215h-93v45h234v-45h-93zM525 565l-65 -149h-5l-65 149h-4l-25 -145h-46l43 262h22l77 -170h4l75 170h22l43 -262h-47l-24 145h-5z" />
<glyph unicode="&#x2126;" horiz-adv-x="590" d="M294 623q-45 0 -77.5 -19.5t-53.5 -54t-30.5 -81t-9.5 -101.5q0 -60 11.5 -114.5t31 -97t45 -71t53.5 -36.5v-48h-238v67h115v5q-21 24 -40 57t-33.5 72t-22.5 82.5t-8 88.5q0 71 18 130t51.5 101.5t81.5 66t107 23.5t107 -24.5t81.5 -68t51.5 -102t18 -126.5 q0 -45 -8 -88.5t-22.5 -82.5t-33.5 -72t-40 -57v-5h115v-67h-238v48q28 8 53.5 37t45 72.5t31 99t11.5 117.5q0 51 -10.5 96.5t-32.5 79.5t-54.5 53.5t-75.5 19.5z" />
<glyph unicode="&#x2153;" horiz-adv-x="740" d="M361 345l282 349l35 -27l-295 -345l-299 -379l-33 28zM147 310l56 326l-64 -8l5 52l115 14l8 -7l-54 -304l-5 -65zM397 27q37 -24 84 -24q18 0 34 5t29 14.5t20.5 24t7.5 32.5q0 20 -14 35t-40 14l-64 -2l10 54l59 -2q13 0 26 4.5t23.5 13.5t17 21t6.5 26q0 23 -16 36 t-43 13q-16 0 -34.5 -4.5t-36.5 -13.5l-9 43q14 8 39.5 16t51.5 8q48 0 77 -23t29 -65q0 -38 -24 -64t-59 -33l-1 -5q26 -5 42 -26.5t16 -45.5q0 -36 -16 -60t-39.5 -39t-49.5 -21t-46 -6q-61 0 -98 24z" />
<glyph unicode="&#x2154;" horiz-adv-x="740" d="M361 345l282 349l35 -27l-295 -345l-299 -379l-33 28zM120 664q4 3 14.5 8.5t24.5 11t31.5 9t36.5 3.5q47 0 77.5 -19.5t30.5 -64.5q0 -57 -51.5 -118.5t-142.5 -125.5l2 -3l157 10l-10 -55l-249 -10l-2 24q67 51 112.5 91t73.5 72.5t39.5 57.5t11.5 46q0 23 -15 34 t-40 11q-29 0 -52.5 -9t-34.5 -15zM397 27q37 -24 84 -24q18 0 34 5t29 14.5t20.5 24t7.5 32.5q0 20 -14 35t-40 14l-64 -2l10 54l59 -2q13 0 26 4.5t23.5 13.5t17 21t6.5 26q0 23 -16 36t-43 13q-16 0 -34.5 -4.5t-36.5 -13.5l-9 43q14 8 39.5 16t51.5 8q48 0 77 -23 t29 -65q0 -38 -24 -64t-59 -33l-1 -5q26 -5 42 -26.5t16 -45.5q0 -36 -16 -60t-39.5 -39t-49.5 -21t-46 -6q-61 0 -98 24z" />
<glyph unicode="&#x2155;" horiz-adv-x="740" d="M361 345l282 349l35 -27l-295 -345l-299 -379l-33 28zM147 310l56 326l-64 -8l5 52l115 14l8 -7l-54 -304l-5 -65zM419 161l52 168l195 10l-15 -54l-147 -5l-23 -72q7 1 15 1h15q66 0 97.5 -29.5t31.5 -74.5q0 -36 -16.5 -64.5t-44.5 -48t-65 -29.5t-79 -10 q-17 0 -31.5 1t-25.5 5l17 51q10 -4 24.5 -4.5t26.5 -0.5q66 0 101 28.5t35 64.5q0 33 -28.5 49.5t-80.5 16.5q-14 0 -26 -1.5t-26 -3.5z" />
<glyph unicode="&#x2156;" horiz-adv-x="740" d="M361 345l282 349l35 -27l-295 -345l-299 -379l-33 28zM120 664q4 3 14.5 8.5t24.5 11t31.5 9t36.5 3.5q47 0 77.5 -19.5t30.5 -64.5q0 -57 -51.5 -118.5t-142.5 -125.5l2 -3l157 10l-10 -55l-249 -10l-2 24q67 51 112.5 91t73.5 72.5t39.5 57.5t11.5 46q0 23 -15 34 t-40 11q-29 0 -52.5 -9t-34.5 -15zM419 161l52 168l195 10l-15 -54l-147 -5l-23 -72q7 1 15 1h15q66 0 97.5 -29.5t31.5 -74.5q0 -36 -16.5 -64.5t-44.5 -48t-65 -29.5t-79 -10q-17 0 -31.5 1t-25.5 5l17 51q10 -4 24.5 -4.5t26.5 -0.5q66 0 101 28.5t35 64.5 q0 33 -28.5 49.5t-80.5 16.5q-14 0 -26 -1.5t-26 -3.5z" />
<glyph unicode="&#x2157;" horiz-adv-x="740" d="M361 345l282 349l35 -27l-295 -345l-299 -379l-33 28zM72 382q37 -24 84 -24q18 0 34 5t29 14.5t20.5 24t7.5 32.5q0 20 -14 35t-40 14l-64 -2l10 54l59 -2q13 0 26 4.5t23.5 13.5t17 21t6.5 26q0 23 -16 36t-43 13q-16 0 -34.5 -4.5t-36.5 -13.5l-9 43q14 8 39.5 16 t51.5 8q48 0 77 -23t29 -65q0 -38 -24 -64t-59 -33l-1 -5q26 -5 42 -26.5t16 -45.5q0 -36 -16 -60t-39.5 -39t-49.5 -21t-46 -6q-61 0 -98 24zM419 161l52 168l195 10l-15 -54l-147 -5l-23 -72q7 1 15 1h15q66 0 97.5 -29.5t31.5 -74.5q0 -36 -16.5 -64.5t-44.5 -48 t-65 -29.5t-79 -10q-17 0 -31.5 1t-25.5 5l17 51q10 -4 24.5 -4.5t26.5 -0.5q66 0 101 28.5t35 64.5q0 33 -28.5 49.5t-80.5 16.5q-14 0 -26 -1.5t-26 -3.5z" />
<glyph unicode="&#x2158;" horiz-adv-x="740" d="M361 345l282 349l35 -27l-295 -345l-299 -379l-33 28zM318 425l-41 -1l-19 -104l-54 -10l19 113l-157 -8l-5 32l193 240l70 4l-40 -222l41 1zM230 467l29 156l-6 1l-127 -159l2 -4zM419 161l52 168l195 10l-15 -54l-147 -5l-23 -72q7 1 15 1h15q66 0 97.5 -29.5 t31.5 -74.5q0 -36 -16.5 -64.5t-44.5 -48t-65 -29.5t-79 -10q-17 0 -31.5 1t-25.5 5l17 51q10 -4 24.5 -4.5t26.5 -0.5q66 0 101 28.5t35 64.5q0 33 -28.5 49.5t-80.5 16.5q-14 0 -26 -1.5t-26 -3.5z" />
<glyph unicode="&#x2159;" horiz-adv-x="740" d="M361 345l282 349l35 -27l-295 -345l-299 -379l-33 28zM147 310l56 326l-64 -8l5 52l115 14l8 -7l-54 -304l-5 -65zM470 160q17 13 35 20.5t38 7.5q19 0 36.5 -6t31.5 -18.5t22.5 -33t8.5 -48.5q0 -32 -12 -56t-31 -40.5t-42.5 -24.5t-47.5 -8q-62 0 -89.5 33.5 t-27.5 83.5q0 64 26 114t66.5 84.5t89 53t92.5 19.5l-16 -54q-33 -2 -63 -13.5t-54 -28.5t-41 -38.5t-24 -43.5zM586 80q0 32 -20.5 46.5t-46.5 14.5q-14 0 -30.5 -5.5t-31.5 -16.5q-5 -14 -6.5 -26t-1.5 -23q0 -32 16.5 -50t45.5 -18q33 0 54.5 22t20.5 56z" />
<glyph unicode="&#x215a;" horiz-adv-x="740" d="M361 345l282 349l35 -27l-295 -345l-299 -379l-33 28zM94 516l52 168l195 10l-15 -54l-147 -5l-23 -72q7 1 15 1h15q66 0 97.5 -29.5t31.5 -74.5q0 -36 -16.5 -64.5t-44.5 -48t-65 -29.5t-79 -10q-17 0 -31.5 1t-25.5 5l17 51q10 -4 24.5 -4.5t26.5 -0.5q66 0 101 28.5 t35 64.5q0 33 -28.5 49.5t-80.5 16.5q-14 0 -26 -1.5t-26 -3.5zM470 160q17 13 35 20.5t38 7.5q19 0 36.5 -6t31.5 -18.5t22.5 -33t8.5 -48.5q0 -32 -12 -56t-31 -40.5t-42.5 -24.5t-47.5 -8q-62 0 -89.5 33.5t-27.5 83.5q0 64 26 114t66.5 84.5t89 53t92.5 19.5l-16 -54 q-33 -2 -63 -13.5t-54 -28.5t-41 -38.5t-24 -43.5zM586 80q0 32 -20.5 46.5t-46.5 14.5q-14 0 -30.5 -5.5t-31.5 -16.5q-5 -14 -6.5 -26t-1.5 -23q0 -32 16.5 -50t45.5 -18q33 0 54.5 22t20.5 56z" />
<glyph unicode="&#x215b;" horiz-adv-x="740" d="M361 345l282 349l35 -27l-295 -345l-299 -379l-33 28zM147 310l56 326l-64 -8l5 52l115 14l8 -7l-54 -304l-5 -65zM578 155q32 -23 45.5 -45.5t13.5 -48.5q0 -23 -10.5 -43t-29 -34.5t-43 -22.5t-52.5 -8q-51 0 -80 24t-29 64q0 37 23.5 66.5t69.5 45.5v3 q-24 20 -34.5 39.5t-10.5 41.5q0 21 9.5 40t26 33.5t39.5 22.5t49 8q42 0 70 -20.5t28 -58.5q0 -35 -22.5 -60.5t-62.5 -43.5v-3zM581 59q0 23 -17 41t-43 32q-31 -14 -52 -35.5t-21 -51.5q0 -21 16.5 -34t41.5 -13q32 0 53.5 16.5t21.5 44.5zM498 240q0 -18 11 -32.5 t35 -30.5q28 13 46 34t18 46q0 17 -13 28.5t-34 11.5q-32 0 -47.5 -18.5t-15.5 -38.5z" />
<glyph unicode="&#x215c;" horiz-adv-x="740" d="M361 345l282 349l35 -27l-295 -345l-299 -379l-33 28zM72 382q37 -24 84 -24q18 0 34 5t29 14.5t20.5 24t7.5 32.5q0 20 -14 35t-40 14l-64 -2l10 54l59 -2q13 0 26 4.5t23.5 13.5t17 21t6.5 26q0 23 -16 36t-43 13q-16 0 -34.5 -4.5t-36.5 -13.5l-9 43q14 8 39.5 16 t51.5 8q48 0 77 -23t29 -65q0 -38 -24 -64t-59 -33l-1 -5q26 -5 42 -26.5t16 -45.5q0 -36 -16 -60t-39.5 -39t-49.5 -21t-46 -6q-61 0 -98 24zM578 155q32 -23 45.5 -45.5t13.5 -48.5q0 -23 -10.5 -43t-29 -34.5t-43 -22.5t-52.5 -8q-51 0 -80 24t-29 64q0 37 23.5 66.5 t69.5 45.5v3q-24 20 -34.5 39.5t-10.5 41.5q0 21 9.5 40t26 33.5t39.5 22.5t49 8q42 0 70 -20.5t28 -58.5q0 -35 -22.5 -60.5t-62.5 -43.5v-3zM581 59q0 23 -17 41t-43 32q-31 -14 -52 -35.5t-21 -51.5q0 -21 16.5 -34t41.5 -13q32 0 53.5 16.5t21.5 44.5zM498 240 q0 -18 11 -32.5t35 -30.5q28 13 46 34t18 46q0 17 -13 28.5t-34 11.5q-32 0 -47.5 -18.5t-15.5 -38.5z" />
<glyph unicode="&#x215d;" horiz-adv-x="740" d="M361 345l282 349l35 -27l-295 -345l-299 -379l-33 28zM94 516l52 168l195 10l-15 -54l-147 -5l-23 -72q7 1 15 1h15q66 0 97.5 -29.5t31.5 -74.5q0 -36 -16.5 -64.5t-44.5 -48t-65 -29.5t-79 -10q-17 0 -31.5 1t-25.5 5l17 51q10 -4 24.5 -4.5t26.5 -0.5q66 0 101 28.5 t35 64.5q0 33 -28.5 49.5t-80.5 16.5q-14 0 -26 -1.5t-26 -3.5zM578 155q32 -23 45.5 -45.5t13.5 -48.5q0 -23 -10.5 -43t-29 -34.5t-43 -22.5t-52.5 -8q-51 0 -80 24t-29 64q0 37 23.5 66.5t69.5 45.5v3q-24 20 -34.5 39.5t-10.5 41.5q0 21 9.5 40t26 33.5t39.5 22.5t49 8 q42 0 70 -20.5t28 -58.5q0 -35 -22.5 -60.5t-62.5 -43.5v-3zM581 59q0 23 -17 41t-43 32q-31 -14 -52 -35.5t-21 -51.5q0 -21 16.5 -34t41.5 -13q32 0 53.5 16.5t21.5 44.5zM498 240q0 -18 11 -32.5t35 -30.5q28 13 46 34t18 46q0 17 -13 28.5t-34 11.5q-32 0 -47.5 -18.5 t-15.5 -38.5z" />
<glyph unicode="&#x215e;" horiz-adv-x="740" d="M361 345l282 349l35 -27l-295 -345l-299 -379l-33 28zM382 687q-72 -92 -120 -182t-69 -185l-66 -10q27 93 71.5 177t98.5 150l-2 2l-164 -8l13 53l234 10zM578 155q32 -23 45.5 -45.5t13.5 -48.5q0 -23 -10.5 -43t-29 -34.5t-43 -22.5t-52.5 -8q-51 0 -80 24t-29 64 q0 37 23.5 66.5t69.5 45.5v3q-24 20 -34.5 39.5t-10.5 41.5q0 21 9.5 40t26 33.5t39.5 22.5t49 8q42 0 70 -20.5t28 -58.5q0 -35 -22.5 -60.5t-62.5 -43.5v-3zM581 59q0 23 -17 41t-43 32q-31 -14 -52 -35.5t-21 -51.5q0 -21 16.5 -34t41.5 -13q32 0 53.5 16.5t21.5 44.5z M498 240q0 -18 11 -32.5t35 -30.5q28 13 46 34t18 46q0 17 -13 28.5t-34 11.5q-32 0 -47.5 -18.5t-15.5 -38.5z" />
<glyph unicode="&#x2191;" horiz-adv-x="700" d="M621 369l-37 -45l-201 176v-449h-65v450l-202 -177l-38 45l266 237h13z" />
<glyph unicode="&#x2193;" horiz-adv-x="700" d="M357 51h-13l-266 237l38 45l202 -178v451h65v-450l201 177l37 -45z" />
<glyph unicode="&#x2202;" horiz-adv-x="530" d="M278 634q-21 0 -39.5 -6t-32.5 -15t-23.5 -19.5t-13.5 -19.5h-35l17 63q18 25 57 43t81 18q47 0 81 -25t56.5 -68.5t33.5 -103t11 -127.5q0 -101 -17.5 -174t-49.5 -121t-76.5 -71t-97.5 -23q-38 0 -69.5 15t-54 43t-35 67.5t-12.5 89.5q0 47 14.5 93.5t41.5 83t64 59.5 t82 23t77 -19t59 -70l5 3v24q0 237 -124 237zM394 295q-14 46 -47.5 76.5t-79.5 30.5q-27 0 -51.5 -14t-43.5 -40t-30.5 -63.5t-11.5 -85.5q0 -69 30 -110t85 -41q29 0 56 17t47.5 49t33 77.5t12.5 103.5z" />
<glyph unicode="&#x2206;" horiz-adv-x="590" d="M15 0l253 695h25l282 -695h-560zM107 67h365l-191 483z" />
<glyph unicode="&#x220f;" horiz-adv-x="610" d="M593 680v-67h-98v-613h-73v613h-234v-613h-73v613h-98v67h576z" />
<glyph unicode="&#x2211;" horiz-adv-x="580" d="M156 67h383v-67h-521l-4 10l280 328v7l-266 328l5 7h506v-67h-368l-5 -3l217 -262v-11l-230 -265z" />
<glyph unicode="&#x2212;" horiz-adv-x="530" d="M33 272v58h464v-58h-464z" />
<glyph unicode="&#x221a;" horiz-adv-x="530" d="M325 61l152 695l49 -10l-184 -883h-27l-195 526l-108 -35l-16 37l175 59l141 -389h13z" />
<glyph unicode="&#x221e;" horiz-adv-x="530" d="M402 149q-35 0 -68.5 18.5t-68.5 68.5q-32 -42 -63.5 -64.5t-73.5 -22.5q-32 0 -55.5 11.5t-39 30t-23 41t-7.5 44.5q0 27 10 51t27 41.5t39.5 28t47.5 10.5q45 0 76 -25.5t59 -66.5q32 41 62.5 66.5t72.5 25.5q28 0 51.5 -9t41 -26t27 -40.5t9.5 -51.5q0 -27 -10 -51 t-26.5 -41.5t-39.5 -28t-48 -10.5zM398 359q-15 0 -26.5 -4t-23.5 -13.5t-26 -26.5t-32 -43q28 -39 54.5 -56t53.5 -17q32 0 54.5 21.5t22.5 59.5q0 36 -23.5 57.5t-53.5 21.5zM129 197q30 0 52 18.5t55 63.5q-29 42 -53.5 60t-53.5 18q-30 0 -52.5 -21.5t-22.5 -59.5 q0 -37 23 -58t52 -21z" />
<glyph unicode="&#x222b;" horiz-adv-x="530" d="M305 10q1 -47 -11 -86.5t-34.5 -68t-53 -44t-66.5 -15.5q-29 0 -52 15.5t-23 50.5q0 19 11.5 36.5t37.5 17.5q20 0 36.5 -14t20.5 -50l26 -7q10 9 18 26t13 38t8 44.5t2 46.5l-12 487q-1 48 11 87.5t34 67.5t52.5 43t65.5 15q14 0 28 -4t25 -12t17.5 -20t6.5 -29 q0 -19 -12 -36.5t-38 -17.5q-19 0 -35.5 14t-20.5 50l-26 7q-21 -20 -32 -57t-9 -98z" />
<glyph unicode="&#x2248;" horiz-adv-x="530" d="M477 366q-7 -20 -18 -40t-27 -36t-37.5 -25.5t-48.5 -9.5q-25 0 -47 11t-42.5 24.5t-40 25t-39.5 11.5t-33.5 -6t-24 -15.5t-18 -21.5t-14.5 -24l-44 32q7 14 19.5 29.5t30 29t39 22t45.5 8.5t46 -11t42.5 -24t40.5 -24t41 -11q29 0 50 24t27 53zM487 206q-7 -20 -20 -37 t-30.5 -30.5t-37.5 -21t-41 -7.5q-30 0 -54.5 11t-46 24.5t-41 24.5t-39.5 11q-24 0 -41 -19t-31 -45l-46 30q7 11 17 26.5t24.5 29t33.5 23t43 9.5t46 -11t44 -24t44 -24t47 -11q32 0 53 19t29 45z" />
<glyph unicode="&#x2260;" horiz-adv-x="530" d="M232 168l-66 -144l-46 23l56 121h-133v58h159l66 142h-225v58h252l65 141l46 -23l-55 -118h136v-58h-163l-65 -142h228v-58h-255z" />
<glyph unicode="&#x2264;" horiz-adv-x="530" d="M120 381l359 -171l-25 -50l-404 195v52l404 195l25 -50zM43 45v58h444v-58h-444z" />
<glyph unicode="&#x2265;" horiz-adv-x="530" d="M51 552l25 50l404 -195v-52l-404 -195l-25 50l359 171zM43 45v58h444v-58h-444z" />
<glyph unicode="&#x25ca;" horiz-adv-x="530" d="M19 275l245 375l246 -375l-246 -373zM264 4l178 271l-178 273l-177 -273z" />
<glyph unicode="&#x25fc;" horiz-adv-x="455" d="M0 455h455v-455h-455v455z" />
<glyph unicode="&#x2605;" horiz-adv-x="570" d="M123 -5l66 186l-166 118l2 5l201 -7l57 193h6l58 -193l199 5l1 -4l-163 -117l66 -188l-3 -1l-161 118l-159 -118z" />
<glyph unicode="&#xf6c3;" horiz-adv-x="500" d="M156 -217v1l38 86l25 68h60v-4l-39 -80l-42 -71h-42z" />
<glyph unicode="&#xf8ff;" horiz-adv-x="530" d="M227 720l32 -121l-3 -82l68 -8l64 99l8 99h12l7 -99l-17 -129l36 -85l35 -38l1 -6l-7 -8v-18l8 -4l-1 -9l-17 -36l-36 7l-11 101l-34 56l-13 -2l26 -60l4 -99l-37 -46l3 -22l26 -37l7 -71l-64 -23l-33 16l-35 57l-75 25l-28 47l-3 42l-30 41l-2 58l4 27l-11 44l105 284 h11zM500 235l-3 -37l-12 -17l-5 -33l23 -8l-3 -10l-23 7l-43 -26l-5 10l39 23l5 36l-36 14l-13 31l-1 10l14 15l24 4l33 -10zM313 291l11 13l-3 14l-11 10l-30 -10l-3 -13zM337 60l-7 -21l-40 -43l-68 -23l-97 14l-55 48l-18 62l34 95l11 -1l-9 -71l22 -41l37 -33l88 -16 l48 3l51 31zM158 429l33 34l11 76h-18l-35 -101z" />
<glyph horiz-adv-x="580" d="M133 274q0 -49 15 -89t42 -68.5t65.5 -44t86.5 -15.5q43 0 77 10.5t64 26.5l27 -62q-38 -21 -84 -33t-94 -12q-61 0 -111.5 22.5t-87 60.5t-57 89.5t-20.5 109.5q0 105 36.5 184.5t93.5 133t127 80t138 26.5q52 0 88 -13.5t59 -31.5l-39 -62q-16 13 -43.5 25t-75.5 12 q-45 0 -90.5 -15.5t-85.5 -46t-71.5 -75.5t-46.5 -104l322 10l-19 -67l-315 -10q-1 -10 -1 -20v-21z" />
<glyph horiz-adv-x="730" d="M133 275q0 -50 15 -90t42 -68.5t65.5 -44t86.5 -15.5q49 0 89.5 17t72.5 48.5t54 76t34 98.5l-233 -11l12 69l308 12q-9 -94 -39.5 -165t-76.5 -119t-104.5 -72t-124.5 -24q-64 0 -115.5 22.5t-87.5 61.5t-55.5 90t-19.5 108q0 92 31.5 170t84.5 134.5t123 88t148 31.5 q91 0 150.5 -41t85.5 -103l-65 -31q-29 59 -76 82t-102 23q-53 0 -107 -23.5t-97.5 -68t-71 -109t-27.5 -147.5z" />
<glyph horiz-adv-x="790" d="M660 531l-286 -331h-6l-168 327h-6l-78 -449l-3 -73l-83 -10l119 683l43 4l192 -372h6l320 368l53 4l-107 -606l-2 -71l-83 -10l95 536h-6z" />
<glyph horiz-adv-x="810" d="M669 469l-314 -477h-17l-147 477h-6l-69 -393l-3 -71l-83 -10l118 675l46 10l171 -553h4l363 553l51 -10l-105 -592l-3 -73l-83 -10l82 474h-5z" />
<glyph horiz-adv-x="770" d="M724 406q0 -98 -38 -182.5t-105 -143.5l102 -112l-65 -29l-92 101q-42 -26 -90 -39.5t-102 -13.5q-62 0 -113 22t-87.5 60.5t-57 89.5t-20.5 109q0 99 34.5 178t90 134t126 84t142.5 29q53 0 102.5 -20t88 -57t61.5 -90t23 -120zM535 132q54 49 83.5 120t28.5 149 q-1 50 -16 91t-42 70t-65 45t-86 16q-55 0 -109.5 -24t-97.5 -68.5t-70 -108.5t-27 -144q0 -46 13.5 -86.5t39.5 -70.5t65.5 -47t91.5 -17q38 0 71.5 9t63.5 26l-122 136l65 29z" />
<glyph horiz-adv-x="770" d="M724 406q0 -80 -26.5 -152.5t-73 -128.5t-111.5 -92.5t-141 -43.5l-27 -155h-74l27 155q-54 6 -98.5 30.5t-76.5 62t-49.5 85t-17.5 101.5q0 99 34.5 178t90 134t126 84t142.5 29q53 0 102.5 -20t88 -57t61.5 -90t23 -120zM647 401q-1 50 -16 91t-42 70t-65 45t-86 16 q-55 0 -109.5 -24t-97.5 -68.5t-70 -108.5t-27 -144q0 -42 11 -79.5t33.5 -67t55.5 -48.5t77 -24l29 163h74l-29 -162q59 9 107.5 40t83 77.5t53.5 104t18 119.5z" />
<glyph horiz-adv-x="870" d="M460 462l123 225l69 -16l-169 -287l51 -240h8l310 543l70 -16l-401 -684h-20l-68 316l-182 -316h-20l-153 684l70 16l116 -543h8l138 240l-62 287l69 16z" />
<glyph horiz-adv-x="480" d="M315 100q-13 -18 -31 -36t-40.5 -33.5t-47.5 -27t-52 -16.5q-24 4 -46.5 16.5t-40.5 33t-28.5 50t-10.5 67.5q0 56 18.5 111t51.5 98.5t77.5 70t96.5 26.5q31 0 55 -11.5t41 -28.5h3l5 27l70 5l-54 -335l-7 -111l-66 -11l10 105h-4zM159 50q17 2 40 13.5t46 29t43.5 39 t31.5 43.5l29 180q-33 45 -89 45q-36 0 -66.5 -20t-53.5 -53t-36 -75.5t-13 -87.5q0 -48 18 -76.5t50 -37.5z" />
<glyph horiz-adv-x="320" d="M148 511q8 45 26 78.5t42 55t51.5 32.5t54.5 11t44 -5t32 -14l-25 -54q-12 7 -25 9.5t-25 2.5q-40 0 -68.5 -30.5t-37.5 -87.5l-11 -62l107 1l-9 -52l-107 -10l-76 -418l-2 -71l-80 -10l89 505l-94 -1l8 45l95 15z" />
<glyph horiz-adv-x="460" d="M197 163h-14.5t-13.5 1l-68 -69l-1 -5l159 -31q45 -8 73.5 -33t28.5 -65q0 -37 -18 -67.5t-48 -53t-70.5 -35t-85.5 -12.5q-88 0 -133.5 32.5t-45.5 84.5q0 22 9 41.5t23.5 36t34 28.5t40.5 20v4l-31 6l3 56l76 77q-33 14 -51 42t-18 66q0 33 14 64t39.5 55t60.5 39 t77 15q49 0 85 -19l138 7l-8 -54l-81 -2q16 -30 16 -62q0 -31 -13 -61t-37.5 -53.5t-59.5 -38t-80 -14.5zM291 -54q0 24 -18 40t-50 22l-85 16q-48 -13 -81.5 -40t-33.5 -68q0 -33 34.5 -51t85.5 -18q28 0 54.5 6.5t46.5 19.5t32.5 31t14.5 42zM318 330q0 37 -23 56.5 t-61 19.5q-25 0 -46.5 -9.5t-38 -25t-26 -36.5t-9.5 -44q0 -40 26 -57.5t63 -17.5q22 0 43 7.5t37 22t25.5 36t9.5 48.5z" />
<glyph horiz-adv-x="230" d="M172 452l-101 -562l-5 -86l-78 -10l98 568l4 81zM114 629q0 23 14.5 37.5t34.5 14.5t34.5 -14.5t14.5 -37.5q0 -20 -14.5 -35.5t-34.5 -15.5t-34.5 15.5t-14.5 35.5z" />
<glyph horiz-adv-x="260" d="M86 355l37 221l8 104l84 12l-62 -334l-38 -228q-7 -40 3.5 -60t32.5 -20q11 0 23 5.5t17 10.5l16 -47q-34 -28 -79 -28q-20 0 -38 7t-31 23t-18 40t2 59z" />
<glyph horiz-adv-x="350" d="M117 386l-77 -2l5 31l78 50l68 79h23l-17 -96h147l-10 -57l-147 -6l-45 -253q-9 -49 8.5 -67t49.5 -18q36 0 71 23l16 -48q-20 -15 -49.5 -24.5t-57.5 -9.5q-35 0 -59 10.5t-37.5 28.5t-17.5 43t2 55z" />
<glyph horiz-adv-x="480" d="M391 180q-16 -90 -69.5 -141t-133.5 -51q-93 0 -128 49.5t-18 142.5l34 194l2 69l80 10l-49 -283q-6 -35 -1.5 -57.5t17 -36.5t31 -19.5t40.5 -5.5q16 0 35 5.5t37 19.5t32 37t20 58l36 204l2 68l80 10z" />
<glyph horiz-adv-x="310" d="M58 5l58 235l59 243l47 4l-43 -248l-35 -234l-83 -5zM275 637q0 -23 -15.5 -38.5t-38.5 -15.5q-22 0 -38 15.5t-16 38.5t16 38t38 15q23 0 38.5 -15t15.5 -38z" />
<glyph horiz-adv-x="450" d="M327 46q-32 -22 -71 -37.5t-85 -15.5q-33 0 -61 9.5t-48 26.5t-31 40.5t-11 51.5q0 43 22 73t55.5 51.5t72 37.5t72 31.5t55.5 33t22 42.5q0 15 -10.5 24.5t-28.5 9.5q-10 0 -21.5 -3.5t-23.5 -11.5l-24 45q20 14 41.5 20t43.5 6q37 0 65 -20t28 -61q0 -40 -22 -66.5 t-54.5 -46.5t-71 -35.5t-71 -33t-54.5 -39t-22 -54.5q0 -18 7.5 -31t19 -21.5t26 -12t29.5 -3.5q29 0 63 12t60 32zM407 642q0 -23 -15.5 -38.5t-38.5 -15.5q-22 0 -38 15.5t-16 38.5t16 38t38 15q23 0 38.5 -15t15.5 -38z" />
<glyph horiz-adv-x="340" d="M305 339l-10 -69l-260 -10l10 69z" />
<glyph horiz-adv-x="480" d="M436 342l-10 -69l-400 -16l10 69z" />
<glyph horiz-adv-x="1000" d="M907 331v-62h-816v62h816z" />
<glyph horiz-adv-x="410" d="M318 549l36 -30l-192 -208l-1 -6l122 -189l-40 -30l-172 224l1 9z" />
<glyph horiz-adv-x="410" d="M92 86l-36 30l192 208l1 6l-122 189l40 30l172 -224l-1 -9z" />
<glyph horiz-adv-x="620" d="M318 549l36 -30l-192 -208l-1 -6l122 -189l-40 -30l-172 224l1 9zM528 549l36 -30l-192 -208l-1 -6l122 -189l-40 -30l-172 224l1 9z" />
<glyph horiz-adv-x="620" d="M92 86l-36 30l192 208l1 6l-122 189l40 30l172 -224l-1 -9zM302 86l-36 30l192 208l1 6l-122 189l40 30l172 -224l-1 -9z" />
<glyph horiz-adv-x="660" d="M585 6l-73 -21q-23 17 -45 36.5t-44 39.5q-48 -37 -102.5 -55.5t-111.5 -18.5q-90 0 -135.5 42t-45.5 106q0 41 13.5 73t36.5 57.5t53 45.5t62 38q-17 37 -26 73t-9 72q0 44 13 80.5t36 63t55.5 41t70.5 14.5q36 0 63.5 -11.5t46 -31t28 -44t9.5 -51.5q0 -45 -17.5 -78 t-46 -59.5t-64 -47.5t-72.5 -40q26 -47 63.5 -92t81.5 -89q36 39 59.5 89t33.5 104l74 10q-14 -77 -45 -139t-75 -108q27 -25 55.5 -48.5t57.5 -46.5v-4zM214 53q46 0 86.5 13.5t75.5 38.5q-46 46 -86 94t-70 99q-50 -29 -84 -64.5t-34 -88.5q0 -42 30.5 -67t81.5 -25z M229 498q0 -56 25 -117q31 16 59 32.5t49 35.5t33.5 42t12.5 52q0 42 -24 64.5t-56 22.5q-26 0 -44.5 -12t-30.5 -31.5t-18 -43t-6 -45.5z" />
<glyph horiz-adv-x="550" d="M517 446q0 -90 -22 -173t-61.5 -146.5t-94 -101.5t-118.5 -38q-39 0 -73 15.5t-58.5 46.5t-38.5 76.5t-14 105.5q0 93 20 176.5t58 147t92.5 101t123.5 37.5q84 0 135 -62.5t51 -184.5zM442 442q-1 88 -31.5 136.5t-86.5 48.5q-36 0 -74 -25t-68.5 -74t-50 -122 t-19.5 -169q0 -50 9.5 -85t25 -57.5t37 -32.5t45.5 -10q45 0 84 33t68 87.5t45 125t16 144.5z" />
<glyph horiz-adv-x="550" d="M206 -5l107 618l-141 -16l11 66l199 25l15 -12l-102 -577l-7 -94z" />
<glyph horiz-adv-x="550" d="M115 628q16 12 38.5 23.5t48.5 21t54.5 15t57.5 5.5q39 0 74 -9t61.5 -28t41.5 -49.5t15 -73.5q0 -52 -28.5 -109t-80.5 -116.5t-126.5 -120t-165.5 -120.5l1 -3l329 10l-12 -69l-445 -10l-4 38q132 96 219.5 170.5t139.5 133t73.5 104.5t21.5 85q0 51 -32 76.5t-88 25.5 q-26 0 -51.5 -6.5t-48 -15.5t-40.5 -19t-28 -17z" />
<glyph horiz-adv-x="550" d="M21 98q41 -23 81.5 -34.5t87.5 -11.5q36 0 71 10.5t62 31t44 50t17 68.5q0 23 -8.5 43t-24 34t-38.5 22t-52 7l-125 -4l20 71l110 -3q31 -1 60.5 10.5t51.5 31.5t35.5 47t13.5 59q0 46 -31 72.5t-82 26.5q-38 0 -75 -9t-73 -26l-17 57q24 14 68 28t98 14q85 0 137.5 -40 t52.5 -114q0 -35 -11.5 -65.5t-32 -54.5t-48 -41t-58.5 -24l-1 -6q25 -6 44.5 -18.5t33 -29.5t20.5 -37.5t7 -42.5q0 -64 -27 -108.5t-67.5 -72t-89 -40t-90.5 -12.5q-56 0 -98.5 10t-77.5 29l9 70z" />
<glyph horiz-adv-x="550" d="M479 205l-80 -2l-22 -127l-3 -71l-79 -10l35 207l-297 -7l-10 33l373 450l87 5l-73 -418l80 4zM341 263l57 320h-11l-263 -319l3 -9z" />
<glyph horiz-adv-x="550" d="M86 385l90 290l355 10l-22 -71l-286 -3l-52 -162q16 2 33 3t34 1q58 0 103 -15t75.5 -41.5t46 -62t15.5 -76.5q0 -65 -29 -115.5t-79.5 -85t-118 -52.5t-143.5 -18q-27 0 -51 2.5t-44 9.5l20 64q17 -5 40.5 -8t44.5 -3q67 0 120 15.5t89.5 42t55.5 63t19 78.5 q0 35 -14 61.5t-38.5 44t-59 26.5t-75.5 9q-22 0 -39.5 -0.5t-32 -2t-27.5 -3.5t-27 -4z" />
<glyph horiz-adv-x="550" d="M44 186q0 108 41.5 199t110.5 158t157.5 106t181.5 44l-23 -72q-65 -4 -123.5 -27.5t-105.5 -58.5t-80 -79t-48 -90l5 -5q30 19 65.5 29t69.5 10q37 0 71.5 -10t61 -31t42.5 -54.5t16 -80.5q0 -56 -21.5 -99.5t-55.5 -74.5t-77 -47t-85 -16q-52 0 -90.5 15t-63.5 41.5 t-37 63t-12 79.5zM410 221q0 30 -10.5 52.5t-28.5 37.5t-41.5 22t-48.5 7q-35 0 -74 -11t-74 -35q-9 -28 -12.5 -52t-3.5 -47q0 -67 34 -106.5t95 -39.5q34 0 64.5 13t53 35.5t35 54t11.5 69.5z" />
<glyph horiz-adv-x="550" d="M559 673q-136 -169 -223 -332.5t-125 -335.5l-87 -10q25 87 59 171.5t75 164t88 151t98 132.5l-3 5l-329 -14l19 70l420 10z" />
<glyph horiz-adv-x="550" d="M352 348q62 -38 89 -77.5t27 -82.5q0 -44 -19.5 -80.5t-52.5 -63.5t-76.5 -42t-91.5 -15q-45 0 -81 11.5t-61.5 32t-39 49.5t-13.5 64q0 36 13.5 67.5t37.5 58.5t56.5 48.5t71.5 36.5v3q-49 35 -70 72t-21 75t17.5 72.5t48 60t71 40.5t85.5 15q37 0 68.5 -9.5t54.5 -28 t36 -44.5t13 -59q0 -35 -14 -65.5t-36.5 -56.5t-52 -46t-60.5 -33v-3zM394 182q0 23 -10 43t-27.5 37.5t-40.5 33t-50 29.5q-79 -29 -118.5 -77t-39.5 -97q0 -47 35.5 -75t89.5 -28q34 0 63 10t51 28t34.5 42.5t12.5 53.5zM196 510q0 -38 24 -68.5t77 -62.5q63 26 103 69 t40 97q0 39 -29 63.5t-74 24.5q-33 0 -59 -10.5t-44 -27.5t-28 -39t-10 -46z" />
<glyph horiz-adv-x="550" d="M506 490q0 -105 -35 -191t-94 -150t-135.5 -105.5t-158.5 -58.5l-14 62l1 3q133 32 215.5 101.5t113.5 161.5l-5 4q-32 -19 -68 -28t-71 -9q-36 0 -70.5 10t-61 31t-42.5 52.5t-16 75.5q0 52 19.5 96.5t52 77.5t75 51.5t87.5 18.5q53 0 92 -15.5t64.5 -43t38 -64.5 t12.5 -80zM140 459q1 -31 12.5 -53t30.5 -36.5t44 -21.5t54 -7q35 0 70 10t67 32q7 29 11 54t4 48q0 66 -35 105.5t-98 39.5q-33 0 -62.5 -14t-51.5 -37t-34.5 -54.5t-11.5 -65.5z" />
<glyph horiz-adv-x="540" d="M487 306q0 -71 -21.5 -129.5t-58.5 -100.5t-86.5 -65.5t-104.5 -23.5q-42 0 -77 14t-61 40.5t-40.5 64.5t-14.5 86q0 73 23.5 132.5t62 101.5t87 64.5t98.5 22.5q40 0 75 -14t61.5 -40.5t41.5 -65t15 -87.5zM414 301q0 67 -33 107.5t-91 40.5q-33 0 -67 -16.5t-62.5 -49 t-46.5 -80.5t-18 -111q0 -36 10.5 -63t28 -44t40.5 -25.5t48 -8.5q39 0 74 19t61 52.5t41 79.5t15 99z" />
<glyph horiz-adv-x="390" d="M125 -5l77 442l-121 -17l6 63l179 25l15 -12l-71 -401l-6 -90z" />
<glyph horiz-adv-x="480" d="M76 463l25 12.5t41 17t53 14.5t62 6q34 0 64.5 -7.5t53 -23.5t35.5 -40.5t13 -58.5q0 -72 -76.5 -151t-221.5 -164l3 -2l253 8l-12 -69l-397 -10l-4 35q108 63 180 113.5t116 92t62.5 75t18.5 62.5q0 38 -28.5 57t-69.5 19q-25 0 -48.5 -5t-44 -12.5t-36 -15t-25.5 -12.5 z" />
<glyph horiz-adv-x="440" d="M0 76q32 -14 66.5 -20t71.5 -6q30 0 57.5 6.5t48.5 19.5t33 31.5t12 41.5q0 32 -25 53.5t-76 19.5l-101 -5l16 69l94 -2q27 0 49 7.5t38 20.5t25 30.5t9 37.5q0 33 -28.5 52.5t-73.5 19.5q-33 0 -63.5 -9t-62.5 -23l-2 1l-6 59q22 11 58.5 22t81.5 11q75 0 123 -31.5 t48 -93.5q0 -101 -119 -131l-1 -5q46 -8 67.5 -37.5t21.5 -65.5q0 -41 -19.5 -71.5t-52 -50.5t-74.5 -30t-87 -10q-48 0 -83.5 6t-67.5 19l20 63z" />
<glyph horiz-adv-x="490" d="M417 140l-71 -2l-13 -75v-58l-78 -10l23 143l-264 -8l-11 41l323 327l85 4l-54 -304l71 3zM288 195l40 226h-4l-228 -230l3 -5z" />
<glyph horiz-adv-x="460" d="M43 257l77 238l306 10l-21 -66l-241 -5l-37 -116q13 2 32.5 2.5t43.5 0.5q49 0 85 -11t59 -30t34.5 -44t11.5 -53q0 -44 -22.5 -80.5t-63.5 -62t-97.5 -39.5t-124.5 -14q-28 0 -53 2t-46 9l25 61q17 -5 42 -7.5t47 -2.5q57 0 98.5 10.5t68 28t39 40.5t12.5 48 q0 42 -37.5 64.5t-106.5 22.5q-47 0 -76 -2.5t-52 -6.5z" />
<glyph horiz-adv-x="480" d="M18 150q0 81 39 147t100 113.5t134 74t141 28.5l-20 -66q-52 -4 -97 -18.5t-82 -37t-65 -50.5t-46 -59l3 -3q29 20 62.5 29t68.5 9q29 0 58 -8.5t52 -26.5t37 -45.5t14 -64.5q0 -38 -16.5 -71.5t-46 -59t-69.5 -40t-87 -14.5q-46 0 -80 13t-56 35t-33 51.5t-11 63.5z M345 168q0 25 -10 43t-26 29t-36.5 16.5t-42.5 5.5q-35 0 -68.5 -10.5t-60.5 -30.5q-7 -20 -8.5 -38t-1.5 -32q0 -43 30 -73t81 -30q29 0 55.5 8.5t46 24t30.5 37.5t11 50z" />
<glyph horiz-adv-x="430" d="M425 493q-113 -118 -185 -244t-101 -244l-91 -10q40 120 106 231.5t154 207.5l-3 5l-260 -12l19 68l353 10z" />
<glyph horiz-adv-x="470" d="M290 255q53 -23 77.5 -54.5t24.5 -64.5q0 -38 -19.5 -66t-49.5 -46.5t-67 -27.5t-72 -9q-84 0 -130 33t-46 84q0 28 11.5 51.5t31.5 42t46.5 33t56.5 24.5v3q-48 27 -65.5 53.5t-17.5 55.5q0 27 14.5 53.5t41 47t62 33t77.5 12.5q70 0 112.5 -33t42.5 -82 q0 -26 -11 -47.5t-29 -38.5t-41.5 -30t-49.5 -23v-4zM317 130q0 32 -30.5 57t-76.5 44q-63 -21 -97 -53.5t-34 -65.5q0 -32 31 -48t79 -16q25 0 48 5t41 15.5t28.5 26t10.5 35.5zM147 368q0 -23 20 -45t65 -43q24 9 45.5 21.5t37.5 26.5t25 29.5t9 31.5q0 26 -22.5 45.5 t-65.5 19.5q-29 0 -50 -7.5t-35.5 -20t-21.5 -28t-7 -30.5z" />
<glyph horiz-adv-x="480" d="M50 45q52 8 98.5 24t84 39t65.5 51.5t42 61.5l-3 2q-32 -23 -69.5 -34.5t-72.5 -11.5q-32 0 -61 8.5t-51 26t-35.5 44.5t-13.5 64t16.5 72t45.5 62t68.5 43t84.5 16q47 0 81.5 -13.5t57.5 -37t34 -54.5t11 -67q0 -82 -33.5 -144.5t-86.5 -106t-118.5 -69.5t-129.5 -34 l-16 56zM105 324q0 -23 9 -40t24 -27.5t35 -15.5t42 -5q74 0 138 41q7 19 7.5 34.5t0.5 30.5q0 50 -30.5 80t-83.5 30q-33 0 -59.5 -11.5t-44.5 -29.5t-28 -41t-10 -46z" />
<glyph horiz-adv-x="530" d="M279 260h203v-58h-203v-203h-58v203h-203v58h203v203h58v-203z" />
<glyph horiz-adv-x="530" d="M18 202v58h464v-58h-464z" />
<glyph horiz-adv-x="530" d="M250 267l154 154l41 -41l-154 -154l154 -154l-41 -41l-154 154l-154 -154l-41 41l154 154l-154 154l41 41z" />
<glyph horiz-adv-x="530" d="M18 202v58h464v-58h-464zM196 395q0 23 15.5 38.5t38.5 15.5t38.5 -15.5t15.5 -38.5t-15.5 -38.5t-38.5 -15.5t-38.5 15.5t-15.5 38.5zM196 67q0 23 15.5 38.5t38.5 15.5t38.5 -15.5t15.5 -38.5t-15.5 -38.5t-38.5 -15.5t-38.5 15.5t-15.5 38.5z" />
<glyph horiz-adv-x="530" d="M28 98v58h444v-58h-444zM28 298v58h444v-58h-444z" />
<glyph horiz-adv-x="530" d="M217 98l-66 -144l-46 23l56 121h-133v58h159l66 142h-225v58h252l65 141l46 -23l-55 -118h136v-58h-163l-65 -142h228v-58h-255z" />
<glyph horiz-adv-x="530" d="M105 251l359 -171l-25 -50l-404 195v52l404 195l25 -50z" />
<glyph horiz-adv-x="530" d="M36 422l25 50l404 -195v-52l-404 -195l-25 50l359 171z" />
<glyph horiz-adv-x="530" d="M105 311l359 -171l-25 -50l-404 195v52l404 195l25 -50zM28 -25v58h444v-58h-444z" />
<glyph horiz-adv-x="530" d="M36 482l25 50l404 -195v-52l-404 -195l-25 50l359 171zM28 -25v58h444v-58h-444z" />
<glyph horiz-adv-x="460" d="M100 -112l27 99q-42 5 -77 18.5t-52 30.5l30 62q24 -18 52 -30.5t64 -16.5l50 183l-7 4q-22 11 -43.5 23t-38 27t-27 33.5t-10.5 42.5q0 28 13 55t38.5 48.5t62.5 34.5t85 13h4l28 101l40 -10l-26 -96q28 -5 57 -15t51 -25l-26 -57q-24 14 -47.5 24t-51.5 14l-47 -172 q1 -1 3 -1q67 -32 95.5 -67.5t28.5 -73.5q0 -33 -15 -60.5t-42 -48t-65.5 -32.5t-85.5 -12l-28 -105zM306 130q0 22 -15 40.5t-59 44.5l-46 -166q30 1 52.5 8t37.5 18.5t22.5 25.5t7.5 29zM138 372q0 -9 2.5 -17.5t10.5 -16.5t22.5 -18t38.5 -22l42 156q-22 -1 -43 -6 t-37 -15.5t-26 -25.5t-10 -35z" />
<glyph horiz-adv-x="440" d="M124 -75l27 98q-52 14 -82.5 56.5t-30.5 107.5q0 62 20.5 116.5t54.5 95.5t78 65.5t92 26.5q8 28 15.5 55t15.5 55l41 -10q-8 -26 -15 -51t-14 -51q26 -4 49.5 -14t46.5 -30l-35 -51q-21 17 -39.5 25.5t-38.5 10.5l-99 -353h14q34 0 63.5 13t53.5 30l18 -51 q-30 -25 -70 -39t-82 -14h-13q-8 -26 -14.5 -50.5t-13.5 -50.5zM110 193q0 -43 16 -69t43 -37l96 341q-30 -7 -58 -27t-49.5 -50.5t-34.5 -70.5t-13 -87z" />
<glyph horiz-adv-x="540" d="M115 326q19 44 50.5 78.5t68.5 58t77.5 35.5t79.5 12q46 0 79.5 -12t50.5 -26l-34 -56q-8 8 -35 19t-65 11q-57 0 -110.5 -30t-84.5 -90h260l-22 -49h-257l-4 -20t-3 -21h247l-22 -49h-226q5 -60 45.5 -96t105.5 -36q34 0 63.5 8.5t49.5 19.5l20 -57q-69 -36 -146 -36 q-46 0 -84 15t-65.5 41t-44 62.5t-19.5 78.5h-63l22 49h42q2 11 4 21l4 20h-53l22 49h47z" />
<glyph horiz-adv-x="460" d="M120 278q-1 13 -1.5 25.5t-0.5 25.5q0 49 16 84t42.5 57.5t59.5 33.5t67 11q30 0 52.5 -5.5t38.5 -13t26 -15t14 -11.5l-36 -57q-12 14 -38.5 25t-54.5 11q-21 0 -41.5 -7t-37 -22.5t-27 -39t-10.5 -56.5q0 -11 0.5 -23t1.5 -23h134l-11 -49h-122q-3 -35 -22 -69t-54 -65 l6 -10q8 2 21.5 5t28.5 3q21 0 34 -6t24.5 -13.5t24.5 -13.5t34 -6q20 0 39 5.5t43 21.5l5 -2l2 -54q-23 -19 -51.5 -27t-48.5 -8q-22 0 -37 6.5t-29 14.5t-30 14.5t-40 6.5q-32 0 -65 -14t-59 -28l-24 65q33 20 55.5 41.5t37 44t22 45t9.5 43.5h-73l11 49h64z" />
<glyph horiz-adv-x="470" d="M174 202l2 11l-139 282l65 10l115 -234h7l190 234l70 -10l-238 -282l-2 -11h96l-9 -49h-96l-7 -40h96l-8 -49h-97l-10 -59l-70 -10l11 69h-96l8 49h97l7 40h-97l9 49h96z" />
<glyph horiz-adv-x="440" d="M144 393l39 170l48 -11l-40 -167l90 -16l46 187l43 -10l-45 -185l87 -15l-9 -48l-89 15l-31 -127l80 -14l-10 -48l-82 14l-45 -187l-43 10l44 185l-90 15l-48 -202l-43 10l46 200l-87 16l9 48l89 -16l30 128l-78 14l9 48zM149 209l90 -16l31 128l-91 16z" />
<glyph horiz-adv-x="580" d="M277 261l201 259l42 -26l-218 -256l-205 -267l-42 27z" />
<glyph horiz-adv-x="670" d="M284 395q0 -34 -11.5 -65t-31.5 -55t-47.5 -38t-58.5 -14q-49 0 -79 32t-30 84q0 36 12 68t32 55.5t47 37t56 13.5q54 0 82.5 -32.5t28.5 -85.5zM227 392q0 32 -14.5 51t-40.5 19q-17 0 -32.5 -9.5t-28.5 -25.5t-20.5 -37.5t-7.5 -45.5q0 -32 15.5 -51t43.5 -19 q16 0 31 10t27 26.5t19.5 37.5t7.5 44zM303 255l213 264l42 -26l-230 -261l-198 -247l-42 27zM611 159q0 -34 -11 -65t-31 -55t-47 -38t-58 -14q-49 0 -80 32t-31 84q0 36 12 68t32 55.5t47 37t56 13.5q54 0 82.5 -32.5t28.5 -85.5zM554 156q0 32 -14.5 51t-40.5 19 q-17 0 -32.5 -9.5t-28.5 -25.5t-20.5 -37.5t-7.5 -45.5q0 -32 15.5 -51t43.5 -19q16 0 31 10t27 26.5t19.5 37.5t7.5 44z" />
<glyph horiz-adv-x="950" d="M284 395q0 -34 -11.5 -65t-31.5 -55t-47.5 -38t-58.5 -14q-49 0 -79 32t-30 84q0 36 12 68t32 55.5t47 37t56 13.5q54 0 82.5 -32.5t28.5 -85.5zM227 392q0 32 -14.5 51t-40.5 19q-17 0 -32.5 -9.5t-28.5 -25.5t-20.5 -37.5t-7.5 -45.5q0 -32 15.5 -51t43.5 -19 q16 0 31 10t27 26.5t19.5 37.5t7.5 44zM303 255l213 264l42 -26l-230 -261l-198 -247l-42 27zM611 159q0 -34 -11 -65t-31 -55t-47 -38t-58 -14q-49 0 -80 32t-31 84q0 36 12 68t32 55.5t47 37t56 13.5q54 0 82.5 -32.5t28.5 -85.5zM554 156q0 32 -14.5 51t-40.5 19 q-17 0 -32.5 -9.5t-28.5 -25.5t-20.5 -37.5t-7.5 -45.5q0 -32 15.5 -51t43.5 -19q16 0 31 10t27 26.5t19.5 37.5t7.5 44zM891 159q0 -34 -11 -65t-31 -55t-47 -38t-58 -14q-49 0 -80 32t-31 84q0 36 12 68t32 55.5t47 37t56 13.5q54 0 82.5 -32.5t28.5 -85.5zM834 156 q0 32 -14.5 51t-40.5 19q-17 0 -32.5 -9.5t-28.5 -25.5t-20.5 -37.5t-7.5 -45.5q0 -32 15.5 -51t43.5 -19q16 0 31 10t27 26.5t19.5 37.5t7.5 44z" />
<glyph horiz-adv-x="330" d="M276 193l-48 -16q-15 15 -14 48h-4q-18 -24 -43.5 -36t-51.5 -12q-43 0 -65.5 25.5t-22.5 58.5q0 27 11 52q39 35 89.5 49.5t101.5 10.5l6 28q5 31 -10 46.5t-40 15.5q-20 0 -43 -9t-48 -26l-18 47q23 16 53 28t62 12q51 0 79 -32.5t19 -84.5l-25 -145q-2 -17 1 -33.5 t11 -24.5v-2zM223 327q-18 1 -37.5 -0.5t-37.5 -6.5t-33.5 -12.5t-25.5 -17.5q-4 -6 -4.5 -13.5t-0.5 -13.5q0 -14 9.5 -24.5t30.5 -10.5q13 0 28 5.5t29 17.5t25.5 31t16.5 45z" />
<glyph horiz-adv-x="370" d="M334 382q0 -44 -13.5 -81t-36.5 -65t-54.5 -43.5t-68.5 -15.5q-54 0 -87.5 36t-33.5 96q0 41 13.5 78.5t37 66t54.5 45t66 16.5q60 0 91.5 -36.5t31.5 -96.5zM273 380q0 38 -16.5 61t-49.5 23q-21 0 -40 -12.5t-33.5 -33.5t-23 -49t-8.5 -60q0 -37 16 -59t47 -22 q25 0 45 13t34.5 34.5t22 48.5t6.5 56z" />
<glyph horiz-adv-x="370" d="M41 369q0 30 11.5 56t31 45.5t45.5 31t55 11.5q30 0 56 -11.5t45.5 -31t31 -45.5t11.5 -56q0 -29 -11.5 -55t-31 -45.5t-45.5 -31t-56 -11.5q-29 0 -55 11.5t-45.5 31t-31 45.5t-11.5 55zM98 369q0 -37 24 -63.5t61 -26.5t61.5 26.5t24.5 63.5t-24.5 64.5t-61.5 27.5 t-61 -27.5t-24 -64.5z" />
<glyph d="M310 562q0 -54 -13 -100.5t-35 -80.5t-51.5 -53.5t-63.5 -19.5q-46 0 -76 31.5t-30 100.5q0 61 14.5 108.5t38 80.5t53 50t58.5 17q48 0 76.5 -33.5t28.5 -100.5zM254 558q0 42 -14.5 65t-37.5 23q-17 0 -35.5 -13t-34 -39t-25.5 -64t-10 -88q0 -45 16 -64.5t38 -19.5 t40.5 17t32.5 45t22 64t8 74z" />
<glyph d="M121 310l56 326l-64 -8l5 52l115 14l8 -7l-54 -304l-5 -65z" />
<glyph d="M94 664q4 3 14.5 8.5t24.5 11t31.5 9t36.5 3.5q47 0 77.5 -19.5t30.5 -64.5q0 -57 -51.5 -118.5t-142.5 -125.5l2 -3l157 10l-10 -55l-249 -10l-2 24q67 51 112.5 91t73.5 72.5t39.5 57.5t11.5 46q0 23 -15 34t-40 11q-29 0 -52.5 -9t-34.5 -15z" />
<glyph d="M46 382q37 -24 84 -24q18 0 34 5t29 14.5t20.5 24t7.5 32.5q0 20 -14 35t-40 14l-64 -2l10 54l59 -2q13 0 26 4.5t23.5 13.5t17 21t6.5 26q0 23 -16 36t-43 13q-16 0 -34.5 -4.5t-36.5 -13.5l-9 43q14 8 39.5 16t51.5 8q48 0 77 -23t29 -65q0 -38 -24 -64t-59 -33l-1 -5 q26 -5 42 -26.5t16 -45.5q0 -36 -16 -60t-39.5 -39t-49.5 -21t-46 -6q-61 0 -98 24z" />
<glyph d="M292 425l-41 -1l-19 -104l-54 -10l19 113l-157 -8l-5 32l193 240l70 4l-40 -222l41 1zM204 467l29 156l-6 1l-127 -159l2 -4z" />
<glyph d="M68 516l52 168l195 10l-15 -54l-147 -5l-23 -72q7 1 15 1h15q66 0 97.5 -29.5t31.5 -74.5q0 -36 -16.5 -64.5t-44.5 -48t-65 -29.5t-79 -10q-17 0 -31.5 1t-25.5 5l17 51q10 -4 24.5 -4.5t26.5 -0.5q66 0 101 28.5t35 64.5q0 33 -28.5 49.5t-80.5 16.5q-14 0 -26 -1.5 t-26 -3.5z" />
<glyph d="M119 515q17 13 35 20.5t38 7.5q19 0 36.5 -6t31.5 -18.5t22.5 -33t8.5 -48.5q0 -32 -12 -56t-31 -40.5t-42.5 -24.5t-47.5 -8q-62 0 -89.5 33.5t-27.5 83.5q0 64 26 114t66.5 84.5t89 53t92.5 19.5l-16 -54q-33 -2 -63 -13.5t-54 -28.5t-41 -38.5t-24 -43.5zM235 435 q0 32 -20.5 46.5t-46.5 14.5q-14 0 -30.5 -5.5t-31.5 -16.5q-5 -14 -6.5 -26t-1.5 -23q0 -32 16.5 -50t45.5 -18q33 0 54.5 22t20.5 56z" />
<glyph d="M336 687q-72 -92 -120 -182t-69 -185l-66 -10q27 93 71.5 177t98.5 150l-2 2l-164 -8l13 53l234 10z" />
<glyph d="M227 510q32 -23 45.5 -45.5t13.5 -48.5q0 -23 -10.5 -43t-29 -34.5t-43 -22.5t-52.5 -8q-51 0 -80 24t-29 64q0 37 23.5 66.5t69.5 45.5v3q-24 20 -34.5 39.5t-10.5 41.5q0 21 9.5 40t26 33.5t39.5 22.5t49 8q42 0 70 -20.5t28 -58.5q0 -35 -22.5 -60.5t-62.5 -43.5v-3z M230 414q0 23 -17 41t-43 32q-31 -14 -52 -35.5t-21 -51.5q0 -21 16.5 -34t41.5 -13q32 0 53.5 16.5t21.5 44.5zM147 595q0 -18 11 -32.5t35 -30.5q28 13 46 34t18 46q0 17 -13 28.5t-34 11.5q-32 0 -47.5 -18.5t-15.5 -38.5z" />
<glyph d="M240 483q-2 0 -4 2q-13 -11 -32 -17.5t-36 -6.5q-20 0 -38.5 6t-33 18.5t-23.5 31.5t-9 45q0 28 11 52.5t30 42.5t43.5 28.5t51.5 10.5q58 0 85.5 -33.5t27.5 -84.5q0 -57 -20 -103t-53 -80t-75 -56.5t-87 -31.5l-5 50q66 14 109.5 48t57.5 78zM121 566q0 -33 20 -45.5 t45 -12.5q17 0 35 6.5t29 15.5q4 11 6.5 24.5t2.5 25.5q0 30 -16 48.5t-45 18.5q-33 0 -56 -23.5t-21 -57.5z" />
<glyph d="M260 207q0 -54 -13 -100.5t-35 -80.5t-51.5 -53.5t-63.5 -19.5q-46 0 -76 31.5t-30 100.5q0 61 14.5 108.5t38 80.5t53 50t58.5 17q48 0 76.5 -33.5t28.5 -100.5zM204 203q0 42 -14.5 65t-37.5 23q-17 0 -35.5 -13t-34 -39t-25.5 -64t-10 -88q0 -45 16 -64.5t38 -19.5 t40.5 17t32.5 45t22 64t8 74z" />
<glyph d="M71 -45l56 326l-64 -8l5 52l115 14l8 -7l-54 -304l-5 -65z" />
<glyph d="M44 309q4 3 14.5 8.5t24.5 11t31.5 9t36.5 3.5q47 0 77.5 -19.5t30.5 -64.5q0 -57 -51.5 -118.5t-142.5 -125.5l2 -3l157 10l-10 -55l-249 -10l-2 24q67 51 112.5 91t73.5 72.5t39.5 57.5t11.5 46q0 23 -15 34t-40 11q-29 0 -52.5 -9t-34.5 -15z" />
<glyph d="M-4 27q37 -24 84 -24q18 0 34 5t29 14.5t20.5 24t7.5 32.5q0 20 -14 35t-40 14l-64 -2l10 54l59 -2q13 0 26 4.5t23.5 13.5t17 21t6.5 26q0 23 -16 36t-43 13q-16 0 -34.5 -4.5t-36.5 -13.5l-9 43q14 8 39.5 16t51.5 8q48 0 77 -23t29 -65q0 -38 -24 -64t-59 -33l-1 -5 q26 -5 42 -26.5t16 -45.5q0 -36 -16 -60t-39.5 -39t-49.5 -21t-46 -6q-61 0 -98 24z" />
<glyph d="M242 70l-41 -1l-19 -104l-54 -10l19 113l-157 -8l-5 32l193 240l70 4l-40 -222l41 1zM154 112l29 156l-6 1l-127 -159l2 -4z" />
<glyph d="M18 161l52 168l195 10l-15 -54l-147 -5l-23 -72q7 1 15 1h15q66 0 97.5 -29.5t31.5 -74.5q0 -36 -16.5 -64.5t-44.5 -48t-65 -29.5t-79 -10q-17 0 -31.5 1t-25.5 5l17 51q10 -4 24.5 -4.5t26.5 -0.5q66 0 101 28.5t35 64.5q0 33 -28.5 49.5t-80.5 16.5q-14 0 -26 -1.5 t-26 -3.5z" />
<glyph d="M69 160q17 13 35 20.5t38 7.5q19 0 36.5 -6t31.5 -18.5t22.5 -33t8.5 -48.5q0 -32 -12 -56t-31 -40.5t-42.5 -24.5t-47.5 -8q-62 0 -89.5 33.5t-27.5 83.5q0 64 26 114t66.5 84.5t89 53t92.5 19.5l-16 -54q-33 -2 -63 -13.5t-54 -28.5t-41 -38.5t-24 -43.5zM185 80 q0 32 -20.5 46.5t-46.5 14.5q-14 0 -30.5 -5.5t-31.5 -16.5q-5 -14 -6.5 -26t-1.5 -23q0 -32 16.5 -50t45.5 -18q33 0 54.5 22t20.5 56z" />
<glyph d="M286 332q-72 -92 -120 -182t-69 -185l-66 -10q27 93 71.5 177t98.5 150l-2 2l-164 -8l13 53l234 10z" />
<glyph d="M177 155q32 -23 45.5 -45.5t13.5 -48.5q0 -23 -10.5 -43t-29 -34.5t-43 -22.5t-52.5 -8q-51 0 -80 24t-29 64q0 37 23.5 66.5t69.5 45.5v3q-24 20 -34.5 39.5t-10.5 41.5q0 21 9.5 40t26 33.5t39.5 22.5t49 8q42 0 70 -20.5t28 -58.5q0 -35 -22.5 -60.5t-62.5 -43.5v-3z M180 59q0 23 -17 41t-43 32q-31 -14 -52 -35.5t-21 -51.5q0 -21 16.5 -34t41.5 -13q32 0 53.5 16.5t21.5 44.5zM97 240q0 -18 11 -32.5t35 -30.5q28 13 46 34t18 46q0 17 -13 28.5t-34 11.5q-32 0 -47.5 -18.5t-15.5 -38.5z" />
<glyph d="M190 128q-2 0 -4 2q-13 -11 -32 -17.5t-36 -6.5q-20 0 -38.5 6t-33 18.5t-23.5 31.5t-9 45q0 28 11 52.5t30 42.5t43.5 28.5t51.5 10.5q58 0 85.5 -33.5t27.5 -84.5q0 -57 -20 -103t-53 -80t-75 -56.5t-87 -31.5l-5 50q66 14 109.5 48t57.5 78zM71 211q0 -33 20 -45.5 t45 -12.5q17 0 35 6.5t29 15.5q4 11 6.5 24.5t2.5 25.5q0 30 -16 48.5t-45 18.5q-33 0 -56 -23.5t-21 -57.5z" />
<glyph d="M310 482q0 -54 -13 -100.5t-35 -80.5t-51.5 -53.5t-63.5 -19.5q-46 0 -76 31.5t-30 100.5q0 61 14.5 108.5t38 80.5t53 50t58.5 17q48 0 76.5 -33.5t28.5 -100.5zM254 478q0 42 -14.5 65t-37.5 23q-17 0 -35.5 -13t-34 -39t-25.5 -64t-10 -88q0 -45 16 -64.5t38 -19.5 t40.5 17t32.5 45t22 64t8 74z" />
<glyph d="M121 230l56 326l-64 -8l5 52l115 14l8 -7l-54 -304l-5 -65z" />
<glyph d="M94 584q4 3 14.5 8.5t24.5 11t31.5 9t36.5 3.5q47 0 77.5 -19.5t30.5 -64.5q0 -57 -51.5 -118.5t-142.5 -125.5l2 -3l157 10l-10 -55l-249 -10l-2 24q67 51 112.5 91t73.5 72.5t39.5 57.5t11.5 46q0 23 -15 34t-40 11q-29 0 -52.5 -9t-34.5 -15z" />
<glyph d="M46 302q37 -24 84 -24q18 0 34 5t29 14.5t20.5 24t7.5 32.5q0 20 -14 35t-40 14l-64 -2l10 54l59 -2q13 0 26 4.5t23.5 13.5t17 21t6.5 26q0 23 -16 36t-43 13q-16 0 -34.5 -4.5t-36.5 -13.5l-9 43q14 8 39.5 16t51.5 8q48 0 77 -23t29 -65q0 -38 -24 -64t-59 -33l-1 -5 q26 -5 42 -26.5t16 -45.5q0 -36 -16 -60t-39.5 -39t-49.5 -21t-46 -6q-61 0 -98 24z" />
<glyph d="M292 345l-41 -1l-19 -104l-54 -10l19 113l-157 -8l-5 32l193 240l70 4l-40 -222l41 1zM204 387l29 156l-6 1l-127 -159l2 -4z" />
<glyph d="M68 436l52 168l195 10l-15 -54l-147 -5l-23 -72q7 1 15 1h15q66 0 97.5 -29.5t31.5 -74.5q0 -36 -16.5 -64.5t-44.5 -48t-65 -29.5t-79 -10q-17 0 -31.5 1t-25.5 5l17 51q10 -4 24.5 -4.5t26.5 -0.5q66 0 101 28.5t35 64.5q0 33 -28.5 49.5t-80.5 16.5q-14 0 -26 -1.5 t-26 -3.5z" />
<glyph d="M119 435q17 13 35 20.5t38 7.5q19 0 36.5 -6t31.5 -18.5t22.5 -33t8.5 -48.5q0 -32 -12 -56t-31 -40.5t-42.5 -24.5t-47.5 -8q-62 0 -89.5 33.5t-27.5 83.5q0 64 26 114t66.5 84.5t89 53t92.5 19.5l-16 -54q-33 -2 -63 -13.5t-54 -28.5t-41 -38.5t-24 -43.5zM235 355 q0 32 -20.5 46.5t-46.5 14.5q-14 0 -30.5 -5.5t-31.5 -16.5q-5 -14 -6.5 -26t-1.5 -23q0 -32 16.5 -50t45.5 -18q33 0 54.5 22t20.5 56z" />
<glyph d="M336 607q-72 -92 -120 -182t-69 -185l-66 -10q27 93 71.5 177t98.5 150l-2 2l-164 -8l13 53l234 10z" />
<glyph d="M227 430q32 -23 45.5 -45.5t13.5 -48.5q0 -23 -10.5 -43t-29 -34.5t-43 -22.5t-52.5 -8q-51 0 -80 24t-29 64q0 37 23.5 66.5t69.5 45.5v3q-24 20 -34.5 39.5t-10.5 41.5q0 21 9.5 40t26 33.5t39.5 22.5t49 8q42 0 70 -20.5t28 -58.5q0 -35 -22.5 -60.5t-62.5 -43.5v-3z M230 334q0 23 -17 41t-43 32q-31 -14 -52 -35.5t-21 -51.5q0 -21 16.5 -34t41.5 -13q32 0 53.5 16.5t21.5 44.5zM147 515q0 -18 11 -32.5t35 -30.5q28 13 46 34t18 46q0 17 -13 28.5t-34 11.5q-32 0 -47.5 -18.5t-15.5 -38.5z" />
<glyph d="M240 403q-2 0 -4 2q-13 -11 -32 -17.5t-36 -6.5q-20 0 -38.5 6t-33 18.5t-23.5 31.5t-9 45q0 28 11 52.5t30 42.5t43.5 28.5t51.5 10.5q58 0 85.5 -33.5t27.5 -84.5q0 -57 -20 -103t-53 -80t-75 -56.5t-87 -31.5l-5 50q66 14 109.5 48t57.5 78zM121 486q0 -33 20 -45.5 t45 -12.5q17 0 35 6.5t29 15.5q4 11 6.5 24.5t2.5 25.5q0 30 -16 48.5t-45 18.5q-33 0 -56 -23.5t-21 -57.5z" />
<glyph d="M260 127q0 -54 -13 -100.5t-35 -80.5t-51.5 -53.5t-63.5 -19.5q-46 0 -76 31.5t-30 100.5q0 61 14.5 108.5t38 80.5t53 50t58.5 17q48 0 76.5 -33.5t28.5 -100.5zM204 123q0 42 -14.5 65t-37.5 23q-17 0 -35.5 -13t-34 -39t-25.5 -64t-10 -88q0 -45 16 -64.5t38 -19.5 t40.5 17t32.5 45t22 64t8 74z" />
<glyph d="M71 -125l56 326l-64 -8l5 52l115 14l8 -7l-54 -304l-5 -65z" />
<glyph d="M44 229q4 3 14.5 8.5t24.5 11t31.5 9t36.5 3.5q47 0 77.5 -19.5t30.5 -64.5q0 -57 -51.5 -118.5t-142.5 -125.5l2 -3l157 10l-10 -55l-249 -10l-2 24q67 51 112.5 91t73.5 72.5t39.5 57.5t11.5 46q0 23 -15 34t-40 11q-29 0 -52.5 -9t-34.5 -15z" />
<glyph d="M-4 -53q37 -24 84 -24q18 0 34 5t29 14.5t20.5 24t7.5 32.5q0 20 -14 35t-40 14l-64 -2l10 54l59 -2q13 0 26 4.5t23.5 13.5t17 21t6.5 26q0 23 -16 36t-43 13q-16 0 -34.5 -4.5t-36.5 -13.5l-9 43q14 8 39.5 16t51.5 8q48 0 77 -23t29 -65q0 -38 -24 -64t-59 -33l-1 -5 q26 -5 42 -26.5t16 -45.5q0 -36 -16 -60t-39.5 -39t-49.5 -21t-46 -6q-61 0 -98 24z" />
<glyph d="M242 -10l-41 -1l-19 -104l-54 -10l19 113l-157 -8l-5 32l193 240l70 4l-40 -222l41 1zM154 32l29 156l-6 1l-127 -159l2 -4z" />
<glyph d="M18 81l52 168l195 10l-15 -54l-147 -5l-23 -72q7 1 15 1h15q66 0 97.5 -29.5t31.5 -74.5q0 -36 -16.5 -64.5t-44.5 -48t-65 -29.5t-79 -10q-17 0 -31.5 1t-25.5 5l17 51q10 -4 24.5 -4.5t26.5 -0.5q66 0 101 28.5t35 64.5q0 33 -28.5 49.5t-80.5 16.5q-14 0 -26 -1.5 t-26 -3.5z" />
<glyph d="M69 80q17 13 35 20.5t38 7.5q19 0 36.5 -6t31.5 -18.5t22.5 -33t8.5 -48.5q0 -32 -12 -56t-31 -40.5t-42.5 -24.5t-47.5 -8q-62 0 -89.5 33.5t-27.5 83.5q0 64 26 114t66.5 84.5t89 53t92.5 19.5l-16 -54q-33 -2 -63 -13.5t-54 -28.5t-41 -38.5t-24 -43.5zM185 0 q0 32 -20.5 46.5t-46.5 14.5q-14 0 -30.5 -5.5t-31.5 -16.5q-5 -14 -6.5 -26t-1.5 -23q0 -32 16.5 -50t45.5 -18q33 0 54.5 22t20.5 56z" />
<glyph d="M286 252q-72 -92 -120 -182t-69 -185l-66 -10q27 93 71.5 177t98.5 150l-2 2l-164 -8l13 53l234 10z" />
<glyph d="M177 75q32 -23 45.5 -45.5t13.5 -48.5q0 -23 -10.5 -43t-29 -34.5t-43 -22.5t-52.5 -8q-51 0 -80 24t-29 64q0 37 23.5 66.5t69.5 45.5v3q-24 20 -34.5 39.5t-10.5 41.5q0 21 9.5 40t26 33.5t39.5 22.5t49 8q42 0 70 -20.5t28 -58.5q0 -35 -22.5 -60.5t-62.5 -43.5v-3z M180 -21q0 23 -17 41t-43 32q-31 -14 -52 -35.5t-21 -51.5q0 -21 16.5 -34t41.5 -13q32 0 53.5 16.5t21.5 44.5zM97 160q0 -18 11 -32.5t35 -30.5q28 13 46 34t18 46q0 17 -13 28.5t-34 11.5q-32 0 -47.5 -18.5t-15.5 -38.5z" />
<glyph d="M190 48q-2 0 -4 2q-13 -11 -32 -17.5t-36 -6.5q-20 0 -38.5 6t-33 18.5t-23.5 31.5t-9 45q0 28 11 52.5t30 42.5t43.5 28.5t51.5 10.5q58 0 85.5 -33.5t27.5 -84.5q0 -57 -20 -103t-53 -80t-75 -56.5t-87 -31.5l-5 50q66 14 109.5 48t57.5 78zM71 131q0 -33 20 -45.5 t45 -12.5q17 0 35 6.5t29 15.5q4 11 6.5 24.5t2.5 25.5q0 30 -16 48.5t-45 18.5q-33 0 -56 -23.5t-21 -57.5z" />
<glyph d="M240 87q0 -54 -13 -100.5t-35 -80.5t-51.5 -53.5t-63.5 -19.5q-46 0 -76 31.5t-30 100.5q0 61 14.5 108.5t38 80.5t53 50t58.5 17q48 0 76.5 -33.5t28.5 -100.5zM184 83q0 42 -14.5 65t-37.5 23q-17 0 -35.5 -13t-34 -39t-25.5 -64t-10 -88q0 -45 16 -64.5t38 -19.5 t40.5 17t32.5 45t22 64t8 74z" />
<glyph d="M51 -165l56 326l-64 -8l5 52l115 14l8 -7l-54 -304l-5 -65z" />
<glyph d="M24 189q4 3 14.5 8.5t24.5 11t31.5 9t36.5 3.5q47 0 77.5 -19.5t30.5 -64.5q0 -57 -51.5 -118.5t-142.5 -125.5l2 -3l157 10l-10 -55l-249 -10l-2 24q67 51 112.5 91t73.5 72.5t39.5 57.5t11.5 46q0 23 -15 34t-40 11q-29 0 -52.5 -9t-34.5 -15z" />
<glyph d="M-24 -93q37 -24 84 -24q18 0 34 5t29 14.5t20.5 24t7.5 32.5q0 20 -14 35t-40 14l-64 -2l10 54l59 -2q13 0 26 4.5t23.5 13.5t17 21t6.5 26q0 23 -16 36t-43 13q-16 0 -34.5 -4.5t-36.5 -13.5l-9 43q14 8 39.5 16t51.5 8q48 0 77 -23t29 -65q0 -38 -24 -64t-59 -33l-1 -5 q26 -5 42 -26.5t16 -45.5q0 -36 -16 -60t-39.5 -39t-49.5 -21t-46 -6q-61 0 -98 24z" />
<glyph d="M222 -50l-41 -1l-19 -104l-54 -10l19 113l-157 -8l-5 32l193 240l70 4l-40 -222l41 1zM134 -8l29 156l-6 1l-127 -159l2 -4z" />
<glyph d="M-2 41l52 168l195 10l-15 -54l-147 -5l-23 -72q7 1 15 1h15q66 0 97.5 -29.5t31.5 -74.5q0 -36 -16.5 -64.5t-44.5 -48t-65 -29.5t-79 -10q-17 0 -31.5 1t-25.5 5l17 51q10 -4 24.5 -4.5t26.5 -0.5q66 0 101 28.5t35 64.5q0 33 -28.5 49.5t-80.5 16.5q-14 0 -26 -1.5 t-26 -3.5z" />
<glyph d="M49 40q17 13 35 20.5t38 7.5q19 0 36.5 -6t31.5 -18.5t22.5 -33t8.5 -48.5q0 -32 -12 -56t-31 -40.5t-42.5 -24.5t-47.5 -8q-62 0 -89.5 33.5t-27.5 83.5q0 64 26 114t66.5 84.5t89 53t92.5 19.5l-16 -54q-33 -2 -63 -13.5t-54 -28.5t-41 -38.5t-24 -43.5zM165 -40 q0 32 -20.5 46.5t-46.5 14.5q-14 0 -30.5 -5.5t-31.5 -16.5q-5 -14 -6.5 -26t-1.5 -23q0 -32 16.5 -50t45.5 -18q33 0 54.5 22t20.5 56z" />
<glyph d="M266 212q-72 -92 -120 -182t-69 -185l-66 -10q27 93 71.5 177t98.5 150l-2 2l-164 -8l13 53l234 10z" />
<glyph d="M157 35q32 -23 45.5 -45.5t13.5 -48.5q0 -23 -10.5 -43t-29 -34.5t-43 -22.5t-52.5 -8q-51 0 -80 24t-29 64q0 37 23.5 66.5t69.5 45.5v3q-24 20 -34.5 39.5t-10.5 41.5q0 21 9.5 40t26 33.5t39.5 22.5t49 8q42 0 70 -20.5t28 -58.5q0 -35 -22.5 -60.5t-62.5 -43.5v-3z M160 -61q0 23 -17 41t-43 32q-31 -14 -52 -35.5t-21 -51.5q0 -21 16.5 -34t41.5 -13q32 0 53.5 16.5t21.5 44.5zM77 120q0 -18 11 -32.5t35 -30.5q28 13 46 34t18 46q0 17 -13 28.5t-34 11.5q-32 0 -47.5 -18.5t-15.5 -38.5z" />
<glyph d="M170 8q-2 0 -4 2q-13 -11 -32 -17.5t-36 -6.5q-20 0 -38.5 6t-33 18.5t-23.5 31.5t-9 45q0 28 11 52.5t30 42.5t43.5 28.5t51.5 10.5q58 0 85.5 -33.5t27.5 -84.5q0 -57 -20 -103t-53 -80t-75 -56.5t-87 -31.5l-5 50q66 14 109.5 48t57.5 78zM51 91q0 -33 20 -45.5 t45 -12.5q17 0 35 6.5t29 15.5q4 11 6.5 24.5t2.5 25.5q0 30 -16 48.5t-45 18.5q-33 0 -56 -23.5t-21 -57.5z" />
<glyph horiz-adv-x="500" d="M199 466l121 124h78l-2 -10l-151 -122h-47z" />
<glyph horiz-adv-x="500" d="M296 458h-47l-108 122l2 10h67l87 -124z" />
<glyph horiz-adv-x="500" d="M387 458h-44l-65 75l-101 -75h-44l1 8l131 124h36l87 -124z" />
<glyph horiz-adv-x="500" d="M253 457q-23 0 -42.5 8t-32 24t-17 41t3.5 60h41q-4 -16 -2.5 -31t8.5 -27t18.5 -19t28.5 -7q36 0 66 23t39 61h41q-8 -35 -23.5 -60t-36.5 -41t-45 -24t-47 -8z" />
<glyph horiz-adv-x="500" d="M154 590h44l65 -75l101 75h44l-1 -8l-131 -124h-36l-87 124z" />
<glyph horiz-adv-x="500" d="M149 466l116 124h83l-2 -10l-151 -122h-47zM279 466l116 124h83l-2 -10l-151 -122h-47z" />
<glyph horiz-adv-x="530" d="M279 350h193v-58h-193v-203h-58v203h-193v58h193v203h58v-203zM28 -25v58h444v-58h-444z" />
<glyph horiz-adv-x="350" d="M212 -177q-32 27 -60.5 60t-49.5 72.5t-33.5 86t-12.5 101.5q0 86 26.5 159.5t69.5 132.5t98 104.5t111 75.5l27 -51q-56 -29 -102.5 -73t-80.5 -99t-52.5 -119t-18.5 -132q0 -89 30 -155.5t85 -123.5z" />
<glyph horiz-adv-x="350" d="M98 615q32 -27 60.5 -60t49.5 -72.5t33.5 -86t12.5 -101.5q0 -86 -26.5 -159.5t-69.5 -132.5t-98 -104.5t-111 -75.5l-27 51q56 29 102.5 73t80.5 99t52.5 119t18.5 132q0 89 -30 155.5t-85 123.5z" />
<glyph horiz-adv-x="370" d="M228 557l-65 -335l-52 -329l166 4l-10 -57l-241 -4l75 389l62 389l234 -4l-10 -57z" />
<glyph horiz-adv-x="370" d="M102 -107l65 335l52 329l-166 -4l10 57l241 4l-75 -389l-62 -389l-234 4l10 57z" />
<glyph horiz-adv-x="370" d="M123 228q22 -2 40.5 -10.5t31.5 -21.5t19 -31t2 -40q-3 -17 -10.5 -33t-16.5 -33t-17 -34.5t-11 -36.5q-3 -21 -2 -37.5t13 -27.5t38.5 -17t73.5 -6l-11 -60q-61 0 -100.5 8.5t-61.5 24.5t-28 39.5t0 55.5q3 16 10.5 33.5t15.5 34.5t15.5 34t10.5 33q9 49 -23.5 74 t-89.5 25l12 70q28 0 53.5 7.5t45 20.5t32.5 30.5t16 36.5t2 36.5t-2.5 34t-2.5 33.5t2 36q5 31 18 53t39.5 35.5t68.5 19.5t105 5l-11 -60q-69 0 -106 -13.5t-45 -60.5q-3 -20 -1.5 -37t4.5 -33t5 -31.5t-1 -32.5q-8 -41 -42 -70.5t-88 -34.5z" />
<glyph horiz-adv-x="370" d="M207 233q-22 2 -40.5 10.5t-31.5 21.5t-19 31t-2 40q3 16 10.5 32.5t16.5 33.5t17 34.5t11 36.5q3 21 2 37.5t-13 27.5t-38.5 17t-73.5 6l11 60q61 0 100.5 -8.5t61 -24.5t28 -40t0.5 -55q-3 -17 -10.5 -34t-15.5 -34t-15.5 -34t-10.5 -33q-9 -49 23.5 -74t89.5 -25 l-12 -70q-28 0 -53.5 -7.5t-45 -20.5t-32.5 -30.5t-16 -36.5t-2 -36.5t2.5 -34t2.5 -33.5t-2 -36q-5 -31 -18 -53t-39.5 -35.5t-68.5 -19.5t-105 -5l11 60q69 0 106 13.5t45 60.5q3 19 1.5 36.5t-4.5 33.5t-5 31.5t1 32.5q8 41 42 70.5t88 34.5z" />
<glyph horiz-adv-x="550" d="M438 224q5 -11 7 -24t2 -25q0 -47 -19.5 -82t-53 -58.5t-78 -35.5t-94.5 -12q-39 0 -75 7.5t-63.5 24t-43.5 43.5t-16 66q0 47 34 91t100 64l1 7q-29 11 -42 35t-13 51q0 31 15 56t40.5 43t58.5 28t68 10q51 0 82 -11t51 -25l-35 -53q-22 14 -45 20.5t-52 6.5 q-47 0 -78 -20.5t-31 -56.5q0 -29 18.5 -45t56.5 -22l-10 -59q-74 0 -109.5 -33t-35.5 -80q0 -42 36 -63.5t92 -21.5q39 0 71 8.5t55 23.5t35.5 35.5t12.5 43.5q0 11 -2 23.5t-7 23.5l-64 -15l-15 55l200 47l11 -55z" />
<glyph horiz-adv-x="530" d="M360 392q0 -33 -12 -56.5t-32 -41t-45.5 -31t-51.5 -25.5q19 -27 44 -56.5t57 -60.5q26 27 44 61.5t26 71.5l66 10q-9 -55 -33 -101.5t-59 -82.5q20 -17 41 -33.5t44 -33.5l-1 -6l-55 -25q-18 14 -36 28.5t-37 31.5q-37 -26 -77.5 -40.5t-82.5 -14.5q-74 0 -111.5 32 t-37.5 82q0 31 10.5 54.5t27.5 42t40 33t47 26.5q-20 32 -30.5 61t-10.5 52q0 33 11.5 59.5t31 45t45 28.5t54.5 10q57 0 90 -35t33 -86zM82 109q0 -29 21.5 -45t59.5 -16q61 0 114 36q-32 31 -60.5 63.5t-51.5 64.5q-35 -18 -59 -41.5t-24 -61.5zM159 371q0 -34 31 -89 q21 10 40.5 20.5t34 23.5t23 28.5t8.5 35.5q0 28 -17.5 46.5t-45.5 18.5q-35 0 -54.5 -23t-19.5 -61z" />
<glyph horiz-adv-x="420" d="M230 348l124 41l8 -81l-129 6l87 -125l-69 -34l-49 146l-109 -118l-47 62l129 79l-124 42l41 69l102 -77l13 156l84 -18z" />
<glyph horiz-adv-x="400" d="M363 536h75l-430 -593h-74z" />
<glyph horiz-adv-x="400" d="M356 -57h-64l-260 593h64z" />
<glyph horiz-adv-x="430" d="M363 205q0 -36 -25 -67t-67 -51q34 -34 34 -72q0 -33 -15 -56.5t-39.5 -39t-57 -23t-67.5 -7.5q-45 0 -81.5 11t-57.5 27l29 54q20 -13 50 -23t66 -10q28 0 46.5 6.5t30 16.5t16.5 21.5t5 21.5q0 22 -17.5 38t-58.5 36q-61 30 -93.5 59.5t-32.5 71.5q0 38 26 69t66 53 q-38 31 -38 71q0 21 10.5 42t31.5 38t53 27.5t75 10.5q42 0 77 -10.5t55 -22.5l-25 -57q-23 14 -53 23t-62 9q-47 0 -68 -18.5t-21 -36.5q0 -9 4 -18.5t15 -19t30 -21t49 -24.5q34 -16 55.5 -31t33.5 -30.5t16.5 -32t4.5 -35.5zM163 312q-29 -13 -48.5 -35.5t-19.5 -45.5 q0 -12 4 -22t15.5 -20.5t30.5 -22.5t49 -27q10 -5 18.5 -10t16.5 -10q32 14 48.5 35.5t16.5 43.5q0 26 -17.5 44.5t-67.5 44.5z" />
<glyph horiz-adv-x="560" d="M545 460h-61l-91 -515l1 -52l-76 -10l101 577h-58l-90 -510v-57l-76 -10l46 265q-47 0 -83.5 12.5t-62 34.5t-38.5 51t-13 62q0 49 20.5 88t55.5 66.5t80.5 42.5t95.5 15h259zM296 460q-39 0 -71.5 -11.5t-56.5 -32t-37 -48t-13 -59.5q0 -43 35 -69.5t99 -26.5z" />
<glyph horiz-adv-x="510" d="M390 -44q-13 -11 -28.5 -18.5t-31.5 -12.5t-32 -7t-29 -2q-57 0 -99.5 20.5t-70 58t-41.5 91.5t-14 120q0 58 15.5 113.5t45.5 99t75 70t105 26.5q35 0 64.5 -8.5t50 -25.5t31.5 -43.5t8 -63.5l-15 -211q-1 -20 5 -33.5t16 -21.5l-1 -8l-60 -18l-13 33h-12 q-35 -27 -81 -27q-39 0 -68 28t-29 83q0 30 10 55.5t27.5 44t41 29t49.5 10.5q16 0 33 -3t31 -8l4 42q4 52 -22.5 71t-71.5 19q-38 0 -70.5 -18.5t-56.5 -52t-37.5 -80.5t-13.5 -103q0 -62 13 -105.5t35 -71.5t52 -41t65 -13q32 0 55 7t42 21h6zM370 275q-15 7 -28 9t-25 2 q-32 0 -54 -22t-22 -65q0 -32 16 -44t39 -12q16 0 34 5t32 13z" />
<glyph horiz-adv-x="600" d="M314 342q25 -11 48 -34t44 -53t40 -64.5t36 -67t32 -61t28 -46.5v-9l-70 -12q-12 17 -27 49t-34 69t-41 75t-47 68.5t-53.5 49t-58.5 16.5l-57 -5l-42 -244l-2 -68l-80 -10l68 375l38 228l3 77l159 8q87 4 136.5 -39t49.5 -118q0 -76 -44 -119.5t-125 -60.5zM413 518 q0 54 -35.5 78.5t-98.5 20.5l-70 -5l-43 -231l99 8q27 2 53.5 10.5t47.5 24t34 39t13 55.5z" />
<glyph horiz-adv-x="740" d="M346 265l282 349l35 -27l-295 -345l-299 -379l-33 28zM132 230l56 326l-64 -8l5 52l115 14l8 -7l-54 -304l-5 -65zM430 229q4 3 14.5 8.5t24.5 11t31.5 9t36.5 3.5q47 0 77.5 -19.5t30.5 -64.5q0 -57 -51.5 -118.5t-142.5 -125.5l2 -3l157 10l-10 -55l-249 -10l-2 24 q67 51 112.5 91t73.5 72.5t39.5 57.5t11.5 46q0 23 -15 34t-40 11q-29 0 -52.5 -9t-34.5 -15z" />
<glyph horiz-adv-x="740" d="M346 265l282 349l35 -27l-295 -345l-299 -379l-33 28zM132 230l56 326l-64 -8l5 52l115 14l8 -7l-54 -304l-5 -65zM382 -53q37 -24 84 -24q18 0 34 5t29 14.5t20.5 24t7.5 32.5q0 20 -14 35t-40 14l-64 -2l10 54l59 -2q13 0 26 4.5t23.5 13.5t17 21t6.5 26q0 23 -16 36 t-43 13q-16 0 -34.5 -4.5t-36.5 -13.5l-9 43q14 8 39.5 16t51.5 8q48 0 77 -23t29 -65q0 -38 -24 -64t-59 -33l-1 -5q26 -5 42 -26.5t16 -45.5q0 -36 -16 -60t-39.5 -39t-49.5 -21t-46 -6q-61 0 -98 24z" />
<glyph horiz-adv-x="740" d="M346 265l282 349l35 -27l-295 -345l-299 -379l-33 28zM132 230l56 326l-64 -8l5 52l115 14l8 -7l-54 -304l-5 -65zM577 -10l-41 -1l-19 -104l-54 -10l19 113l-157 -8l-5 32l193 240l70 4l-40 -222l41 1zM489 32l29 156l-6 1l-127 -159l2 -4z" />
<glyph horiz-adv-x="740" d="M346 265l282 349l35 -27l-295 -345l-299 -379l-33 28zM132 230l56 326l-64 -8l5 52l115 14l8 -7l-54 -304l-5 -65zM404 81l52 168l195 10l-15 -54l-147 -5l-23 -72q7 1 15 1h15q66 0 97.5 -29.5t31.5 -74.5q0 -36 -16.5 -64.5t-44.5 -48t-65 -29.5t-79 -10q-17 0 -31.5 1 t-25.5 5l17 51q10 -4 24.5 -4.5t26.5 -0.5q66 0 101 28.5t35 64.5q0 33 -28.5 49.5t-80.5 16.5q-14 0 -26 -1.5t-26 -3.5z" />
<glyph horiz-adv-x="740" d="M346 265l282 349l35 -27l-295 -345l-299 -379l-33 28zM132 230l56 326l-64 -8l5 52l115 14l8 -7l-54 -304l-5 -65zM455 80q17 13 35 20.5t38 7.5q19 0 36.5 -6t31.5 -18.5t22.5 -33t8.5 -48.5q0 -32 -12 -56t-31 -40.5t-42.5 -24.5t-47.5 -8q-62 0 -89.5 33.5t-27.5 83.5 q0 64 26 114t66.5 84.5t89 53t92.5 19.5l-16 -54q-33 -2 -63 -13.5t-54 -28.5t-41 -38.5t-24 -43.5zM571 0q0 32 -20.5 46.5t-46.5 14.5q-14 0 -30.5 -5.5t-31.5 -16.5q-5 -14 -6.5 -26t-1.5 -23q0 -32 16.5 -50t45.5 -18q33 0 54.5 22t20.5 56z" />
<glyph horiz-adv-x="740" d="M346 265l282 349l35 -27l-295 -345l-299 -379l-33 28zM132 230l56 326l-64 -8l5 52l115 14l8 -7l-54 -304l-5 -65zM672 252q-72 -92 -120 -182t-69 -185l-66 -10q27 93 71.5 177t98.5 150l-2 2l-164 -8l13 53l234 10z" />
<glyph horiz-adv-x="740" d="M346 265l282 349l35 -27l-295 -345l-299 -379l-33 28zM132 230l56 326l-64 -8l5 52l115 14l8 -7l-54 -304l-5 -65zM563 75q32 -23 45.5 -45.5t13.5 -48.5q0 -23 -10.5 -43t-29 -34.5t-43 -22.5t-52.5 -8q-51 0 -80 24t-29 64q0 37 23.5 66.5t69.5 45.5v3 q-24 20 -34.5 39.5t-10.5 41.5q0 21 9.5 40t26 33.5t39.5 22.5t49 8q42 0 70 -20.5t28 -58.5q0 -35 -22.5 -60.5t-62.5 -43.5v-3zM566 -21q0 23 -17 41t-43 32q-31 -14 -52 -35.5t-21 -51.5q0 -21 16.5 -34t41.5 -13q32 0 53.5 16.5t21.5 44.5zM483 160q0 -18 11 -32.5 t35 -30.5q28 13 46 34t18 46q0 17 -13 28.5t-34 11.5q-32 0 -47.5 -18.5t-15.5 -38.5z" />
<glyph horiz-adv-x="740" d="M346 265l282 349l35 -27l-295 -345l-299 -379l-33 28zM132 230l56 326l-64 -8l5 52l115 14l8 -7l-54 -304l-5 -65zM576 48q-2 0 -4 2q-13 -11 -32 -17.5t-36 -6.5q-20 0 -38.5 6t-33 18.5t-23.5 31.5t-9 45q0 28 11 52.5t30 42.5t43.5 28.5t51.5 10.5q58 0 85.5 -33.5 t27.5 -84.5q0 -57 -20 -103t-53 -80t-75 -56.5t-87 -31.5l-5 50q66 14 109.5 48t57.5 78zM457 131q0 -33 20 -45.5t45 -12.5q17 0 35 6.5t29 15.5q4 11 6.5 24.5t2.5 25.5q0 30 -16 48.5t-45 18.5q-33 0 -56 -23.5t-21 -57.5z" />
<glyph horiz-adv-x="740" d="M346 265l282 349l35 -27l-295 -345l-299 -379l-33 28zM105 584q4 3 14.5 8.5t24.5 11t31.5 9t36.5 3.5q47 0 77.5 -19.5t30.5 -64.5q0 -57 -51.5 -118.5t-142.5 -125.5l2 -3l157 10l-10 -55l-249 -10l-2 24q67 51 112.5 91t73.5 72.5t39.5 57.5t11.5 46q0 23 -15 34 t-40 11q-29 0 -52.5 -9t-34.5 -15zM382 -53q37 -24 84 -24q18 0 34 5t29 14.5t20.5 24t7.5 32.5q0 20 -14 35t-40 14l-64 -2l10 54l59 -2q13 0 26 4.5t23.5 13.5t17 21t6.5 26q0 23 -16 36t-43 13q-16 0 -34.5 -4.5t-36.5 -13.5l-9 43q14 8 39.5 16t51.5 8q48 0 77 -23 t29 -65q0 -38 -24 -64t-59 -33l-1 -5q26 -5 42 -26.5t16 -45.5q0 -36 -16 -60t-39.5 -39t-49.5 -21t-46 -6q-61 0 -98 24z" />
<glyph horiz-adv-x="740" d="M346 265l282 349l35 -27l-295 -345l-299 -379l-33 28zM105 584q4 3 14.5 8.5t24.5 11t31.5 9t36.5 3.5q47 0 77.5 -19.5t30.5 -64.5q0 -57 -51.5 -118.5t-142.5 -125.5l2 -3l157 10l-10 -55l-249 -10l-2 24q67 51 112.5 91t73.5 72.5t39.5 57.5t11.5 46q0 23 -15 34 t-40 11q-29 0 -52.5 -9t-34.5 -15zM404 81l52 168l195 10l-15 -54l-147 -5l-23 -72q7 1 15 1h15q66 0 97.5 -29.5t31.5 -74.5q0 -36 -16.5 -64.5t-44.5 -48t-65 -29.5t-79 -10q-17 0 -31.5 1t-25.5 5l17 51q10 -4 24.5 -4.5t26.5 -0.5q66 0 101 28.5t35 64.5 q0 33 -28.5 49.5t-80.5 16.5q-14 0 -26 -1.5t-26 -3.5z" />
<glyph horiz-adv-x="740" d="M346 265l282 349l35 -27l-295 -345l-299 -379l-33 28zM105 584q4 3 14.5 8.5t24.5 11t31.5 9t36.5 3.5q47 0 77.5 -19.5t30.5 -64.5q0 -57 -51.5 -118.5t-142.5 -125.5l2 -3l157 10l-10 -55l-249 -10l-2 24q67 51 112.5 91t73.5 72.5t39.5 57.5t11.5 46q0 23 -15 34 t-40 11q-29 0 -52.5 -9t-34.5 -15zM672 252q-72 -92 -120 -182t-69 -185l-66 -10q27 93 71.5 177t98.5 150l-2 2l-164 -8l13 53l234 10z" />
<glyph horiz-adv-x="740" d="M346 265l282 349l35 -27l-295 -345l-299 -379l-33 28zM105 584q4 3 14.5 8.5t24.5 11t31.5 9t36.5 3.5q47 0 77.5 -19.5t30.5 -64.5q0 -57 -51.5 -118.5t-142.5 -125.5l2 -3l157 10l-10 -55l-249 -10l-2 24q67 51 112.5 91t73.5 72.5t39.5 57.5t11.5 46q0 23 -15 34 t-40 11q-29 0 -52.5 -9t-34.5 -15zM576 48q-2 0 -4 2q-13 -11 -32 -17.5t-36 -6.5q-20 0 -38.5 6t-33 18.5t-23.5 31.5t-9 45q0 28 11 52.5t30 42.5t43.5 28.5t51.5 10.5q58 0 85.5 -33.5t27.5 -84.5q0 -57 -20 -103t-53 -80t-75 -56.5t-87 -31.5l-5 50q66 14 109.5 48 t57.5 78zM457 131q0 -33 20 -45.5t45 -12.5q17 0 35 6.5t29 15.5q4 11 6.5 24.5t2.5 25.5q0 30 -16 48.5t-45 18.5q-33 0 -56 -23.5t-21 -57.5z" />
<glyph horiz-adv-x="740" d="M346 265l282 349l35 -27l-295 -345l-299 -379l-33 28zM57 302q37 -24 84 -24q18 0 34 5t29 14.5t20.5 24t7.5 32.5q0 20 -14 35t-40 14l-64 -2l10 54l59 -2q13 0 26 4.5t23.5 13.5t17 21t6.5 26q0 23 -16 36t-43 13q-16 0 -34.5 -4.5t-36.5 -13.5l-9 43q14 8 39.5 16 t51.5 8q48 0 77 -23t29 -65q0 -38 -24 -64t-59 -33l-1 -5q26 -5 42 -26.5t16 -45.5q0 -36 -16 -60t-39.5 -39t-49.5 -21t-46 -6q-61 0 -98 24zM577 -10l-41 -1l-19 -104l-54 -10l19 113l-157 -8l-5 32l193 240l70 4l-40 -222l41 1zM489 32l29 156l-6 1l-127 -159l2 -4z" />
<glyph horiz-adv-x="740" d="M346 265l282 349l35 -27l-295 -345l-299 -379l-33 28zM57 302q37 -24 84 -24q18 0 34 5t29 14.5t20.5 24t7.5 32.5q0 20 -14 35t-40 14l-64 -2l10 54l59 -2q13 0 26 4.5t23.5 13.5t17 21t6.5 26q0 23 -16 36t-43 13q-16 0 -34.5 -4.5t-36.5 -13.5l-9 43q14 8 39.5 16 t51.5 8q48 0 77 -23t29 -65q0 -38 -24 -64t-59 -33l-1 -5q26 -5 42 -26.5t16 -45.5q0 -36 -16 -60t-39.5 -39t-49.5 -21t-46 -6q-61 0 -98 24zM404 81l52 168l195 10l-15 -54l-147 -5l-23 -72q7 1 15 1h15q66 0 97.5 -29.5t31.5 -74.5q0 -36 -16.5 -64.5t-44.5 -48 t-65 -29.5t-79 -10q-17 0 -31.5 1t-25.5 5l17 51q10 -4 24.5 -4.5t26.5 -0.5q66 0 101 28.5t35 64.5q0 33 -28.5 49.5t-80.5 16.5q-14 0 -26 -1.5t-26 -3.5z" />
<glyph horiz-adv-x="740" d="M346 265l282 349l35 -27l-295 -345l-299 -379l-33 28zM57 302q37 -24 84 -24q18 0 34 5t29 14.5t20.5 24t7.5 32.5q0 20 -14 35t-40 14l-64 -2l10 54l59 -2q13 0 26 4.5t23.5 13.5t17 21t6.5 26q0 23 -16 36t-43 13q-16 0 -34.5 -4.5t-36.5 -13.5l-9 43q14 8 39.5 16 t51.5 8q48 0 77 -23t29 -65q0 -38 -24 -64t-59 -33l-1 -5q26 -5 42 -26.5t16 -45.5q0 -36 -16 -60t-39.5 -39t-49.5 -21t-46 -6q-61 0 -98 24zM672 252q-72 -92 -120 -182t-69 -185l-66 -10q27 93 71.5 177t98.5 150l-2 2l-164 -8l13 53l234 10z" />
<glyph horiz-adv-x="740" d="M346 265l282 349l35 -27l-295 -345l-299 -379l-33 28zM57 302q37 -24 84 -24q18 0 34 5t29 14.5t20.5 24t7.5 32.5q0 20 -14 35t-40 14l-64 -2l10 54l59 -2q13 0 26 4.5t23.5 13.5t17 21t6.5 26q0 23 -16 36t-43 13q-16 0 -34.5 -4.5t-36.5 -13.5l-9 43q14 8 39.5 16 t51.5 8q48 0 77 -23t29 -65q0 -38 -24 -64t-59 -33l-1 -5q26 -5 42 -26.5t16 -45.5q0 -36 -16 -60t-39.5 -39t-49.5 -21t-46 -6q-61 0 -98 24zM563 75q32 -23 45.5 -45.5t13.5 -48.5q0 -23 -10.5 -43t-29 -34.5t-43 -22.5t-52.5 -8q-51 0 -80 24t-29 64q0 37 23.5 66.5 t69.5 45.5v3q-24 20 -34.5 39.5t-10.5 41.5q0 21 9.5 40t26 33.5t39.5 22.5t49 8q42 0 70 -20.5t28 -58.5q0 -35 -22.5 -60.5t-62.5 -43.5v-3zM566 -21q0 23 -17 41t-43 32q-31 -14 -52 -35.5t-21 -51.5q0 -21 16.5 -34t41.5 -13q32 0 53.5 16.5t21.5 44.5zM483 160 q0 -18 11 -32.5t35 -30.5q28 13 46 34t18 46q0 17 -13 28.5t-34 11.5q-32 0 -47.5 -18.5t-15.5 -38.5z" />
<glyph horiz-adv-x="740" d="M346 265l282 349l35 -27l-295 -345l-299 -379l-33 28zM303 345l-41 -1l-19 -104l-54 -10l19 113l-157 -8l-5 32l193 240l70 4l-40 -222l41 1zM215 387l29 156l-6 1l-127 -159l2 -4zM404 81l52 168l195 10l-15 -54l-147 -5l-23 -72q7 1 15 1h15q66 0 97.5 -29.5 t31.5 -74.5q0 -36 -16.5 -64.5t-44.5 -48t-65 -29.5t-79 -10q-17 0 -31.5 1t-25.5 5l17 51q10 -4 24.5 -4.5t26.5 -0.5q66 0 101 28.5t35 64.5q0 33 -28.5 49.5t-80.5 16.5q-14 0 -26 -1.5t-26 -3.5z" />
<glyph horiz-adv-x="740" d="M346 265l282 349l35 -27l-295 -345l-299 -379l-33 28zM303 345l-41 -1l-19 -104l-54 -10l19 113l-157 -8l-5 32l193 240l70 4l-40 -222l41 1zM215 387l29 156l-6 1l-127 -159l2 -4zM672 252q-72 -92 -120 -182t-69 -185l-66 -10q27 93 71.5 177t98.5 150l-2 2l-164 -8 l13 53l234 10z" />
<glyph horiz-adv-x="740" d="M346 265l282 349l35 -27l-295 -345l-299 -379l-33 28zM303 345l-41 -1l-19 -104l-54 -10l19 113l-157 -8l-5 32l193 240l70 4l-40 -222l41 1zM215 387l29 156l-6 1l-127 -159l2 -4zM576 48q-2 0 -4 2q-13 -11 -32 -17.5t-36 -6.5q-20 0 -38.5 6t-33 18.5t-23.5 31.5 t-9 45q0 28 11 52.5t30 42.5t43.5 28.5t51.5 10.5q58 0 85.5 -33.5t27.5 -84.5q0 -57 -20 -103t-53 -80t-75 -56.5t-87 -31.5l-5 50q66 14 109.5 48t57.5 78zM457 131q0 -33 20 -45.5t45 -12.5q17 0 35 6.5t29 15.5q4 11 6.5 24.5t2.5 25.5q0 30 -16 48.5t-45 18.5 q-33 0 -56 -23.5t-21 -57.5z" />
<glyph horiz-adv-x="740" d="M346 265l282 349l35 -27l-295 -345l-299 -379l-33 28zM79 436l52 168l195 10l-15 -54l-147 -5l-23 -72q7 1 15 1h15q66 0 97.5 -29.5t31.5 -74.5q0 -36 -16.5 -64.5t-44.5 -48t-65 -29.5t-79 -10q-17 0 -31.5 1t-25.5 5l17 51q10 -4 24.5 -4.5t26.5 -0.5q66 0 101 28.5 t35 64.5q0 33 -28.5 49.5t-80.5 16.5q-14 0 -26 -1.5t-26 -3.5zM455 80q17 13 35 20.5t38 7.5q19 0 36.5 -6t31.5 -18.5t22.5 -33t8.5 -48.5q0 -32 -12 -56t-31 -40.5t-42.5 -24.5t-47.5 -8q-62 0 -89.5 33.5t-27.5 83.5q0 64 26 114t66.5 84.5t89 53t92.5 19.5l-16 -54 q-33 -2 -63 -13.5t-54 -28.5t-41 -38.5t-24 -43.5zM571 0q0 32 -20.5 46.5t-46.5 14.5q-14 0 -30.5 -5.5t-31.5 -16.5q-5 -14 -6.5 -26t-1.5 -23q0 -32 16.5 -50t45.5 -18q33 0 54.5 22t20.5 56z" />
<glyph horiz-adv-x="740" d="M346 265l282 349l35 -27l-295 -345l-299 -379l-33 28zM79 436l52 168l195 10l-15 -54l-147 -5l-23 -72q7 1 15 1h15q66 0 97.5 -29.5t31.5 -74.5q0 -36 -16.5 -64.5t-44.5 -48t-65 -29.5t-79 -10q-17 0 -31.5 1t-25.5 5l17 51q10 -4 24.5 -4.5t26.5 -0.5q66 0 101 28.5 t35 64.5q0 33 -28.5 49.5t-80.5 16.5q-14 0 -26 -1.5t-26 -3.5zM672 252q-72 -92 -120 -182t-69 -185l-66 -10q27 93 71.5 177t98.5 150l-2 2l-164 -8l13 53l234 10z" />
<glyph horiz-adv-x="740" d="M346 265l282 349l35 -27l-295 -345l-299 -379l-33 28zM79 436l52 168l195 10l-15 -54l-147 -5l-23 -72q7 1 15 1h15q66 0 97.5 -29.5t31.5 -74.5q0 -36 -16.5 -64.5t-44.5 -48t-65 -29.5t-79 -10q-17 0 -31.5 1t-25.5 5l17 51q10 -4 24.5 -4.5t26.5 -0.5q66 0 101 28.5 t35 64.5q0 33 -28.5 49.5t-80.5 16.5q-14 0 -26 -1.5t-26 -3.5zM563 75q32 -23 45.5 -45.5t13.5 -48.5q0 -23 -10.5 -43t-29 -34.5t-43 -22.5t-52.5 -8q-51 0 -80 24t-29 64q0 37 23.5 66.5t69.5 45.5v3q-24 20 -34.5 39.5t-10.5 41.5q0 21 9.5 40t26 33.5t39.5 22.5t49 8 q42 0 70 -20.5t28 -58.5q0 -35 -22.5 -60.5t-62.5 -43.5v-3zM566 -21q0 23 -17 41t-43 32q-31 -14 -52 -35.5t-21 -51.5q0 -21 16.5 -34t41.5 -13q32 0 53.5 16.5t21.5 44.5zM483 160q0 -18 11 -32.5t35 -30.5q28 13 46 34t18 46q0 17 -13 28.5t-34 11.5q-32 0 -47.5 -18.5 t-15.5 -38.5z" />
<glyph horiz-adv-x="740" d="M346 265l282 349l35 -27l-295 -345l-299 -379l-33 28zM79 436l52 168l195 10l-15 -54l-147 -5l-23 -72q7 1 15 1h15q66 0 97.5 -29.5t31.5 -74.5q0 -36 -16.5 -64.5t-44.5 -48t-65 -29.5t-79 -10q-17 0 -31.5 1t-25.5 5l17 51q10 -4 24.5 -4.5t26.5 -0.5q66 0 101 28.5 t35 64.5q0 33 -28.5 49.5t-80.5 16.5q-14 0 -26 -1.5t-26 -3.5zM576 48q-2 0 -4 2q-13 -11 -32 -17.5t-36 -6.5q-20 0 -38.5 6t-33 18.5t-23.5 31.5t-9 45q0 28 11 52.5t30 42.5t43.5 28.5t51.5 10.5q58 0 85.5 -33.5t27.5 -84.5q0 -57 -20 -103t-53 -80t-75 -56.5 t-87 -31.5l-5 50q66 14 109.5 48t57.5 78zM457 131q0 -33 20 -45.5t45 -12.5q17 0 35 6.5t29 15.5q4 11 6.5 24.5t2.5 25.5q0 30 -16 48.5t-45 18.5q-33 0 -56 -23.5t-21 -57.5z" />
<glyph horiz-adv-x="740" d="M346 265l282 349l35 -27l-295 -345l-299 -379l-33 28zM367 607q-72 -92 -120 -182t-69 -185l-66 -10q27 93 71.5 177t98.5 150l-2 2l-164 -8l13 53l234 10zM563 75q32 -23 45.5 -45.5t13.5 -48.5q0 -23 -10.5 -43t-29 -34.5t-43 -22.5t-52.5 -8q-51 0 -80 24t-29 64 q0 37 23.5 66.5t69.5 45.5v3q-24 20 -34.5 39.5t-10.5 41.5q0 21 9.5 40t26 33.5t39.5 22.5t49 8q42 0 70 -20.5t28 -58.5q0 -35 -22.5 -60.5t-62.5 -43.5v-3zM566 -21q0 23 -17 41t-43 32q-31 -14 -52 -35.5t-21 -51.5q0 -21 16.5 -34t41.5 -13q32 0 53.5 16.5t21.5 44.5z M483 160q0 -18 11 -32.5t35 -30.5q28 13 46 34t18 46q0 17 -13 28.5t-34 11.5q-32 0 -47.5 -18.5t-15.5 -38.5z" />
<glyph horiz-adv-x="740" d="M346 265l282 349l35 -27l-295 -345l-299 -379l-33 28zM367 607q-72 -92 -120 -182t-69 -185l-66 -10q27 93 71.5 177t98.5 150l-2 2l-164 -8l13 53l234 10zM576 48q-2 0 -4 2q-13 -11 -32 -17.5t-36 -6.5q-20 0 -38.5 6t-33 18.5t-23.5 31.5t-9 45q0 28 11 52.5t30 42.5 t43.5 28.5t51.5 10.5q58 0 85.5 -33.5t27.5 -84.5q0 -57 -20 -103t-53 -80t-75 -56.5t-87 -31.5l-5 50q66 14 109.5 48t57.5 78zM457 131q0 -33 20 -45.5t45 -12.5q17 0 35 6.5t29 15.5q4 11 6.5 24.5t2.5 25.5q0 30 -16 48.5t-45 18.5q-33 0 -56 -23.5t-21 -57.5z" />
<glyph horiz-adv-x="740" d="M346 265l282 349l35 -27l-295 -345l-299 -379l-33 28zM238 430q32 -23 45.5 -45.5t13.5 -48.5q0 -23 -10.5 -43t-29 -34.5t-43 -22.5t-52.5 -8q-51 0 -80 24t-29 64q0 37 23.5 66.5t69.5 45.5v3q-24 20 -34.5 39.5t-10.5 41.5q0 21 9.5 40t26 33.5t39.5 22.5t49 8 q42 0 70 -20.5t28 -58.5q0 -35 -22.5 -60.5t-62.5 -43.5v-3zM241 334q0 23 -17 41t-43 32q-31 -14 -52 -35.5t-21 -51.5q0 -21 16.5 -34t41.5 -13q32 0 53.5 16.5t21.5 44.5zM158 515q0 -18 11 -32.5t35 -30.5q28 13 46 34t18 46q0 17 -13 28.5t-34 11.5q-32 0 -47.5 -18.5 t-15.5 -38.5zM576 48q-2 0 -4 2q-13 -11 -32 -17.5t-36 -6.5q-20 0 -38.5 6t-33 18.5t-23.5 31.5t-9 45q0 28 11 52.5t30 42.5t43.5 28.5t51.5 10.5q58 0 85.5 -33.5t27.5 -84.5q0 -57 -20 -103t-53 -80t-75 -56.5t-87 -31.5l-5 50q66 14 109.5 48t57.5 78zM457 131 q0 -33 20 -45.5t45 -12.5q17 0 35 6.5t29 15.5q4 11 6.5 24.5t2.5 25.5q0 30 -16 48.5t-45 18.5q-33 0 -56 -23.5t-21 -57.5z" />
<glyph horiz-adv-x="740" d="M346 265l282 349l35 -27l-295 -345l-299 -379l-33 28zM130 435q17 13 35 20.5t38 7.5q19 0 36.5 -6t31.5 -18.5t22.5 -33t8.5 -48.5q0 -32 -12 -56t-31 -40.5t-42.5 -24.5t-47.5 -8q-62 0 -89.5 33.5t-27.5 83.5q0 64 26 114t66.5 84.5t89 53t92.5 19.5l-16 -54 q-33 -2 -63 -13.5t-54 -28.5t-41 -38.5t-24 -43.5zM246 355q0 32 -20.5 46.5t-46.5 14.5q-14 0 -30.5 -5.5t-31.5 -16.5q-5 -14 -6.5 -26t-1.5 -23q0 -32 16.5 -50t45.5 -18q33 0 54.5 22t20.5 56zM672 252q-72 -92 -120 -182t-69 -185l-66 -10q27 93 71.5 177t98.5 150 l-2 2l-164 -8l13 53l234 10z" />
<glyph horiz-adv-x="490" d="M443 306q0 -71 -20.5 -129.5t-55.5 -100.5t-81.5 -65.5t-98.5 -23.5q-38 0 -70.5 14t-56.5 40.5t-37.5 64.5t-13.5 86q0 73 22 132.5t58 101.5t82 64.5t94 22.5q37 0 69.5 -14t56.5 -40.5t38 -65t14 -87.5zM370 301q0 67 -29 107.5t-80 40.5q-30 0 -62 -16.5t-58 -49 t-42.5 -80.5t-16.5 -111q0 -36 9.5 -63t25 -44t36 -25.5t41.5 -8.5q36 0 68 19t56 52.5t38 79.5t14 99z" />
<glyph horiz-adv-x="490" d="M175 -5l77 442l-121 -17l6 63l179 25l15 -12l-71 -401l-6 -90z" />
<glyph horiz-adv-x="490" d="M81 463l25 12.5t41 17t53 14.5t62 6q34 0 64.5 -7.5t53 -23.5t35.5 -40.5t13 -58.5q0 -72 -76.5 -151t-221.5 -164l3 -2l253 8l-12 -69l-397 -10l-4 35q108 63 180 113.5t116 92t62.5 75t18.5 62.5q0 38 -28.5 57t-69.5 19q-25 0 -48.5 -5t-44 -12.5t-36 -15t-25.5 -12.5 z" />
<glyph horiz-adv-x="490" d="M22 76q32 -14 66.5 -20t71.5 -6q30 0 57.5 6.5t48.5 19.5t33 31.5t12 41.5q0 32 -25 53.5t-76 19.5l-101 -5l16 69l94 -2q27 0 49 7.5t38 20.5t25 30.5t9 37.5q0 33 -28.5 52.5t-73.5 19.5q-33 0 -63.5 -9t-62.5 -23l-2 1l-6 59q22 11 58.5 22t81.5 11q75 0 123 -31.5 t48 -93.5q0 -101 -119 -131l-1 -5q46 -8 67.5 -37.5t21.5 -65.5q0 -41 -19.5 -71.5t-52 -50.5t-74.5 -30t-87 -10q-48 0 -83.5 6t-67.5 19l20 63z" />
<glyph horiz-adv-x="490" d="M412 140l-71 -2l-13 -75v-58l-78 -10l23 143l-264 -8l-11 41l323 327l85 4l-54 -304l71 3zM283 195l40 226h-4l-228 -230l3 -5z" />
<glyph horiz-adv-x="490" d="M56 257l77 238l306 10l-21 -66l-241 -5l-37 -116q13 2 32.5 2.5t43.5 0.5q49 0 85 -11t59 -30t34.5 -44t11.5 -53q0 -44 -22.5 -80.5t-63.5 -62t-97.5 -39.5t-124.5 -14q-28 0 -53 2t-46 9l25 61q17 -5 42 -7.5t47 -2.5q57 0 98.5 10.5t68 28t39 40.5t12.5 48 q0 42 -37.5 64.5t-106.5 22.5q-47 0 -76 -2.5t-52 -6.5z" />
<glyph horiz-adv-x="490" d="M25 150q0 81 39 147t100 113.5t134 74t141 28.5l-20 -66q-52 -4 -97 -18.5t-82 -37t-65 -50.5t-46 -59l3 -3q29 20 62.5 29t68.5 9q29 0 58 -8.5t52 -26.5t37 -45.5t14 -64.5q0 -38 -16.5 -71.5t-46 -59t-69.5 -40t-87 -14.5q-46 0 -80 13t-56 35t-33 51.5t-11 63.5z M352 168q0 25 -10 43t-26 29t-36.5 16.5t-42.5 5.5q-35 0 -68.5 -10.5t-60.5 -30.5q-7 -20 -8.5 -38t-1.5 -32q0 -43 30 -73t81 -30q29 0 55.5 8.5t46 24t30.5 37.5t11 50z" />
<glyph horiz-adv-x="490" d="M462 493q-113 -118 -185 -244t-101 -244l-91 -10q40 120 106 231.5t154 207.5l-3 5l-260 -12l19 68l353 10z" />
<glyph horiz-adv-x="490" d="M301 255q53 -23 77.5 -54.5t24.5 -64.5q0 -38 -19.5 -66t-49.5 -46.5t-67 -27.5t-72 -9q-84 0 -130 33t-46 84q0 28 11.5 51.5t31.5 42t46.5 33t56.5 24.5v3q-48 27 -65.5 53.5t-17.5 55.5q0 27 14.5 53.5t41 47t62 33t77.5 12.5q70 0 112.5 -33t42.5 -82 q0 -26 -11 -47.5t-29 -38.5t-41.5 -30t-49.5 -23v-4zM328 130q0 32 -30.5 57t-76.5 44q-63 -21 -97 -53.5t-34 -65.5q0 -32 31 -48t79 -16q25 0 48 5t41 15.5t28.5 26t10.5 35.5zM158 368q0 -23 20 -45t65 -43q24 9 45.5 21.5t37.5 26.5t25 29.5t9 31.5q0 26 -22.5 45.5 t-65.5 19.5q-29 0 -50 -7.5t-35.5 -20t-21.5 -28t-7 -30.5z" />
<glyph horiz-adv-x="490" d="M52 45q52 8 98.5 24t84 39t65.5 51.5t42 61.5l-3 2q-32 -23 -69.5 -34.5t-72.5 -11.5q-32 0 -61 8.5t-51 26t-35.5 44.5t-13.5 64t16.5 72t45.5 62t68.5 43t84.5 16q47 0 81.5 -13.5t57.5 -37t34 -54.5t11 -67q0 -82 -33.5 -144.5t-86.5 -106t-118.5 -69.5t-129.5 -34 l-16 56zM107 324q0 -23 9 -40t24 -27.5t35 -15.5t42 -5q74 0 138 41q7 19 7.5 34.5t0.5 30.5q0 50 -30.5 80t-83.5 30q-33 0 -59.5 -11.5t-44.5 -29.5t-28 -41t-10 -46z" />
<glyph horiz-adv-x="250" d="M127 500h86l-92 -274h-43z" />
<glyph horiz-adv-x="400" d="M127 500h86l-92 -274h-43zM277 500h86l-92 -274h-43z" />
<glyph horiz-adv-x="280" d="M158 505l79 -33l-126 -243l-40 16z" />
<glyph horiz-adv-x="470" d="M158 505l79 -33l-126 -243l-40 16zM348 505l79 -33l-126 -243l-40 16z" />
<glyph horiz-adv-x="790" d="M88 253q0 63 24 119t65.5 97.5t97.5 66t121 24.5q68 0 124 -24.5t96.5 -66t63 -97.5t22.5 -119t-22 -119t-62.5 -98t-97 -66.5t-124.5 -24.5q-66 0 -122 22.5t-97.5 63.5t-65 97.5t-23.5 124.5zM137 251q0 -57 19.5 -105t54.5 -82.5t82.5 -54t103.5 -19.5q55 0 102 19.5 t81 54t53.5 82.5t19.5 105q0 59 -20 108t-54.5 84t-81.5 54.5t-101 19.5q-53 0 -100 -20t-82.5 -55.5t-56 -84t-20.5 -106.5zM508 348q-13 8 -42 20t-67 12q-21 0 -41.5 -7.5t-36 -23.5t-25 -40t-9.5 -57q0 -53 31 -87t82 -34q35 0 62.5 10.5t50.5 24.5l13 -50 q-22 -16 -56 -27t-71 -11q-38 0 -69.5 13.5t-54 37t-35 54.5t-12.5 67q0 43 14 77t37.5 57.5t54.5 36t66 12.5q38 0 70 -11.5t49 -22.5z" />
<glyph horiz-adv-x="790" d="M88 253q0 63 24 119t65.5 97.5t97.5 66t121 24.5q68 0 124 -24.5t96.5 -66t63 -97.5t22.5 -119t-22 -119t-62.5 -98t-97 -66.5t-124.5 -24.5q-66 0 -122 22.5t-97.5 63.5t-65 97.5t-23.5 124.5zM137 251q0 -57 19.5 -105t54.5 -82.5t82.5 -54t103.5 -19.5q55 0 102 19.5 t81 54t53.5 82.5t19.5 105q0 59 -20 108t-54.5 84t-81.5 54.5t-101 19.5q-53 0 -100 -20t-82.5 -55.5t-56 -84t-20.5 -106.5zM525 323q0 -25 -9.5 -45t-26 -33.5t-38 -20t-45.5 -6.5h-46v-138h-52v350h102q51 0 83 -27.5t32 -79.5zM471 324q0 29 -17 43t-44 14h-50v-114h47 q23 0 43.5 12.5t20.5 44.5z" />
<glyph horiz-adv-x="750" d="M689 264q-24 -18 -60.5 -32.5t-77 -23.5t-81.5 -12t-75 2q-4 -20 -4 -40q0 -55 27 -83.5t69 -28.5q38 0 75.5 14t59.5 35h3l23 -48q-14 -14 -33.5 -25t-42 -18.5t-45.5 -11.5t-44 -4q-70 0 -112 43l-2 -25l-60 -11l10 105h-4q-13 -18 -31 -36t-40.5 -33.5t-47.5 -27 t-52 -16.5q-24 4 -46.5 16.5t-40.5 33t-28.5 50t-10.5 67.5q0 56 18.5 111t51.5 98.5t77.5 70t96.5 26.5q31 0 55 -11.5t41 -28.5h3l5 27l69 6l-9 -48q28 26 60 40.5t65 14.5t61 -11t48 -30t31 -45t11 -57q0 -12 -2.5 -24.5t-10.5 -28.5zM159 50q17 2 40 13.5t46 29t43.5 39 t31.5 43.5l29 180q-33 45 -89 45q-36 0 -66.5 -20t-53.5 -53t-36 -75.5t-13 -87.5q0 -48 18 -76.5t50 -37.5zM403 252q27 -3 60 -1.5t65 7t59.5 15.5t44.5 23q2 5 2 9v9q0 42 -25 65t-58 23q-27 0 -50.5 -11.5t-42.5 -32t-33 -48t-22 -58.5z" />
<glyph horiz-adv-x="500" d="M216 529q0 23 14.5 37.5t34.5 14.5t34.5 -14.5t14.5 -37.5q0 -20 -14.5 -35.5t-34.5 -15.5t-34.5 15.5t-14.5 35.5z" />
<glyph horiz-adv-x="500" d="M261 476v1l28 96l20 73h60v-4l-34 -85l-32 -81h-42z" />
<glyph horiz-adv-x="500" d="M343 637v-1l-38 -96l-25 -73h-64v4l39 85l42 81h46z" />
<glyph horiz-adv-x="690" d="M671 496l-612 -20l10 57l612 20z" />
<glyph horiz-adv-x="500" d="M128 394v52h249v-52h-249z" />
<glyph horiz-adv-x="260" d="M86 355l37 221l8 104l84 12l-62 -334l-38 -228q-7 -40 3.5 -60t32.5 -20q11 0 23 5.5t17 10.5l16 -47q-34 -28 -79 -28q-20 0 -38 7t-31 23t-18 40t2 59zM236 522v1l28 96l20 73h60v-4l-34 -85l-32 -81h-42z" />
<glyph horiz-adv-x="340" d="M305 339l-10 -69l-260 -10l10 69z" />
<glyph horiz-adv-x="260" d="M75 296l-50 -34l-25 38l86 58l37 218l8 104l84 12l-53 -283l62 42l25 -38l-98 -66l-36 -217q-7 -40 3.5 -60t32.5 -20q11 0 23 5.5t17 10.5l16 -47q-34 -28 -79 -28q-20 0 -38 7t-31 23t-18 40t2 59z" />
<glyph horiz-adv-x="680" d="M175 347l-38 -240l-8 -102l-88 -10l65 346l38 242l6 92l88 10zM147 741l121 124h78l-2 -10l-151 -122h-47zM262 84q17 -11 37.5 -19t50.5 -8q58 0 96 41t55 140l65 365l3 72l84 10l-83 -472q-20 -114 -81 -168.5t-146 -54.5q-35 0 -64.5 8.5t-52.5 23.5zM555 741l121 124 h78l-2 -10l-151 -122h-47z" />
<glyph horiz-adv-x="460" d="M316 362l4 81l81 9l-82 -467q-10 -75 -30.5 -118t-51.5 -66l-63 -6l-2 23q31 22 51.5 65t29.5 110zM172 452l-64 -362l-5 -85l-80 -10l64 368l4 80zM89 514l121 160h75l-1 -10l-149 -158h-47zM315 514l121 160h75l-1 -10l-149 -158h-47z" />
<glyph horiz-adv-x="500" d="M230 464l80 160h66v-10l-101 -158h-45v8z" />
<glyph horiz-adv-x="500" d="M221 466l67 124h64v-10l-88 -122h-43v8z" />
<glyph horiz-adv-x="270" d="M175 347l-38 -240l-8 -102l-88 -10l65 346l38 242l6 92l88 10z" />
<glyph horiz-adv-x="230" d="M172 452l-64 -362l-5 -85l-80 -10l64 368l4 80zM114 629q0 23 14.5 37.5t34.5 14.5t34.5 -14.5t14.5 -37.5q0 -20 -14.5 -35.5t-34.5 -15.5t-34.5 15.5t-14.5 35.5z" />
<glyph horiz-adv-x="740" d="M361 345l282 349l35 -27l-295 -345l-299 -379l-33 28zM147 310l56 326l-64 -8l5 52l115 14l8 -7l-54 -304l-5 -65zM687 332q-72 -92 -120 -182t-69 -185l-66 -10q27 93 71.5 177t98.5 150l-2 2l-164 -8l13 53l234 10z" />
<glyph horiz-adv-x="740" d="M361 345l282 349l35 -27l-295 -345l-299 -379l-33 28zM147 310l56 326l-64 -8l5 52l115 14l8 -7l-54 -304l-5 -65zM591 128q-2 0 -4 2q-13 -11 -32 -17.5t-36 -6.5q-20 0 -38.5 6t-33 18.5t-23.5 31.5t-9 45q0 28 11 52.5t30 42.5t43.5 28.5t51.5 10.5q58 0 85.5 -33.5 t27.5 -84.5q0 -57 -20 -103t-53 -80t-75 -56.5t-87 -31.5l-5 50q66 14 109.5 48t57.5 78zM472 211q0 -33 20 -45.5t45 -12.5q17 0 35 6.5t29 15.5q4 11 6.5 24.5t2.5 25.5q0 30 -16 48.5t-45 18.5q-33 0 -56 -23.5t-21 -57.5z" />
<glyph horiz-adv-x="740" d="M361 345l282 349l35 -27l-295 -345l-299 -379l-33 28zM120 664q4 3 14.5 8.5t24.5 11t31.5 9t36.5 3.5q47 0 77.5 -19.5t30.5 -64.5q0 -57 -51.5 -118.5t-142.5 -125.5l2 -3l157 10l-10 -55l-249 -10l-2 24q67 51 112.5 91t73.5 72.5t39.5 57.5t11.5 46q0 23 -15 34 t-40 11q-29 0 -52.5 -9t-34.5 -15zM687 332q-72 -92 -120 -182t-69 -185l-66 -10q27 93 71.5 177t98.5 150l-2 2l-164 -8l13 53l234 10z" />
<glyph horiz-adv-x="740" d="M361 345l282 349l35 -27l-295 -345l-299 -379l-33 28zM120 664q4 3 14.5 8.5t24.5 11t31.5 9t36.5 3.5q47 0 77.5 -19.5t30.5 -64.5q0 -57 -51.5 -118.5t-142.5 -125.5l2 -3l157 10l-10 -55l-249 -10l-2 24q67 51 112.5 91t73.5 72.5t39.5 57.5t11.5 46q0 23 -15 34 t-40 11q-29 0 -52.5 -9t-34.5 -15zM591 128q-2 0 -4 2q-13 -11 -32 -17.5t-36 -6.5q-20 0 -38.5 6t-33 18.5t-23.5 31.5t-9 45q0 28 11 52.5t30 42.5t43.5 28.5t51.5 10.5q58 0 85.5 -33.5t27.5 -84.5q0 -57 -20 -103t-53 -80t-75 -56.5t-87 -31.5l-5 50q66 14 109.5 48 t57.5 78zM472 211q0 -33 20 -45.5t45 -12.5q17 0 35 6.5t29 15.5q4 11 6.5 24.5t2.5 25.5q0 30 -16 48.5t-45 18.5q-33 0 -56 -23.5t-21 -57.5z" />
<glyph horiz-adv-x="740" d="M361 345l282 349l35 -27l-295 -345l-299 -379l-33 28zM72 382q37 -24 84 -24q18 0 34 5t29 14.5t20.5 24t7.5 32.5q0 20 -14 35t-40 14l-64 -2l10 54l59 -2q13 0 26 4.5t23.5 13.5t17 21t6.5 26q0 23 -16 36t-43 13q-16 0 -34.5 -4.5t-36.5 -13.5l-9 43q14 8 39.5 16 t51.5 8q48 0 77 -23t29 -65q0 -38 -24 -64t-59 -33l-1 -5q26 -5 42 -26.5t16 -45.5q0 -36 -16 -60t-39.5 -39t-49.5 -21t-46 -6q-61 0 -98 24zM687 332q-72 -92 -120 -182t-69 -185l-66 -10q27 93 71.5 177t98.5 150l-2 2l-164 -8l13 53l234 10z" />
<glyph horiz-adv-x="740" d="M361 345l282 349l35 -27l-295 -345l-299 -379l-33 28zM318 425l-41 -1l-19 -104l-54 -10l19 113l-157 -8l-5 32l193 240l70 4l-40 -222l41 1zM230 467l29 156l-6 1l-127 -159l2 -4zM687 332q-72 -92 -120 -182t-69 -185l-66 -10q27 93 71.5 177t98.5 150l-2 2l-164 -8 l13 53l234 10z" />
<glyph horiz-adv-x="740" d="M361 345l282 349l35 -27l-295 -345l-299 -379l-33 28zM318 425l-41 -1l-19 -104l-54 -10l19 113l-157 -8l-5 32l193 240l70 4l-40 -222l41 1zM230 467l29 156l-6 1l-127 -159l2 -4zM591 128q-2 0 -4 2q-13 -11 -32 -17.5t-36 -6.5q-20 0 -38.5 6t-33 18.5t-23.5 31.5 t-9 45q0 28 11 52.5t30 42.5t43.5 28.5t51.5 10.5q58 0 85.5 -33.5t27.5 -84.5q0 -57 -20 -103t-53 -80t-75 -56.5t-87 -31.5l-5 50q66 14 109.5 48t57.5 78zM472 211q0 -33 20 -45.5t45 -12.5q17 0 35 6.5t29 15.5q4 11 6.5 24.5t2.5 25.5q0 30 -16 48.5t-45 18.5 q-33 0 -56 -23.5t-21 -57.5z" />
<glyph horiz-adv-x="740" d="M361 345l282 349l35 -27l-295 -345l-299 -379l-33 28zM94 516l52 168l195 10l-15 -54l-147 -5l-23 -72q7 1 15 1h15q66 0 97.5 -29.5t31.5 -74.5q0 -36 -16.5 -64.5t-44.5 -48t-65 -29.5t-79 -10q-17 0 -31.5 1t-25.5 5l17 51q10 -4 24.5 -4.5t26.5 -0.5q66 0 101 28.5 t35 64.5q0 33 -28.5 49.5t-80.5 16.5q-14 0 -26 -1.5t-26 -3.5zM687 332q-72 -92 -120 -182t-69 -185l-66 -10q27 93 71.5 177t98.5 150l-2 2l-164 -8l13 53l234 10z" />
<glyph horiz-adv-x="740" d="M361 345l282 349l35 -27l-295 -345l-299 -379l-33 28zM94 516l52 168l195 10l-15 -54l-147 -5l-23 -72q7 1 15 1h15q66 0 97.5 -29.5t31.5 -74.5q0 -36 -16.5 -64.5t-44.5 -48t-65 -29.5t-79 -10q-17 0 -31.5 1t-25.5 5l17 51q10 -4 24.5 -4.5t26.5 -0.5q66 0 101 28.5 t35 64.5q0 33 -28.5 49.5t-80.5 16.5q-14 0 -26 -1.5t-26 -3.5zM591 128q-2 0 -4 2q-13 -11 -32 -17.5t-36 -6.5q-20 0 -38.5 6t-33 18.5t-23.5 31.5t-9 45q0 28 11 52.5t30 42.5t43.5 28.5t51.5 10.5q58 0 85.5 -33.5t27.5 -84.5q0 -57 -20 -103t-53 -80t-75 -56.5 t-87 -31.5l-5 50q66 14 109.5 48t57.5 78zM472 211q0 -33 20 -45.5t45 -12.5q17 0 35 6.5t29 15.5q4 11 6.5 24.5t2.5 25.5q0 30 -16 48.5t-45 18.5q-33 0 -56 -23.5t-21 -57.5z" />
<glyph horiz-adv-x="740" d="M361 345l282 349l35 -27l-295 -345l-299 -379l-33 28zM145 515q17 13 35 20.5t38 7.5q19 0 36.5 -6t31.5 -18.5t22.5 -33t8.5 -48.5q0 -32 -12 -56t-31 -40.5t-42.5 -24.5t-47.5 -8q-62 0 -89.5 33.5t-27.5 83.5q0 64 26 114t66.5 84.5t89 53t92.5 19.5l-16 -54 q-33 -2 -63 -13.5t-54 -28.5t-41 -38.5t-24 -43.5zM261 435q0 32 -20.5 46.5t-46.5 14.5q-14 0 -30.5 -5.5t-31.5 -16.5q-5 -14 -6.5 -26t-1.5 -23q0 -32 16.5 -50t45.5 -18q33 0 54.5 22t20.5 56zM687 332q-72 -92 -120 -182t-69 -185l-66 -10q27 93 71.5 177t98.5 150 l-2 2l-164 -8l13 53l234 10z" />
<glyph horiz-adv-x="740" d="M361 345l282 349l35 -27l-295 -345l-299 -379l-33 28zM382 687q-72 -92 -120 -182t-69 -185l-66 -10q27 93 71.5 177t98.5 150l-2 2l-164 -8l13 53l234 10zM591 128q-2 0 -4 2q-13 -11 -32 -17.5t-36 -6.5q-20 0 -38.5 6t-33 18.5t-23.5 31.5t-9 45q0 28 11 52.5t30 42.5 t43.5 28.5t51.5 10.5q58 0 85.5 -33.5t27.5 -84.5q0 -57 -20 -103t-53 -80t-75 -56.5t-87 -31.5l-5 50q66 14 109.5 48t57.5 78zM472 211q0 -33 20 -45.5t45 -12.5q17 0 35 6.5t29 15.5q4 11 6.5 24.5t2.5 25.5q0 30 -16 48.5t-45 18.5q-33 0 -56 -23.5t-21 -57.5z" />
<glyph horiz-adv-x="740" d="M361 345l282 349l35 -27l-295 -345l-299 -379l-33 28zM253 510q32 -23 45.5 -45.5t13.5 -48.5q0 -23 -10.5 -43t-29 -34.5t-43 -22.5t-52.5 -8q-51 0 -80 24t-29 64q0 37 23.5 66.5t69.5 45.5v3q-24 20 -34.5 39.5t-10.5 41.5q0 21 9.5 40t26 33.5t39.5 22.5t49 8 q42 0 70 -20.5t28 -58.5q0 -35 -22.5 -60.5t-62.5 -43.5v-3zM256 414q0 23 -17 41t-43 32q-31 -14 -52 -35.5t-21 -51.5q0 -21 16.5 -34t41.5 -13q32 0 53.5 16.5t21.5 44.5zM173 595q0 -18 11 -32.5t35 -30.5q28 13 46 34t18 46q0 17 -13 28.5t-34 11.5q-32 0 -47.5 -18.5 t-15.5 -38.5zM591 128q-2 0 -4 2q-13 -11 -32 -17.5t-36 -6.5q-20 0 -38.5 6t-33 18.5t-23.5 31.5t-9 45q0 28 11 52.5t30 42.5t43.5 28.5t51.5 10.5q58 0 85.5 -33.5t27.5 -84.5q0 -57 -20 -103t-53 -80t-75 -56.5t-87 -31.5l-5 50q66 14 109.5 48t57.5 78zM472 211 q0 -33 20 -45.5t45 -12.5q17 0 35 6.5t29 15.5q4 11 6.5 24.5t2.5 25.5q0 30 -16 48.5t-45 18.5q-33 0 -56 -23.5t-21 -57.5z" />
<glyph horiz-adv-x="550" d="M148 511q8 45 26 78.5t42 55t51.5 32.5t54.5 11t44 -5t32 -14l-25 -54q-12 7 -25 9.5t-25 2.5q-40 0 -68.5 -30.5t-37.5 -87.5l-11 -62l107 1l-9 -52l-107 -10l-76 -418l-2 -71l-80 -10l89 505l-94 -1l8 45l95 15zM492 452l-64 -362l-5 -85l-80 -10l64 368l4 80zM434 629 q0 23 14.5 37.5t34.5 14.5t34.5 -14.5t14.5 -37.5q0 -20 -14.5 -35.5t-34.5 -15.5t-34.5 15.5t-14.5 35.5z" />
<glyph horiz-adv-x="580" d="M148 511q8 45 26 78.5t42 55t51.5 32.5t54.5 11t44 -5t32 -14l-25 -54q-12 7 -25 9.5t-25 2.5q-40 0 -68.5 -30.5t-37.5 -87.5l-11 -62l107 1l-9 -52l-107 -10l-76 -418l-2 -71l-80 -10l89 505l-94 -1l8 45l95 15zM406 355l37 221l8 104l84 12l-62 -334l-38 -228 q-7 -40 3.5 -60t32.5 -20q11 0 23 5.5t17 10.5l16 -47q-34 -28 -79 -28q-20 0 -38 7t-31 23t-18 40t2 59z" />
<glyph horiz-adv-x="550" d="M148 511q8 45 26 78.5t42 55t51.5 32.5t54.5 11t44 -5t32 -14l-25 -54q-12 7 -25 9.5t-25 2.5q-40 0 -68.5 -30.5t-37.5 -87.5l-11 -62l107 1l-9 -52l-107 -10l-76 -418l-2 -71l-80 -10l89 505l-94 -1l8 45l95 15zM542 691l-66 -348l-42 -246l-6 -92l-83 -10l66 364 l37 225l7 96z" />
<glyph horiz-adv-x="660" d="M622 554q-10 10 -27 22t-39.5 22.5t-50.5 17.5t-61 7q-56 0 -111.5 -22.5t-99.5 -66.5t-71.5 -108t-27.5 -147q0 -105 57.5 -163.5t157.5 -58.5q30 0 58.5 6t54 15.5t48 22t40.5 25.5l32 -57q-48 -37 -111 -59.5t-132 -22.5q-64 0 -116 22.5t-89 61t-57.5 91t-20.5 112.5 q0 98 34.5 175.5t91 131.5t127 83t142.5 29q35 0 66.5 -7t58.5 -18.5t49.5 -26t38.5 -28.5zM427 746l67 124h64v-10l-88 -122h-43v8z" />
<glyph horiz-adv-x="580" d="M133 274q0 -49 15 -89t42 -68.5t65.5 -44t86.5 -15.5q43 0 77 10.5t64 26.5l27 -62q-38 -21 -84 -33t-94 -12q-61 0 -111.5 22.5t-87 60.5t-57 89.5t-20.5 109.5q0 105 36.5 184.5t93.5 133t127 80t138 26.5q52 0 88 -13.5t59 -31.5l-39 -62q-16 13 -43.5 25t-75.5 12 q-45 0 -90.5 -15.5t-85.5 -46t-71.5 -75.5t-46.5 -104l322 10l-19 -67l-315 -10q-1 -10 -1 -20v-21zM381 741l121 124h78l-2 -10l-151 -122h-47z" />
<glyph horiz-adv-x="580" d="M133 274q0 -49 15 -89t42 -68.5t65.5 -44t86.5 -15.5q43 0 77 10.5t64 26.5l27 -62q-38 -21 -84 -33t-94 -12q-61 0 -111.5 22.5t-87 60.5t-57 89.5t-20.5 109.5q0 105 36.5 184.5t93.5 133t127 80t138 26.5q52 0 88 -13.5t59 -31.5l-39 -62q-16 13 -43.5 25t-75.5 12 q-45 0 -90.5 -15.5t-85.5 -46t-71.5 -75.5t-46.5 -104l322 10l-19 -67l-315 -10q-1 -10 -1 -20v-21zM478 733h-47l-108 122l2 10h67l87 -124z" />
<glyph horiz-adv-x="580" d="M133 274q0 -49 15 -89t42 -68.5t65.5 -44t86.5 -15.5q43 0 77 10.5t64 26.5l27 -62q-38 -21 -84 -33t-94 -12q-61 0 -111.5 22.5t-87 60.5t-57 89.5t-20.5 109.5q0 105 36.5 184.5t93.5 133t127 80t138 26.5q52 0 88 -13.5t59 -31.5l-39 -62q-16 13 -43.5 25t-75.5 12 q-45 0 -90.5 -15.5t-85.5 -46t-71.5 -75.5t-46.5 -104l322 10l-19 -67l-315 -10q-1 -10 -1 -20v-21zM569 733h-44l-65 75l-101 -75h-44l1 8l131 124h36l87 -124z" />
<glyph horiz-adv-x="580" d="M133 274q0 -49 15 -89t42 -68.5t65.5 -44t86.5 -15.5q43 0 77 10.5t64 26.5l27 -62q-38 -21 -84 -33t-94 -12q-61 0 -111.5 22.5t-87 60.5t-57 89.5t-20.5 109.5q0 105 36.5 184.5t93.5 133t127 80t138 26.5q52 0 88 -13.5t59 -31.5l-39 -62q-16 13 -43.5 25t-75.5 12 q-45 0 -90.5 -15.5t-85.5 -46t-71.5 -75.5t-46.5 -104l322 10l-19 -67l-315 -10q-1 -10 -1 -20v-21zM567 785q0 -17 -13.5 -30t-30.5 -13t-31 13t-14 30t14 30.5t31 13.5q16 0 30 -13.5t14 -30.5zM406 785q0 -17 -13 -30t-32 -13q-17 0 -31 13t-14 30t14 30.5t31 13.5 q19 0 32 -13.5t13 -30.5z" />
<glyph horiz-adv-x="580" d="M133 274q0 -49 15 -89t42 -68.5t65.5 -44t86.5 -15.5q43 0 77 10.5t64 26.5l27 -62q-38 -21 -84 -33t-94 -12q-61 0 -111.5 22.5t-87 60.5t-57 89.5t-20.5 109.5q0 105 36.5 184.5t93.5 133t127 80t138 26.5q52 0 88 -13.5t59 -31.5l-39 -62q-16 13 -43.5 25t-75.5 12 q-45 0 -90.5 -15.5t-85.5 -46t-71.5 -75.5t-46.5 -104l322 10l-19 -67l-315 -10q-1 -10 -1 -20v-21zM325 761v52h234v-52h-234z" />
<glyph horiz-adv-x="580" d="M133 274q0 -49 15 -89t42 -68.5t65.5 -44t86.5 -15.5q43 0 77 10.5t64 26.5l27 -62q-38 -21 -84 -33t-94 -12q-61 0 -111.5 22.5t-87 60.5t-57 89.5t-20.5 109.5q0 105 36.5 184.5t93.5 133t127 80t138 26.5q52 0 88 -13.5t59 -31.5l-39 -62q-16 13 -43.5 25t-75.5 12 q-45 0 -90.5 -15.5t-85.5 -46t-71.5 -75.5t-46.5 -104l322 10l-19 -67l-315 -10q-1 -10 -1 -20v-21zM336 865h44l65 -75l101 75h44l-1 -8l-131 -124h-36l-87 124z" />
<glyph horiz-adv-x="580" d="M133 274q0 -49 15 -89t42 -68.5t65.5 -44t86.5 -15.5q43 0 77 10.5t64 26.5l27 -62q-38 -21 -84 -33t-94 -12q-61 0 -111.5 22.5t-87 60.5t-57 89.5t-20.5 109.5q0 105 36.5 184.5t93.5 133t127 80t138 26.5q52 0 88 -13.5t59 -31.5l-39 -62q-16 13 -43.5 25t-75.5 12 q-45 0 -90.5 -15.5t-85.5 -46t-71.5 -75.5t-46.5 -104l322 10l-19 -67l-315 -10q-1 -10 -1 -20v-21zM398 804q0 23 14.5 37.5t34.5 14.5t34.5 -14.5t14.5 -37.5q0 -20 -14.5 -35.5t-34.5 -15.5t-34.5 15.5t-14.5 35.5z" />
<glyph horiz-adv-x="580" d="M133 274q0 -49 15 -89t42 -68.5t65.5 -44t86.5 -15.5q43 0 77 10.5t64 26.5l27 -62q-19 -11 -37 -18q-31 -23 -53 -53t-22 -59q0 -46 38 -46q18 0 33 5v-54q-11 -4 -23.5 -5t-26.5 -1t-28.5 4.5t-26 14.5t-19 25.5t-7.5 38.5q0 29 15 57t40 51q-15 -2 -30.5 -3.5 t-30.5 -1.5q-61 0 -111.5 22.5t-87 60.5t-57 89.5t-20.5 109.5q0 105 36.5 184.5t93.5 133t127 80t138 26.5q52 0 88 -13.5t59 -31.5l-39 -62q-16 13 -43.5 25t-75.5 12q-45 0 -90.5 -15.5t-85.5 -46t-71.5 -75.5t-46.5 -104l322 10l-19 -67l-315 -10q-1 -10 -1 -20v-21z " />
<glyph horiz-adv-x="730" d="M133 275q0 -50 15 -90t42 -68.5t65.5 -44t86.5 -15.5q49 0 89.5 17t72.5 48.5t54 76t34 98.5l-233 -11l12 69l308 12q-9 -94 -39.5 -165t-76.5 -119t-104.5 -72t-124.5 -24q-64 0 -115.5 22.5t-87.5 61.5t-55.5 90t-19.5 108q0 92 31.5 170t84.5 134.5t123 88t148 31.5 q91 0 150.5 -41t85.5 -103l-65 -31q-29 59 -76 82t-102 23q-53 0 -107 -23.5t-97.5 -68t-71 -109t-27.5 -147.5zM451 732q-23 0 -42.5 8t-32 24t-17 41t3.5 60h41q-4 -16 -2.5 -31t8.5 -27t18.5 -19t28.5 -7q36 0 66 23t39 61h41q-8 -35 -23.5 -60t-36.5 -41t-45 -24t-47 -8 z" />
<glyph horiz-adv-x="730" d="M133 275q0 -50 15 -90t42 -68.5t65.5 -44t86.5 -15.5q49 0 89.5 17t72.5 48.5t54 76t34 98.5l-233 -11l12 69l308 12q-9 -94 -39.5 -165t-76.5 -119t-104.5 -72t-124.5 -24q-64 0 -115.5 22.5t-87.5 61.5t-55.5 90t-19.5 108q0 92 31.5 170t84.5 134.5t123 88t148 31.5 q91 0 150.5 -41t85.5 -103l-65 -31q-29 59 -76 82t-102 23q-53 0 -107 -23.5t-97.5 -68t-71 -109t-27.5 -147.5zM414 804q0 23 14.5 37.5t34.5 14.5t34.5 -14.5t14.5 -37.5q0 -20 -14.5 -35.5t-34.5 -15.5t-34.5 15.5t-14.5 35.5z" />
<glyph horiz-adv-x="730" d="M133 275q0 -50 15 -90t42 -68.5t65.5 -44t86.5 -15.5q49 0 89.5 17t72.5 48.5t54 76t34 98.5l-233 -11l12 69l308 12q-9 -94 -39.5 -165t-76.5 -119t-104.5 -72t-124.5 -24q-64 0 -115.5 22.5t-87.5 61.5t-55.5 90t-19.5 108q0 92 31.5 170t84.5 134.5t123 88t148 31.5 q91 0 150.5 -41t85.5 -103l-65 -31q-29 59 -76 82t-102 23q-53 0 -107 -23.5t-97.5 -68t-71 -109t-27.5 -147.5zM237 -217v1l38 86l25 68h60v-4l-39 -80l-42 -71h-42z" />
<glyph horiz-adv-x="750" d="M548 144l9 2l78 442l5 87l83 10l-64 -351l-56 -335l-28 -8l-371 544l-8 -2l-75 -427l-8 -101l-84 -10l69 375l52 311l28 8zM412 741l67 124h64v-10l-88 -122h-43v8z" />
<glyph horiz-adv-x="770" d="M724 406q0 -85 -29.5 -161t-81.5 -133.5t-123.5 -91t-155.5 -33.5q-62 0 -113 22t-87.5 60.5t-57 89.5t-20.5 109q0 99 34.5 178t90 134t126 84t142.5 29q53 0 102.5 -20t88 -57t61.5 -90t23 -120zM647 401q-1 50 -16 91t-42 70t-65 45t-86 16q-55 0 -109.5 -24 t-97.5 -68.5t-70 -108.5t-27 -144q0 -46 13.5 -86.5t39.5 -70.5t65.5 -47t91.5 -17q67 0 123.5 28.5t96.5 76.5t62 110t21 129zM431 741l67 124h64v-10l-88 -122h-43v8z" />
<glyph horiz-adv-x="600" d="M314 342q25 -11 48 -34t44 -53t40 -64.5t36 -67t32 -61t28 -46.5v-9l-70 -12q-12 17 -27 49t-34 69t-41 75t-47 68.5t-53.5 49t-58.5 16.5l-57 -5l-42 -244l-2 -68l-80 -10l68 375l38 228l3 77l159 8q87 4 136.5 -39t49.5 -118q0 -76 -44 -119.5t-125 -60.5zM413 518 q0 54 -35.5 78.5t-98.5 20.5l-70 -5l-43 -231l99 8q27 2 53.5 10.5t47.5 24t34 39t13 55.5zM241 741l121 124h78l-2 -10l-151 -122h-47z" />
<glyph horiz-adv-x="600" d="M314 342q25 -11 48 -34t44 -53t40 -64.5t36 -67t32 -61t28 -46.5v-9l-70 -12q-12 17 -27 49t-34 69t-41 75t-47 68.5t-53.5 49t-58.5 16.5l-57 -5l-42 -244l-2 -68l-80 -10l68 375l38 228l3 77l159 8q87 4 136.5 -39t49.5 -118q0 -76 -44 -119.5t-125 -60.5zM413 518 q0 54 -35.5 78.5t-98.5 20.5l-70 -5l-43 -231l99 8q27 2 53.5 10.5t47.5 24t34 39t13 55.5zM196 865h44l65 -75l101 75h44l-1 -8l-131 -124h-36l-87 124z" />
<glyph horiz-adv-x="510" d="M48 126q27 -32 65 -50.5t94 -18.5q36 0 63.5 10.5t46 28t28 40.5t9.5 48q0 36 -19 62.5t-47 48.5t-61 42t-61 44t-47 54t-19 71q0 33 14 66t41 60t67.5 44t93.5 17q63 0 106 -22t66 -46l-41 -60q-25 27 -58 42.5t-75 15.5q-63 0 -100 -30.5t-37 -79.5q0 -31 19 -54.5 t47 -44t61 -42t61 -47t47 -59t19 -79.5q0 -50 -19.5 -87.5t-51.5 -62.5t-73.5 -37.5t-84.5 -12.5q-77 0 -128 24.5t-73 56.5zM302 741l67 124h64v-10l-88 -122h-43v8z" />
<glyph horiz-adv-x="870" d="M460 462l123 225l69 -16l-169 -287l51 -240h8l310 543l70 -16l-401 -684h-20l-68 316l-182 -316h-20l-153 684l70 16l116 -543h8l138 240l-62 287l69 16zM450 741l121 124h78l-2 -10l-151 -122h-47z" />
<glyph horiz-adv-x="870" d="M460 462l123 225l69 -16l-169 -287l51 -240h8l310 543l70 -16l-401 -684h-20l-68 316l-182 -316h-20l-153 684l70 16l116 -543h8l138 240l-62 287l69 16zM638 733h-44l-65 75l-101 -75h-44l1 8l131 124h36l87 -124z" />
<glyph horiz-adv-x="870" d="M460 462l123 225l69 -16l-169 -287l51 -240h8l310 543l70 -16l-401 -684h-20l-68 316l-182 -316h-20l-153 684l70 16l116 -543h8l138 240l-62 287l69 16zM636 785q0 -17 -13.5 -30t-30.5 -13t-31 13t-14 30t14 30.5t31 13.5q16 0 30 -13.5t14 -30.5zM475 785 q0 -17 -13 -30t-32 -13q-17 0 -31 13t-14 30t14 30.5t31 13.5q19 0 32 -13.5t13 -30.5z" />
<glyph horiz-adv-x="870" d="M460 462l123 225l69 -16l-169 -287l51 -240h8l310 543l70 -16l-401 -684h-20l-68 316l-182 -316h-20l-153 684l70 16l116 -543h8l138 240l-62 287l69 16zM547 733h-47l-108 122l2 10h67l87 -124z" />
<glyph horiz-adv-x="590" d="M106 66l399 16l-11 -67l-527 -20l-5 12l526 602l-2 6l-378 -17l11 67l508 20l5 -8l-530 -606zM347 741l67 124h64v-10l-88 -122h-43v8z" />
<glyph horiz-adv-x="480" d="M315 100q-13 -18 -31 -36t-40.5 -33.5t-47.5 -27t-52 -16.5q-24 4 -46.5 16.5t-40.5 33t-28.5 50t-10.5 67.5q0 56 18.5 111t51.5 98.5t77.5 70t96.5 26.5q31 0 55 -11.5t41 -28.5h3l5 27l70 5l-54 -335l-7 -111l-66 -11l10 105h-4zM159 50q17 2 40 13.5t46 29t43.5 39 t31.5 43.5l29 180q-33 45 -89 45q-36 0 -66.5 -20t-53.5 -53t-36 -75.5t-13 -87.5q0 -48 18 -76.5t50 -37.5zM242 514l121 160h75l-1 -10l-149 -158h-47z" />
<glyph horiz-adv-x="480" d="M315 100q-13 -18 -31 -36t-40.5 -33.5t-47.5 -27t-52 -16.5q-24 4 -46.5 16.5t-40.5 33t-28.5 50t-10.5 67.5q0 56 18.5 111t51.5 98.5t77.5 70t96.5 26.5q31 0 55 -11.5t41 -28.5h3l5 27l70 5l-54 -335l-7 -111l-66 -11l10 105h-4zM159 50q17 2 40 13.5t46 29t43.5 39 t31.5 43.5l29 180q-33 45 -89 45q-36 0 -66.5 -20t-53.5 -53t-36 -75.5t-13 -87.5q0 -48 18 -76.5t50 -37.5zM341 506h-45l-95 158l1 10h65l75 -160z" />
<glyph horiz-adv-x="480" d="M315 100q-13 -18 -31 -36t-40.5 -33.5t-47.5 -27t-52 -16.5q-24 4 -46.5 16.5t-40.5 33t-28.5 50t-10.5 67.5q0 56 18.5 111t51.5 98.5t77.5 70t96.5 26.5q31 0 55 -11.5t41 -28.5h3l5 27l70 5l-54 -335l-7 -111l-66 -11l10 105h-4zM159 50q17 2 40 13.5t46 29t43.5 39 t31.5 43.5l29 180q-33 45 -89 45q-36 0 -66.5 -20t-53.5 -53t-36 -75.5t-13 -87.5q0 -48 18 -76.5t50 -37.5zM413 506h-44l-61 102l-105 -102h-44l1 8l137 160h36l81 -160z" />
<glyph horiz-adv-x="480" d="M315 100q-13 -18 -31 -36t-40.5 -33.5t-47.5 -27t-52 -16.5q-24 4 -46.5 16.5t-40.5 33t-28.5 50t-10.5 67.5q0 56 18.5 111t51.5 98.5t77.5 70t96.5 26.5q31 0 55 -11.5t41 -28.5h3l5 27l70 5l-54 -335l-7 -111l-66 -11l10 105h-4zM159 50q17 2 40 13.5t46 29t43.5 39 t31.5 43.5l29 180q-33 45 -89 45q-36 0 -66.5 -20t-53.5 -53t-36 -75.5t-13 -87.5q0 -48 18 -76.5t50 -37.5zM422 560q0 -17 -13.5 -30t-30.5 -13t-31 13t-14 30t14 30.5t31 13.5q16 0 30 -13.5t14 -30.5zM261 560q0 -17 -13 -30t-32 -13q-17 0 -31 13t-14 30t14 30.5 t31 13.5q19 0 32 -13.5t13 -30.5z" />
<glyph horiz-adv-x="480" d="M315 100q-13 -18 -31 -36t-40.5 -33.5t-47.5 -27t-52 -16.5q-24 4 -46.5 16.5t-40.5 33t-28.5 50t-10.5 67.5q0 56 18.5 111t51.5 98.5t77.5 70t96.5 26.5q31 0 55 -11.5t41 -28.5h3l5 27l70 5l-54 -335l-7 -111l-66 -11l10 105h-4zM159 50q17 2 40 13.5t46 29t43.5 39 t31.5 43.5l29 180q-33 45 -89 45q-36 0 -66.5 -20t-53.5 -53t-36 -75.5t-13 -87.5q0 -48 18 -76.5t50 -37.5zM435 640q0 -49 -23 -82.5t-58 -33.5q-20 0 -35 11t-27 24t-23.5 24t-25.5 11q-21 0 -32.5 -19.5t-11.5 -48.5h-41q0 58 25 87t59 29q20 0 35 -11t27.5 -24.5 t24 -24.5t24.5 -11q21 0 30 20.5t9 48.5h43z" />
<glyph horiz-adv-x="480" d="M315 100q-13 -18 -31 -36t-40.5 -33.5t-47.5 -27t-52 -16.5q-24 4 -46.5 16.5t-40.5 33t-28.5 50t-10.5 67.5q0 56 18.5 111t51.5 98.5t77.5 70t96.5 26.5q31 0 55 -11.5t41 -28.5h3l5 27l70 5l-54 -335l-7 -111l-66 -11l10 105h-4zM159 50q17 2 40 13.5t46 29t43.5 39 t31.5 43.5l29 180q-33 45 -89 45q-36 0 -66.5 -20t-53.5 -53t-36 -75.5t-13 -87.5q0 -48 18 -76.5t50 -37.5zM211 596q0 19 7.5 36.5t20 30t29.5 20t37 7.5q19 0 36.5 -7.5t30 -20t20 -30t7.5 -36.5q0 -20 -7.5 -37t-20 -29.5t-30 -20t-36.5 -7.5q-20 0 -37 7.5t-29.5 20 t-20 29.5t-7.5 37zM251 596q0 -26 14.5 -41.5t38.5 -15.5q23 0 38.5 16t15.5 41t-15.5 41.5t-38.5 16.5q-24 0 -38.5 -17t-14.5 -41z" />
<glyph horiz-adv-x="480" d="M315 100q-13 -18 -31 -36t-40.5 -33.5t-47.5 -27t-52 -16.5q-24 4 -46.5 16.5t-40.5 33t-28.5 50t-10.5 67.5q0 56 18.5 111t51.5 98.5t77.5 70t96.5 26.5q31 0 55 -11.5t41 -28.5h3l5 27l70 5l-54 -335l-7 -111l-66 -11l10 105h-4zM159 50q17 2 40 13.5t46 29t43.5 39 t31.5 43.5l29 180q-33 45 -89 45q-36 0 -66.5 -20t-53.5 -53t-36 -75.5t-13 -87.5q0 -48 18 -76.5t50 -37.5zM290 507q-24 0 -44.5 10t-34 30.5t-18 52t3.5 74.5h41q-4 -22 -2.5 -43.5t9 -38t20.5 -26.5t31 -10q38 0 69 32t41 86h41q-8 -42 -24.5 -73.5t-38 -52.5t-46 -31 t-48.5 -10z" />
<glyph horiz-adv-x="480" d="M315 100q-13 -18 -31 -36t-40.5 -33.5t-47.5 -27t-52 -16.5q-24 4 -46.5 16.5t-40.5 33t-28.5 50t-10.5 67.5q0 56 18.5 111t51.5 98.5t77.5 70t96.5 26.5q31 0 55 -11.5t41 -28.5h3l5 27l70 5l-54 -335l-7 -111l-66 -11l10 105h-4zM159 50q17 2 40 13.5t46 29t43.5 39 t31.5 43.5l29 180q-33 45 -89 45q-36 0 -66.5 -20t-53.5 -53t-36 -75.5t-13 -87.5q0 -48 18 -76.5t50 -37.5zM180 536v52h234v-52h-234z" />
</font>
</defs>
</svg>
